<svg width="412" height="110" viewBox="0 0 412 110" fill="none" xmlns="http://www.w3.org/2000/svg">
<path fill-rule="evenodd" clip-rule="evenodd" d="M129.358 37.9134H133.394V20.1324L137.586 32.703H139.71L143.851 20.0789V37.9134H148.045V8.63477H144.116L138.756 24.2679L133.286 8.63477H129.306L129.358 37.9134Z" fill="#050606"/>
<path fill-rule="evenodd" clip-rule="evenodd" d="M197.432 45.5865C197.432 45.5865 193.327 45.5348 191.735 44.3087C190.143 43.0826 180.383 33.1687 180.162 32.7041C180.068 32.477 180.031 32.2301 180.053 31.985C181.257 30.4601 182.133 28.6971 182.624 26.8093C183.115 24.9216 183.211 22.9507 182.904 21.0234C182.598 19.0961 181.897 17.2549 180.846 15.6181C179.795 13.9813 178.417 12.5851 176.801 11.5192C176.725 11.426 176.672 11.3157 176.647 11.1976C176.622 11.0796 176.625 10.9571 176.657 10.8406C176.772 10.4479 180.286 4.78386 180.638 4.23258C180.989 3.68129 182.615 2.99541 182.615 2.99541L182.554 3.02307C182.744 2.91623 182.901 2.76073 183.012 2.5723C183.123 2.38387 183.182 2.16919 183.185 1.94999C183.186 1.7845 183.156 1.62031 183.095 1.46682C183.033 1.31332 182.943 1.17351 182.828 1.05537C182.597 0.816791 182.282 0.68097 181.951 0.677791C181.788 0.676218 181.626 0.707256 181.474 0.769133C181.322 0.831011 181.184 0.922517 181.067 1.03843C180.832 1.27251 180.697 1.59179 180.694 1.92602C180.694 1.92602 180.694 1.99793 180.703 2.0219C180.745 2.32796 180.838 3.34757 180.37 4.23442C179.818 5.28353 176.229 10.2728 175.808 10.4571C175.612 10.5396 175.405 10.5894 175.194 10.6046C172.374 9.243 169.182 8.88654 166.136 9.59319C163.091 10.2998 160.371 12.0281 158.419 14.497C156.467 16.9659 155.398 20.0303 155.385 23.1922C155.371 26.3541 156.415 29.4276 158.347 31.9131C158.376 32.0827 158.54 32.1159 157.175 33.6167C155.647 35.2982 150.057 39.3545 149.638 39.4725C149.255 39.5887 147.524 39.5887 147.524 39.5887C147.224 39.5947 146.932 39.6839 146.678 39.8466C146.425 40.0093 146.22 40.2393 146.087 40.5115C145.954 40.7837 145.897 41.0877 145.923 41.3903C145.949 41.6929 146.056 41.9825 146.233 42.2276C146.411 42.4728 146.651 42.664 146.928 42.7804C147.205 42.8968 147.509 42.934 147.805 42.8879C148.102 42.8419 148.381 42.7143 148.611 42.5191C148.84 42.3239 149.013 42.0686 149.109 41.7809C149.109 41.7809 149.789 39.703 150.225 39.3637C150.66 39.0245 158.423 34.0703 159.037 33.7771C159.335 33.6209 159.682 33.5885 160.003 33.6868C162.462 35.923 165.632 37.193 168.937 37.2664C172.242 37.3398 175.464 36.2117 178.018 34.0869C178.152 34.0177 178.3 33.9784 178.451 33.9714C178.602 33.9644 178.752 33.9899 178.892 34.0463C179.421 34.2454 190.478 43.9271 191.261 44.6295C191.926 45.2251 193.025 48.896 193.346 50.0004C193.466 50.6918 193.775 51.3356 194.236 51.8596C194.698 52.3836 195.295 52.7673 195.959 52.9675C196.624 53.1678 197.331 53.1768 198.001 52.9936C198.671 52.8103 199.277 52.442 199.751 51.9299C200.226 51.4178 200.55 50.7821 200.688 50.0941C200.826 49.406 200.771 48.6927 200.531 48.0341C200.291 47.3754 199.874 46.7974 199.328 46.3648C198.782 45.9322 198.127 45.6621 197.438 45.5846L197.432 45.5865Z" fill="#050606"/>
<path d="M221.303 8.63477H217.109V37.9134H221.303V8.63477Z" fill="#050606"/>
<path fill-rule="evenodd" clip-rule="evenodd" d="M298.49 8.63477H293.66H289.466H284.635V12.8791H289.466V37.9134H293.66V12.8791H298.49V8.63477Z" fill="#050606"/>
<path fill-rule="evenodd" clip-rule="evenodd" d="M272.689 37.9134H276.88L271.05 8.63477H266.797L263.057 27.3838H263.034V27.5332L260.964 37.9134H265.154L266.408 31.6281H271.438L272.689 37.9134ZM267.251 27.3838L268.92 19.0151L270.589 27.3838H267.251Z" fill="#050606"/>
<path fill-rule="evenodd" clip-rule="evenodd" d="M200.452 22.4403C201.248 21.9314 203.041 20.3513 203.041 16.3707C203.041 11.2672 200.064 9.86226 199.59 9.54883C199.117 9.23539 196.675 8.62695 195.557 8.62695H189.716V37.9056H195.555C197.466 37.9056 199.115 37.3064 199.589 36.9838C200.062 36.6611 203.039 35.3004 203.039 29.4097C203.041 25.3626 201.715 23.399 200.452 22.4403ZM195.928 33.8844H193.91L193.857 24.3762H195.987C197.872 24.3762 199.171 25.1137 199.171 29.9628C199.166 33.134 197.384 33.8844 195.927 33.8844H195.928ZM195.876 20.7754H193.857L193.91 12.6629H195.927C197.384 12.6629 199.164 13.4207 199.164 16.5846C199.164 19.7484 197.759 20.7809 195.874 20.7809L195.876 20.7754Z" fill="#050606"/>
<path fill-rule="evenodd" clip-rule="evenodd" d="M246.89 22.8111C245.141 21.6569 241.104 20.2299 241.104 20.2299L241.129 20.2077C240.566 19.9926 240.079 19.6104 239.734 19.111C239.388 18.6117 239.2 18.0185 239.193 17.4089V15.5947C239.193 14.8182 239.497 14.0735 240.04 13.5244C240.583 12.9753 241.318 12.6668 242.086 12.6668C242.853 12.6668 243.589 12.9753 244.132 13.5244C244.674 14.0735 244.979 14.8182 244.979 15.5947V17.125H249.169V15.084C249.169 13.3725 248.497 11.7311 247.302 10.5209C246.106 9.31074 244.484 8.63086 242.793 8.63086H241.317C239.626 8.63086 238.004 9.31074 236.808 10.5209C235.612 11.7311 234.94 13.3725 234.94 15.084V17.4476C234.994 18.0255 235.083 18.5993 235.206 19.166C235.389 19.9035 235.753 21.4596 237.331 22.7115C238.908 23.9634 242.751 25.3923 242.751 25.3923L242.731 25.4163C243.369 25.5629 243.939 25.9246 244.348 26.4422C244.757 26.9597 244.98 27.6024 244.981 28.2649V31.1116C244.981 31.8882 244.676 32.6329 244.133 33.182C243.591 33.731 242.855 34.0395 242.088 34.0395C241.32 34.0395 240.584 33.731 240.042 33.182C239.499 32.6329 239.194 31.8882 239.194 31.1116V29.6901C238.526 29.6901 235.773 29.7233 234.948 29.6901V31.4767C234.948 33.1882 235.62 34.8295 236.815 36.0397C238.011 37.2499 239.633 37.9298 241.324 37.9298H242.811C244.502 37.9298 246.124 37.2499 247.32 36.0397C248.516 34.8295 249.187 33.1882 249.187 31.4767V27.8703C249.187 27.8703 249.064 24.2529 246.89 22.8111Z" fill="#050606"/>
<path d="M38.7495 85.3035V108.075H32.9634L32.0867 103.284C28.9696 107.148 24.8004 109.08 19.5793 109.08C13.7737 109.08 9.05908 107.05 5.43545 102.988C1.81182 98.927 0 93.6629 0 87.1962C0 80.6901 1.90923 75.3866 5.72768 71.2857C9.54613 67.1455 14.4556 65.0753 20.456 65.0753C25.2096 65.0753 29.2228 66.4357 32.4958 69.1564C35.7688 71.8378 37.678 75.3866 38.2235 79.8029H29.3982C28.9696 77.5947 27.9565 75.8795 26.359 74.6571C24.7615 73.4347 22.7549 72.8235 20.3391 72.8235C16.8713 72.8235 14.1439 74.1051 12.1567 76.6681C10.1695 79.1917 9.17597 82.7011 9.17597 87.1962C9.17597 91.7702 10.1695 95.3387 12.1567 97.9018C14.1828 100.425 17.0077 101.687 20.6313 101.687C23.4757 101.687 25.8135 100.82 27.6448 99.0847C29.4761 97.3103 30.4502 95.0036 30.5671 92.1645H21.2742V85.3035H38.7495Z" fill="#050606"/>
<path d="M58.0827 65.9625H78.7724C82.9026 65.9625 86.273 66.9483 88.8836 68.9199C91.4941 70.8914 92.7994 73.8882 92.7994 77.9102C92.7994 80.3549 92.215 82.5039 91.046 84.3572C89.8771 86.171 88.2601 87.4722 86.1951 88.2608C89.7797 89.01 91.8253 92.2828 92.3318 98.0792C92.3318 98.2764 92.3708 98.8875 92.4487 99.9128C92.5267 100.938 92.6046 101.766 92.6825 102.397C92.7604 102.988 92.8579 103.718 92.9747 104.585C93.0916 105.453 93.267 106.182 93.5008 106.774C93.7345 107.365 94.0073 107.799 94.319 108.075H84.8508C84.5391 107.444 84.3053 106.655 84.1495 105.709C83.9936 104.723 83.8572 103.481 83.7403 101.983C83.6234 100.445 83.565 99.5973 83.565 99.4396C83.2533 96.4822 82.513 94.4318 81.3441 93.2883C80.2141 92.1448 78.188 91.5731 75.2657 91.5731H67.1418V108.075H58.0827V65.9625ZM67.1418 73.2376V84.8895H75.7917C78.3244 84.8895 80.292 84.4952 81.6947 83.7065C83.1364 82.8785 83.8572 81.2815 83.8572 78.9157C83.8572 76.7075 83.1559 75.2091 81.7532 74.4205C80.3894 73.6319 78.5387 73.2376 76.2008 73.2376H67.1418Z" fill="#050606"/>
<path d="M142.81 65.9625V73.5333H120.659V82.701H140.998V89.9761H120.659V100.327H143.219V108.075H111.6V65.9625H142.81Z" fill="#050606"/>
<path d="M192.398 65.9625V73.5333H170.247V82.701H190.586V89.9761H170.247V100.327H192.807V108.075H161.188V65.9625H192.398Z" fill="#050606"/>
<path d="M210.775 108.075V65.9625H220.068L237.193 94.1755V65.9625H245.96V108.075H236.842L219.6 79.8029V108.075H210.775Z" fill="#050606"/>
<path d="M265.726 65.9625H285.423C289.319 65.9625 292.495 66.8497 294.949 68.6241C297.443 70.3591 298.69 73.001 298.69 76.5498C298.69 78.5213 298.183 80.276 297.17 81.8138C296.157 83.3122 294.774 84.4557 293.021 85.2444C298.086 86.7033 300.619 90.1338 300.619 95.5359C300.619 99.5184 299.294 102.614 296.644 104.822C293.995 106.991 290.624 108.075 286.533 108.075H265.726V65.9625ZM274.61 73.1193V82.9968H282.909C287.507 82.9968 289.806 81.3604 289.806 78.0876C289.806 76.1555 289.183 74.8542 287.936 74.1839C286.689 73.4742 285.014 73.1193 282.909 73.1193H274.61ZM274.61 89.2663V100.741H283.786C286.163 100.741 288.033 100.346 289.397 99.5579C290.8 98.7692 291.501 97.2511 291.501 95.0036C291.501 92.7166 290.761 91.1985 289.28 90.4493C287.838 89.6606 285.851 89.2663 283.319 89.2663H274.61Z" fill="#050606"/>
<path d="M337.445 64.957C343.524 64.957 348.433 67.0075 352.174 71.1083C355.953 75.1697 357.843 80.4929 357.843 87.0779C357.843 93.6629 355.953 98.9861 352.174 103.048C348.433 107.07 343.504 109.08 337.387 109.08C331.231 109.08 326.263 107.07 322.483 103.048C318.704 98.9861 316.814 93.6629 316.814 87.0779C316.814 80.414 318.684 75.0711 322.425 71.0491C326.204 66.9877 331.211 64.957 337.445 64.957ZM337.328 72.5278C333.9 72.5278 331.153 73.829 329.088 76.4315C327.061 79.034 326.048 82.5236 326.048 86.9005C326.048 91.4351 327.061 94.9839 329.088 97.5469C331.114 100.11 333.9 101.411 337.445 101.451C340.913 101.451 343.641 100.149 345.628 97.5469C347.615 94.9444 348.608 91.3956 348.608 86.9005C348.608 82.4842 347.595 78.9945 345.569 76.4315C343.543 73.829 340.796 72.5278 337.328 72.5278Z" fill="#050606"/>
<path d="M409.82 65.9625L396.436 86.0724L411.047 108.075H400.118L391 93.4658L381.766 108.075H371.362L386.032 86.0724L372.473 65.9625H383.11L391.409 79.5071L399.767 65.9625H409.82Z" fill="#050606"/>
</svg>
