<svg width="485" height="357" viewBox="0 0 485 357" fill="none" xmlns="http://www.w3.org/2000/svg">
<path d="M82.6003 156.545H155.411M82.6003 156.545V229.353M82.6003 156.545V145.789M82.6003 302.162H155.411M82.6003 302.162H73.4989V355.94H147.137M82.6003 302.162V229.353M155.411 302.162V342.703M155.411 302.162V229.353M155.411 156.545V135.033M155.411 156.545V229.353M155.411 135.033H179.405M155.411 135.033H82.6003M179.405 135.033H242.287M179.405 135.033V156.545M179.405 342.703H155.411M179.405 342.703H188.507V355.94M179.405 342.703V302.162M155.411 342.703H147.137V355.94M188.507 355.94H147.137M188.507 355.94H194.298M179.405 302.162H194.298M179.405 302.162V156.545M194.298 302.162V355.94M194.298 302.162V216.943H242.287V355.94H194.298M82.6003 135.033H77.6359V113.522M82.6003 135.033V145.789M82.6003 229.353H155.411M77.6359 113.522H164.512L242.287 84.5641M77.6359 113.522L75.5674 106.903M179.405 156.545H194.298M242.287 156.545H194.298M242.287 70.4988L213.329 81.5891M164.512 100.284L188.507 91.095M164.512 100.284V60.5704M164.512 100.284H119.006M75.5674 106.903L73.4989 100.284H119.006M75.5674 106.903H164.512L242.287 77.9451M194.298 156.545V206.187H242.287M242.287 163.164H236.496V177.229L242.287 182.193M82.6003 145.789H56.951V355.94M49.5045 325.328V278.995M49.5045 197.086V156.545H33.784M49.5045 197.086H12.2717M49.5045 197.086V237.627M33.784 216.943H1.51562M20.5457 237.627H49.5045M49.5045 237.627V259.139M49.5045 259.139H29.647M49.5045 259.139V278.995M49.5045 278.995H20.5457M36.2662 298.852H8.13478M25.5101 320.364H42.8853M164.512 20.8568V60.5704M188.507 29.1305V60.1127M188.507 91.095V60.1127M188.507 91.095L213.329 81.5891M188.507 60.1127H242.287M213.329 11.7558V81.5891M164.512 60.5704H119.833M119.833 60.5704V1M119.833 60.5704L119.197 91.095M119.006 100.284L119.197 91.095M73.4989 37.4042V91.095M73.4989 91.095H119.197M73.4989 91.095H29.647L36.2662 100.284H56.951M232.359 278.995V302.162" stroke="#ACACAC" stroke-width="2" stroke-linecap="round" stroke-linejoin="round"/>
<path d="M401.966 156.545H329.155M401.966 156.545V229.353M401.966 156.545V145.789M401.966 302.162H329.155M401.966 302.162H411.067V355.94H337.429M401.966 302.162V229.353M329.155 302.162V342.703M329.155 302.162V229.353M329.155 156.545V135.033M329.155 156.545V229.353M329.155 135.033H305.161M329.155 135.033H401.966M305.161 135.033H242.279M305.161 135.033V156.545M305.161 342.703H329.155M305.161 342.703H296.06V355.94M305.161 342.703V302.162M329.155 342.703H337.429V355.94M296.06 355.94H337.429M296.06 355.94H290.268M305.161 302.162H290.268M305.161 302.162V156.545M290.268 302.162V355.94M290.268 302.162V216.943H242.279V355.94H290.268M401.966 135.033H406.931V113.522M401.966 135.033V145.789M401.966 229.353H329.155M406.931 113.522H320.054L242.279 84.5641M406.931 113.522L408.999 106.903M305.161 156.545H290.268M242.279 156.545H290.268M242.279 70.4988L271.238 81.5891M320.054 100.284L296.06 91.095M320.054 100.284V60.5704M320.054 100.284H365.561M408.999 106.903L411.067 100.284H365.561M408.999 106.903H320.054L242.279 77.9451M290.268 156.545V206.187H242.279M242.279 163.164H248.071V177.229L242.279 182.193M401.966 145.789H427.615V355.94M435.062 325.328V278.995M435.062 197.086V156.545H450.782M435.062 197.086H472.295M435.062 197.086V237.627M450.782 216.943H483.051M464.021 237.627H435.062M435.062 237.627V259.139M435.062 259.139H454.919M435.062 259.139V278.995M435.062 278.995H464.021M448.3 298.852H476.432M459.056 320.364H441.681M320.054 34.204V60.5704M296.06 19.4916V60.1127M296.06 91.095V60.1127M296.06 91.095L271.238 81.5891M296.06 60.1127H242.279M271.238 34.204V81.5891M320.054 60.5704H364.733M364.733 60.5704V1M364.733 60.5704L365.369 91.095M365.561 100.284L365.369 91.095M411.067 37.4042V91.095M411.067 91.095H365.369M411.067 91.095H454.919L448.3 100.284H427.615M252.208 278.995V302.162" stroke="#ACACAC" stroke-width="2" stroke-linecap="round" stroke-linejoin="round"/>
</svg>
