<svg width="681" height="669" viewBox="0 0 681 669" fill="none" xmlns="http://www.w3.org/2000/svg">
<rect x="87.9609" y="157.536" width="145.957" height="51.5608" rx="25.7804" fill="white" stroke="#ACACAC" stroke-width="2"/>
<rect x="94.3086" y="164.675" width="38.0757" height="37.2824" rx="18.6412" fill="#ACACAC"/>
<rect x="140.316" y="166.261" width="72.1851" height="8.72567" rx="4.36284" fill="#ACACAC"/>
<rect x="140.316" y="179.746" width="72.1851" height="8.72567" rx="4.36284" fill="#ACACAC"/>
<rect x="140.316" y="191.646" width="72.1851" height="8.72567" rx="4.36284" fill="#ACACAC"/>
<path d="M110.97 179.549C110.97 178.271 112.036 177.235 113.35 177.235C114.664 177.235 115.73 178.271 115.73 179.549C115.73 180.827 114.664 181.863 113.35 181.863C112.036 181.863 110.97 180.827 110.97 179.549Z" stroke="white" stroke-width="2" stroke-linejoin="round"/>
<path d="M120.489 179.549C120.489 175.716 117.293 172.608 113.35 172.608C109.407 172.608 106.211 175.716 106.211 179.549C106.211 186.721 113.35 194.819 113.35 194.819C113.35 194.819 120.489 186.953 120.489 179.549Z" stroke="white" stroke-width="2" stroke-linejoin="round"/>
<path d="M455.464 528.979L528.785 564.096L528.039 570.434C527.576 574.367 524.836 577.656 521.052 578.822L312.763 643.002L235.344 605.495C231.511 603.638 229.274 599.557 229.772 595.327L230.448 589.585L261.086 580.205L420.801 531.306L433.723 527.35C440.918 525.147 448.678 525.728 455.464 528.979Z" fill="white"/>
<path d="M230.448 589.585L314.321 629.756M230.448 589.585L261.086 580.205M230.448 589.585L229.772 595.327C229.274 599.557 231.511 603.638 235.344 605.495L312.763 643.002M314.321 629.756L344.959 620.376M314.321 629.756L312.763 643.002M528.785 564.096L455.464 528.979C448.678 525.728 440.918 525.147 433.723 527.35L420.801 531.306M528.785 564.096L502.406 572.172M528.785 564.096L528.039 570.434C527.576 574.367 524.836 577.656 521.052 578.822L312.763 643.002M261.086 580.205L344.959 620.376M261.086 580.205L420.801 531.306M344.959 620.376L502.406 572.172M420.801 531.306L502.406 572.172" stroke="#ACACAC" stroke-width="2" stroke-linecap="round" stroke-linejoin="round"/>
<path d="M294.927 605.123C294.836 605.899 294.12 606.761 292.53 607.383C290.986 607.987 288.85 608.252 286.502 607.976C284.154 607.7 282.138 606.946 280.776 606C279.374 605.026 278.878 604.021 278.969 603.245C279.06 602.469 279.776 601.607 281.366 600.985C282.911 600.381 285.047 600.116 287.395 600.392C289.742 600.668 291.758 601.422 293.12 602.368C294.522 603.342 295.019 604.347 294.927 605.123Z" stroke="#ACACAC" stroke-width="2"/>
<path d="M466.368 542.947C466.047 543.588 466.305 544.369 466.946 544.69L486.086 554.309C486.727 554.631 487.507 554.373 487.829 553.732C488.151 553.092 487.893 552.311 487.252 551.989L468.111 542.37C467.471 542.048 466.69 542.307 466.368 542.947Z" stroke="#ACACAC" stroke-width="2" stroke-linecap="round" stroke-linejoin="round"/>
<path d="M455.916 538.422C455.594 539.063 456.368 538.887 457.009 539.209C458.808 538.482 457.997 538.759 458.294 538.808C458.616 538.167 459.924 538.68 459.283 538.358C458.642 538.036 456.238 537.781 455.916 538.422Z" stroke="#ACACAC" stroke-width="2" stroke-linecap="round" stroke-linejoin="round"/>
<ellipse cx="382.41" cy="575.384" rx="61.4343" ry="22.9792" transform="rotate(-4.94886 382.41 575.384)" fill="#EDEDED"/>
<path d="M334.482 587.344C334.482 587.344 209.386 442.96 158.211 393.345M547.545 438.5L421.447 554.899M414.423 451.545L393.685 587.344M288.993 438.5L352.6 561.988M362.578 393.345L379.686 518.234" stroke="#ACACAC" stroke-width="2" stroke-linecap="round" stroke-linejoin="round"/>
<rect x="408.398" y="108.703" width="187.473" height="66.227" rx="33.1135" fill="white" stroke="#ACACAC" stroke-width="2"/>
<rect x="416.551" y="117.871" width="48.9061" height="47.8872" rx="23.9436" fill="#ACACAC"/>
<rect x="475.648" y="119.91" width="92.7178" height="11.2076" rx="5.60382" fill="#ACACAC"/>
<rect x="475.648" y="137.23" width="92.7178" height="11.2076" rx="5.60382" fill="#ACACAC"/>
<rect x="475.648" y="152.515" width="92.7178" height="11.2076" rx="5.60382" fill="#ACACAC"/>
<path d="M437.945 136.976C437.945 135.335 439.314 134.004 441.002 134.004C442.69 134.004 444.059 135.335 444.059 136.976C444.059 138.617 442.69 139.948 441.002 139.948C439.314 139.948 437.945 138.617 437.945 136.976Z" stroke="white" stroke-width="2" stroke-linejoin="round"/>
<path d="M450.172 136.976C450.172 132.052 446.066 128.061 441.002 128.061C435.938 128.061 431.832 132.052 431.832 136.976C431.832 146.188 441.002 156.589 441.002 156.589C441.002 156.589 450.172 146.485 450.172 136.976Z" stroke="white" stroke-width="2" stroke-linejoin="round"/>
<rect x="260.008" y="72.4773" width="70.7861" height="25.006" rx="12.503" fill="white" stroke="#ACACAC" stroke-width="2"/>
<rect x="263.082" y="75.9387" width="18.4659" height="18.0812" rx="9.04062" fill="#ACACAC"/>
<rect x="285.398" y="76.7081" width="35.0084" height="4.23178" rx="2.11589" fill="#ACACAC"/>
<rect x="285.398" y="83.2477" width="35.0084" height="4.23178" rx="2.11589" fill="#ACACAC"/>
<rect x="285.398" y="89.0193" width="35.0084" height="4.23178" rx="2.11589" fill="#ACACAC"/>
<path d="M271.16 83.1524C271.16 82.5327 271.677 82.0304 272.314 82.0304C272.951 82.0304 273.468 82.5327 273.468 83.1524C273.468 83.7721 272.951 84.2745 272.314 84.2745C271.677 84.2745 271.16 83.7721 271.16 83.1524Z" stroke="white" stroke-linejoin="round"/>
<path d="M275.776 83.1524C275.776 81.2933 274.226 79.7863 272.314 79.7863C270.402 79.7863 268.852 81.2933 268.852 83.1524C268.852 86.6308 272.314 90.5581 272.314 90.5581C272.314 90.5581 275.776 86.743 275.776 83.1524Z" stroke="white" stroke-linejoin="round"/>
<path d="M203.62 190.095H217.275V177.612H230.931V190.095H243.221V161.893H257.331V190.095H271.442V179.924V154.033H298.753V190.095H339.72V177.612H357.016V190.095H368.396V200.267H377.955V211.825H387.969V222.459H402.99L423.473 185.009L442.136 222.459H449.874V200.267L448.527 197.955L436.673 177.612V164.204H449.874V125.368V110.573V102.714V80.984H444.412L453.06 71.275L476.274 1L499.034 71.275L508.137 80.984H502.22V102.714V110.573V125.368V164.204H507.227H514.51V177.612L524.524 195.643H529.758H534.993V216.911L524.524 225.233V234.017V242.801H537.724L548.193 208.589L561.849 242.801H571.408V392.598V408.78H524.524H487.199H442.136H402.99H282.366H274.173H203.62H143.763V392.598V260.832H132.789L190.983 197.955L203.62 198.417V190.095Z" fill="white"/>
<path d="M271.442 190.095L291.925 211.825H298.753V200.96M271.442 190.095V179.924M271.442 190.095H257.331M298.753 190.095V154.033H271.442V179.924M298.753 190.095H339.72M298.753 190.095V200.96M339.72 190.095V177.612H357.016V190.095H368.396V200.267H377.955V211.825H387.969V222.459H402.99M339.72 190.095H348.368L381.824 227.082M402.99 222.459L423.473 185.009M402.99 222.459L398.438 232.63H402.99M402.99 222.459H414.369M423.473 185.009L442.136 222.459M423.473 185.009L414.369 222.459M423.473 185.009L431.666 222.459M442.136 222.459H449.874M442.136 222.459L449.874 232.63H442.136M442.136 222.459H431.666M449.874 222.459V200.267L448.527 197.955M449.874 222.459V235.404M449.874 164.204H436.673V177.612L448.527 197.955M449.874 164.204V125.368M449.874 164.204H502.22M449.874 80.984H444.412L453.06 71.275M449.874 80.984H502.22M449.874 80.984V102.714M453.06 71.275L476.274 1M453.06 71.275H467.171M476.274 1L499.034 71.275M476.274 1L487.199 71.275M476.274 1L467.171 71.275M499.034 71.275L508.137 80.984H502.22M499.034 71.275H487.199M502.22 80.984V102.714M502.22 164.204V125.368M502.22 164.204H507.227M514.51 177.612V164.204H507.227M514.51 177.612L524.524 195.643M514.51 177.612L507.227 164.204M524.524 195.643H519.517V205.815H514.51V195.643H509.958V205.815H505.406V195.643H500.399V205.815H494.937V195.643H489.475C489.626 199.034 489.839 205.815 489.475 205.815C489.11 205.815 486.288 205.815 484.923 205.815V197.955M524.524 195.643V205.815H529.758V195.643M524.524 195.643H529.758M524.524 242.801H537.724M524.524 242.801V408.78M524.524 242.801V234.017M537.724 242.801L548.193 208.589L561.849 242.801M537.724 242.801H561.849M561.849 242.801H571.408V392.598M243.221 190.095H230.931V177.612H217.275V190.095H203.62V198.417M243.221 190.095V202.116H252.78V213.212H261.883M243.221 190.095V161.893H257.331V190.095M243.221 190.095H257.331M286.008 213.212H261.883M261.883 213.212V222.459H274.173V234.479H282.366M282.366 234.479V227.082H316.505M282.366 234.479V240.49M395.252 240.49V227.082H381.824M395.252 240.49L402.99 250.199M395.252 240.49H282.366M402.99 250.199H372.948L365.665 245.113H352.009M402.99 250.199V350.525M402.99 250.199V241.414M402.99 408.78H282.366M402.99 408.78H442.136M402.99 408.78V356.073M282.366 408.78H274.173M282.366 408.78V240.49M203.62 198.417H215.455L264.169 250.199M203.62 198.417L190.983 197.955L132.789 260.832H143.763M274.173 260.832V408.78M274.173 260.832L264.169 250.199M274.173 260.832H203.62H143.763M274.173 408.78H203.62H143.763V392.598M264.169 250.199H322.878L316.505 245.113H334.257M298.753 200.96H291.925L271.442 179.924M308.312 213.212H324.698M316.505 227.082V222.459H330.616L344.271 208.589L358.837 222.459H368.396V227.082M316.505 227.082H334.257M368.396 227.082H352.009M368.396 227.082H381.824M352.009 227.082L344.271 217.373L334.257 227.082M352.009 227.082H334.257M571.408 392.598V408.78H524.524M571.408 392.598H352.009M334.257 245.113V392.598M334.257 245.113H352.009M334.257 392.598H203.62H179.677M334.257 392.598H352.009M352.009 392.598V245.113M402.99 232.63H442.136M402.99 232.63V241.414M442.136 232.63V241.414M442.136 408.78H487.199M442.136 408.78V315.388M414.369 222.459H431.666M487.199 71.275H467.171M449.874 125.368H502.22M449.874 125.368V110.573M502.22 125.368V110.573M502.22 110.573H449.874M502.22 110.573V102.714M449.874 110.573V102.714M449.874 102.714H502.22M507.227 164.204L499.27 177.612M484.923 197.955H487.199L491.751 190.284M484.923 197.955V195.643M484.923 195.643H478.095M484.923 195.643V177.612H478.095V195.643M478.095 195.643V197.955M487.199 408.78H524.524M487.199 408.78L486.545 356.073M524.524 234.017V225.233L534.993 216.911V195.643H529.758M524.524 234.017L449.874 235.404M449.874 235.404V269.617M449.874 269.617H442.136M449.874 269.617V277.014H455.336V269.617H459.888V277.014H466.716V269.617H472.633V277.014H478.095V269.617H485.473M442.136 269.617V315.388M442.136 269.617V241.414M448.527 197.955H455.336V177.612H459.888V197.955H466.716V177.612H472.633V197.955H478.095M478.095 197.955V216.911L484.923 225.233L485.473 269.617M491.751 190.284V177.612H499.27M491.751 190.284L499.27 177.612M402.99 350.525H486.476M402.99 350.525V356.073M486.476 350.525L486.545 356.073M486.476 350.525L486.041 315.388M486.545 356.073H402.99M442.136 315.388H448.527M486.041 315.388H478.095M486.041 315.388L485.473 269.617M448.527 315.388V289.035L464.44 277.014L478.095 289.035V315.388M448.527 315.388H478.095M402.99 241.414H406.631V247.425H410.728V241.414H415.28V247.425H419.832V241.414H423.928V247.425H428.48V241.414H433.032V247.425H438.039V241.414H442.136M143.763 260.832V392.598M143.763 392.598H172.029M179.677 392.598V264.993H172.029V392.598M179.677 392.598H172.029M243.221 264.993C241.764 266.473 242.614 350.68 243.221 392.598H248.228V264.993H243.221ZM410.728 273.315H433.942V327.409H410.728V273.315ZM160.722 250.199L194.974 211.825H208.275L243.572 250.199H160.722Z" stroke="#ACACAC" stroke-width="2" stroke-linecap="round" stroke-linejoin="round"/>
<rect x="293.289" y="276.551" width="16.3866" height="26.8154" fill="white" stroke="#ACACAC" stroke-width="2" stroke-linecap="round" stroke-linejoin="round"/>
<rect x="355.188" y="276.551" width="16.3866" height="26.8154" fill="white" stroke="#ACACAC" stroke-width="2" stroke-linecap="round" stroke-linejoin="round"/>
<rect x="529.078" y="276.551" width="16.3866" height="26.8154" fill="white" stroke="#ACACAC" stroke-width="2" stroke-linecap="round" stroke-linejoin="round"/>
<rect x="225.918" y="276.551" width="16.3866" height="26.8154" fill="white" stroke="#ACACAC" stroke-width="2" stroke-linecap="round" stroke-linejoin="round"/>
<rect x="155.73" y="276.341" width="16.3866" height="26.8154" fill="white" stroke="#ACACAC" stroke-width="2" stroke-linecap="round" stroke-linejoin="round"/>
<rect x="293.289" y="314.462" width="16.3866" height="26.8154" fill="white" stroke="#ACACAC" stroke-width="2" stroke-linecap="round" stroke-linejoin="round"/>
<rect x="355.188" y="314.462" width="16.3866" height="26.8154" fill="white" stroke="#ACACAC" stroke-width="2" stroke-linecap="round" stroke-linejoin="round"/>
<rect x="529.078" y="314.462" width="16.3866" height="26.8154" fill="white" stroke="#ACACAC" stroke-width="2" stroke-linecap="round" stroke-linejoin="round"/>
<rect x="225.918" y="314.462" width="16.3866" height="26.8154" fill="white" stroke="#ACACAC" stroke-width="2" stroke-linecap="round" stroke-linejoin="round"/>
<rect x="155.73" y="314.254" width="16.3866" height="26.8154" fill="white" stroke="#ACACAC" stroke-width="2" stroke-linecap="round" stroke-linejoin="round"/>
<rect x="293.289" y="352.377" width="16.3866" height="26.8154" fill="white" stroke="#ACACAC" stroke-width="2" stroke-linecap="round" stroke-linejoin="round"/>
<rect x="355.188" y="352.377" width="16.3866" height="26.8154" fill="white" stroke="#ACACAC" stroke-width="2" stroke-linecap="round" stroke-linejoin="round"/>
<rect x="529.078" y="352.377" width="16.3866" height="26.8154" fill="white" stroke="#ACACAC" stroke-width="2" stroke-linecap="round" stroke-linejoin="round"/>
<rect x="225.918" y="352.377" width="16.3866" height="26.8154" fill="white" stroke="#ACACAC" stroke-width="2" stroke-linecap="round" stroke-linejoin="round"/>
<rect x="155.73" y="352.166" width="16.3866" height="26.8154" fill="white" stroke="#ACACAC" stroke-width="2" stroke-linecap="round" stroke-linejoin="round"/>
<rect x="314.227" y="276.551" width="16.3866" height="26.8154" fill="white" stroke="#ACACAC" stroke-width="2" stroke-linecap="round" stroke-linejoin="round"/>
<rect x="376.133" y="276.551" width="16.3866" height="26.8154" fill="white" stroke="#ACACAC" stroke-width="2" stroke-linecap="round" stroke-linejoin="round"/>
<rect x="550.012" y="276.551" width="16.3866" height="26.8154" fill="white" stroke="#ACACAC" stroke-width="2" stroke-linecap="round" stroke-linejoin="round"/>
<rect x="248.68" y="276.551" width="16.3866" height="26.8154" fill="white" stroke="#ACACAC" stroke-width="2" stroke-linecap="round" stroke-linejoin="round"/>
<rect x="179.828" y="276.341" width="16.3866" height="26.8154" fill="white" stroke="#ACACAC" stroke-width="2" stroke-linecap="round" stroke-linejoin="round"/>
<rect x="492.656" y="246.964" width="8.19329" height="24.0414" fill="white" stroke="#ACACAC" stroke-width="2" stroke-linecap="round" stroke-linejoin="round"/>
<rect x="492.656" y="282.101" width="8.19329" height="24.0414" fill="white" stroke="#ACACAC" stroke-width="2" stroke-linecap="round" stroke-linejoin="round"/>
<rect x="492.656" y="319.086" width="8.19329" height="24.0414" fill="white" stroke="#ACACAC" stroke-width="2" stroke-linecap="round" stroke-linejoin="round"/>
<rect x="463.527" y="133.228" width="8.19329" height="24.0414" fill="white" stroke="#ACACAC" stroke-width="2" stroke-linecap="round" stroke-linejoin="round"/>
<rect x="510.867" y="246.964" width="8.19329" height="24.0414" fill="white" stroke="#ACACAC" stroke-width="2" stroke-linecap="round" stroke-linejoin="round"/>
<rect x="510.867" y="282.101" width="8.19329" height="24.0414" fill="white" stroke="#ACACAC" stroke-width="2" stroke-linecap="round" stroke-linejoin="round"/>
<rect x="510.867" y="319.086" width="8.19329" height="24.0414" fill="white" stroke="#ACACAC" stroke-width="2" stroke-linecap="round" stroke-linejoin="round"/>
<rect x="481.734" y="133.228" width="8.19329" height="24.0414" fill="white" stroke="#ACACAC" stroke-width="2" stroke-linecap="round" stroke-linejoin="round"/>
<rect x="314.227" y="314.462" width="16.3866" height="26.8154" fill="white" stroke="#ACACAC" stroke-width="2" stroke-linecap="round" stroke-linejoin="round"/>
<rect x="376.133" y="314.462" width="16.3866" height="26.8154" fill="white" stroke="#ACACAC" stroke-width="2" stroke-linecap="round" stroke-linejoin="round"/>
<rect x="550.012" y="314.462" width="16.3866" height="26.8154" fill="white" stroke="#ACACAC" stroke-width="2" stroke-linecap="round" stroke-linejoin="round"/>
<rect x="248.68" y="314.462" width="16.3866" height="26.8154" fill="white" stroke="#ACACAC" stroke-width="2" stroke-linecap="round" stroke-linejoin="round"/>
<rect x="179.828" y="314.254" width="16.3866" height="26.8154" fill="white" stroke="#ACACAC" stroke-width="2" stroke-linecap="round" stroke-linejoin="round"/>
<rect x="314.227" y="352.377" width="16.3866" height="26.8154" fill="white" stroke="#ACACAC" stroke-width="2" stroke-linecap="round" stroke-linejoin="round"/>
<rect x="376.133" y="352.377" width="16.3866" height="26.8154" fill="white" stroke="#ACACAC" stroke-width="2" stroke-linecap="round" stroke-linejoin="round"/>
<rect x="550.012" y="352.377" width="16.3866" height="26.8154" fill="white" stroke="#ACACAC" stroke-width="2" stroke-linecap="round" stroke-linejoin="round"/>
<rect x="248.68" y="352.377" width="16.3866" height="26.8154" fill="white" stroke="#ACACAC" stroke-width="2" stroke-linecap="round" stroke-linejoin="round"/>
<rect x="179.828" y="352.166" width="16.3866" height="26.8154" fill="white" stroke="#ACACAC" stroke-width="2" stroke-linecap="round" stroke-linejoin="round"/>
<rect x="402.379" y="352.204" width="277.073" height="97.879" rx="48.9395" fill="white" stroke="#ACACAC" stroke-width="2"/>
<rect x="414.422" y="365.757" width="72.2799" height="70.774" rx="35.387" fill="#ACACAC"/>
<rect x="501.766" y="368.768" width="137.031" height="16.5641" rx="8.28207" fill="#ACACAC"/>
<rect x="501.766" y="394.367" width="137.031" height="16.5641" rx="8.28207" fill="#ACACAC"/>
<rect x="501.766" y="416.955" width="137.031" height="16.5641" rx="8.28207" fill="#ACACAC"/>
<path d="M446.047 393.992C446.047 391.566 448.069 389.6 450.564 389.6C453.059 389.6 455.082 391.566 455.082 393.992C455.082 396.417 453.059 398.384 450.564 398.384C448.069 398.384 446.047 396.417 446.047 393.992Z" stroke="white" stroke-width="2" stroke-linejoin="round"/>
<path d="M464.117 393.992C464.117 386.715 458.049 380.816 450.564 380.816C443.079 380.816 437.012 386.715 437.012 393.992C437.012 407.607 450.564 422.979 450.564 422.979C450.564 422.979 464.117 408.046 464.117 393.992Z" stroke="white" stroke-width="2" stroke-linejoin="round"/>
<rect x="1" y="303.37" width="187.309" height="66.1688" rx="33.0844" fill="white" stroke="#ACACAC" stroke-width="2"/>
<rect x="9.14062" y="312.531" width="48.8631" height="47.8452" rx="23.9226" fill="#ACACAC"/>
<rect x="68.1914" y="314.567" width="92.6364" height="11.1978" rx="5.5989" fill="#ACACAC"/>
<rect x="68.1914" y="331.873" width="92.6364" height="11.1978" rx="5.5989" fill="#ACACAC"/>
<rect x="68.1914" y="347.143" width="92.6364" height="11.1978" rx="5.5989" fill="#ACACAC"/>
<path d="M30.5259 331.618C30.5259 329.978 31.8932 328.649 33.5798 328.649C35.2665 328.649 36.6338 329.978 36.6338 331.618C36.6338 333.257 35.2665 334.587 33.5798 334.587C31.8932 334.587 30.5259 333.257 30.5259 331.618Z" stroke="white" stroke-width="2" stroke-linejoin="round"/>
<path d="M42.7416 331.618C42.7416 326.698 38.6398 322.71 33.5798 322.71C28.5199 322.71 24.418 326.698 24.418 331.618C24.418 340.822 33.5798 351.214 33.5798 351.214C33.5798 351.214 42.7416 341.119 42.7416 331.618Z" stroke="white" stroke-width="2" stroke-linejoin="round"/>
</svg>
