<svg width="219" height="259" viewBox="0 0 219 259" fill="none" xmlns="http://www.w3.org/2000/svg">
<path d="M25.5644 169.766V199.285H18.7924V191.441H12.5282L7.27992 199.285H0.042323L6.2218 190.387C4.21841 189.572 2.68059 188.349 1.60835 186.718C0.536118 185.06 0 183.078 0 180.772C0 178.495 0.522008 176.541 1.56603 174.911C2.61005 173.252 4.09143 171.987 6.01017 171.115C7.92891 170.216 10.1862 169.766 12.7822 169.766H25.5644ZM12.9515 175.332C11.0045 175.332 9.50905 175.782 8.46503 176.682C7.44922 177.581 6.94132 178.917 6.94132 180.688C6.94132 182.403 7.43512 183.724 8.4227 184.652C9.41029 185.58 10.8635 186.044 12.7822 186.044H18.7924V175.332H12.9515Z" fill="#262626"/>
<path d="M59.2373 187.477C60.5917 187.899 61.6358 188.546 62.3694 189.417C63.1312 190.289 63.5122 191.329 63.5122 192.538C63.5122 193.972 63.0184 195.237 62.0308 196.333C61.0432 197.401 59.6888 198.231 57.9676 198.821C56.2464 199.411 54.2994 199.707 52.1267 199.707C50.3491 199.707 48.5996 199.524 46.8784 199.158C45.1572 198.793 43.5629 198.245 42.0957 197.514L43.8733 192.917C46.2717 194.07 48.9241 194.646 51.8304 194.646C53.3824 194.646 54.5957 194.421 55.4704 193.972C56.3733 193.494 56.8248 192.833 56.8248 191.99C56.8248 191.259 56.5144 190.71 55.8936 190.345C55.2729 189.951 54.3699 189.755 53.1848 189.755H48.5291V185.664H52.5923C53.7492 185.664 54.638 185.481 55.2588 185.116C55.8795 184.75 56.1899 184.216 56.1899 183.513C56.1899 182.782 55.7949 182.22 55.0048 181.827C54.243 181.433 53.1425 181.236 51.7035 181.236C49.5026 181.236 47.1041 181.756 44.5082 182.796L42.8998 178.242C46.0601 176.865 49.1357 176.176 52.1267 176.176C54.1865 176.176 56.0206 176.429 57.629 176.935C59.2656 177.441 60.5494 178.186 61.4806 179.17C62.4117 180.126 62.8773 181.25 62.8773 182.543C62.8773 183.612 62.5528 184.582 61.9038 185.453C61.2548 186.297 60.366 186.971 59.2373 187.477Z" fill="#262626"/>
<path d="M93.8371 193.887V204.177H87.7V199.285H71.7011V204.177H65.564V193.887H66.4951C67.9059 193.859 68.8794 193.03 69.4155 191.399C69.9517 189.769 70.2903 187.449 70.4313 184.441L70.7276 176.597H90.5781V193.887H93.8371ZM76.3992 184.905C76.3145 187.21 76.1311 189.094 75.849 190.556C75.595 192.018 75.1012 193.128 74.3676 193.887H83.9754V181.995H76.5262L76.3992 184.905Z" fill="#262626"/>
<path d="M120.128 188.026C120.128 188.11 120.086 188.7 120.001 189.797H102.775C103.085 191.202 103.819 192.313 104.976 193.128C106.133 193.943 107.572 194.351 109.293 194.351C110.478 194.351 111.522 194.182 112.425 193.845C113.356 193.48 114.217 192.917 115.007 192.158L118.52 195.954C116.375 198.399 113.243 199.622 109.124 199.622C106.556 199.622 104.285 199.13 102.309 198.146C100.334 197.134 98.8106 195.743 97.7383 193.972C96.6661 192.2 96.13 190.19 96.13 187.941C96.13 185.72 96.652 183.724 97.696 181.953C98.7682 180.154 100.221 178.762 102.056 177.778C103.918 176.766 105.992 176.26 108.277 176.26C110.506 176.26 112.524 176.738 114.33 177.694C116.136 178.65 117.546 180.027 118.562 181.827C119.606 183.598 120.128 185.664 120.128 188.026ZM108.32 181.236C106.824 181.236 105.568 181.658 104.553 182.501C103.537 183.345 102.916 184.497 102.69 185.959H113.907C113.681 184.525 113.06 183.387 112.044 182.543C111.028 181.672 109.787 181.236 108.32 181.236Z" fill="#262626"/>
<path d="M136.025 199.622C133.598 199.622 131.411 199.13 129.464 198.146C127.546 197.134 126.036 195.743 124.936 193.972C123.863 192.2 123.327 190.19 123.327 187.941C123.327 185.692 123.863 183.682 124.936 181.911C126.036 180.14 127.546 178.762 129.464 177.778C131.411 176.766 133.598 176.26 136.025 176.26C138.423 176.26 140.511 176.766 142.289 177.778C144.095 178.762 145.407 180.182 146.225 182.037L141.104 184.778C139.919 182.698 138.212 181.658 135.982 181.658C134.261 181.658 132.836 182.22 131.708 183.345C130.579 184.469 130.015 186.001 130.015 187.941C130.015 189.881 130.579 191.413 131.708 192.538C132.836 193.662 134.261 194.225 135.982 194.225C138.24 194.225 139.947 193.184 141.104 191.104L146.225 193.887C145.407 195.686 144.095 197.092 142.289 198.104C140.511 199.116 138.423 199.622 136.025 199.622Z" fill="#262626"/>
<path d="M162.554 183.851C165.517 183.879 167.788 184.554 169.368 185.875C170.948 187.168 171.739 189.01 171.739 191.399C171.739 193.901 170.85 195.855 169.072 197.261C167.323 198.638 164.854 199.327 161.665 199.327L150.237 199.285V176.597H156.798V183.851H162.554ZM161.073 194.646C162.342 194.674 163.316 194.407 163.993 193.845C164.67 193.283 165.009 192.439 165.009 191.315C165.009 190.218 164.67 189.417 163.993 188.911C163.344 188.405 162.371 188.138 161.073 188.11L156.798 188.068V194.646H161.073Z" fill="#262626"/>
<path d="M178.234 184.483C177.077 184.483 176.104 184.09 175.314 183.302C174.524 182.515 174.129 181.531 174.129 180.351C174.129 179.142 174.524 178.172 175.314 177.441C176.104 176.682 177.077 176.302 178.234 176.302C179.391 176.302 180.364 176.682 181.155 177.441C181.945 178.172 182.34 179.142 182.34 180.351C182.34 181.531 181.945 182.515 181.155 183.302C180.364 184.09 179.391 184.483 178.234 184.483ZM178.234 199.622C177.077 199.622 176.104 199.229 175.314 198.442C174.524 197.654 174.129 196.67 174.129 195.49C174.129 194.281 174.524 193.311 175.314 192.58C176.104 191.821 177.077 191.441 178.234 191.441C179.391 191.441 180.364 191.821 181.155 192.58C181.945 193.311 182.34 194.281 182.34 195.49C182.34 196.67 181.945 197.654 181.155 198.442C180.364 199.229 179.391 199.622 178.234 199.622Z" fill="#262626"/>
<path d="M26.9611 250.712L26.9188 233.043L18.1998 247.591H15.1524L6.43342 233.38V250.712H0V221.193H5.67157L16.7608 239.537L27.6806 221.193H33.3522L33.3945 250.712H26.9611Z" fill="#262626"/>
<path d="M49.0925 227.687C52.6196 227.687 55.3284 228.53 57.219 230.217C59.1095 231.876 60.0547 234.392 60.0547 237.766V250.712H53.8753V247.887C52.6337 249.995 50.32 251.049 46.9339 251.049C45.1845 251.049 43.6608 250.754 42.3628 250.164C41.0931 249.573 40.1196 248.758 39.4424 247.718C38.7652 246.678 38.4266 245.497 38.4266 244.176C38.4266 242.067 39.2167 240.408 40.7968 239.199C42.4052 237.991 44.8741 237.386 48.2037 237.386H53.452C53.452 235.952 53.0147 234.856 52.1399 234.097C51.2652 233.31 49.9531 232.916 48.2037 232.916C46.9904 232.916 45.7912 233.113 44.6061 233.507C43.4492 233.872 42.4616 234.378 41.6433 235.025L39.2731 230.428C40.5146 229.557 41.996 228.882 43.7172 228.404C45.4667 227.926 47.2584 227.687 49.0925 227.687ZM48.5846 246.621C49.7133 246.621 50.715 246.368 51.5897 245.862C52.4644 245.328 53.0852 244.555 53.452 243.543V241.224H48.9232C46.2144 241.224 44.86 242.109 44.86 243.88C44.86 244.724 45.1845 245.399 45.8335 245.905C46.5107 246.382 47.4277 246.621 48.5846 246.621Z" fill="#262626"/>
<path d="M79.2075 227.687C81.3238 227.687 83.2425 228.179 84.9637 229.163C86.7132 230.119 88.0817 231.482 89.0693 233.254C90.0569 234.997 90.5506 237.035 90.5506 239.368C90.5506 241.702 90.0569 243.754 89.0693 245.525C88.0817 247.268 86.7132 248.632 84.9637 249.616C83.2425 250.571 81.3238 251.049 79.2075 251.049C76.3012 251.049 74.0156 250.136 72.3508 248.308V258.893H65.7481V228.024H72.0546V230.639C73.6911 228.671 76.0755 227.687 79.2075 227.687ZM78.0648 245.652C79.7578 245.652 81.1404 245.089 82.2126 243.965C83.3131 242.812 83.8633 241.28 83.8633 239.368C83.8633 237.456 83.3131 235.938 82.2126 234.814C81.1404 233.661 79.7578 233.085 78.0648 233.085C76.3717 233.085 74.975 233.661 73.8746 234.814C72.8023 235.938 72.2662 237.456 72.2662 239.368C72.2662 241.28 72.8023 242.812 73.8746 243.965C74.975 245.089 76.3717 245.652 78.0648 245.652Z" fill="#262626"/>
<path d="M95.1783 228.024H101.739V241.519L112.828 228.024H118.88V250.712H112.32V237.218L101.273 250.712H95.1783V228.024Z" fill="#262626"/>
<path d="M125.228 228.024H131.788V241.519L142.877 228.024H148.93V250.712H142.369V237.218L131.322 250.712H125.228V228.024ZM136.655 225.579C131.689 225.579 129.192 223.4 129.164 219.042H133.481C133.509 220.026 133.777 220.799 134.285 221.362C134.821 221.896 135.597 222.163 136.613 222.163C137.629 222.163 138.405 221.896 138.941 221.362C139.505 220.799 139.787 220.026 139.787 219.042H144.189C144.161 223.4 141.65 225.579 136.655 225.579Z" fill="#262626"/>
<path d="M177.252 220.687C180.187 220.687 182.811 221.347 185.125 222.669C187.467 223.962 189.301 225.775 190.627 228.109C191.953 230.414 192.616 233.029 192.616 235.952C192.616 238.876 191.953 241.505 190.627 243.838C189.301 246.144 187.467 247.957 185.125 249.278C182.811 250.571 180.187 251.218 177.252 251.218C174.628 251.218 172.258 250.768 170.141 249.869C168.053 248.969 166.304 247.662 164.893 245.947L169.253 241.898C171.341 244.232 173.894 245.399 176.913 245.399C179.086 245.399 180.92 244.766 182.416 243.501C183.939 242.236 184.927 240.535 185.378 238.398H173.358V233.169H185.294C184.814 231.145 183.827 229.528 182.331 228.32C180.836 227.111 179.03 226.506 176.913 226.506C173.894 226.506 171.341 227.673 169.253 230.006L164.893 225.958C166.304 224.243 168.053 222.936 170.141 222.036C172.258 221.137 174.628 220.687 177.252 220.687Z" fill="#262626"/>
<path d="M218.574 228.024V250.712H211.971V233.422H204.776L204.564 237.428C204.451 240.408 204.169 242.882 203.717 244.85C203.266 246.818 202.532 248.364 201.517 249.489C200.501 250.614 199.09 251.176 197.284 251.176C196.325 251.176 195.182 251.007 193.856 250.67L194.194 245.272C194.646 245.328 194.97 245.356 195.168 245.356C196.155 245.356 196.889 245.005 197.369 244.302C197.877 243.571 198.215 242.657 198.385 241.561C198.554 240.436 198.681 238.961 198.765 237.133L199.104 228.024H218.574Z" fill="#262626"/>
<path d="M95.5737 30.4768C94.6503 29.5627 93.1532 29.5627 92.2299 30.4768L82.1984 40.4072C81.275 41.3213 81.275 42.8033 82.1984 43.7173L92.2299 53.6477C93.1532 54.5618 94.6503 54.5618 95.5737 53.6477L105.605 43.7173C106.529 42.8033 106.529 41.3213 105.605 40.4072L95.5737 30.4768Z" fill="#AC0C0C"/>
<path d="M126.504 61.0956C125.581 60.1815 124.084 60.1815 123.16 61.0956L113.129 71.026C112.205 71.94 112.205 73.422 113.129 74.3361L123.16 84.2665C124.084 85.1806 125.581 85.1806 126.504 84.2665L136.536 74.3361C137.459 73.422 137.459 71.94 136.536 71.026L126.504 61.0956Z" fill="#AC0C0C"/>
<path d="M95.5737 91.7143C94.6503 90.8003 93.1532 90.8003 92.2299 91.7143L82.1984 101.645C81.275 102.559 81.275 104.041 82.1984 104.955L92.2299 114.885C93.1532 115.799 94.6503 115.799 95.5737 114.885L105.605 104.955C106.529 104.041 106.529 102.559 105.605 101.645L95.5737 91.7143Z" fill="#AC0C0C"/>
<path d="M61.2994 61.0956C62.2228 60.1815 63.7199 60.1815 64.6433 61.0956L74.6748 71.026C75.5981 71.94 75.5981 73.422 74.6748 74.3361L64.6433 84.2665C63.7199 85.1806 62.2228 85.1806 61.2994 84.2665L51.268 74.3361C50.3446 73.422 50.3446 71.94 51.268 71.026L61.2994 61.0956Z" fill="#AC0C0C"/>
<path fill-rule="evenodd" clip-rule="evenodd" d="M95.5737 17.2362L149.911 71.0259C150.834 71.94 150.834 73.422 149.911 74.3361L118.984 104.951L118.981 104.955L95.5737 128.126C94.6503 129.04 93.1533 129.04 92.2299 128.126L37.8927 74.3361C36.9693 73.422 36.9693 71.94 37.8927 71.0259L92.2299 17.2362C93.1533 16.3221 94.6503 16.3221 95.5737 17.2362ZM93.9018 61.9231L113.965 42.0622L93.9018 22.2014L73.8388 42.0622L93.9018 61.9231ZM95.5737 66.8883L117.309 45.3724L121.488 49.5101L99.7535 71.0259C98.8301 71.94 98.8301 73.422 99.7535 74.3361L121.488 95.852L117.309 99.9896L95.5737 78.4738C94.6503 77.5597 93.1533 77.5597 92.2299 78.4738L70.495 99.9896L66.3152 95.852L88.0501 74.3361C88.9735 73.422 88.9735 71.94 88.0501 71.0259L66.3152 49.5101L70.495 45.3724L92.2299 66.8883C93.1533 67.8023 94.6503 67.8023 95.5737 66.8883ZM104.769 72.681L124.832 52.8202L144.895 72.681L124.832 92.5418L104.769 72.681ZM93.9018 83.439L113.965 103.3L93.9018 123.161L73.8388 103.3L93.9018 83.439ZM83.0343 72.681L62.9714 92.5418L42.9084 72.681L62.9714 52.8202L83.0343 72.681Z" fill="#AC0C0C"/>
<path fill-rule="evenodd" clip-rule="evenodd" d="M92.2299 0.685552C93.1533 -0.228517 94.6503 -0.228517 95.5737 0.685552L151.165 55.7166L172.9 34.2007C173.823 33.2866 175.32 33.2866 176.244 34.2007C177.167 35.1147 177.167 36.5967 176.244 37.5108L154.509 59.0267L156.599 61.0955L178.333 39.5797C179.257 38.6656 180.754 38.6656 181.677 39.5797C182.601 40.4937 182.601 41.9757 181.677 42.8898L159.942 64.4057L162.032 66.4745L183.767 44.9586C184.691 44.0446 186.188 44.0446 187.111 44.9586C188.034 45.8727 188.034 47.3547 187.111 48.2688L165.376 69.7846L166.63 71.026C167.553 71.94 167.553 73.422 166.63 74.3361L165.376 75.5774L187.111 97.0933C188.034 98.0074 188.034 99.4893 187.111 100.403C186.188 101.317 184.691 101.317 183.767 100.403L162.032 78.8875L159.942 80.9564L181.677 102.472C182.601 103.386 182.601 104.868 181.677 105.782C180.754 106.696 179.257 106.696 178.333 105.782L156.599 84.2665L154.509 86.3353L176.244 107.851C177.167 108.765 177.167 110.247 176.244 111.161C175.32 112.075 173.823 112.075 172.9 111.161L151.165 89.6455L95.5737 144.677C94.6503 145.591 93.1533 145.591 92.2299 144.677L36.6387 89.6455L14.9038 111.161C13.9804 112.075 12.4834 112.075 11.56 111.161C10.6366 110.247 10.6366 108.765 11.56 107.851L33.2949 86.3353L31.205 84.2665L9.47009 105.782C8.54671 106.696 7.04963 106.696 6.12626 105.782C5.20289 104.868 5.20289 103.386 6.12626 102.472L27.8612 80.9564L25.7713 78.8875L4.03637 100.403C3.11299 101.317 1.61591 101.317 0.692539 100.403C-0.230834 99.4893 -0.230836 98.0074 0.692537 97.0933L22.4274 75.5774L21.1735 74.3361C20.2501 73.422 20.2501 71.94 21.1735 71.026L22.4274 69.7847L0.69253 48.2688C-0.230843 47.3547 -0.230843 45.8727 0.69253 44.9586C1.6159 44.0446 3.11299 44.0446 4.03636 44.9586L25.7713 66.4745L27.8612 64.4057L6.12625 42.8898C5.20288 41.9757 5.20288 40.4937 6.12625 39.5797C7.04963 38.6656 8.54671 38.6656 9.47008 39.5797L31.205 61.0956L33.2949 59.0267L11.56 37.5108C10.6366 36.5967 10.6366 35.1147 11.56 34.2007C12.4833 33.2866 13.9804 33.2866 14.9038 34.2007L36.6387 55.7166L92.2299 0.685552ZM93.9018 5.65076L161.614 72.681L160.367 73.9156L160.36 73.9223L160.354 73.9291L154.933 79.2951L154.927 79.3013L154.92 79.3075L149.5 84.6729L149.493 84.6803L149.486 84.6876L93.9018 139.711L26.1893 72.681L93.9018 5.65076Z" fill="#AC0C0C"/>
</svg>
