<svg width="148" height="177" viewBox="0 0 148 177" fill="none" xmlns="http://www.w3.org/2000/svg">
<path d="M29.3101 115.951V135.939H24.7246V130.628H20.4831L16.9294 135.939H12.0287L16.2129 129.914C14.8564 129.362 13.8151 128.534 13.089 127.43C12.363 126.307 12 124.965 12 123.404C12 121.862 12.3535 120.539 13.0604 119.435C13.7673 118.312 14.7704 117.455 16.0696 116.865C17.3688 116.256 18.8973 115.951 20.655 115.951H29.3101ZM20.7697 119.721C19.4514 119.721 18.4387 120.025 17.7318 120.634C17.044 121.243 16.7001 122.148 16.7001 123.347C16.7001 124.508 17.0344 125.403 17.7032 126.031C18.3719 126.659 19.3558 126.973 20.655 126.973H24.7246V119.721H20.7697Z" fill="#262626"/>
<path d="M52.1106 127.944C53.0277 128.23 53.7346 128.668 54.2314 129.258C54.7473 129.848 55.0052 130.552 55.0052 131.371C55.0052 132.341 54.6709 133.198 54.0021 133.941C53.3334 134.664 52.4163 135.225 51.2509 135.625C50.0854 136.025 48.7671 136.225 47.2959 136.225C46.0922 136.225 44.9076 136.101 43.7422 135.854C42.5767 135.606 41.4972 135.235 40.5037 134.74L41.7074 131.628C43.3314 132.408 45.1274 132.798 47.0953 132.798C48.1461 132.798 48.9677 132.646 49.56 132.341C50.1714 132.018 50.4771 131.571 50.4771 130.999C50.4771 130.505 50.2669 130.133 49.8466 129.886C49.4262 129.619 48.8148 129.486 48.0124 129.486H44.8599V126.716H47.6112C48.3945 126.716 48.9963 126.593 49.4167 126.345C49.837 126.098 50.0472 125.736 50.0472 125.26C50.0472 124.765 49.7797 124.384 49.2447 124.118C48.7289 123.851 47.9837 123.718 47.0093 123.718C45.519 123.718 43.895 124.07 42.1373 124.775L41.0482 121.691C43.1881 120.758 45.2707 120.292 47.2959 120.292C48.6906 120.292 49.9325 120.463 51.0216 120.806C52.1297 121.148 52.9991 121.653 53.6296 122.319C54.2601 122.966 54.5753 123.728 54.5753 124.603C54.5753 125.327 54.3556 125.983 53.9162 126.574C53.4767 127.145 52.8749 127.602 52.1106 127.944Z" fill="#262626"/>
<path d="M75.5388 132.284V139.252H71.3832V135.939H60.5501V139.252H56.3945V132.284H57.025C57.9803 132.265 58.6395 131.704 59.0025 130.6C59.3655 129.496 59.5948 127.925 59.6903 125.888L59.8909 120.577H73.332V132.284H75.5388ZM63.7312 126.202C63.6739 127.763 63.5497 129.039 63.3587 130.029C63.1867 131.018 62.8524 131.77 62.3556 132.284H68.8612V124.232H63.8172L63.7312 126.202Z" fill="#262626"/>
<path d="M93.341 128.315C93.341 128.372 93.3123 128.772 93.255 129.515H81.5908C81.8009 130.466 82.2977 131.218 83.081 131.77C83.8644 132.322 84.8388 132.598 86.0043 132.598C86.8067 132.598 87.5136 132.484 88.125 132.256C88.7555 132.008 89.3383 131.628 89.8732 131.114L92.2519 133.684C90.7999 135.34 88.6791 136.168 85.8896 136.168C84.151 136.168 82.6129 135.835 81.2755 135.168C79.9381 134.483 78.9064 133.541 78.1803 132.341C77.4543 131.142 77.0913 129.781 77.0913 128.258C77.0913 126.754 77.4448 125.403 78.1517 124.204C78.8777 122.985 79.8617 122.043 81.1036 121.377C82.3646 120.691 83.7689 120.349 85.3164 120.349C86.8258 120.349 88.1919 120.672 89.4147 121.32C90.6375 121.967 91.5928 122.9 92.2806 124.118C92.9875 125.317 93.341 126.716 93.341 128.315ZM85.3451 123.718C84.3325 123.718 83.4823 124.004 82.7944 124.575C82.1066 125.146 81.6863 125.926 81.5334 126.916H89.1281C88.9753 125.945 88.5549 125.174 87.8671 124.603C87.1793 124.013 86.3386 123.718 85.3451 123.718Z" fill="#262626"/>
<path d="M104.105 136.168C102.462 136.168 100.981 135.835 99.6626 135.168C98.3634 134.483 97.3412 133.541 96.596 132.341C95.87 131.142 95.507 129.781 95.507 128.258C95.507 126.735 95.87 125.374 96.596 124.175C97.3412 122.976 98.3634 122.043 99.6626 121.377C100.981 120.691 102.462 120.349 104.105 120.349C105.729 120.349 107.143 120.691 108.346 121.377C109.569 122.043 110.457 123.004 111.012 124.261L107.544 126.117C106.741 124.708 105.585 124.004 104.076 124.004C102.911 124.004 101.946 124.384 101.181 125.146C100.417 125.907 100.035 126.945 100.035 128.258C100.035 129.572 100.417 130.609 101.181 131.371C101.946 132.132 102.911 132.513 104.076 132.513C105.605 132.513 106.76 131.808 107.544 130.4L111.012 132.284C110.457 133.503 109.569 134.454 108.346 135.14C107.143 135.825 105.729 136.168 104.105 136.168Z" fill="#262626"/>
<path d="M122.068 125.488C124.074 125.508 125.612 125.964 126.682 126.859C127.752 127.735 128.287 128.982 128.287 130.6C128.287 132.294 127.685 133.617 126.482 134.569C125.297 135.501 123.625 135.968 121.466 135.968L113.728 135.939V120.577H118.171V125.488H122.068ZM121.065 132.798C121.925 132.817 122.584 132.637 123.043 132.256C123.501 131.875 123.73 131.304 123.73 130.543C123.73 129.8 123.501 129.258 123.043 128.915C122.603 128.572 121.944 128.392 121.065 128.372L118.171 128.344V132.798H121.065Z" fill="#262626"/>
<path d="M132.685 125.917C131.902 125.917 131.243 125.65 130.708 125.117C130.173 124.584 129.906 123.918 129.906 123.119C129.906 122.3 130.173 121.643 130.708 121.148C131.243 120.634 131.902 120.377 132.685 120.377C133.469 120.377 134.128 120.634 134.663 121.148C135.198 121.643 135.465 122.3 135.465 123.119C135.465 123.918 135.198 124.584 134.663 125.117C134.128 125.65 133.469 125.917 132.685 125.917ZM132.685 136.168C131.902 136.168 131.243 135.901 130.708 135.368C130.173 134.835 129.906 134.169 129.906 133.369C129.906 132.551 130.173 131.894 130.708 131.399C131.243 130.885 131.902 130.628 132.685 130.628C133.469 130.628 134.128 130.885 134.663 131.399C135.198 131.894 135.465 132.551 135.465 133.369C135.465 134.169 135.198 134.835 134.663 135.368C134.128 135.901 133.469 136.168 132.685 136.168Z" fill="#262626"/>
<path d="M18.2558 170.761L18.2272 158.797L12.3234 168.648H10.26L4.35618 159.026V170.761H0V150.774H3.84032L11.349 163.195L18.743 150.774H22.5834L22.612 170.761H18.2558Z" fill="#262626"/>
<path d="M33.2414 155.171C35.6297 155.171 37.4638 155.742 38.744 156.884C40.0241 158.007 40.6641 159.711 40.6641 161.995V170.761H36.4799V168.848C35.6392 170.276 34.0725 170.99 31.7798 170.99C30.5952 170.99 29.5635 170.79 28.6846 170.39C27.8248 169.99 27.1657 169.438 26.7071 168.734C26.2486 168.03 26.0193 167.23 26.0193 166.336C26.0193 164.908 26.5543 163.785 27.6242 162.966C28.7133 162.148 30.3851 161.738 32.6396 161.738H36.1933C36.1933 160.767 35.8972 160.025 35.3049 159.511C34.7126 158.978 33.8241 158.712 32.6396 158.712C31.818 158.712 31.006 158.845 30.2035 159.111C29.4202 159.359 28.7515 159.701 28.1974 160.139L26.5925 157.027C27.4332 156.437 28.4362 155.98 29.6017 155.656C30.7863 155.333 31.9995 155.171 33.2414 155.171ZM32.8975 167.992C33.6617 167.992 34.34 167.82 34.9323 167.478C35.5246 167.116 35.9449 166.593 36.1933 165.907V164.337H33.1268C31.2926 164.337 30.3755 164.936 30.3755 166.136C30.3755 166.707 30.5952 167.164 31.0347 167.506C31.4932 167.83 32.1142 167.992 32.8975 167.992Z" fill="#262626"/>
<path d="M53.6328 155.171C55.0658 155.171 56.365 155.504 57.5304 156.17C58.715 156.817 59.6417 157.741 60.3104 158.94C60.9791 160.12 61.3134 161.5 61.3134 163.08C61.3134 164.66 60.9791 166.05 60.3104 167.249C59.6417 168.43 58.715 169.353 57.5304 170.019C56.365 170.666 55.0658 170.99 53.6328 170.99C51.6649 170.99 50.1173 170.371 48.99 169.134V176.301H44.5192V155.399H48.7894V157.17C49.8976 155.837 51.512 155.171 53.6328 155.171ZM52.859 167.335C54.0054 167.335 54.9416 166.954 55.6676 166.193C56.4127 165.412 56.7853 164.375 56.7853 163.08C56.7853 161.786 56.4127 160.758 55.6676 159.997C54.9416 159.216 54.0054 158.826 52.859 158.826C51.7126 158.826 50.7669 159.216 50.0218 159.997C49.2957 160.758 48.9327 161.786 48.9327 163.08C48.9327 164.375 49.2957 165.412 50.0218 166.193C50.7669 166.954 51.7126 167.335 52.859 167.335Z" fill="#262626"/>
<path d="M64.4469 155.399H68.8891V164.537L76.3977 155.399H80.496V170.761H76.0538V161.624L68.5738 170.761H64.4469V155.399Z" fill="#262626"/>
<path d="M84.7937 155.399H89.2359V164.537L96.7446 155.399H100.843V170.761H96.4007V161.624L88.9206 170.761H84.7937V155.399ZM92.5317 153.743C89.169 153.743 87.4781 152.268 87.459 149.317H90.3823C90.4014 149.984 90.5829 150.507 90.9268 150.888C91.2898 151.249 91.8152 151.43 92.503 151.43C93.1909 151.43 93.7163 151.249 94.0793 150.888C94.4614 150.507 94.6525 149.984 94.6525 149.317H97.633C97.6139 152.268 95.9135 153.743 92.5317 153.743Z" fill="#262626"/>
<path d="M120.02 150.431C122.007 150.431 123.784 150.878 125.351 151.773C126.937 152.649 128.179 153.876 129.077 155.456C129.975 157.017 130.424 158.788 130.424 160.767C130.424 162.747 129.975 164.527 129.077 166.107C128.179 167.668 126.937 168.896 125.351 169.791C123.784 170.666 122.007 171.104 120.02 171.104C118.244 171.104 116.639 170.799 115.206 170.19C113.792 169.581 112.607 168.696 111.652 167.535L114.604 164.794C116.018 166.374 117.747 167.164 119.791 167.164C121.262 167.164 122.504 166.735 123.517 165.879C124.549 165.022 125.217 163.87 125.523 162.424H117.384V158.883H125.466C125.141 157.512 124.472 156.418 123.46 155.599C122.447 154.781 121.224 154.371 119.791 154.371C117.747 154.371 116.018 155.161 114.604 156.741L111.652 154C112.607 152.839 113.792 151.954 115.206 151.345C116.639 150.735 118.244 150.431 120.02 150.431Z" fill="#262626"/>
<path d="M148 155.399V170.761H143.529V159.054H138.657L138.514 161.767C138.437 163.785 138.246 165.46 137.941 166.792C137.635 168.125 137.138 169.172 136.45 169.933C135.763 170.695 134.807 171.076 133.584 171.076C132.935 171.076 132.161 170.961 131.263 170.733L131.492 167.078C131.798 167.116 132.018 167.135 132.152 167.135C132.82 167.135 133.317 166.897 133.642 166.421C133.986 165.926 134.215 165.308 134.33 164.565C134.444 163.804 134.53 162.804 134.588 161.567L134.817 155.399H148Z" fill="#262626"/>
<path d="M75.7246 20.6364C75.0959 20.0174 74.0765 20.0174 73.4478 20.6364L66.6173 27.3604C65.9886 27.9793 65.9886 28.9828 66.6173 29.6018L73.4478 36.3258C74.0765 36.9448 75.0959 36.9448 75.7246 36.3258L82.555 29.6018C83.1838 28.9828 83.1838 27.9793 82.555 27.3604L75.7246 20.6364Z" fill="#AC0C0C"/>
<path d="M96.7851 41.3689C96.1564 40.7499 95.137 40.7499 94.5083 41.3689L87.6779 48.0929C87.0491 48.7119 87.0491 49.7153 87.6779 50.3343L94.5083 57.0583C95.137 57.6773 96.1564 57.6773 96.7851 57.0583L103.616 50.3343C104.244 49.7153 104.244 48.7119 103.616 48.0929L96.7851 41.3689Z" fill="#AC0C0C"/>
<path d="M75.7246 62.1014C75.0959 61.4824 74.0765 61.4824 73.4478 62.1014L66.6173 68.8254C65.9886 69.4444 65.9886 70.4478 66.6173 71.0668L73.4478 77.7908C74.0765 78.4098 75.0959 78.4098 75.7246 77.7908L82.555 71.0668C83.1838 70.4478 83.1838 69.4444 82.555 68.8254L75.7246 62.1014Z" fill="#AC0C0C"/>
<path d="M52.3872 41.3689C53.016 40.7499 54.0353 40.7499 54.6641 41.3689L61.4945 48.0929C62.1232 48.7118 62.1232 49.7153 61.4945 50.3343L54.6641 57.0583C54.0353 57.6773 53.016 57.6773 52.3872 57.0583L45.5568 50.3343C44.9281 49.7153 44.9281 48.7118 45.5568 48.0929L52.3872 41.3689Z" fill="#AC0C0C"/>
<path fill-rule="evenodd" clip-rule="evenodd" d="M75.7246 11.6709L112.723 48.0929C113.352 48.7118 113.352 49.7153 112.723 50.3343L91.6647 71.0643L91.6623 71.0668L75.7246 86.7562C75.0959 87.3752 74.0765 87.3752 73.4478 86.7562L36.4496 50.3343C35.8208 49.7153 35.8208 48.7118 36.4496 48.0929L73.4478 11.6709C74.0765 11.052 75.0959 11.052 75.7246 11.6709ZM74.5862 41.9292L88.2471 28.4811L74.5862 15.033L60.9253 28.4811L74.5862 41.9292ZM75.7246 45.2912L90.5239 30.7224L93.3699 33.5241L78.5706 48.0929C77.9419 48.7118 77.9419 49.7153 78.5706 50.3343L93.3699 64.903L90.5239 67.7047L75.7246 53.136C75.0959 52.517 74.0765 52.517 73.4478 53.136L58.6485 67.7047L55.8025 64.903L70.6018 50.3343C71.2305 49.7153 71.2305 48.7118 70.6018 48.0929L55.8025 33.5241L58.6485 30.7224L73.4478 45.2912C74.0765 45.9101 75.0959 45.9101 75.7246 45.2912ZM81.9858 49.2136L95.6467 35.7655L109.308 49.2136L95.6467 62.6617L81.9858 49.2136ZM74.5862 56.498L88.2471 69.9461L74.5862 83.3942L60.9253 69.9461L74.5862 56.498ZM67.1865 49.2136L53.5257 62.6617L39.8648 49.2136L53.5257 35.7655L67.1865 49.2136Z" fill="#AC0C0C"/>
<path fill-rule="evenodd" clip-rule="evenodd" d="M73.4478 0.464199C74.0765 -0.154733 75.0959 -0.154733 75.7246 0.464199L113.577 37.7267L128.376 23.1579C129.005 22.5389 130.024 22.5389 130.653 23.1579C131.281 23.7768 131.281 24.7803 130.653 25.3992L115.853 39.968L117.276 41.3689L132.076 26.8001C132.704 26.1811 133.724 26.1811 134.353 26.8001C134.981 27.419 134.981 28.4225 134.353 29.0414L119.553 43.6102L120.976 45.0111L135.776 30.4423C136.404 29.8233 137.424 29.8233 138.052 30.4423C138.681 31.0612 138.681 32.0647 138.052 32.6836L123.253 47.2524L124.107 48.0929C124.736 48.7118 124.736 49.7153 124.107 50.3343L123.253 51.1748L138.052 65.7436C138.681 66.3625 138.681 67.366 138.052 67.9849C137.424 68.6038 136.404 68.6038 135.776 67.9849L120.976 53.4161L119.553 54.817L134.353 69.3857C134.981 70.0047 134.981 71.0082 134.353 71.6271C133.724 72.246 132.704 72.246 132.076 71.6271L117.276 57.0583L115.853 58.4592L130.653 73.0279C131.281 73.6469 131.281 74.6504 130.653 75.2693C130.024 75.8882 129.005 75.8882 128.376 75.2693L113.577 60.7005L75.7246 97.963C75.0959 98.5819 74.0765 98.5819 73.4478 97.963L35.5957 60.7005L20.7964 75.2693C20.1677 75.8882 19.1484 75.8882 18.5196 75.2693C17.8909 74.6504 17.8909 73.6469 18.5196 73.0279L33.3189 58.4592L31.8959 57.0583L17.0966 71.6271C16.4679 72.246 15.4485 72.246 14.8198 71.6271C14.1911 71.0082 14.1911 70.0047 14.8198 69.3858L29.6191 54.817L28.1961 53.4161L13.3968 67.9849C12.7681 68.6038 11.7487 68.6038 11.12 67.9849C10.4913 67.366 10.4913 66.3625 11.12 65.7436L25.9193 51.1748L25.0655 50.3343C24.4368 49.7153 24.4368 48.7118 25.0655 48.0929L25.9193 47.2524L11.12 32.6836C10.4913 32.0647 10.4913 31.0612 11.12 30.4423C11.7487 29.8233 12.7681 29.8233 13.3968 30.4423L28.1961 45.0111L29.6191 43.6102L14.8198 29.0414C14.1911 28.4225 14.1911 27.419 14.8198 26.8001C15.4485 26.1811 16.4679 26.1811 17.0966 26.8001L31.8959 41.3689L33.3189 39.968L18.5196 25.3992C17.8909 24.7803 17.8909 23.7768 18.5196 23.1579C19.1484 22.5389 20.1677 22.5389 20.7964 23.1579L35.5957 37.7267L73.4478 0.464199ZM74.5862 3.82623L120.692 49.2136L119.842 50.0495L119.838 50.0541L119.833 50.0587L116.142 53.6921L116.138 53.6963L116.134 53.7005L112.443 57.3335L112.438 57.3385L112.433 57.3435L74.5862 94.601L28.4807 49.2136L74.5862 3.82623Z" fill="#AC0C0C"/>
</svg>
