<svg width="768" height="688" viewBox="0 0 768 688" fill="none" xmlns="http://www.w3.org/2000/svg">
<g clip-path="url(#clip0)">
<path d="M-521.465 -191.005L-506.901 -181.867L-504.695 -211.894L-471.153 -209.718L-461.443 -206.672L-456.147 -208.412L-446.879 -205.801L-447.32 -195.357H-438.052L-435.845 -205.366L-428.784 -203.625H-416.868L-415.102 -208.412L-407.158 -211.894L-400.097 -208.412L-397.007 -224.079L-398.773 -227.56H-383.326V-217.116L-388.181 -211.894L-357.728 -206.236L-354.639 -199.709L-346.253 -208.412L-338.75 -210.588L-339.633 -213.634L-331.689 -217.116L-327.276 -213.634L-331.689 -203.625L-327.276 -199.709L-321.98 -208.412H-305.209L-301.237 -202.32L-288.438 -200.579L-281.376 -206.236L-268.136 -197.098L-255.337 -180.561L-265.047 -178.385L-263.723 -157.497L-269.901 -149.664L-254.896 -135.738L-242.98 -149.664L-229.298 -138.784H-222.678L-221.795 -144.006L-212.527 -154.886L-201.935 -162.719L-197.522 -160.543L-188.695 -171.858L-180.751 -177.08L-177.22 -174.904L-174.572 -178.385L-162.214 -169.682L-152.946 -179.691L-150.298 -187.959L-144.561 -191.44L-145.443 -202.32H-126.024L-121.611 -217.986L-108.371 -234.523L-99.9853 -231.477L-93.3652 -237.569L-97.7786 -243.662L-75.2702 -243.226L-82.773 -255.411L-75.2702 -261.504L-57.6166 -244.967L-56.2926 -235.828L-43.0524 -233.217L-36.8736 -222.338H-32.9016V-233.217L-23.6334 -234.523L-22.3094 -217.986L-10.8345 -227.56L-9.95184 -241.921L-2.89038 -243.226H1.08167V-238.004H8.14313L9.90851 -243.226L18.7353 -241.921L20.5007 -234.523L35.0649 -238.004L34.1822 -245.837L40.361 -251.059L53.6012 -248.013L55.3666 -262.809L45.2157 -266.291L39.4783 -272.818L31.0928 -274.994L30.2101 -279.346H50.5118L62.428 -293.271L54.4839 -309.808L61.104 -312.419L70.8135 -308.938L76.1096 -320.252L83.6124 -324.169L85.819 -328.521L99.942 -332.002L102.59 -324.169L98.6179 -315.901L102.59 -310.679L106.121 -312.419H116.272L114.065 -305.456L118.478 -302.41L151.579 -326.345L155.109 -337.659H159.964L171.88 -325.039L185.562 -324.169L193.065 -334.178L216.456 -333.743L218.663 -337.659L227.931 -332.872L231.02 -335.048L236.758 -330.697L231.461 -318.947L236.758 -316.771L250.439 -304.151L242.495 -293.707L249.115 -288.92L257.942 -288.049L262.797 -291.096L273.389 -288.049L286.629 -313.29L282.657 -319.817L286.629 -324.169V-331.567L282.657 -335.484L292.808 -338.965L297.662 -343.317V-352.02L302.517 -355.502L300.752 -358.983L289.718 -356.372L286.629 -395.103L293.69 -405.547H310.903L325.908 -421.213L327.232 -415.556L341.797 -426L340.031 -411.639L351.947 -402.501L351.506 -392.056H343.562V-379.436L341.797 -375.955V-352.02L336.5 -344.187L329.439 -343.317L328.115 -337.659L336.5 -318.076L338.707 -325.039L349.741 -328.086L347.093 -318.076L338.707 -313.29V-308.067L349.741 -307.197L351.947 -300.669L343.562 -298.929L353.271 -277.605H358.126L363.422 -261.939L367.836 -259.763L371.366 -261.939L380.193 -259.763L386.813 -253.671H397.405L401.819 -249.319H412.411L413.735 -257.587L404.467 -263.68L409.322 -266.291L415.059 -264.55L418.148 -267.596H423.444L425.21 -271.513L441.098 -270.207L452.573 -274.559L459.193 -273.689L463.606 -284.133L473.316 -279.346V-270.642H478.612L482.143 -279.346L490.97 -274.559L487.439 -264.115L494.059 -251.93L492.735 -238.439L501.562 -236.264L510.389 -217.986L503.327 -209.718L496.266 -204.496V-199.274L500.238 -198.403L502.444 -197.098H508.182V-188.829L500.238 -184.042L511.713 -177.95L522.746 -181.431H543.489L557.171 -176.209L562.467 -175.339L568.646 -165.33L588.506 -170.987V-163.154L595.126 -161.849L599.981 -150.534L596.009 -147.923L595.126 -132.692L611.897 -130.951L609.249 -100.489L602.629 -93.9612L601.305 -76.119L597.333 -61.323H589.83V-57.8416L595.126 -56.1009L594.685 -49.1381L604.835 -43.916V-36.0829L597.333 -37.3884L596.009 -30.4256L609.69 -26.0738H632.199L641.025 -20.4165L635.729 -13.8889L638.819 -7.36127L613.662 14.3975L603.511 15.703L602.629 21.7955L596.009 23.5362L591.595 32.2397L589.389 49.2115L565.997 62.2668L560.701 45.295L574.824 41.8135L580.562 27.4528L562.908 26.1472L554.964 35.7211L558.053 41.8135L552.757 51.3874H549.227L541.282 63.5723L510.389 47.0356V43.9894L525.835 27.4528V21.7955L511.271 5.694L504.21 6.99951L494.942 15.703L490.087 16.5734L481.26 9.17538L471.992 15.703L469.785 22.6658H455.221L454.78 28.7583L459.193 33.9804L460.076 46.1653L454.78 47.0356L449.925 61.8316H442.864L437.567 66.6185L428.299 63.1371L424.769 65.313L417.266 55.304L421.679 38.3322L416.824 40.0728L415.5 50.9522H408.439L406.232 70.9703L409.322 75.7572L404.908 95.7753L400.053 103.173L393.875 94.905H386.372V102.303L388.137 104.479L384.165 114.923L374.456 105.784L365.188 103.173L349.741 80.9793L337.383 82.2849V93.1642L344.003 94.0346L340.473 100.127L337.383 97.0808L333.852 99.2567L327.232 100.127L325.467 93.1642H321.495L318.847 104.479L312.227 110.136L310.903 104.479L302.517 107.96L298.987 116.229L302.517 120.145L295.014 125.367L295.897 135.811L274.713 141.034L263.679 151.043L268.093 166.709L288.836 169.755L295.456 163.227L306.931 178.023L302.517 186.292L297.662 187.162L290.601 178.894L282.216 183.246L280.892 200.217L274.713 201.088L270.741 214.578H257.5L250.439 223.717L242.936 225.022L241.612 234.161L238.523 236.337L239.406 248.957L234.992 257.661L219.987 255.485L211.16 266.799V256.79L205.422 255.485L207.188 248.957L205.422 248.087L197.037 254.179L203.216 259.836L202.333 265.494H195.271L188.651 272.021H197.037L203.216 281.595L201.892 305.095L193.506 311.622L192.182 316.844L180.707 315.104L160.847 314.233L147.607 321.196L126.864 322.502L114.948 332.946L106.121 353.834L113.182 363.408L111.417 370.371L127.305 375.593L93.3218 372.982L78.7576 361.232L70.3721 359.927L62.8693 353.834L59.3386 345.566L62.8693 338.603V332.511L44.333 321.196L12.1152 314.669L9.46716 310.317L5.05371 313.363L-11.7172 298.132L-5.09711 288.123L-17.4547 277.679H-27.6055V263.753L-31.1362 244.17L-27.6055 239.818L-32.0189 227.633L-47.4658 217.189L-94.6892 215.449L-108.371 207.18V216.319L-126.907 211.532L-123.376 206.31L-128.672 205.44L-137.499 211.532H-148.974L-152.505 201.523H-178.103L-175.455 167.579H-189.136L-186.488 117.969L-228.857 113.617L-230.181 121.451L-256.22 119.71L-257.544 138.422H-274.756L-286.672 140.163L-306.091 151.913L-307.857 157.57L-321.097 165.839H-328.6L-332.572 169.32L-339.633 159.746L-340.075 167.144L-344.488 166.709V157.57L-347.136 154.959L-341.399 137.117L-347.136 131.024L-339.633 124.932L-344.488 121.451L-351.991 120.58L-361.7 117.534L-364.348 107.96L-362.583 104.479L-363.466 97.516L-371.41 84.0255L-379.354 80.109L-386.415 70.9703L-400.538 68.3593L-408.924 72.711L-415.102 65.313L-417.75 64.0075V71.8406L-411.13 77.0627L-427.019 89.6829L-431.873 93.5994L-430.549 105.349L-421.723 107.96L-416.868 123.191L-417.75 126.673L-400.097 159.746H-391.711L-389.505 164.968L-379.354 169.32L-372.292 175.412L-371.41 181.94L-362.583 178.459L-359.493 185.421L-366.114 190.644L-374.94 206.745L-403.628 232.42L-417.309 216.319H-423.929L-443.79 226.328L-445.555 220.671L-464.091 226.328L-472.477 218.495L-481.303 226.328L-479.979 229.809L-512.197 251.133L-515.728 248.087L-525.879 248.957L-527.644 254.179L-533.823 254.614L-542.65 269.41L-551.918 266.799L-555.89 276.373L-556.773 266.799L-551.918 259.401L-555.007 257.661L-560.745 263.318L-572.22 265.494L-571.778 257.661L-562.951 248.087L-565.6 246.781L-574.426 251.133L-582.37 243.735L-580.605 235.902L-583.253 218.495L-565.6 209.356L-570.454 195.866L-575.309 194.56L-585.901 201.523L-598.259 193.69L-607.968 196.736L-618.119 168.885L-625.622 165.839V160.181L-633.566 159.311L-638.421 148.432L-619.884 150.172L-618.119 121.015H-608.851L-610.616 100.562L-605.761 62.702L-622.974 61.8316L-627.387 57.4799L-668.873 68.3593L-664.46 53.1281L-668.873 47.906L-692.706 47.0356L-705.504 21.7955L-705.946 13.5271L-699.767 12.2216L-699.326 6.12915L-707.27 -3.87988L-705.504 -8.23163L-709.035 -11.713L-695.354 -34.7773L-680.348 -37.3884L-673.287 -33.0366L-671.08 -42.6105H-629.153L-628.711 -54.7954L-608.41 -56.5361L-619.884 -70.8969L-623.415 -70.0265L-628.711 -76.5542L-622.532 -81.3411L-626.504 -83.0818L-633.125 -78.73L-638.421 -84.3873L-631.359 -91.7853V-97.4426L-636.655 -98.3129L-634.89 -102.665L-629.153 -101.794L-625.622 -95.7019H-619.443L-615.03 -165.765H-606.203L-603.555 -172.293L-570.896 -167.941L-553.683 -178.385H-535.588L-521.465 -191.005Z" stroke="#C2C1C1" stroke-width="2" stroke-linecap="round" stroke-linejoin="round"/>
<path d="M-21.8645 -219.292L-12.155 -175.339L-32.4567 -144.006L-43.4902 -98.3128L-32.4567 -88.7389M-32.4567 -88.7389L-13.479 -70.0264L-7.72826 -61.3229M-32.4567 -88.7389L-38.1941 -71.3319M-50.993 7.86996L-47.2416 -5.40289M-50.993 216.319V203.699L-32.4567 209.791C-19.3636 205.585 7.44049 197.084 9.912 196.736C12.3835 196.388 29.1839 209.646 37.2751 216.319L74.789 218.93L92.0013 311.187L113.627 336.427M-47.2416 -5.40289L-43.4902 -18.6757V-29.9903M-47.2416 -5.40289L-32.4567 -8.6667L1.52653 -25.6385L5.49859 -41.3048L-7.72826 -61.3229M-47.2416 -5.40289L-65.9986 -12.5833L-98.2164 -49.5732M-98.2164 -49.5732L-155.591 -36.9531L-195.311 -35.2124M-98.2164 -49.5732L-70.8533 -45.439M-214.73 -26.9441L-286.669 22.2307M-334.775 69.6648L-380.674 65.7483L-413.775 27.4528L-427.898 36.5915L-449.523 57.4799L-432.752 92.7291M-7.72826 -61.3229L39.9232 -79.6003M459.638 -133.127L429.185 -141.83H351.951L344.007 -171.422L303.403 -180.126C285.308 -164.459 249.119 -131.995 249.119 -127.47C249.119 -122.944 215.871 -129.355 199.247 -133.127L171.884 -115.285L118.482 -98.3128L83.1745 -103.1L54.4874 -85.2575M532.018 -66.9802L556.292 -60.4526L581.007 -34.342C583.36 -26.9441 589.833 -12.1481 596.895 -12.1481C603.956 -12.1481 625.729 -12.1481 635.733 -12.1481M-52.7583 80.9794L-50.993 105.349L-54.5127 119.71" stroke="#C2C1C1" stroke-width="2" stroke-linecap="round" stroke-linejoin="round" stroke-dasharray="4 4"/>
<path d="M152.667 175.671H147.564V183.221H145.012V175.671H134.805L142.46 166.862H137.356L143.736 158.053H139.908L145.012 150.503H142.46L146.288 144.211L150.115 150.503H147.564L152.667 158.053H148.84L154.9 165.573M152.986 170.217L150.115 166.862H154.9M195.453 131.826C195.453 128.808 196.408 123.776 198.32 123.776C200.231 123.776 202.143 127.801 202.143 131.826C205.01 131.826 205.01 138.87 205.01 141.888M195.453 131.826C191.629 131.826 191.629 139.876 191.629 141.888M195.453 131.826C195.452 134.51 196.217 139.876 199.275 139.876M193.541 157.988C193.541 162.013 194.496 164.025 199.275 164.025M193.541 157.988C187.806 157.988 188.762 140.884 191.629 141.888M193.541 157.988C193.222 155.976 193.159 151.951 195.453 151.951M199.275 164.025C204.054 164.025 205.01 161.007 205.01 157.988M199.275 164.025V172.075M205.01 157.988C206.922 157.988 206.922 152.957 206.922 150.945C208.833 150.945 209.789 141.888 205.01 141.888M205.01 157.988C205.01 157.317 204.245 155.976 201.187 155.976M205.01 141.888C205.329 143.901 205.01 147.926 201.187 147.926M191.629 141.888C191.311 143.23 191.056 145.913 192.585 145.913M210.153 177.648C210.153 174.862 211.013 170.217 212.734 170.217C214.454 170.217 216.174 173.933 216.174 177.648C218.755 177.648 218.755 184.15 218.755 186.936M210.153 177.648C206.712 177.648 206.712 185.079 206.712 186.936M210.153 177.648C210.153 180.125 210.841 185.079 213.594 185.079M208.433 201.797C208.433 205.513 209.293 207.37 213.594 207.37M208.433 201.797C203.271 201.797 204.132 186.009 206.712 186.936M208.433 201.797C208.146 199.94 208.089 196.224 210.153 196.224M213.594 207.37C217.895 207.37 218.755 204.584 218.755 201.797M213.594 207.37V214.801M218.755 201.797C220.475 201.797 220.475 197.154 220.475 195.296C222.196 195.296 223.056 186.936 218.755 186.936M218.755 201.797C218.755 201.178 218.067 199.94 215.314 199.94M218.755 186.936C219.042 188.794 218.755 192.509 215.314 192.509M206.712 186.936C206.425 188.175 206.196 190.652 207.572 190.652M171.876 183.221C171.876 180.435 172.736 175.79 174.457 175.79C176.177 175.79 177.897 179.506 177.897 183.221C180.478 183.221 180.478 189.723 180.478 192.509M171.876 183.221C168.435 183.221 168.435 190.652 168.435 192.509M171.876 183.221C171.876 185.698 172.564 190.652 175.317 190.652M170.156 207.37C170.156 211.086 171.016 212.943 175.317 212.943M170.156 207.37C164.994 207.37 165.855 191.582 168.435 192.509M170.156 207.37C169.869 205.513 169.812 201.797 171.876 201.797M175.317 212.943C179.618 212.943 180.478 210.157 180.478 207.37M175.317 212.943V220.374M180.478 207.37C182.198 207.37 182.198 202.727 182.198 200.869C183.919 200.869 184.779 192.509 180.478 192.509M180.478 207.37C180.478 206.751 179.79 205.513 177.037 205.513M180.478 192.509C180.765 194.367 180.478 198.082 177.037 198.082M168.435 192.509C168.148 193.748 167.919 196.224 169.295 196.224M153.777 195.605C153.777 193.748 154.351 190.652 155.498 190.652C156.645 190.652 157.792 193.128 157.792 195.605C159.512 195.605 159.512 199.94 159.512 201.797M153.777 195.605C151.483 195.605 151.483 200.559 151.483 201.797M153.777 195.605C153.777 197.256 154.236 200.559 156.071 200.559M152.63 211.705C152.63 214.182 153.204 215.42 156.071 215.42M152.63 211.705C149.19 211.705 149.763 201.179 151.483 201.797M152.63 211.705C152.439 210.466 152.401 207.99 153.777 207.99M156.071 215.42C158.938 215.42 159.512 213.562 159.512 211.705M156.071 215.42V220.374M159.512 211.705C160.659 211.705 160.659 208.609 160.659 207.371C161.806 207.371 162.379 201.797 159.512 201.797M159.512 211.705C159.512 211.292 159.053 210.466 157.218 210.466M159.512 201.797C159.703 203.036 159.512 205.513 157.218 205.513M151.483 201.797C151.292 202.623 151.139 204.274 152.057 204.274M166.745 122.538C166.745 119.519 167.7 114.488 169.612 114.488C171.524 114.488 173.435 118.513 173.435 122.538C176.303 122.538 176.303 129.582 176.303 132.6M166.745 122.538C162.922 122.538 162.922 130.588 162.922 132.6M166.745 122.538C166.745 125.221 167.509 130.588 170.568 130.588M164.833 148.7C164.833 152.725 165.789 154.737 170.568 154.737M164.833 148.7C159.098 148.7 160.055 131.595 162.922 132.6M164.833 148.7C164.515 146.687 164.451 142.662 166.745 142.662M170.568 154.737C175.347 154.737 176.303 151.718 176.303 148.7M170.568 154.737V162.787M176.303 148.7C178.214 148.7 178.214 143.669 178.214 141.657C180.126 141.657 181.081 132.6 176.303 132.6M176.303 148.7C176.302 148.029 175.538 146.687 172.479 146.687M176.303 132.6C176.621 134.613 176.302 138.638 172.479 138.638M162.922 132.6C162.603 133.942 162.348 136.625 163.877 136.625M183.608 150.712L179.78 156.285H182.651L177.866 162.787H181.694L175.952 169.289H183.608V174.862H185.522V169.289H193.177L187.436 162.787H191.263L186.479 156.285H189.349L185.522 150.712H187.436L184.565 146.068L181.694 150.712H183.608ZM220.609 133.784L215.505 141.334H219.333L212.954 150.143H218.057L210.402 158.952H220.609V166.502H223.161V158.952H233.368L225.713 150.143H230.816L224.437 141.334H228.264L223.161 133.784H225.713L221.885 127.492L218.057 133.784H220.609ZM193.815 176.51L188.711 184.06H192.539L186.16 192.869H191.263L183.608 201.678H193.815V209.228H196.367V201.678H206.574L198.919 192.869H204.022L197.643 184.06H201.47L196.367 176.51H198.919L195.091 170.217L191.263 176.51H193.815ZM156.814 165.723L152.986 171.476H155.857L151.072 178.187H154.9L149.159 184.899H156.814V190.652H158.728V184.899H166.383L160.642 178.187H164.469L159.685 171.476H162.556L158.728 165.723H160.642L157.771 160.929L154.9 165.723H156.814ZM227.626 165.723L223.799 171.476H226.67L221.885 178.187H225.713L219.971 184.899H227.626V190.652H229.54V184.899H237.196L231.454 178.187H235.282L230.497 171.476H233.368L229.54 165.723H231.454L228.583 160.929L225.713 165.723H227.626Z" stroke="#C2C1C1" stroke-linecap="round" stroke-linejoin="round"/>
<path d="M-8.86396 94.7277H-13.9676V102.278H-16.5194V94.7277H-26.7266L-19.0712 85.9189H-24.1748L-17.7953 77.1101H-21.623L-16.5194 69.5597H-19.0712L-15.2435 63.2677L-11.4158 69.5597H-13.9676L-8.86396 77.1101H-12.6917L-6.63113 84.6305M-8.54498 89.2746L-11.4158 85.9189H-6.63113M33.9213 50.8834C33.9213 47.8647 34.8769 42.8336 36.7885 42.8336C38.7001 42.8336 40.6117 46.8585 40.6117 50.8834C43.479 50.8834 43.479 57.9269 43.479 60.9456M33.9213 50.8834C30.0982 50.8834 30.0982 58.9332 30.0982 60.9456M33.9213 50.8834C33.9212 53.5666 34.6856 58.9332 37.7441 58.9332M32.0097 77.0452C32.0097 81.07 32.9652 83.0825 37.7442 83.0825M32.0097 77.0452C26.2749 77.0452 27.231 59.9408 30.0982 60.9456M32.0097 77.0452C31.6912 75.0327 31.6276 71.0078 33.9213 71.0078M37.7442 83.0825C42.5231 83.0825 43.479 80.0638 43.479 77.0452M37.7442 83.0825V91.1323M43.479 77.0452C45.3905 77.0452 45.3905 72.0146 45.3905 70.0019C47.3021 70.0019 48.2578 60.9456 43.479 60.9456M43.479 77.0452C43.479 76.3743 42.7142 75.0327 39.6557 75.0327M43.479 60.9456C43.7976 62.9581 43.4788 66.9829 39.6557 66.9829M30.0982 60.9456C29.7794 62.2872 29.5243 64.9705 31.0536 64.9705M48.6218 96.7052C48.6218 93.9187 49.4818 89.2746 51.2023 89.2746C52.9227 89.2746 54.6431 92.9899 54.6431 96.7052C57.2237 96.7052 57.2237 103.207 57.2237 105.993M48.6218 96.7052C45.181 96.7052 45.181 104.136 45.181 105.993M48.6218 96.7052C48.6217 99.182 49.3096 104.136 52.0623 104.136M46.9014 120.855C46.9014 124.57 47.7613 126.427 52.0624 126.427M46.9014 120.855C41.7401 120.855 42.6006 105.066 45.181 105.993M46.9014 120.855C46.6147 118.997 46.5574 115.282 48.6218 115.282M52.0624 126.427C56.3634 126.427 57.2237 123.641 57.2237 120.855M52.0624 126.427V133.858M57.2237 120.855C58.9441 120.855 58.9441 116.211 58.9441 114.353C60.6645 114.353 61.5246 105.993 57.2237 105.993M57.2237 120.855C57.2237 120.235 56.5354 118.997 53.7827 118.997M57.2237 105.993C57.5104 107.851 57.2236 111.566 53.7827 111.566M45.181 105.993C44.8941 107.232 44.6645 109.709 46.0408 109.709M10.3448 102.278C10.3448 99.4916 11.2048 94.8475 12.9253 94.8475C14.6457 94.8475 16.3661 98.5628 16.3661 102.278C18.9467 102.278 18.9467 108.78 18.9467 111.566M10.3448 102.278C6.90395 102.278 6.90396 109.709 6.90396 111.566M10.3448 102.278C10.3447 104.755 11.0326 109.709 13.7853 109.709M8.62438 126.427C8.62438 130.143 9.48433 132 13.7854 132M8.62438 126.427C3.46305 126.427 4.32355 110.639 6.90396 111.566M8.62438 126.427C8.33769 124.57 8.28042 120.855 10.3448 120.855M13.7854 132C18.0864 132 18.9467 129.214 18.9467 126.427M13.7854 132V139.431M18.9467 126.427C20.6671 126.427 20.6671 121.784 20.6671 119.926C22.3875 119.926 23.2476 111.566 18.9467 111.566M18.9467 126.427C18.9467 125.808 18.2584 124.57 15.5057 124.57M18.9467 111.566C19.2334 113.424 18.9466 117.139 15.5057 117.139M6.90396 111.566C6.61711 112.805 6.3875 115.282 7.76384 115.282M-7.75387 114.662C-7.75387 112.805 -7.18051 109.709 -6.03356 109.709C-4.88661 109.709 -3.73967 112.186 -3.73967 114.662C-2.01925 114.662 -2.01925 118.997 -2.01925 120.855M-7.75387 114.662C-10.0478 114.662 -10.0478 119.616 -10.0478 120.855M-7.75387 114.662C-7.75395 116.314 -7.29531 119.616 -5.46019 119.616M-8.90082 130.762C-8.90082 133.239 -8.32752 134.477 -5.46015 134.477M-8.90082 130.762C-12.3417 130.762 -11.768 120.236 -10.0478 120.855M-8.90082 130.762C-9.09194 129.524 -9.13012 127.047 -7.75387 127.047M-5.46015 134.477C-2.59278 134.477 -2.01925 132.62 -2.01925 130.762M-5.46015 134.477V139.431M-2.01925 130.762C-0.87236 130.762 -0.872359 127.666 -0.872359 126.428C0.274588 126.428 0.848015 120.855 -2.01925 120.855M-2.01925 130.762C-2.01928 130.349 -2.47813 129.524 -4.31325 129.524M-2.01925 120.855C-1.82812 122.093 -2.01935 124.57 -4.31325 124.57M-10.0478 120.855C-10.239 121.68 -10.3921 123.331 -9.47451 123.331M5.21356 41.5952C5.21356 38.5765 6.16917 33.5454 8.08075 33.5454C9.99233 33.5454 11.9039 37.5703 11.9039 41.5952C14.7713 41.5952 14.7713 48.6387 14.7713 51.6574M5.21356 41.5952C1.3904 41.5952 1.3904 49.645 1.3904 51.6574M5.21356 41.5952C5.21344 44.2784 5.97783 49.645 9.03636 49.645M3.30198 67.757C3.30198 71.7818 4.25749 73.7943 9.03643 73.7943M3.30198 67.757C-2.43282 67.757 -1.47671 50.6526 1.3904 51.6574M3.30198 67.757C2.98345 65.7445 2.91981 61.7196 5.21356 61.7196M9.03643 73.7943C13.8154 73.7943 14.7713 70.7756 14.7713 67.757M9.03643 73.7943V81.8441M14.7713 67.757C16.6827 67.757 16.6827 62.7264 16.6827 60.7137C18.5943 60.7137 19.55 51.6574 14.7713 51.6574M14.7713 67.757C14.7712 67.0861 14.0065 65.7445 10.9479 65.7445M14.7713 51.6574C15.0898 53.6699 14.7711 57.6947 10.9479 57.6947M1.3904 51.6574C1.07168 52.999 0.816567 55.6823 2.34583 55.6823M22.0766 69.7694L18.2489 75.3423H21.1197L16.3351 81.8441H20.1628L14.4212 88.3458H22.0766V93.9187H23.9905V88.3458H31.6459L25.9043 81.8441H29.732L24.9474 75.3423H27.8182L23.9905 69.7694H25.9043L23.0335 65.1253L20.1628 69.7694H22.0766ZM59.0777 52.8409L53.9741 60.3913H57.8018L51.4223 69.2001H56.5259L48.8705 78.0089H59.0777V85.5593H61.6295V78.0089H71.8367L64.1813 69.2001H69.2849L62.9054 60.3913H66.7331L61.6295 52.8409H64.1813L60.3536 46.5489L56.5259 52.8409H59.0777ZM32.2838 95.5666L27.1802 103.117H31.0079L24.6284 111.926H29.732L22.0766 120.735H32.2838V128.285H34.8356V120.735H45.0428L37.3874 111.926H42.491L36.1115 103.117H39.9392L34.8356 95.5666H37.3874L33.5597 89.2746L29.732 95.5666H32.2838ZM-4.71728 84.7803L-8.54498 90.533H-5.67421L-10.4588 97.2445H-6.63113L-12.3727 103.956H-4.71728V109.709H-2.80343V103.956H4.85197L-0.889583 97.2445H2.93812L-1.84651 90.533H1.02427L-2.80343 84.7803H-0.889583L-3.76036 79.9864L-6.63113 84.7803H-4.71728ZM66.0952 84.7803L62.2675 90.533H65.1383L60.3536 97.2445H64.1813L58.4398 103.956H66.0952V109.709H68.009V103.956H75.6644L69.9229 97.2445H73.7506L68.966 90.533H71.8367L68.009 84.7803H69.9229L67.0521 79.9864L64.1813 84.7803H66.0952Z" stroke="#C2C1C1" stroke-linecap="round" stroke-linejoin="round"/>
<path d="M149.235 54.5725H145.363V60.2823H143.427V54.5725H135.684L141.491 47.9112H137.619L142.459 41.2498H139.555L143.427 35.54H141.491L144.395 30.7819L147.299 35.54H145.363L149.235 41.2498H146.331L150.928 46.9369M149.477 50.4488L147.299 47.9112H150.928M181.692 21.4167C181.692 19.1339 182.417 15.3293 183.867 15.3293C185.318 15.3293 186.768 18.373 186.768 21.4167C188.943 21.4167 188.943 26.7432 188.943 29.0259M181.692 21.4167C178.792 21.4167 178.792 27.5041 178.792 29.0259M181.692 21.4167C181.692 23.4458 182.272 27.5041 184.592 27.5041M180.242 41.2007C180.242 44.2444 180.967 45.7662 184.592 45.7662M180.242 41.2007C175.892 41.2007 176.617 28.2661 178.792 29.0259M180.242 41.2007C180.001 39.6788 179.952 36.6352 181.692 36.6352M184.592 45.7662C188.218 45.7662 188.943 43.4835 188.943 41.2007M184.592 45.7662V51.8536M188.943 41.2007C190.393 41.2007 190.393 37.3965 190.393 35.8745C191.843 35.8745 192.568 29.0259 188.943 29.0259M188.943 41.2007C188.943 40.6934 188.363 39.6789 186.043 39.6789M188.943 29.0259C189.185 30.5478 188.943 33.5915 186.043 33.5915M178.792 29.0259C178.55 30.0405 178.357 32.0696 179.517 32.0696M192.844 56.068C192.844 53.9608 193.497 50.4488 194.802 50.4488C196.107 50.4488 197.412 53.2584 197.412 56.068C199.37 56.068 199.37 60.9847 199.37 63.0919M192.844 56.068C190.234 56.068 190.234 61.6871 190.234 63.0919M192.844 56.068C192.844 57.941 193.366 61.6871 195.454 61.6871M191.539 74.3301C191.539 77.1397 192.192 78.5444 195.455 78.5444M191.539 74.3301C187.624 74.3301 188.277 62.3904 190.234 63.0919M191.539 74.3301C191.322 72.9253 191.278 70.1158 192.844 70.1158M195.455 78.5444C198.717 78.5444 199.37 76.4373 199.37 74.3301M195.455 78.5444V84.1636M199.37 74.3301C200.675 74.3301 200.675 70.8185 200.675 69.4136C201.98 69.4136 202.633 63.0919 199.37 63.0919M199.37 74.3301C199.37 73.8618 198.848 72.9253 196.76 72.9253M199.37 63.0919C199.588 64.4966 199.37 67.3062 196.76 67.3062M190.234 63.0919C190.017 64.0284 189.842 65.9014 190.886 65.9014M163.807 60.2823C163.807 58.1751 164.459 54.6632 165.764 54.6632C167.069 54.6632 168.375 57.4727 168.375 60.2823C170.332 60.2823 170.332 65.199 170.332 67.3062M163.807 60.2823C161.196 60.2823 161.196 65.9014 161.196 67.3062M163.807 60.2823C163.807 62.1553 164.329 65.9014 166.417 65.9014M162.502 78.5444C162.502 81.354 163.154 82.7588 166.417 82.7588M162.502 78.5444C158.586 78.5444 159.239 66.6048 161.196 67.3062M162.502 78.5444C162.284 77.1397 162.241 74.3301 163.807 74.3301M166.417 82.7588C169.68 82.7588 170.332 80.6516 170.332 78.5444M166.417 82.7588V88.3779M170.332 78.5444C171.637 78.5444 171.637 75.0329 171.637 73.6279C172.943 73.6279 173.595 67.3062 170.332 67.3062M170.332 78.5444C170.332 78.0762 169.81 77.1397 167.722 77.1397M170.332 67.3062C170.55 68.711 170.332 71.5205 167.722 71.5205M161.196 67.3062C160.979 68.2427 160.805 70.1158 161.849 70.1158M150.077 69.6475C150.077 68.2427 150.512 65.9014 151.382 65.9014C152.252 65.9014 153.122 67.7745 153.122 69.6475C154.427 69.6475 154.427 72.9253 154.427 74.3301M150.077 69.6475C148.336 69.6475 148.336 73.3936 148.336 74.3301M150.077 69.6475C150.077 70.8962 150.425 73.3936 151.817 73.3936M149.207 81.8223C149.207 83.6953 149.641 84.6318 151.817 84.6318M149.207 81.8223C146.596 81.8223 147.031 73.8625 148.336 74.3301M149.207 81.8223C149.062 80.8857 149.033 79.0127 150.077 79.0127M151.817 84.6318C153.992 84.6318 154.427 83.227 154.427 81.8223M151.817 84.6318V88.3779M154.427 81.8223C155.297 81.8223 155.297 79.4812 155.297 78.5446C156.167 78.5446 156.602 74.3301 154.427 74.3301M154.427 81.8223C154.427 81.5101 154.079 80.8857 152.687 80.8857M154.427 74.3301C154.572 75.2666 154.427 77.1397 152.687 77.1397M148.336 74.3301C148.191 74.9544 148.075 76.2031 148.771 76.2031M159.914 14.3928C159.914 12.11 160.639 8.30542 162.089 8.30542C163.539 8.30542 164.989 11.3491 164.989 14.3928C167.165 14.3928 167.165 19.7193 167.165 22.002M159.914 14.3928C157.014 14.3928 157.014 20.4802 157.014 22.002M159.914 14.3928C159.914 16.4219 160.494 20.4802 162.814 20.4802M158.464 34.1768C158.464 37.2205 159.189 38.7423 162.814 38.7423M158.464 34.1768C154.113 34.1768 154.839 21.2422 157.014 22.002M158.464 34.1768C158.222 32.6549 158.174 29.6113 159.914 29.6113M162.814 38.7423C166.44 38.7423 167.165 36.4596 167.165 34.1768M162.814 38.7423V44.8297M167.165 34.1768C168.615 34.1768 168.615 30.3726 168.615 28.8506C170.065 28.8506 170.79 22.002 167.165 22.002M167.165 34.1768C167.165 33.6695 166.585 32.655 164.264 32.655M167.165 22.002C167.406 23.5239 167.165 26.5676 164.264 26.5676M157.014 22.002C156.772 23.0166 156.578 25.0457 157.739 25.0457M172.707 35.6986L169.803 39.913H171.981L168.351 44.8297H171.255L166.899 49.7464H172.707V53.9608H174.159V49.7464H179.966L175.61 44.8297H178.514L174.885 39.913H177.062L174.159 35.6986H175.61L173.433 32.1867L171.255 35.6986H172.707ZM200.776 22.897L196.905 28.6068H199.809L194.969 35.2681H198.841L193.033 41.9295H200.776V47.6393H202.712V41.9295H210.456L204.648 35.2681H208.52L203.68 28.6068H206.584L202.712 22.897H204.648L201.744 18.1389L198.841 22.897H200.776ZM180.45 55.207L176.578 60.9167H179.482L174.643 67.5781H178.514L172.707 74.2395H180.45V79.9492H182.386V74.2395H190.129L184.322 67.5781H188.193L183.354 60.9167H186.258L182.386 55.207H184.322L181.418 50.4488L178.514 55.207H180.45ZM152.38 47.0502L149.477 51.4005H151.654L148.025 56.4758H150.928L146.573 61.5511H152.38V65.9014H153.832V61.5511H159.64L155.284 56.4758H158.188L154.558 51.4005H156.736L153.832 47.0502H155.284L153.106 43.4249L150.928 47.0502H152.38ZM206.1 47.0502L203.196 51.4005H205.374L201.744 56.4758H204.648L200.293 61.5511H206.1V65.9014H207.552V61.5511H213.36L209.004 56.4758H211.908L208.278 51.4005H210.456L207.552 47.0502H209.004L206.826 43.4249L204.648 47.0502H206.1Z" stroke="#C2C1C1" stroke-linecap="round" stroke-linejoin="round"/>
<path d="M101.468 260.965H96.3645V268.515H93.8127V260.965H83.6055L91.2609 252.156H86.1573L92.5368 243.347H88.7091L93.8127 235.797H91.2609L95.0886 229.505L98.9163 235.797H96.3645L101.468 243.347H97.6404L103.701 250.868M101.787 255.512L98.9163 252.156H103.701M144.253 217.12C144.253 214.102 145.209 209.071 147.121 209.071C149.032 209.071 150.944 213.096 150.944 217.12C153.811 217.12 153.811 224.164 153.811 227.183M144.253 217.12C140.43 217.12 140.43 225.17 140.43 227.183M144.253 217.12C144.253 219.804 145.018 225.17 148.076 225.17M142.342 243.282C142.342 247.307 143.297 249.32 148.076 249.32M142.342 243.282C136.607 243.282 137.563 226.178 140.43 227.183M142.342 243.282C142.023 241.27 141.96 237.245 144.253 237.245M148.076 249.32C152.855 249.32 153.811 246.301 153.811 243.282M148.076 249.32V257.369M153.811 243.282C155.723 243.282 155.723 238.252 155.723 236.239C157.634 236.239 158.59 227.183 153.811 227.183M153.811 243.282C153.811 242.611 153.046 241.27 149.988 241.27M153.811 227.183C154.13 229.195 153.811 233.22 149.988 233.22M140.43 227.183C140.111 228.524 139.856 231.208 141.386 231.208M158.954 262.942C158.954 260.156 159.814 255.512 161.534 255.512C163.255 255.512 164.975 259.227 164.975 262.942C167.556 262.942 167.556 269.444 167.556 272.23M158.954 262.942C155.513 262.942 155.513 270.373 155.513 272.23M158.954 262.942C158.954 265.419 159.642 270.373 162.394 270.373M157.233 287.092C157.233 290.807 158.093 292.664 162.394 292.664M157.233 287.092C152.072 287.092 152.933 271.303 155.513 272.23M157.233 287.092C156.947 285.234 156.889 281.519 158.954 281.519M162.394 292.664C166.695 292.664 167.556 289.878 167.556 287.092M162.394 292.664V300.095M167.556 287.092C169.276 287.092 169.276 282.448 169.276 280.59C170.997 280.59 171.857 272.23 167.556 272.23M167.556 287.092C167.556 286.472 166.867 285.234 164.115 285.234M167.556 272.23C167.842 274.088 167.556 277.803 164.115 277.803M155.513 272.23C155.226 273.469 154.997 275.946 156.373 275.946M120.677 268.515C120.677 265.729 121.537 261.085 123.257 261.085C124.978 261.085 126.698 264.8 126.698 268.515C129.279 268.515 129.279 275.017 129.279 277.803M120.677 268.515C117.236 268.515 117.236 275.946 117.236 277.803M120.677 268.515C120.677 270.992 121.365 275.946 124.117 275.946M118.956 292.664C118.956 296.38 119.816 298.237 124.117 298.237M118.956 292.664C113.795 292.664 114.656 276.876 117.236 277.803M118.956 292.664C118.67 290.807 118.612 287.092 120.677 287.092M124.117 298.237C128.418 298.237 129.279 295.451 129.279 292.664M124.117 298.237V305.668M129.279 292.664C130.999 292.664 130.999 288.021 130.999 286.163C132.72 286.163 133.58 277.803 129.279 277.803M129.279 292.664C129.279 292.045 128.59 290.807 125.838 290.807M129.279 277.803C129.565 279.661 129.279 283.376 125.838 283.376M117.236 277.803C116.949 279.042 116.72 281.519 118.096 281.519M102.578 280.899C102.578 279.042 103.152 275.946 104.298 275.946C105.445 275.946 106.592 278.423 106.592 280.899C108.313 280.899 108.313 285.234 108.313 287.092M102.578 280.899C100.284 280.899 100.284 285.853 100.284 287.092M102.578 280.899C102.578 282.551 103.037 285.853 104.872 285.853M101.431 296.999C101.431 299.476 102.005 300.714 104.872 300.714M101.431 296.999C97.9903 296.999 98.564 286.473 100.284 287.092M101.431 296.999C101.24 295.761 101.202 293.284 102.578 293.284M104.872 300.714C107.739 300.714 108.313 298.857 108.313 296.999M104.872 300.714V305.668M108.313 296.999C109.46 296.999 109.46 293.903 109.46 292.665C110.607 292.665 111.18 287.092 108.313 287.092M108.313 296.999C108.313 296.586 107.854 295.761 106.019 295.761M108.313 287.092C108.504 288.33 108.313 290.807 106.019 290.807M100.284 287.092C100.093 287.917 99.94 289.568 100.858 289.568M115.546 207.832C115.546 204.814 116.501 199.782 118.413 199.782C120.324 199.782 122.236 203.807 122.236 207.832C125.103 207.832 125.103 214.876 125.103 217.894M115.546 207.832C111.722 207.832 111.722 215.882 111.722 217.894M115.546 207.832C115.545 210.516 116.31 215.882 119.368 215.882M113.634 233.994C113.634 238.019 114.59 240.031 119.368 240.031M113.634 233.994C107.899 233.994 108.855 216.89 111.722 217.894M113.634 233.994C113.315 231.982 113.252 227.957 115.546 227.957M119.368 240.031C124.147 240.031 125.103 237.013 125.103 233.994M119.368 240.031V248.081M125.103 233.994C127.015 233.994 127.015 228.963 127.015 226.951C128.926 226.951 129.882 217.894 125.103 217.894M125.103 233.994C125.103 233.323 124.338 231.982 121.28 231.982M125.103 217.894C125.422 219.907 125.103 223.932 121.28 223.932M111.722 217.894C111.404 219.236 111.149 221.919 112.678 221.919M132.409 236.006L128.581 241.579H131.452L126.667 248.081H130.495L124.753 254.583H132.409V260.156H134.323V254.583H141.978L136.236 248.081H140.064L135.279 241.579H138.15L134.323 236.006H136.236L133.366 231.362L130.495 236.006H132.409ZM169.41 219.078L164.306 226.628H168.134L161.754 235.437H166.858L159.203 244.246H169.41V251.796H171.962V244.246H182.169L174.513 235.437H179.617L173.237 226.628H177.065L171.962 219.078H174.513L170.686 212.786L166.858 219.078H169.41ZM142.616 261.804L137.512 269.354H141.34L134.96 278.163H140.064L132.409 286.972H142.616V294.522H145.168V286.972H155.375L147.719 278.163H152.823L146.444 269.354H150.271L145.168 261.804H147.719L143.892 255.512L140.064 261.804H142.616ZM105.615 251.017L101.787 256.77H104.658L99.8732 263.482H103.701L97.9593 270.193H105.615V275.946H107.529V270.193H115.184L109.442 263.482H113.27L108.486 256.77H111.356L107.529 251.017H109.442L106.572 246.223L103.701 251.017H105.615ZM176.427 251.017L172.6 256.77H175.47L170.686 263.482H174.513L168.772 270.193H176.427V275.946H178.341V270.193H185.996L180.255 263.482H184.083L179.298 256.77H182.169L178.341 251.017H180.255L177.384 246.223L174.513 251.017H176.427Z" stroke="#C2C1C1" stroke-linecap="round" stroke-linejoin="round"/>
<path d="M50.2767 170.448H45.1731V177.999H42.6213V170.448H32.4141L40.0695 161.639H34.9659L41.3454 152.831H37.5177L42.6213 145.28H40.0695L43.8972 138.988L47.7249 145.28H45.1731L50.2767 152.831H46.449L52.5095 160.351M50.5956 164.995L47.7249 161.639H52.5095M93.0619 126.604C93.0619 123.585 94.0175 118.554 95.9291 118.554C97.8407 118.554 99.7523 122.579 99.7523 126.604C102.62 126.604 102.62 133.647 102.62 136.666M93.0619 126.604C89.2388 126.604 89.2388 134.654 89.2388 136.666M93.0619 126.604C93.0618 129.287 93.8262 134.654 96.8847 134.654M91.1504 152.766C91.1504 156.791 92.1059 158.803 96.8848 158.803M91.1504 152.766C85.4156 152.766 86.3717 135.661 89.2388 136.666M91.1504 152.766C90.8318 150.753 90.7682 146.728 93.0619 146.728M96.8848 158.803C101.664 158.803 102.62 155.784 102.62 152.766M96.8848 158.803V166.853M102.62 152.766C104.531 152.766 104.531 147.735 104.531 145.722C106.443 145.722 107.398 136.666 102.62 136.666M102.62 152.766C102.62 152.095 101.855 150.753 98.7963 150.753M102.62 136.666C102.938 138.679 102.619 142.703 98.7963 142.703M89.2388 136.666C88.9201 138.008 88.6649 140.691 90.1942 140.691M107.762 172.426C107.762 169.639 108.622 164.995 110.343 164.995C112.063 164.995 113.784 168.71 113.784 172.426C116.364 172.426 116.364 178.928 116.364 181.714M107.762 172.426C104.322 172.426 104.322 179.856 104.322 181.714M107.762 172.426C107.762 174.903 108.45 179.856 111.203 179.856M106.042 196.575C106.042 200.29 106.902 202.148 111.203 202.148M106.042 196.575C100.881 196.575 101.741 180.786 104.322 181.714M106.042 196.575C105.755 194.718 105.698 191.002 107.762 191.002M111.203 202.148C115.504 202.148 116.364 199.362 116.364 196.575M111.203 202.148V209.579M116.364 196.575C118.085 196.575 118.085 191.932 118.085 190.074C119.805 190.074 120.665 181.714 116.364 181.714M116.364 196.575C116.364 195.956 115.676 194.718 112.923 194.718M116.364 181.714C116.651 183.572 116.364 187.287 112.923 187.287M104.322 181.714C104.035 182.952 103.805 185.429 105.181 185.429M69.4854 177.999C69.4854 175.212 70.3455 170.568 72.0659 170.568C73.7863 170.568 75.5067 174.283 75.5067 177.999C78.0874 177.999 78.0874 184.5 78.0874 187.287M69.4854 177.999C66.0446 177.999 66.0446 185.429 66.0446 187.287M69.4854 177.999C69.4853 180.476 70.1733 185.429 72.9259 185.429M67.765 202.148C67.765 205.863 68.625 207.721 72.926 207.721M67.765 202.148C62.6037 202.148 63.4642 186.359 66.0446 187.287M67.765 202.148C67.4783 200.29 67.421 196.575 69.4854 196.575M72.926 207.721C77.2271 207.721 78.0874 204.935 78.0874 202.148M72.926 207.721V215.152M78.0874 202.148C79.8077 202.148 79.8077 197.504 79.8077 195.647C81.5281 195.647 82.3883 187.287 78.0874 187.287M78.0874 202.148C78.0873 201.529 77.399 200.29 74.6464 200.29M78.0874 187.287C78.374 189.145 78.0872 192.86 74.6464 192.86M66.0446 187.287C65.7577 188.525 65.5281 191.002 66.9045 191.002M51.3868 190.383C51.3868 188.525 51.9601 185.429 53.1071 185.429C54.254 185.429 55.401 187.906 55.401 190.383C57.1214 190.383 57.1214 194.718 57.1214 196.575M51.3868 190.383C49.0929 190.383 49.0929 195.337 49.0929 196.575M51.3868 190.383C51.3867 192.034 51.8453 195.337 53.6804 195.337M50.2398 206.483C50.2398 208.959 50.8131 210.198 53.6805 210.198M50.2398 206.483C46.7989 206.483 47.3726 195.957 49.0929 196.575M50.2398 206.483C50.0487 205.244 50.0105 202.767 51.3868 202.767M53.6805 210.198C56.5478 210.198 57.1214 208.34 57.1214 206.483M53.6805 210.198V215.152M57.1214 206.483C58.2683 206.483 58.2683 203.387 58.2683 202.148C59.4152 202.148 59.9886 196.575 57.1214 196.575M57.1214 206.483C57.1213 206.07 56.6625 205.244 54.8274 205.244M57.1214 196.575C57.3125 197.814 57.1213 200.29 54.8274 200.29M49.0929 196.575C48.9016 197.401 48.7486 199.052 49.6661 199.052M64.3542 117.316C64.3542 114.297 65.3098 109.266 67.2214 109.266C69.133 109.266 71.0445 113.291 71.0445 117.316C73.9119 117.316 73.9119 124.359 73.9119 127.378M64.3542 117.316C60.531 117.316 60.531 125.365 60.531 127.378M64.3542 117.316C64.3541 119.999 65.1185 125.365 68.177 125.365M62.4426 143.477C62.4426 147.502 63.3981 149.515 68.1771 149.515M62.4426 143.477C56.7078 143.477 57.6639 126.373 60.531 127.378M62.4426 143.477C62.1241 141.465 62.0604 137.44 64.3542 137.44M68.1771 149.515C72.956 149.515 73.9119 146.496 73.9119 143.477M68.1771 149.515V157.565M73.9119 143.477C75.8234 143.477 75.8234 138.447 75.8234 136.434C77.735 136.434 78.6907 127.378 73.9119 127.378M73.9119 143.477C73.9118 142.807 73.1471 141.465 70.0886 141.465M73.9119 127.378C74.2304 129.39 73.9117 133.415 70.0886 133.415M60.531 127.378C60.2123 128.72 59.9572 131.403 61.4865 131.403M81.2172 145.49L77.3895 151.063H80.2603L75.4757 157.565H79.3034L73.5618 164.066H81.2172V169.639H83.1311V164.066H90.7865L85.0449 157.565H88.8726L84.088 151.063H86.9588L83.1311 145.49H85.0449L82.1742 140.846L79.3034 145.49H81.2172ZM118.218 128.561L113.115 136.112H116.942L110.563 144.921H115.667L108.011 153.729H118.218V161.28H120.77V153.729H130.977L123.322 144.921H128.426L122.046 136.112H125.874L120.77 128.561H123.322L119.494 122.269L115.667 128.561H118.218ZM91.4244 171.287L86.3208 178.838H90.1485L83.769 187.646H88.8726L81.2172 196.455H91.4244V204.006H93.9762V196.455H104.183L96.528 187.646H101.632L95.2521 178.838H99.0798L93.9762 171.287H96.528L92.7003 164.995L88.8726 171.287H91.4244ZM54.4233 160.501L50.5956 166.254H53.4664L48.6818 172.965H52.5095L46.7679 179.677H54.4233V185.429H56.3372V179.677H63.9926L58.251 172.965H62.0787L57.2941 166.254H60.1649L56.3372 160.501H58.251L55.3803 155.707L52.5095 160.501H54.4233ZM125.236 160.501L121.408 166.254H124.279L119.494 172.965H123.322L117.58 179.677H125.236V185.429H127.15V179.677H134.805L129.064 172.965H132.891L128.107 166.254H130.977L127.15 160.501H129.064L126.193 155.707L123.322 160.501H125.236Z" stroke="#C2C1C1" stroke-linecap="round" stroke-linejoin="round"/>
<path d="M102.553 -2.41298H104.239M102.553 -2.41298V-3.40473H100.536H97.7344V6.56473C105.623 6.56473 108.678 6.56473 115.562 6.56473V-3.40473L112.676 -3.40473L110.744 -3.40473V-2.41298H109.901M102.553 -2.41298V3.80236M109.057 -2.41298V-9.10156L106.648 -9.10156L104.239 -9.10156V-2.41298M109.057 -2.41298H109.901M109.057 -2.41298H106.648V6.56473M104.239 -2.41298V1.96078M109.901 -2.41298V3.57216" stroke="#C2C1C1" stroke-width="2" stroke-linecap="round" stroke-linejoin="round"/>
<path d="M214.65 92.4549H216.337M214.65 92.4549V91.4632H212.634H209.832V101.433C217.721 101.433 220.776 101.433 227.66 101.433V91.4632L224.773 91.4632L222.841 91.4632V92.4549H221.998M214.65 92.4549V98.6703M221.155 92.4549V85.7664L218.746 85.7664L216.337 85.7664V92.4549M221.155 92.4549H221.998M221.155 92.4549H218.746V101.433M216.337 92.4549V96.8287M221.998 92.4549V98.4401" stroke="#C2C1C1" stroke-width="2" stroke-linecap="round" stroke-linejoin="round"/>
<path d="M280.694 65.0929H282.943M280.694 65.0929V63.7705H278.005H274.27V77.0631C284.788 77.063 288.861 77.063 298.04 77.0631V63.7705L294.191 63.7705L291.616 63.7705V65.0929H290.491M280.694 65.0929V73.3799M289.367 65.0929V56.1748L286.155 56.1748L282.943 56.1748V65.0929M289.367 65.0929H290.491M289.367 65.0929H286.155V77.063M282.943 65.0929V70.9245M290.491 65.0929V73.073" stroke="#C2C1C1" stroke-width="2" stroke-linecap="round" stroke-linejoin="round"/>
<path d="M302.037 9.77175H303.723M302.037 9.77175V8.78001H300.02H297.219V18.7493C305.108 18.7493 308.163 18.7493 315.046 18.7493V8.78001L312.16 8.78L310.228 8.78001V9.77175H309.385M302.037 9.77175V15.987M308.542 9.77175V3.08325L306.133 3.08326L303.723 3.08325V9.77175M308.542 9.77175H309.385M308.542 9.77175H306.133V18.7493M303.723 9.77175V14.1454M309.385 9.77175V15.7568" stroke="#C2C1C1" stroke-width="2" stroke-linecap="round" stroke-linejoin="round"/>
<g filter="url(#filter0_d)">
<path d="M-31.8141 -8.5445C-24.6378 -15.7448 -13.0028 -15.7448 -5.82648 -8.5445V-8.5445C0.639911 -2.05649 1.36744 8.21496 -4.11948 15.5553L-18.8203 35.2219L-33.5211 15.5553C-39.0081 8.21496 -38.2805 -2.05649 -31.8141 -8.5445V-8.5445Z" fill="white"/>
<path d="M-19.619 35.8229L-18.8203 36.8914L-18.0216 35.8229L-3.32082 16.1563C2.46419 8.41718 1.69714 -2.41229 -5.12056 -9.25279C-12.6867 -16.8443 -24.9539 -16.8443 -32.5201 -9.25279C-39.3378 -2.41229 -40.1048 8.41718 -34.3198 16.1563L-19.619 35.8229Z" stroke="#BCBCBC" stroke-width="2"/>
</g>
<g filter="url(#filter1_f)">
<ellipse cx="-9.49414" cy="234.325" rx="8.61523" ry="2.46149" fill="black" fill-opacity="0.4"/>
</g>
<g filter="url(#filter2_d)">
<path d="M-22.4899 190.747C-15.3136 183.547 -3.67856 183.547 3.49774 190.747V190.747C9.96413 197.235 10.6917 207.507 5.20473 214.847L-9.49609 234.514L-24.1969 214.847C-29.6838 207.507 -28.9563 197.235 -22.4899 190.747V190.747Z" fill="white"/>
<path d="M-10.2948 235.115L-9.49609 236.183L-8.69743 235.115L6.0034 215.448C11.7884 207.709 11.0214 196.879 4.20366 190.039C-3.36251 182.447 -15.6297 182.447 -23.1959 190.039C-30.0135 196.879 -30.7806 207.709 -24.9956 215.448L-10.2948 235.115Z" stroke="#BCBCBC" stroke-width="2"/>
</g>
<g filter="url(#filter3_f)">
<ellipse cx="48.3574" cy="293.4" rx="8.61523" ry="2.46149" fill="black" fill-opacity="0.4"/>
</g>
<g filter="url(#filter4_d)">
<path d="M35.3616 249.823C42.5379 242.623 54.173 242.623 61.3493 249.823V249.823C67.8157 256.311 68.5432 266.582 63.0563 273.923L48.3555 293.589L33.6546 273.923C28.1677 266.582 28.8952 256.311 35.3616 249.823V249.823Z" fill="white"/>
<path d="M47.5568 294.19L48.3555 295.259L49.1541 294.19L63.855 274.524C69.64 266.785 68.8729 255.955 62.0552 249.115C54.4891 241.523 42.2219 241.523 34.6557 249.115C27.838 255.955 27.071 266.785 32.856 274.524L47.5568 294.19Z" stroke="#BCBCBC" stroke-width="2"/>
</g>
<ellipse cx="48.3574" cy="262.631" rx="8.61523" ry="8.61523" fill="#BCBCBC"/>
<g filter="url(#filter5_f)">
<ellipse cx="177.029" cy="44.8785" rx="8.61523" ry="2.46149" fill="black" fill-opacity="0.4"/>
</g>
<g filter="url(#filter6_d)">
<path d="M164.034 1.3012C171.21 -5.89909 182.845 -5.89909 190.021 1.3012V1.3012C196.488 7.78922 197.215 18.0607 191.728 25.401L177.027 45.0676L162.327 25.401C156.84 18.0607 157.567 7.78922 164.034 1.3012V1.3012Z" fill="white"/>
<path d="M176.229 45.6686L177.027 46.7371L177.826 45.6686L192.527 26.002C198.312 18.2629 197.545 7.43341 190.727 0.592915C183.161 -6.99856 170.894 -6.99856 163.328 0.592915C156.51 7.43341 155.743 18.2629 161.528 26.002L176.229 45.6686Z" stroke="#BCBCBC" stroke-width="2"/>
</g>
<ellipse cx="177.029" cy="14.1096" rx="8.61523" ry="8.61523" fill="#BCBCBC"/>
<path d="M696.535 103.995L711.099 113.133L713.305 83.1063L746.847 85.2822L756.557 88.3284L761.853 86.5877L771.121 89.1987L770.68 99.643H779.948L782.155 89.6339L789.216 91.3746H801.132L802.898 86.5877L810.842 83.1063L817.903 86.5877L820.993 70.9214L819.227 67.44H834.674V77.8842L829.819 83.1063L860.272 88.7636L863.361 95.2912L871.747 86.5877L879.25 84.4118L878.367 81.3656L886.311 77.8842L890.724 81.3656L886.311 91.3746L890.724 95.2912L896.02 86.5877H912.791L916.763 92.6801L929.562 94.4209L936.624 88.7636L949.864 97.9023L962.663 114.439L952.953 116.615L954.277 137.503L948.099 145.336L963.104 159.262L975.02 145.336L988.702 156.216H995.322L996.205 150.994L1005.47 140.114L1016.07 132.281L1020.48 134.457L1029.31 123.142L1037.25 117.92L1040.78 120.096L1043.43 116.615L1055.79 125.318L1065.05 115.309L1067.7 107.041L1073.44 103.56L1072.56 92.6801H1091.98L1096.39 77.0138L1109.63 60.4772L1118.01 63.5234L1124.63 57.4309L1120.22 51.3385L1142.73 51.7737L1135.23 39.5887L1142.73 33.4963L1160.38 50.033L1161.71 59.1716L1174.95 61.7827L1181.13 72.6621H1185.1V61.7827L1194.37 60.4772L1195.69 77.0138L1207.17 67.44L1208.05 53.0792L1215.11 51.7737H1219.08V56.9958H1226.14L1227.91 51.7737L1236.74 53.0792L1238.5 60.4772L1253.06 56.9958L1252.18 49.1626L1258.36 43.9405L1271.6 46.9867L1273.37 32.1908L1263.22 28.7094L1257.48 22.1817L1249.09 20.0059L1248.21 15.6541H1268.51L1280.43 1.7285L1272.48 -14.8082L1279.1 -17.4192L1288.81 -13.9378L1294.11 -25.2524L1301.61 -29.169L1303.82 -33.5207L1317.94 -37.0021L1320.59 -29.169L1316.62 -20.9006L1320.59 -15.6785L1324.12 -17.4192H1334.27L1332.06 -10.4564L1336.48 -7.41019L1369.58 -31.3448L1373.11 -42.6594H1377.96L1389.88 -30.0393L1403.56 -29.169L1411.06 -39.178L1434.46 -38.7428L1436.66 -42.6594L1445.93 -37.8725L1449.02 -40.0483L1454.76 -35.6966L1449.46 -23.9469L1454.76 -21.771L1468.44 -9.15089L1460.49 1.29332L1467.11 6.08025L1475.94 6.95059L1480.8 3.90437L1491.39 6.95059L1504.63 -18.2896L1500.66 -24.8172L1504.63 -29.169V-36.5669L1500.66 -40.4835L1510.81 -43.9649L1515.66 -48.3167V-57.0202L1520.52 -60.5016L1518.75 -63.983L1507.72 -61.3719L1504.63 -100.103L1511.69 -110.547H1528.9L1543.91 -126.213L1545.23 -120.556L1559.8 -131L1558.03 -116.639L1569.95 -107.501L1569.51 -97.0563H1561.56V-84.4362L1559.8 -80.9548V-57.0202L1554.5 -49.187L1547.44 -48.3167L1546.11 -42.6594L1554.5 -23.0765L1556.71 -30.0393L1567.74 -33.0855L1565.09 -23.0765L1556.71 -18.2896V-13.0675L1567.74 -12.1971L1569.95 -5.66949L1561.56 -3.92879L1571.27 17.3948H1576.13L1581.42 33.0611L1585.84 35.237L1589.37 33.0611L1598.19 35.237L1604.81 41.3295H1615.41L1619.82 45.6812H1630.41L1631.73 37.4129L1622.47 31.3204L1627.32 28.7094L1633.06 30.4501L1636.15 27.4038H1641.44L1643.21 23.4873L1659.1 24.7928L1670.57 20.441L1677.19 21.3114L1681.61 10.8672L1691.32 15.6541V24.3576H1696.61L1700.14 15.6541L1708.97 20.441L1705.44 30.8852L1712.06 43.0702L1710.73 56.5606L1719.56 58.7365L1728.39 77.0138L1721.33 85.2822L1714.27 90.5043V95.7264L1718.24 96.5967L1720.44 97.9023H1726.18V106.171L1718.24 110.958L1729.71 117.05L1740.75 113.569H1761.49L1775.17 118.791L1780.47 119.661L1786.65 129.67L1806.51 124.013V131.846L1813.13 133.151L1817.98 144.466L1814.01 147.077L1813.13 162.308L1829.9 164.049L1827.25 194.511L1820.63 201.039L1819.3 218.881L1815.33 233.677H1807.83V237.158L1813.13 238.899L1812.68 245.862L1822.84 251.084V258.917L1815.33 257.612L1814.01 264.574L1827.69 268.926H1850.2L1859.03 274.583L1853.73 281.111L1856.82 287.639L1831.66 309.397L1821.51 310.703L1820.63 316.795L1814.01 318.536L1809.6 327.24L1807.39 344.212L1784 357.267L1778.7 340.295L1792.82 336.814L1798.56 322.453L1780.91 321.147L1772.96 330.721L1776.05 336.814L1770.76 346.387H1767.23L1759.28 358.572L1728.39 342.036V338.989L1743.84 322.453V316.795L1729.27 300.694L1722.21 302L1712.94 310.703L1708.09 311.573L1699.26 304.175L1689.99 310.703L1687.79 317.666H1673.22L1672.78 323.758L1677.19 328.98L1678.08 341.165L1672.78 342.036L1667.92 356.832H1660.86L1655.57 361.619L1646.3 358.137L1642.77 360.313L1635.27 350.304L1639.68 333.332L1634.82 335.073L1633.5 345.952H1626.44L1624.23 365.97L1627.32 370.757L1622.91 390.775L1618.05 398.173L1611.87 389.905H1604.37V397.303L1606.14 399.479L1602.17 409.923L1592.46 400.784L1583.19 398.173L1567.74 375.979L1555.38 377.285V388.164L1562 389.035L1558.47 395.127L1555.38 392.081L1551.85 394.257L1545.23 395.127L1543.47 388.164H1539.49L1536.85 399.479L1530.23 405.136L1528.9 399.479L1520.52 402.96L1516.99 411.229L1520.52 415.145L1513.01 420.367L1513.9 430.811L1492.71 436.034L1481.68 446.043L1486.09 461.709L1506.84 464.755L1513.46 458.227L1524.93 473.023L1520.52 481.292L1515.66 482.162L1508.6 473.894L1500.22 478.246L1498.89 495.217L1492.71 496.088L1488.74 509.578H1475.5L1468.44 518.717L1460.94 520.022L1459.61 529.161L1456.52 531.337L1457.41 543.957L1452.99 552.661L1437.99 550.485L1429.16 561.799V551.79L1423.42 550.485L1425.19 543.957L1423.42 543.087L1415.04 549.179L1421.22 554.836L1420.33 560.494H1413.27L1406.65 567.021H1415.04L1421.22 576.595L1419.89 600.095L1411.51 606.622L1410.18 611.844L1398.71 610.104L1378.85 609.233L1365.61 616.196L1344.86 617.502L1332.95 627.946L1324.12 648.834L1331.18 658.408L1329.42 665.371L1345.31 670.593L1311.32 667.982L1296.76 656.232L1288.37 654.927L1280.87 648.834L1277.34 640.566L1280.87 633.603V627.511L1262.33 616.196L1230.12 609.669L1227.47 605.317L1223.05 608.363L1206.28 593.132L1212.9 583.123L1200.55 572.679H1190.39V558.753L1186.86 539.17L1190.39 534.818L1185.98 522.633L1170.53 512.189L1123.31 510.449L1109.63 502.18V511.319L1091.09 506.532L1094.62 501.31L1089.33 500.44L1080.5 506.532H1069.03L1065.5 496.523H1039.9L1042.55 462.579H1028.86L1031.51 412.969L989.143 408.617L987.819 416.451L961.78 414.71L960.456 433.422H943.244L931.328 435.163L911.909 446.913L910.143 452.57L896.903 460.839H889.4L885.428 464.32L878.367 454.746L877.925 462.144L873.512 461.709V452.57L870.864 449.959L876.601 432.117L870.864 426.024L878.367 419.932L873.512 416.451L866.009 415.58L856.3 412.534L853.652 402.96L855.417 399.479L854.534 392.516L846.59 379.026L838.646 375.109L831.585 365.97L817.462 363.359L809.076 367.711L802.898 360.313L800.25 359.007V366.841L806.87 372.063L790.981 384.683L786.127 388.599L787.451 400.349L796.277 402.96L801.132 418.191L800.25 421.673L817.903 454.746H826.289L828.495 459.968L838.646 464.32L845.708 470.412L846.59 476.94L855.417 473.459L858.507 480.421L851.886 485.644L843.06 501.745L814.372 527.42L800.691 511.319H794.071L774.21 521.328L772.445 515.671L753.909 521.328L745.523 513.495L736.697 521.328L738.021 524.809L705.803 546.133L702.272 543.087L692.121 543.957L690.356 549.179L684.177 549.614L675.35 564.41L666.082 561.799L662.11 571.373L661.227 561.799L666.082 554.401L662.993 552.661L657.255 558.318L645.78 560.494L646.222 552.661L655.049 543.087L652.4 541.781L643.574 546.133L635.63 538.735L637.395 530.902L634.747 513.495L652.4 504.356L647.546 490.866L642.691 489.56L632.099 496.523L619.741 488.69L610.032 491.736L599.881 463.885L592.378 460.839V455.181L584.434 454.311L579.579 443.432L598.116 445.172L599.881 416.015H609.149L607.384 395.562L612.239 357.702L595.026 356.832L590.613 352.48L549.127 363.359L553.54 348.128L549.127 342.906L525.294 342.036L512.496 316.795L512.054 308.527L518.233 307.222L518.674 301.129L510.73 291.12L512.496 286.768L508.965 283.287L522.646 260.223L537.652 257.612L544.713 261.963L546.92 252.39H588.847L589.289 240.205L609.59 238.464L598.116 224.103L594.585 224.973L589.289 218.446L595.468 213.659L591.496 211.918L584.875 216.27L579.579 210.613L586.641 203.215V197.557L581.345 196.687L583.11 192.335L588.847 193.206L592.378 199.298H598.557L602.97 129.235H611.797L614.445 122.707L647.104 127.059L664.317 116.615H682.412L696.535 103.995Z" stroke="#C2C1C1" stroke-width="2" stroke-linecap="round" stroke-linejoin="round"/>
<path d="M1196.14 75.7087L1205.84 119.661L1185.54 150.994L1174.51 196.687L1185.54 206.261M1185.54 206.261L1204.52 224.974L1210.27 233.677M1185.54 206.261L1179.81 223.668M1167.01 302.87L1170.76 289.597M1167.01 511.319V498.699L1185.54 504.791C1198.64 500.585 1225.44 492.084 1227.91 491.736C1230.38 491.388 1247.18 504.646 1255.28 511.319L1292.79 513.93L1310 606.187L1331.63 631.427M1170.76 289.597L1174.51 276.325V265.01M1170.76 289.597L1185.54 286.334L1219.53 269.362L1223.5 253.695L1210.27 233.677M1170.76 289.597L1152 282.417L1119.78 245.427M1119.78 245.427L1062.41 258.047L1022.69 259.788M1119.78 245.427L1147.15 249.561M1003.27 268.056L931.331 317.231M883.225 364.665L837.326 360.749L804.225 322.453L790.102 331.592L768.477 352.48L785.248 387.729M1210.27 233.677L1257.92 215.4M1677.64 161.873L1647.19 153.17H1569.95L1562.01 123.578L1521.4 114.875C1503.31 130.541 1467.12 163.005 1467.12 167.531C1467.12 172.057 1433.87 165.645 1417.25 161.873L1389.88 179.716L1336.48 196.687L1301.17 191.901L1272.49 209.743M1750.02 228.02L1774.29 234.548L1799.01 260.658C1801.36 268.056 1807.83 282.852 1814.89 282.852C1821.96 282.852 1843.73 282.852 1853.73 282.852M1165.24 375.98L1167.01 400.349L1163.49 414.71" stroke="#C2C1C1" stroke-width="2" stroke-linecap="round" stroke-linejoin="round" stroke-dasharray="4 4"/>
<path d="M787.892 400.349L767.149 418.191L737.138 432.552L708.451 447.783L691.238 449.524L671.819 461.274L662.993 481.727L648.87 494.347M647.546 491.301L658.138 479.551L663.434 453.005L696.535 432.552L718.602 434.728L734.048 422.978L727.87 414.275L717.278 405.136L713.305 391.646L702.272 383.812V376.85L707.127 374.674C705.802 364.665 697.039 378.59 693.445 362.054C690.797 349.869 704.92 347.258 703.155 344.211C701.39 341.165 687.708 352.48 685.06 343.776C682.412 335.073 690.118 325.934 688.591 323.758C684.619 318.101 680.205 332.897 673.144 318.536C667.6 307.262 680.205 301.999 678.881 298.518C677.303 294.369 665.641 304.175 660.345 297.648C655.049 291.12 667.354 275.245 664.758 274.148C658.579 271.537 630.775 293.731 627.244 285.028C625.302 280.241 621.948 284.157 614.887 280.676C608.165 277.361 621.065 271.972 620.183 269.796C619.653 268.491 612.68 272.407 608.708 267.185C603.09 259.8 613.121 257.829 611.797 255.871C611.356 255.218 603.347 257.594 602.97 253.695C602.088 244.556 612.68 244.121 610.473 241.51C608.708 239.421 605.177 241.51 604.736 239.334M786.568 391.646L765.825 393.386L767.149 398.608L752.585 405.136L740.669 395.997L743.317 387.294L727.87 382.072L726.546 373.803H709.333C709.333 372.498 709.157 369.19 708.451 366.405C707.568 362.924 702.272 373.803 699.624 361.618C696.976 349.434 708.451 348.998 705.361 342.036C702.272 335.073 691.238 348.563 688.59 339.86C685.942 331.156 696.535 327.675 691.238 318.971C685.942 310.268 681.088 328.545 676.674 316.795C672.261 305.046 688.59 301.564 684.618 294.166C680.646 286.768 668.73 300.694 663.434 294.166C658.138 287.639 671.819 275.454 666.523 271.102C661.227 266.75 632.54 291.12 629.009 282.417C625.479 273.713 654.166 265.445 650.635 261.528C647.104 257.612 621.948 285.028 617.093 279.37C612.239 273.713 633.423 267.621 632.54 265.445C631.657 263.269 617.093 271.972 610.473 265.445C603.853 258.917 625.479 250.214 621.948 247.602C618.417 244.991 610.473 259.352 606.06 254.13C601.646 248.908 619.3 241.51 617.093 238.899C615.328 236.81 611.944 238.029 610.473 238.899" stroke="#C2C1C1" stroke-linecap="round" stroke-linejoin="round"/>
<path d="M746.843 420.367C749.05 420.367 749.491 419.061 749.932 418.191C750.374 419.061 750.815 420.367 753.022 420.367M751.698 418.626C753.904 418.626 754.346 417.321 754.787 416.45C755.228 417.321 755.67 418.626 757.877 418.626M741.988 417.756C744.195 417.756 744.636 416.45 745.078 415.58C745.519 416.45 745.96 417.756 748.167 417.756" stroke="#C2C1C1" stroke-linecap="round" stroke-linejoin="round"/>
<path d="M760.968 411.664C763.175 411.664 763.616 410.358 764.057 409.488C764.499 410.358 764.94 411.664 767.147 411.664M765.823 409.923C768.029 409.923 768.471 408.617 768.912 407.747C769.353 408.617 769.795 409.923 772.002 409.923M756.113 409.053C758.32 409.053 758.761 407.747 759.203 406.877C759.644 407.747 760.085 409.053 762.292 409.053" stroke="#C2C1C1" stroke-linecap="round" stroke-linejoin="round"/>
<path d="M736.253 410.793C738.46 410.793 738.901 409.488 739.343 408.617C739.784 409.488 740.225 410.793 742.432 410.793M741.108 409.052C743.315 409.052 743.756 407.747 744.197 406.876C744.639 407.747 745.08 409.052 747.287 409.052M731.398 408.182C733.605 408.182 734.046 406.876 734.488 406.006C734.929 406.876 735.371 408.182 737.577 408.182" stroke="#C2C1C1" stroke-linecap="round" stroke-linejoin="round"/>
<path d="M698.296 439.515C700.503 439.515 700.944 438.209 701.386 437.339C701.827 438.209 702.268 439.515 704.475 439.515M703.151 437.774C705.358 437.774 705.799 436.469 706.24 435.598C706.682 436.469 707.123 437.774 709.33 437.774M693.441 436.904C695.648 436.904 696.089 435.598 696.531 434.728C696.972 435.598 697.413 436.904 699.62 436.904" stroke="#C2C1C1" stroke-linecap="round" stroke-linejoin="round"/>
<path d="M693.882 446.477C696.089 446.477 696.53 445.172 696.971 444.301C697.413 445.172 697.854 446.477 700.061 446.477M698.737 444.737C700.944 444.737 701.385 443.431 701.826 442.561C702.268 443.431 702.709 444.737 704.916 444.737M689.027 443.866C691.234 443.866 691.675 442.561 692.117 441.69C692.558 442.561 692.999 443.866 695.206 443.866" stroke="#C2C1C1" stroke-linecap="round" stroke-linejoin="round"/>
<path d="M672.698 454.311C674.905 454.311 675.347 453.005 675.788 452.135C676.229 453.005 676.671 454.311 678.877 454.311M677.553 452.57C679.76 452.57 680.201 451.265 680.643 450.394C681.084 451.265 681.525 452.57 683.732 452.57M667.844 451.7C670.05 451.7 670.492 450.394 670.933 449.524C671.374 450.394 671.816 451.7 674.023 451.7" stroke="#C2C1C1" stroke-linecap="round" stroke-linejoin="round"/>
<path d="M662.546 467.366C664.753 467.366 665.194 466.061 665.635 465.19C666.077 466.061 666.518 467.366 668.725 467.366M659.457 472.588C661.663 472.588 662.105 471.283 662.546 470.412C662.987 471.283 663.429 472.588 665.635 472.588M656.367 482.162C658.574 482.162 659.015 480.857 659.457 479.986C659.898 480.857 660.339 482.162 662.546 482.162M717.272 438.209C719.479 438.209 719.92 436.904 720.362 436.033C720.803 436.904 721.244 438.209 723.451 438.209" stroke="#C2C1C1" stroke-linecap="round" stroke-linejoin="round"/>
<path d="M734.484 429.941C736.69 429.941 737.132 428.635 737.573 427.765C738.014 428.635 738.456 429.941 740.662 429.941M739.338 428.2C741.545 428.2 741.986 426.895 742.428 426.024C742.869 426.895 743.31 428.2 745.517 428.2M729.629 427.33C731.836 427.33 732.277 426.024 732.718 425.154C733.16 426.024 733.601 427.33 735.808 427.33" stroke="#C2C1C1" stroke-linecap="round" stroke-linejoin="round"/>
<path d="M773.323 401.219C775.53 401.219 775.972 399.914 776.413 399.044C776.854 399.914 777.296 401.219 779.502 401.219M778.178 399.479C780.385 399.479 780.826 398.173 781.268 397.303C781.709 398.173 782.15 399.479 784.357 399.479M768.469 398.608C770.675 398.608 771.117 397.303 771.558 396.432C771.999 397.303 772.441 398.608 774.648 398.608" stroke="#C2C1C1" stroke-linecap="round" stroke-linejoin="round"/>
<path d="M723.007 401.219C725.214 401.219 725.655 399.914 726.096 399.044C726.538 399.914 726.979 401.219 729.186 401.219M727.862 399.479C730.069 399.479 730.51 398.173 730.951 397.303C731.393 398.173 731.834 399.479 734.041 399.479M718.152 398.608C720.359 398.608 720.8 397.303 721.242 396.432C721.683 397.303 722.124 398.608 724.331 398.608" stroke="#C2C1C1" stroke-linecap="round" stroke-linejoin="round"/>
<path d="M729.191 392.516C731.397 392.516 731.839 391.211 732.28 390.34C732.721 391.211 733.163 392.516 735.369 392.516M734.045 390.775C736.252 390.775 736.693 389.47 737.135 388.599C737.576 389.47 738.017 390.775 740.224 390.775M724.336 389.905C726.543 389.905 726.984 388.599 727.425 387.729C727.867 388.599 728.308 389.905 730.515 389.905" stroke="#C2C1C1" stroke-linecap="round" stroke-linejoin="round"/>
<path d="M711.534 385.553C713.741 385.553 714.182 384.247 714.624 383.377C715.065 384.247 715.506 385.553 717.713 385.553M716.389 383.812C718.596 383.812 719.037 382.507 719.479 381.636C719.92 382.507 720.361 383.812 722.568 383.812M706.68 382.942C708.886 382.942 709.328 381.636 709.769 380.766C710.21 381.636 710.652 382.942 712.858 382.942" stroke="#C2C1C1" stroke-linecap="round" stroke-linejoin="round"/>
<path d="M715.945 379.46C718.151 379.46 718.593 378.155 719.034 377.285C719.475 378.155 719.917 379.46 722.123 379.46M720.799 377.72C723.006 377.72 723.447 376.414 723.889 375.544C724.33 376.414 724.771 377.72 726.978 377.72M711.09 376.849C713.297 376.849 713.738 375.544 714.179 374.674C714.621 375.544 715.062 376.849 717.269 376.849" stroke="#C2C1C1" stroke-linecap="round" stroke-linejoin="round"/>
<path d="M699.13 368.581C700.111 368.581 700.307 367.869 700.503 367.394C700.7 367.869 700.896 368.581 701.876 368.581M696.973 367.157C697.953 367.157 698.15 366.445 698.346 365.97C698.542 366.445 698.738 367.157 699.719 367.157" stroke="#C2C1C1" stroke-linecap="round" stroke-linejoin="round"/>
<path d="M696.478 363.359C697.459 363.359 697.655 362.647 697.851 362.172C698.047 362.647 698.243 363.359 699.224 363.359M694.32 361.935C695.301 361.935 695.497 361.223 695.693 360.748C695.89 361.223 696.086 361.935 697.066 361.935" stroke="#C2C1C1" stroke-linecap="round" stroke-linejoin="round"/>
<path d="M696.478 358.137C697.459 358.137 697.655 357.425 697.851 356.95C698.047 357.425 698.243 358.137 699.224 358.137M694.32 356.713C695.301 356.713 695.497 356.001 695.693 355.526C695.89 356.001 696.086 356.713 697.066 356.713" stroke="#C2C1C1" stroke-linecap="round" stroke-linejoin="round"/>
<path d="M702.658 343.341C703.638 343.341 703.835 342.629 704.031 342.154C704.227 342.629 704.423 343.341 705.404 343.341M700.5 341.917C701.481 341.917 701.677 341.205 701.873 340.73C702.069 341.205 702.265 341.917 703.246 341.917" stroke="#C2C1C1" stroke-linecap="round" stroke-linejoin="round"/>
<path d="M690.302 345.952C691.283 345.952 691.479 345.24 691.675 344.765C691.871 345.24 692.068 345.952 693.048 345.952M688.145 344.528C689.125 344.528 689.321 343.816 689.518 343.341C689.714 343.816 689.91 344.528 690.891 344.528" stroke="#C2C1C1" stroke-linecap="round" stroke-linejoin="round"/>
<path d="M686.771 341.6C687.752 341.6 687.948 340.888 688.144 340.414C688.34 340.888 688.536 341.6 689.517 341.6M684.613 340.176C685.594 340.176 685.79 339.464 685.986 338.989C686.182 339.464 686.379 340.176 687.359 340.176" stroke="#C2C1C1" stroke-linecap="round" stroke-linejoin="round"/>
<path d="M689.415 322.453C690.396 322.453 690.592 321.741 690.789 321.266C690.985 321.741 691.181 322.453 692.162 322.453M687.258 321.029C688.239 321.029 688.435 320.317 688.631 319.842C688.827 320.317 689.023 321.029 690.004 321.029" stroke="#C2C1C1" stroke-linecap="round" stroke-linejoin="round"/>
<path d="M679.708 324.193C680.689 324.193 680.885 323.481 681.082 323.006C681.278 323.481 681.474 324.193 682.455 324.193M677.551 322.769C678.532 322.769 678.728 322.057 678.924 321.582C679.12 322.057 679.316 322.769 680.297 322.769" stroke="#C2C1C1" stroke-linecap="round" stroke-linejoin="round"/>
<path d="M674.415 317.231C675.396 317.231 675.592 316.519 675.789 316.044C675.985 316.519 676.181 317.231 677.162 317.231M672.258 315.806C673.239 315.806 673.435 315.094 673.631 314.62C673.827 315.094 674.023 315.806 675.004 315.806" stroke="#C2C1C1" stroke-linecap="round" stroke-linejoin="round"/>
<path d="M681.478 298.083C682.459 298.083 682.655 297.371 682.851 296.896C683.047 297.371 683.243 298.083 684.224 298.083M679.32 296.659C680.301 296.659 680.497 295.947 680.693 295.472C680.89 295.947 681.086 296.659 682.066 296.659" stroke="#C2C1C1" stroke-linecap="round" stroke-linejoin="round"/>
<path d="M674.415 297.212C675.396 297.212 675.592 296.5 675.789 296.025C675.985 296.5 676.181 297.212 677.162 297.212M672.258 295.788C673.239 295.788 673.435 295.076 673.631 294.601C673.827 295.076 674.023 295.788 675.004 295.788" stroke="#C2C1C1" stroke-linecap="round" stroke-linejoin="round"/>
<path d="M665.587 298.953C666.568 298.953 666.764 298.241 666.96 297.766C667.157 298.241 667.353 298.953 668.333 298.953M663.43 297.529C664.41 297.529 664.607 296.817 664.803 296.342C664.999 296.817 665.195 297.529 666.176 297.529" stroke="#C2C1C1" stroke-linecap="round" stroke-linejoin="round"/>
<path d="M661.169 295.471C662.15 295.471 662.346 294.759 662.542 294.285C662.739 294.759 662.935 295.471 663.916 295.471M659.012 294.047C659.992 294.047 660.189 293.335 660.385 292.86C660.581 293.335 660.777 294.047 661.758 294.047" stroke="#C2C1C1" stroke-linecap="round" stroke-linejoin="round"/>
<path d="M663.822 273.713C664.802 273.713 664.999 273.001 665.195 272.526C665.391 273.001 665.587 273.713 666.568 273.713M661.664 272.288C662.645 272.288 662.841 271.576 663.037 271.102C663.233 271.576 663.429 272.288 664.41 272.288" stroke="#C2C1C1" stroke-linecap="round" stroke-linejoin="round"/>
<path d="M625.869 282.416C626.849 282.416 627.046 281.704 627.242 281.229C627.438 281.704 627.634 282.416 628.615 282.416M623.711 280.992C624.692 280.992 624.888 280.28 625.084 279.805C625.28 280.28 625.476 280.992 626.457 280.992" stroke="#C2C1C1" stroke-linecap="round" stroke-linejoin="round"/>
<path d="M622.337 270.231C623.318 270.231 623.514 269.519 623.71 269.045C623.907 269.519 624.103 270.231 625.083 270.231M620.18 268.807C621.16 268.807 621.357 268.095 621.553 267.62C621.749 268.095 621.945 268.807 622.926 268.807" stroke="#C2C1C1" stroke-linecap="round" stroke-linejoin="round"/>
<path d="M612.234 254.882C613.215 254.882 613.411 254.17 613.607 253.695C613.804 254.17 614 254.882 614.98 254.882M614.784 252.824C615.765 252.824 615.961 252.112 616.157 251.638C616.354 252.112 616.55 252.824 617.53 252.824M617.089 250.649C618.07 250.649 618.266 249.936 618.462 249.462C618.658 249.936 618.854 250.649 619.835 250.649" stroke="#C2C1C1" stroke-linecap="round" stroke-linejoin="round"/>
<path d="M608.703 244.319C609.684 244.319 609.88 243.607 610.076 243.132C610.272 243.607 610.468 244.319 611.449 244.319M611.253 242.262C612.234 242.262 612.43 241.549 612.626 241.075C612.822 241.549 613.018 242.262 613.999 242.262M613.558 240.086C614.539 240.086 614.735 239.374 614.931 238.899C615.127 239.374 615.323 240.086 616.304 240.086" stroke="#C2C1C1" stroke-linecap="round" stroke-linejoin="round"/>
<path d="M761.406 479.8C765.084 480.157 771.925 484.947 772.808 486.949M763.981 477.655C767.659 478.012 774.499 482.802 775.382 484.804M766.555 475.868C770.233 476.225 777.074 481.015 777.957 483.017M769.865 474.438C773.543 474.795 780.384 479.585 781.267 481.587M792.3 471.936C788.622 472.293 781.781 477.083 780.899 479.085M789.726 470.148C786.048 470.506 779.207 475.296 778.324 477.298M787.151 468.361C783.473 468.718 776.632 473.508 775.75 475.51M783.841 466.931C780.163 467.289 773.322 472.079 772.44 474.08" stroke="#C2C1C1" stroke-linecap="round" stroke-linejoin="round"/>
<path d="M758.758 464.134C762.436 464.491 769.276 469.281 770.159 471.283M761.332 461.989C765.01 462.346 771.851 467.136 772.734 469.138M763.907 460.201C767.585 460.559 774.425 465.349 775.308 467.351M767.217 458.772C770.895 459.129 777.735 463.919 778.618 465.921M789.652 456.269C785.974 456.627 779.133 461.417 778.25 463.419M787.077 454.482C783.399 454.84 776.559 459.629 775.676 461.631M784.503 452.695C780.825 453.052 773.984 457.842 773.101 459.844M781.193 451.265C777.515 451.622 770.674 456.412 769.791 458.414" stroke="#C2C1C1" stroke-linecap="round" stroke-linejoin="round"/>
<path d="M736.691 480.67C740.264 481.028 746.909 485.818 747.767 487.819M739.192 478.525C742.765 478.883 749.41 483.673 750.268 485.675M741.693 476.738C745.266 477.096 751.911 481.886 752.769 483.887M744.909 475.308C748.482 475.666 755.127 480.456 755.984 482.457M766.703 472.806C763.13 473.163 756.484 477.953 755.627 479.955M764.202 471.019C760.629 471.376 753.984 476.166 753.126 478.168M761.701 469.231C758.128 469.589 751.483 474.379 750.625 476.381M758.485 467.802C754.912 468.159 748.267 472.949 747.41 474.951" stroke="#C2C1C1" stroke-linecap="round" stroke-linejoin="round"/>
<path d="M736.691 463.263C740.369 463.621 747.21 468.411 748.093 470.413M739.266 461.118C742.944 461.476 749.785 466.266 750.667 468.268M741.84 459.331C745.518 459.689 752.359 464.479 753.242 466.48M745.15 457.901C748.828 458.259 755.669 463.049 756.552 465.051M767.585 455.399C763.907 455.757 757.067 460.547 756.184 462.548M765.011 453.612C761.333 453.969 754.492 458.759 753.609 460.761M762.436 451.824C758.758 452.182 751.918 456.972 751.035 458.974M759.126 450.395C755.448 450.752 748.608 455.542 747.725 457.544" stroke="#C2C1C1" stroke-linecap="round" stroke-linejoin="round"/>
<path d="M713.742 478.93C717.42 479.287 724.261 484.077 725.143 486.079M716.317 476.785C719.995 477.142 726.835 481.932 727.718 483.934M718.891 474.997C722.569 475.355 729.41 480.145 730.292 482.147M722.201 473.568C725.879 473.925 732.72 478.715 733.603 480.717M744.636 471.065C740.958 471.423 734.117 476.213 733.235 478.215M742.062 469.278C738.384 469.635 731.543 474.425 730.66 476.427M739.487 467.491C735.809 467.848 728.968 472.638 728.086 474.64M736.177 466.061C732.499 466.418 725.658 471.208 724.776 473.21" stroke="#C2C1C1" stroke-linecap="round" stroke-linejoin="round"/>
<path d="M713.742 462.393C717.42 462.75 724.261 467.54 725.143 469.542M716.317 460.248C719.995 460.606 726.835 465.396 727.718 467.397M718.891 458.461C722.569 458.818 729.41 463.608 730.292 465.61M722.201 457.031C725.879 457.388 732.72 462.178 733.603 464.18M744.636 454.529C740.958 454.886 734.117 459.676 733.235 461.678M742.062 452.741C738.384 453.099 731.543 457.889 730.66 459.891M739.487 450.954C735.809 451.311 728.968 456.102 728.086 458.103M736.177 449.524C732.499 449.882 725.658 454.672 724.776 456.673" stroke="#C2C1C1" stroke-linecap="round" stroke-linejoin="round"/>
<path d="M714.625 496.336C718.303 496.694 725.144 501.484 726.026 503.486M717.199 494.192C720.877 494.549 727.718 499.339 728.601 501.341M719.774 492.404C723.452 492.762 730.293 497.552 731.175 499.554M723.084 490.974C726.762 491.332 733.603 496.122 734.485 498.124M745.519 488.472C741.841 488.83 735 493.62 734.118 495.621M742.944 486.685C739.267 487.042 732.426 491.832 731.543 493.834M740.37 484.898C736.692 485.255 729.851 490.045 728.969 492.047M737.06 483.468C733.382 483.825 726.541 488.615 725.659 490.617" stroke="#C2C1C1" stroke-linecap="round" stroke-linejoin="round"/>
<path d="M738.457 496.336C742.135 496.694 748.976 501.484 749.858 503.486M741.032 494.192C744.709 494.549 751.55 499.339 752.433 501.341M743.606 492.404C747.284 492.762 754.125 497.552 755.007 499.554M746.916 490.974C750.594 491.332 757.435 496.122 758.317 498.124M769.351 488.472C765.673 488.83 758.832 493.62 757.95 495.621M766.776 486.685C763.099 487.042 756.258 491.832 755.375 493.834M764.202 484.898C760.524 485.255 753.683 490.045 752.801 492.047M760.892 483.468C757.214 483.825 750.373 488.615 749.491 490.617" stroke="#C2C1C1" stroke-linecap="round" stroke-linejoin="round"/>
<path d="M762.289 497.207C765.862 497.564 772.507 502.354 773.365 504.356M764.79 495.062C768.363 495.419 775.008 500.209 775.866 502.211M767.291 493.275C770.864 493.632 777.509 498.422 778.366 500.424M770.506 491.845C774.079 492.202 780.724 496.992 781.582 498.994M792.3 489.342C788.727 489.7 782.082 494.49 781.225 496.492M789.799 487.555C786.227 487.913 779.581 492.703 778.724 494.704M787.298 485.768C783.726 486.125 777.08 490.915 776.223 492.917M784.083 484.338C780.51 484.695 773.865 489.485 773.007 491.487" stroke="#C2C1C1" stroke-linecap="round" stroke-linejoin="round"/>
<path d="M757.875 446.727C761.553 447.084 768.394 451.874 769.276 453.876M760.449 444.582C764.127 444.939 770.968 449.729 771.851 451.731M763.024 442.795C766.702 443.152 773.543 447.942 774.425 449.944M766.334 441.365C770.012 441.722 776.853 446.512 777.735 448.514M788.769 438.862C785.091 439.22 778.25 444.01 777.368 446.012M786.194 437.075C782.517 437.433 775.676 442.223 774.793 444.224M783.62 435.288C779.942 435.645 773.101 440.435 772.219 442.437M780.31 433.858C776.632 434.215 769.791 439.005 768.909 441.007" stroke="#C2C1C1" stroke-linecap="round" stroke-linejoin="round"/>
<path d="M756.113 430.749C759.709 431.122 766.398 436.121 767.261 438.209M758.631 428.511C762.227 428.884 768.915 433.883 769.778 435.971M761.148 426.646C764.744 427.019 771.433 432.018 772.296 434.106M764.384 425.154C767.98 425.527 774.669 430.526 775.532 432.614" stroke="#C2C1C1" stroke-linecap="round" stroke-linejoin="round"/>
<path d="M711.304 215.658H706.2V223.208H703.649V215.658H693.441L701.097 206.849H695.993L702.373 198.04H698.545L703.649 190.49H701.097L704.925 184.198L708.752 190.49H706.2L711.304 198.04H707.476L713.537 205.561M711.623 210.205L708.752 206.849H713.537M754.089 171.813C754.089 168.795 755.045 163.764 756.956 163.764C758.868 163.764 760.78 167.788 760.78 171.813C763.647 171.813 763.647 178.857 763.647 181.876M754.089 171.813C750.266 171.813 750.266 179.863 750.266 181.876M754.089 171.813C754.089 174.497 754.854 179.863 757.912 179.863M752.178 197.975C752.178 202 753.133 204.013 757.912 204.013M752.178 197.975C746.443 197.975 747.399 180.871 750.266 181.876M752.178 197.975C751.859 195.963 751.796 191.938 754.089 191.938M757.912 204.013C762.691 204.013 763.647 200.994 763.647 197.975M757.912 204.013V212.062M763.647 197.975C765.558 197.975 765.558 192.945 765.558 190.932C767.47 190.932 768.426 181.876 763.647 181.876M763.647 197.975C763.647 197.304 762.882 195.963 759.824 195.963M763.647 181.876C763.966 183.888 763.647 187.913 759.824 187.913M750.266 181.876C749.947 183.217 749.692 185.9 751.222 185.9M768.79 217.635C768.79 214.849 769.65 210.205 771.37 210.205C773.091 210.205 774.811 213.92 774.811 217.635C777.392 217.635 777.392 224.137 777.392 226.923M768.79 217.635C765.349 217.635 765.349 225.066 765.349 226.923M768.79 217.635C768.79 220.112 769.478 225.066 772.23 225.066M767.069 241.785C767.069 245.5 767.929 247.358 772.23 247.358M767.069 241.785C761.908 241.785 762.769 225.996 765.349 226.923M767.069 241.785C766.783 239.927 766.725 236.212 768.79 236.212M772.23 247.358C776.531 247.358 777.392 244.571 777.392 241.785M772.23 247.358V254.788M777.392 241.785C779.112 241.785 779.112 237.141 779.112 235.283C780.832 235.283 781.693 226.923 777.392 226.923M777.392 241.785C777.392 241.165 776.703 239.927 773.951 239.927M777.392 226.923C777.678 228.781 777.392 232.496 773.951 232.496M765.349 226.923C765.062 228.162 764.832 230.639 766.209 230.639M730.513 223.208C730.513 220.422 731.373 215.778 733.093 215.778C734.814 215.778 736.534 219.493 736.534 223.208C739.115 223.208 739.115 229.71 739.115 232.496M730.513 223.208C727.072 223.208 727.072 230.639 727.072 232.496M730.513 223.208C730.513 225.685 731.201 230.639 733.953 230.639M728.792 247.358C728.792 251.073 729.652 252.93 733.953 252.93M728.792 247.358C723.631 247.358 724.492 231.569 727.072 232.496M728.792 247.358C728.506 245.5 728.448 241.785 730.513 241.785M733.953 252.93C738.254 252.93 739.115 250.144 739.115 247.358M733.953 252.93V260.361M739.115 247.358C740.835 247.358 740.835 242.714 740.835 240.856C742.555 240.856 743.416 232.496 739.115 232.496M739.115 247.358C739.115 246.738 738.426 245.5 735.674 245.5M739.115 232.496C739.401 234.354 739.115 238.069 735.674 238.069M727.072 232.496C726.785 233.735 726.555 236.212 727.932 236.212M712.414 235.592C712.414 233.735 712.987 230.639 714.134 230.639C715.281 230.639 716.428 233.116 716.428 235.592C718.149 235.592 718.149 239.927 718.149 241.785M712.414 235.592C710.12 235.592 710.12 240.546 710.12 241.785M712.414 235.592C712.414 237.244 712.873 240.546 714.708 240.546M711.267 251.692C711.267 254.169 711.84 255.407 714.708 255.407M711.267 251.692C707.826 251.692 708.4 241.166 710.12 241.785M711.267 251.692C711.076 250.454 711.038 247.977 712.414 247.977M714.708 255.407C717.575 255.407 718.149 253.55 718.149 251.692M714.708 255.407V260.361M718.149 251.692C719.296 251.692 719.296 248.596 719.296 247.358C720.443 247.358 721.016 241.785 718.149 241.785M718.149 251.692C718.149 251.279 717.69 250.454 715.855 250.454M718.149 241.785C718.34 243.023 718.149 245.5 715.855 245.5M710.12 241.785C709.929 242.61 709.776 244.261 710.693 244.261M725.382 162.525C725.382 159.506 726.337 154.475 728.249 154.475C730.16 154.475 732.072 158.5 732.072 162.525C734.939 162.525 734.939 169.569 734.939 172.587M725.382 162.525C721.558 162.525 721.558 170.575 721.558 172.587M725.382 162.525C725.381 165.208 726.146 170.575 729.204 170.575M723.47 188.687C723.47 192.712 724.425 194.724 729.204 194.724M723.47 188.687C717.735 188.687 718.691 171.583 721.558 172.587M723.47 188.687C723.151 186.675 723.088 182.65 725.382 182.65M729.204 194.724C733.983 194.724 734.939 191.706 734.939 188.687M729.204 194.724V202.774M734.939 188.687C736.851 188.687 736.851 183.656 736.851 181.644C738.762 181.644 739.718 172.587 734.939 172.587M734.939 188.687C734.939 188.016 734.174 186.675 731.116 186.675M734.939 172.587C735.258 174.6 734.939 178.625 731.116 178.625M721.558 172.587C721.24 173.929 720.985 176.612 722.514 176.612M742.245 190.699L738.417 196.272H741.288L736.503 202.774H740.331L734.589 209.276H742.245V214.849H744.158V209.276H751.814L746.072 202.774H749.9L745.115 196.272H747.986L744.158 190.699H746.072L743.202 186.055L740.331 190.699H742.245ZM779.246 173.771L774.142 181.321H777.97L771.59 190.13H776.694L769.038 198.939H779.246V206.489H781.797V198.939H792.005L784.349 190.13H789.453L783.073 181.321H786.901L781.797 173.771H784.349L780.522 167.479L776.694 173.771H779.246ZM752.452 216.497L747.348 224.047H751.176L744.796 232.856H749.9L742.245 241.665H752.452V249.215H755.004V241.665H765.211L757.555 232.856H762.659L756.279 224.047H760.107L755.004 216.497H757.555L753.728 210.205L749.9 216.497H752.452ZM715.451 205.71L711.623 211.463H714.494L709.709 218.175H713.537L707.795 224.886H715.451V230.639H717.365V224.886H725.02L719.278 218.175H723.106L718.321 211.463H721.192L717.365 205.71H719.278L716.408 200.916L713.537 205.71H715.451ZM786.263 205.71L782.435 211.463H785.306L780.522 218.175H784.349L778.608 224.886H786.263V230.639H788.177V224.886H795.832L790.091 218.175H793.919L789.134 211.463H792.005L788.177 205.71H790.091L787.22 200.916L784.349 205.71H786.263Z" stroke="#C2C1C1" stroke-linecap="round" stroke-linejoin="round"/>
<path d="M630.353 400.188H626.438V406.022H624.48V400.188H616.648L622.522 393.382H618.606L623.501 386.576H620.564L624.48 380.742H622.522L625.459 375.881L628.396 380.742H626.438L630.353 386.576H627.417L632.066 392.387M630.598 395.975L628.396 393.382H632.066M663.18 366.312C663.18 363.979 663.913 360.092 665.38 360.092C666.846 360.092 668.313 363.202 668.313 366.312C670.513 366.312 670.513 371.754 670.513 374.086M663.18 366.312C660.247 366.312 660.247 372.532 660.247 374.086M663.18 366.312C663.18 368.385 663.766 372.532 666.113 372.532M661.713 386.526C661.713 389.636 662.446 391.191 666.113 391.191M661.713 386.526C657.313 386.526 658.047 373.31 660.247 374.086M661.713 386.526C661.469 384.971 661.42 381.861 663.18 381.861M666.113 391.191C669.78 391.191 670.513 388.858 670.513 386.526M666.113 391.191V397.41M670.513 386.526C671.98 386.526 671.98 382.639 671.98 381.084C673.446 381.084 674.18 374.086 670.513 374.086M670.513 386.526C670.513 386.008 669.926 384.971 667.58 384.971M670.513 374.086C670.757 375.641 670.513 378.751 667.58 378.751M660.247 374.086C660.002 375.123 659.806 377.196 660.98 377.196M674.459 401.716C674.459 399.563 675.119 395.975 676.439 395.975C677.759 395.975 679.079 398.846 679.079 401.716C681.059 401.716 681.059 406.74 681.059 408.893M674.459 401.716C671.819 401.716 671.819 407.458 671.819 408.893M674.459 401.716C674.459 403.63 674.987 407.458 677.099 407.458M673.139 420.375C673.139 423.246 673.799 424.681 677.099 424.681M673.139 420.375C669.179 420.375 669.839 408.176 671.819 408.893M673.139 420.375C672.919 418.94 672.875 416.069 674.459 416.069M677.099 424.681C680.399 424.681 681.059 422.528 681.059 420.375M677.099 424.681V430.423M681.059 420.375C682.378 420.375 682.378 416.788 682.378 415.352C683.698 415.352 684.358 408.893 681.059 408.893M681.059 420.375C681.059 419.897 680.53 418.94 678.419 418.94M681.059 408.893C681.279 410.328 681.058 413.199 678.419 413.199M671.819 408.893C671.599 409.85 671.423 411.764 672.479 411.764M645.091 406.022C645.091 403.869 645.751 400.281 647.071 400.281C648.391 400.281 649.711 403.152 649.711 406.022C651.691 406.022 651.691 411.046 651.691 413.199M645.091 406.022C642.451 406.022 642.451 411.764 642.451 413.199M645.091 406.022C645.091 407.936 645.619 411.764 647.731 411.764M643.771 424.681C643.771 427.552 644.431 428.987 647.731 428.987M643.771 424.681C639.811 424.681 640.471 412.482 642.451 413.199M643.771 424.681C643.551 423.246 643.507 420.375 645.091 420.375M647.731 428.987C651.031 428.987 651.691 426.834 651.691 424.681M647.731 428.987V434.729M651.691 424.681C653.011 424.681 653.011 421.093 653.011 419.658C654.331 419.658 654.991 413.199 651.691 413.199M651.691 424.681C651.691 424.203 651.163 423.246 649.051 423.246M651.691 413.199C651.911 414.634 651.691 417.505 649.051 417.505M642.451 413.199C642.231 414.156 642.055 416.069 643.111 416.069M631.205 415.591C631.205 414.156 631.645 411.764 632.525 411.764C633.405 411.764 634.285 413.677 634.285 415.591C635.605 415.591 635.605 418.94 635.605 420.375M631.205 415.591C629.445 415.591 629.445 419.419 629.445 420.375M631.205 415.591C631.205 416.867 631.557 419.419 632.965 419.419M630.325 428.03C630.325 429.944 630.765 430.901 632.965 430.901M630.325 428.03C627.685 428.03 628.125 419.898 629.445 420.375M630.325 428.03C630.178 427.074 630.149 425.16 631.205 425.16M632.965 430.901C635.165 430.901 635.605 429.466 635.605 428.03M632.965 430.901V434.729M635.605 428.03C636.485 428.03 636.485 425.639 636.485 424.682C637.365 424.682 637.805 420.375 635.605 420.375M635.605 428.03C635.605 427.711 635.253 427.074 633.845 427.074M635.605 420.375C635.752 421.332 635.605 423.246 633.845 423.246M629.445 420.375C629.298 421.013 629.181 422.289 629.885 422.289M641.154 359.135C641.154 356.803 641.887 352.916 643.354 352.916C644.821 352.916 646.287 356.025 646.287 359.135C648.487 359.135 648.487 364.577 648.487 366.91M641.154 359.135C638.221 359.135 638.221 365.355 638.221 366.91M641.154 359.135C641.154 361.208 641.741 365.355 644.087 365.355M639.688 379.349C639.688 382.459 640.421 384.014 644.087 384.014M639.688 379.349C635.288 379.349 636.021 366.133 638.221 366.91M639.688 379.349C639.443 377.794 639.394 374.685 641.154 374.685M644.087 384.014C647.754 384.014 648.487 381.682 648.487 379.349M644.087 384.014V390.234M648.487 379.349C649.954 379.349 649.954 375.462 649.954 373.907C651.42 373.907 652.154 366.91 648.487 366.91M648.487 379.349C648.487 378.831 647.9 377.794 645.554 377.794M648.487 366.91C648.732 368.465 648.487 371.575 645.554 371.575M638.221 366.91C637.976 367.946 637.781 370.02 638.954 370.02M654.092 380.904L651.155 385.21H653.358L649.687 390.234H652.624L648.219 395.257H654.092V399.563H655.561V395.257H661.434L657.029 390.234H659.966L656.295 385.21H658.497L655.561 380.904H657.029L654.826 377.316L652.624 380.904H654.092ZM682.481 367.824L678.565 373.658H681.502L676.607 380.464H680.523L674.65 387.271H682.481V393.104H684.439V387.271H692.27L686.397 380.464H690.312L685.418 373.658H688.355L684.439 367.824H686.397L683.46 362.963L680.523 367.824H682.481ZM661.924 400.837L658.008 406.67H660.945L656.05 413.477H659.966L654.092 420.283H661.924V426.117H663.881V420.283H671.713L665.839 413.477H669.755L664.86 406.67H667.797L663.881 400.837H665.839L662.903 395.975L659.966 400.837H661.924ZM633.535 392.502L630.598 396.947H632.801L629.13 402.133H632.066L627.661 407.319H633.535V411.764H635.003V407.319H640.877L636.472 402.133H639.408L635.737 396.947H637.94L635.003 392.502H636.472L634.269 388.798L632.066 392.502H633.535ZM687.865 392.502L684.928 396.947H687.131L683.46 402.133H686.397L681.992 407.319H687.865V411.764H689.333V407.319H695.207L690.802 402.133H693.739L690.068 396.947H692.27L689.333 392.502H690.802L688.599 388.798L686.397 392.502H687.865Z" stroke="#C2C1C1" stroke-linecap="round" stroke-linejoin="round"/>
<path d="M701.635 297.428H703.884M701.635 297.428V296.105H698.946H695.211V309.398C705.73 309.398 709.803 309.398 718.981 309.398V296.105L715.133 296.105L712.557 296.105V297.428H711.433M701.635 297.428V305.715M710.308 297.428V288.51L707.096 288.51L703.884 288.51V297.428M710.308 297.428H711.433M710.308 297.428H707.096V309.398M703.884 297.428V303.259M711.433 297.428V305.408" stroke="#C2C1C1" stroke-width="2" stroke-linecap="round" stroke-linejoin="round"/>
<path d="M661.381 246.459H663.134M661.381 246.459V245.467H659.284H656.371V255.436C664.574 255.436 667.75 255.436 674.907 255.436V245.467L671.906 245.467L669.898 245.467V246.459H669.021M661.381 246.459V252.674M668.144 246.459V239.77L665.639 239.77L663.134 239.77V246.459M668.144 246.459H669.021M668.144 246.459H665.639V255.436M663.134 246.459V250.832M669.021 246.459V252.444" stroke="#C2C1C1" stroke-width="2" stroke-linecap="round" stroke-linejoin="round"/>
<g filter="url(#filter7_f)">
<ellipse cx="654.537" cy="192.691" rx="8.61523" ry="2.46149" fill="black" fill-opacity="0.4"/>
</g>
<g filter="url(#filter8_d)">
<path d="M641.541 149.114C648.718 141.914 660.353 141.914 667.529 149.114V149.114C673.995 155.602 674.723 165.874 669.236 173.214L654.535 192.881L639.834 173.214C634.347 165.874 635.075 155.602 641.541 149.114V149.114Z" fill="white"/>
<path d="M653.736 193.482L654.535 194.55L655.334 193.482L670.035 173.815C675.82 166.076 675.053 155.246 668.235 148.406C660.669 140.814 648.402 140.814 640.835 148.406C634.018 155.246 633.251 166.076 639.036 173.815L653.736 193.482Z" stroke="#BCBCBC" stroke-width="2"/>
</g>
<ellipse cx="654.537" cy="161.923" rx="8.61523" ry="8.61523" fill="#BCBCBC"/>
</g>
<defs>
<filter id="filter0_d" x="-43.1914" y="-20.948" width="48.7458" height="62.5089" filterUnits="userSpaceOnUse" color-interpolation-filters="sRGB">
<feFlood flood-opacity="0" result="BackgroundImageFix"/>
<feColorMatrix in="SourceAlpha" type="matrix" values="0 0 0 0 0 0 0 0 0 0 0 0 0 0 0 0 0 0 127 0"/>
<feOffset dy="-1"/>
<feGaussianBlur stdDeviation="2"/>
<feColorMatrix type="matrix" values="0 0 0 0 0 0 0 0 0 0 0 0 0 0 0 0 0 0 0.3 0"/>
<feBlend mode="normal" in2="BackgroundImageFix" result="effect1_dropShadow"/>
<feBlend mode="normal" in="SourceGraphic" in2="effect1_dropShadow" result="shape"/>
</filter>
<filter id="filter1_f" x="-22.1094" y="227.863" width="25.2305" height="12.923" filterUnits="userSpaceOnUse" color-interpolation-filters="sRGB">
<feFlood flood-opacity="0" result="BackgroundImageFix"/>
<feBlend mode="normal" in="SourceGraphic" in2="BackgroundImageFix" result="shape"/>
<feGaussianBlur stdDeviation="2" result="effect1_foregroundBlur"/>
</filter>
<filter id="filter2_d" x="-33.8672" y="178.344" width="48.7458" height="62.5089" filterUnits="userSpaceOnUse" color-interpolation-filters="sRGB">
<feFlood flood-opacity="0" result="BackgroundImageFix"/>
<feColorMatrix in="SourceAlpha" type="matrix" values="0 0 0 0 0 0 0 0 0 0 0 0 0 0 0 0 0 0 127 0"/>
<feOffset dy="-1"/>
<feGaussianBlur stdDeviation="2"/>
<feColorMatrix type="matrix" values="0 0 0 0 0 0 0 0 0 0 0 0 0 0 0 0 0 0 0.3 0"/>
<feBlend mode="normal" in2="BackgroundImageFix" result="effect1_dropShadow"/>
<feBlend mode="normal" in="SourceGraphic" in2="effect1_dropShadow" result="shape"/>
</filter>
<filter id="filter3_f" x="35.7422" y="286.939" width="25.2305" height="12.923" filterUnits="userSpaceOnUse" color-interpolation-filters="sRGB">
<feFlood flood-opacity="0" result="BackgroundImageFix"/>
<feBlend mode="normal" in="SourceGraphic" in2="BackgroundImageFix" result="shape"/>
<feGaussianBlur stdDeviation="2" result="effect1_foregroundBlur"/>
</filter>
<filter id="filter4_d" x="23.9844" y="237.419" width="48.7458" height="62.5089" filterUnits="userSpaceOnUse" color-interpolation-filters="sRGB">
<feFlood flood-opacity="0" result="BackgroundImageFix"/>
<feColorMatrix in="SourceAlpha" type="matrix" values="0 0 0 0 0 0 0 0 0 0 0 0 0 0 0 0 0 0 127 0"/>
<feOffset dy="-1"/>
<feGaussianBlur stdDeviation="2"/>
<feColorMatrix type="matrix" values="0 0 0 0 0 0 0 0 0 0 0 0 0 0 0 0 0 0 0.3 0"/>
<feBlend mode="normal" in2="BackgroundImageFix" result="effect1_dropShadow"/>
<feBlend mode="normal" in="SourceGraphic" in2="effect1_dropShadow" result="shape"/>
</filter>
<filter id="filter5_f" x="164.414" y="38.417" width="25.2305" height="12.923" filterUnits="userSpaceOnUse" color-interpolation-filters="sRGB">
<feFlood flood-opacity="0" result="BackgroundImageFix"/>
<feBlend mode="normal" in="SourceGraphic" in2="BackgroundImageFix" result="shape"/>
<feGaussianBlur stdDeviation="2" result="effect1_foregroundBlur"/>
</filter>
<filter id="filter6_d" x="152.656" y="-11.1023" width="48.7458" height="62.5089" filterUnits="userSpaceOnUse" color-interpolation-filters="sRGB">
<feFlood flood-opacity="0" result="BackgroundImageFix"/>
<feColorMatrix in="SourceAlpha" type="matrix" values="0 0 0 0 0 0 0 0 0 0 0 0 0 0 0 0 0 0 127 0"/>
<feOffset dy="-1"/>
<feGaussianBlur stdDeviation="2"/>
<feColorMatrix type="matrix" values="0 0 0 0 0 0 0 0 0 0 0 0 0 0 0 0 0 0 0.3 0"/>
<feBlend mode="normal" in2="BackgroundImageFix" result="effect1_dropShadow"/>
<feBlend mode="normal" in="SourceGraphic" in2="effect1_dropShadow" result="shape"/>
</filter>
<filter id="filter7_f" x="641.922" y="186.23" width="25.2305" height="12.923" filterUnits="userSpaceOnUse" color-interpolation-filters="sRGB">
<feFlood flood-opacity="0" result="BackgroundImageFix"/>
<feBlend mode="normal" in="SourceGraphic" in2="BackgroundImageFix" result="shape"/>
<feGaussianBlur stdDeviation="2" result="effect1_foregroundBlur"/>
</filter>
<filter id="filter8_d" x="630.164" y="136.711" width="48.7458" height="62.5089" filterUnits="userSpaceOnUse" color-interpolation-filters="sRGB">
<feFlood flood-opacity="0" result="BackgroundImageFix"/>
<feColorMatrix in="SourceAlpha" type="matrix" values="0 0 0 0 0 0 0 0 0 0 0 0 0 0 0 0 0 0 127 0"/>
<feOffset dy="-1"/>
<feGaussianBlur stdDeviation="2"/>
<feColorMatrix type="matrix" values="0 0 0 0 0 0 0 0 0 0 0 0 0 0 0 0 0 0 0.3 0"/>
<feBlend mode="normal" in2="BackgroundImageFix" result="effect1_dropShadow"/>
<feBlend mode="normal" in="SourceGraphic" in2="effect1_dropShadow" result="shape"/>
</filter>
<clipPath id="clip0">
<rect x="-891" width="1920" height="688" fill="white"/>
</clipPath>
</defs>
</svg>
