<svg width="768" height="688" viewBox="0 0 768 688" fill="none" xmlns="http://www.w3.org/2000/svg">
<g clip-path="url(#clip0)">
<path d="M-605.465 -39.0053L-590.901 -29.8666L-588.695 -59.8937L-555.153 -57.7178L-545.443 -54.6716L-540.147 -56.4123L-530.879 -53.8013L-531.32 -43.357H-522.052L-519.845 -53.3661L-512.784 -51.6254H-500.868L-499.102 -56.4123L-491.158 -59.8937L-484.097 -56.4123L-481.007 -72.0786L-482.773 -75.56H-467.326V-65.1158L-472.181 -59.8937L-441.728 -54.2364L-438.639 -47.7088L-430.253 -56.4123L-422.75 -58.5882L-423.633 -61.6344L-415.689 -65.1158L-411.276 -61.6344L-415.689 -51.6254L-411.276 -47.7088L-405.98 -56.4123H-389.209L-385.237 -50.3199L-372.438 -48.5791L-365.376 -54.2364L-352.136 -45.0977L-339.337 -28.5611L-349.047 -26.3852L-347.723 -5.4968L-353.901 2.33636L-338.896 16.262L-326.98 2.33636L-313.298 13.2158H-306.678L-305.795 7.99365L-296.527 -2.88574L-285.935 -10.7189L-281.522 -8.543L-272.695 -19.8576L-264.751 -25.0797L-261.22 -22.9038L-258.572 -26.3852L-246.214 -17.6817L-236.946 -27.6907L-234.298 -35.9591L-228.561 -39.4405L-229.443 -50.3199H-210.024L-205.611 -65.9862L-192.371 -82.5228L-183.985 -79.4766L-177.365 -85.5691L-181.779 -91.6615L-159.27 -91.2263L-166.773 -103.411L-159.27 -109.504L-141.617 -92.967L-140.293 -83.8284L-127.052 -81.2173L-120.874 -70.3379H-116.902V-81.2173L-107.633 -82.5228L-106.309 -65.9862L-94.8345 -75.56L-93.9518 -89.9208L-86.8904 -91.2263H-82.9183V-86.0042H-75.8569L-74.0915 -91.2263L-65.2647 -89.9208L-63.4993 -82.5228L-48.9351 -86.0042L-49.8178 -93.8374L-43.639 -99.0595L-30.3988 -96.0133L-28.6334 -110.809L-38.7843 -114.291L-44.5217 -120.818L-52.9072 -122.994L-53.7899 -127.346H-33.4882L-21.572 -141.271L-29.5161 -157.808L-22.896 -160.419L-13.1865 -156.938L-7.89044 -168.252L-0.387634 -172.169L1.81903 -176.521L15.942 -180.002L18.59 -172.169L14.6179 -163.901L18.59 -158.679L22.1207 -160.419H32.2715L30.0648 -153.456L34.4782 -150.41L67.5788 -174.345L71.1095 -185.659H75.9642L87.8804 -173.039L101.562 -172.169L109.065 -182.178L132.456 -181.743L134.663 -185.659L143.931 -180.872L147.02 -183.048L152.758 -178.697L147.461 -166.947L152.758 -164.771L166.439 -152.151L158.495 -141.707L165.115 -136.92L173.942 -136.049L178.797 -139.096L189.389 -136.049L202.629 -161.29L198.657 -167.817L202.629 -172.169V-179.567L198.657 -183.484L208.808 -186.965L213.662 -191.317V-200.02L218.517 -203.502L216.752 -206.983L205.718 -204.372L202.629 -243.103L209.69 -253.547H226.903L241.908 -269.213L243.232 -263.556L257.797 -274L256.031 -259.639L267.947 -250.501L267.506 -240.056H259.562V-227.436L257.797 -223.955V-200.02L252.5 -192.187L245.439 -191.317L244.115 -185.659L252.5 -166.076L254.707 -173.039L265.741 -176.086L263.093 -166.076L254.707 -161.29V-156.067L265.741 -155.197L267.947 -148.669L259.562 -146.929L269.271 -125.605H274.126L279.422 -109.939L283.836 -107.763L287.366 -109.939L296.193 -107.763L302.813 -101.671H313.405L317.819 -97.3188H328.411L329.735 -105.587L320.467 -111.68L325.322 -114.291L331.059 -112.55L334.148 -115.596H339.444L341.21 -119.513L357.098 -118.207L368.573 -122.559L375.193 -121.689L379.606 -132.133L389.316 -127.346V-118.642H394.612L398.143 -127.346L406.97 -122.559L403.439 -112.115L410.059 -99.9298L408.735 -86.4394L417.562 -84.2635L426.389 -65.9862L419.327 -57.7178L412.266 -52.4957V-47.2736L416.238 -46.4033L418.444 -45.0977H424.182V-36.8294L416.238 -32.0425L427.713 -25.95L438.746 -29.4314H459.489L473.171 -24.2093L478.467 -23.339L484.646 -13.33L504.506 -18.9872V-11.1541L511.126 -9.84854L515.981 1.46603L512.009 4.07709L511.126 19.3082L527.897 21.0489L525.249 51.5112L518.629 58.0388L517.305 75.881L513.333 90.677H505.83V94.1584L511.126 95.8991L510.685 102.862L520.835 108.084V115.917L513.333 114.612L512.009 121.574L525.69 125.926H548.199L557.025 131.583L551.729 138.111L554.819 144.639L529.662 166.397L519.511 167.703L518.629 173.795L512.009 175.536L507.595 184.24L505.389 201.212L481.997 214.267L476.701 197.295L490.824 193.814L496.562 179.453L478.908 178.147L470.964 187.721L474.053 193.814L468.757 203.387H465.227L457.282 215.572L426.389 199.036V195.989L441.835 179.453V173.795L427.271 157.694L420.21 159L410.942 167.703L406.087 168.573L397.26 161.175L387.992 167.703L385.785 174.666H371.221L370.78 180.758L375.193 185.98L376.076 198.165L370.78 199.036L365.925 213.832H358.864L353.567 218.619L344.299 215.137L340.769 217.313L333.266 207.304L337.679 190.332L332.824 192.073L331.5 202.952H324.439L322.232 222.97L325.322 227.757L320.908 247.775L316.053 255.173L309.875 246.905H302.372V254.303L304.137 256.479L300.165 266.923L290.456 257.784L281.188 255.173L265.741 232.979L253.383 234.285V245.164L260.003 246.035L256.473 252.127L253.383 249.081L249.852 251.257L243.232 252.127L241.467 245.164H237.495L234.847 256.479L228.227 262.136L226.903 256.479L218.517 259.96L214.987 268.229L218.517 272.145L211.014 277.367L211.897 287.811L190.713 293.034L179.679 303.043L184.093 318.709L204.836 321.755L211.456 315.227L222.931 330.023L218.517 338.292L213.662 339.162L206.601 330.894L198.216 335.246L196.892 352.217L190.713 353.088L186.741 366.578H173.5L166.439 375.717L158.936 377.022L157.612 386.161L154.523 388.337L155.406 400.957L150.992 409.661L135.987 407.485L127.16 418.799V408.79L121.422 407.485L123.188 400.957L121.422 400.087L113.037 406.179L119.216 411.836L118.333 417.494H111.271L104.651 424.021H113.037L119.216 433.595L117.892 457.095L109.506 463.622L108.182 468.844L96.7072 467.104L76.8469 466.233L63.6067 473.196L42.8637 474.502L30.9475 484.946L22.1207 505.834L29.1821 515.408L27.4168 522.371L43.3051 527.593L9.32184 524.982L-5.24243 513.232L-13.6279 511.927L-21.1307 505.834L-24.6614 497.566L-21.1307 490.603V484.511L-39.667 473.196L-71.8848 466.669L-74.5328 462.317L-78.9463 465.363L-95.7172 450.132L-89.0971 440.123L-101.455 429.679H-111.605V415.753L-115.136 396.17L-111.605 391.818L-116.019 379.633L-131.466 369.189L-178.689 367.449L-192.371 359.18V368.319L-210.907 363.532L-207.376 358.31L-212.672 357.44L-221.499 363.532H-232.974L-236.505 353.523H-262.103L-259.455 319.579H-273.136L-270.488 269.969L-312.857 265.617L-314.181 273.451L-340.22 271.71L-341.544 290.422H-358.756L-370.672 292.163L-390.091 303.913L-391.857 309.57L-405.097 317.839H-412.6L-416.572 321.32L-423.633 311.746L-424.075 319.144L-428.488 318.709V309.57L-431.136 306.959L-425.399 289.117L-431.136 283.024L-423.633 276.932L-428.488 273.451L-435.991 272.58L-445.7 269.534L-448.348 259.96L-446.583 256.479L-447.466 249.516L-455.41 236.026L-463.354 232.109L-470.415 222.97L-484.538 220.359L-492.924 224.711L-499.102 217.313L-501.75 216.007V223.841L-495.13 229.063L-511.019 241.683L-515.873 245.599L-514.549 257.349L-505.723 259.96L-500.868 275.191L-501.75 278.673L-484.097 311.746H-475.711L-473.505 316.968L-463.354 321.32L-456.292 327.412L-455.41 333.94L-446.583 330.459L-443.493 337.421L-450.114 342.644L-458.94 358.745L-487.628 384.42L-501.309 368.319H-507.929L-527.79 378.328L-529.555 372.671L-548.091 378.328L-556.477 370.495L-565.303 378.328L-563.979 381.809L-596.197 403.133L-599.728 400.087L-609.879 400.957L-611.644 406.179L-617.823 406.614L-626.65 421.41L-635.918 418.799L-639.89 428.373L-640.773 418.799L-635.918 411.401L-639.007 409.661L-644.745 415.318L-656.22 417.494L-655.778 409.661L-646.951 400.087L-649.6 398.781L-658.426 403.133L-666.37 395.735L-664.605 387.902L-667.253 370.495L-649.6 361.356L-654.454 347.866L-659.309 346.56L-669.901 353.523L-682.259 345.69L-691.968 348.736L-702.119 320.885L-709.622 317.839V312.181L-717.566 311.311L-722.421 300.432L-703.884 302.172L-702.119 273.015H-692.851L-694.616 252.562L-689.761 214.702L-706.974 213.832L-711.387 209.48L-752.873 220.359L-748.46 205.128L-752.873 199.906L-776.706 199.036L-789.504 173.795L-789.946 165.527L-783.767 164.222L-783.326 158.129L-791.27 148.12L-789.504 143.768L-793.035 140.287L-779.354 117.223L-764.348 114.612L-757.287 118.963L-755.08 109.39H-713.153L-712.711 97.2046L-692.41 95.4639L-703.884 81.1031L-707.415 81.9735L-712.711 75.4458L-706.532 70.6589L-710.504 68.9182L-717.125 73.27L-722.421 67.6127L-715.359 60.2147V54.5574L-720.655 53.6871L-718.89 49.3353L-713.153 50.2057L-709.622 56.2981H-703.443L-699.03 -13.7651H-690.203L-687.555 -20.2928L-654.896 -15.941L-637.683 -26.3852H-619.588L-605.465 -39.0053Z" stroke="#C2C1C1" stroke-width="2" stroke-linecap="round" stroke-linejoin="round"/>
<path d="M-105.865 -67.2915L-96.155 -23.3388L-116.457 7.99381L-127.49 53.6872L-116.457 63.2611M-116.457 63.2611L-97.479 81.9736L-91.7283 90.6771M-116.457 63.2611L-122.194 80.6681M-134.993 159.87L-131.242 146.597M-134.993 368.319V355.699L-116.457 361.791C-103.364 357.585 -76.5595 349.084 -74.088 348.736C-71.6165 348.388 -54.8161 361.646 -46.7249 368.319L-9.21095 370.93L8.00133 463.187L29.627 488.427M-131.242 146.597L-127.49 133.324V122.01M-131.242 146.597L-116.457 143.333L-82.4735 126.361L-78.5014 110.695L-91.7283 90.6771M-131.242 146.597L-149.999 139.417L-182.216 102.427M-182.216 102.427L-239.591 115.047L-279.311 116.788M-182.216 102.427L-154.853 106.561M-298.73 125.056L-370.669 174.231M-418.775 221.665L-464.674 217.748L-497.775 179.453L-511.898 188.592L-533.523 209.48L-516.752 244.729M-91.7283 90.6771L-44.0768 72.3997M375.638 18.8732L345.185 10.1697H267.951L260.007 -19.4222L219.403 -28.1257C201.308 -12.4594 165.119 20.0046 165.119 24.5305C165.119 29.0563 131.871 22.6447 115.247 18.8732L87.884 36.7154L34.4818 53.6872L-0.825483 48.9003L-29.5126 66.7425M448.018 85.0198L472.292 91.5474L497.007 117.658C499.36 125.056 505.833 139.852 512.895 139.852C519.956 139.852 541.729 139.852 551.733 139.852M-136.758 232.979L-134.993 257.349L-138.513 271.71" stroke="#C2C1C1" stroke-width="2" stroke-linecap="round" stroke-linejoin="round" stroke-dasharray="4 4"/>
<path d="M271.473 -2.6371C275.15 -2.27964 281.991 2.5104 282.874 4.51221M274.047 -4.7819C277.725 -4.42443 284.566 0.365606 285.448 2.36741M276.622 -6.56922C280.299 -6.21176 287.14 -1.42172 288.023 0.580086M279.932 -7.99909C283.61 -7.64162 290.45 -2.85158 291.333 -0.849776M302.366 -10.5013C298.689 -10.1439 291.848 -5.35384 290.965 -3.35203M299.792 -12.2887C296.114 -11.9312 289.273 -7.14117 288.391 -5.13936M297.218 -14.076C293.54 -13.7185 286.699 -8.9285 285.816 -6.92669M293.907 -15.5059C290.23 -15.1484 283.389 -10.3584 282.506 -8.35655" stroke="#C2C1C1" stroke-linecap="round" stroke-linejoin="round"/>
<path d="M295.305 -2.6371C298.983 -2.27964 305.823 2.5104 306.706 4.51221M297.879 -4.7819C301.557 -4.42443 308.398 0.365606 309.28 2.36741M300.454 -6.56922C304.131 -6.21176 310.972 -1.42172 311.855 0.580086M303.764 -7.99909C307.442 -7.64162 314.282 -2.85158 315.165 -0.849776M326.199 -10.5013C322.521 -10.1439 315.68 -5.35384 314.797 -3.35203M323.624 -12.2887C319.946 -11.9312 313.105 -7.14117 312.223 -5.13936M321.05 -14.076C317.372 -13.7185 310.531 -8.9285 309.648 -6.92669M317.739 -15.5059C314.062 -15.1484 307.221 -10.3584 306.338 -8.35655" stroke="#C2C1C1" stroke-linecap="round" stroke-linejoin="round"/>
<path d="M319.137 -1.7665C322.709 -1.40903 329.355 3.381 330.212 5.38281M321.638 -3.91129C325.21 -3.55383 331.856 1.23621 332.713 3.23802M324.139 -5.69862C327.711 -5.34115 334.357 -0.551115 335.214 1.45069M327.354 -7.12848C330.927 -6.77101 337.572 -1.98098 338.43 0.0208294M349.148 -9.63074C345.575 -9.27327 338.93 -4.48324 338.072 -2.48143M346.647 -11.4181C343.074 -11.0606 336.429 -6.27056 335.571 -4.26876M344.146 -13.2054C340.573 -12.8479 333.928 -8.05789 333.07 -6.05608M340.931 -14.6353C337.358 -14.2778 330.712 -9.48775 329.855 -7.48594" stroke="#C2C1C1" stroke-linecap="round" stroke-linejoin="round"/>
<path d="M91.4062 4.32579C95.0841 4.68325 101.925 9.47329 102.808 11.4751M93.9807 2.18099C97.6586 2.53846 104.499 7.3285 105.382 9.3303M96.5552 0.393667C100.233 0.751133 107.074 5.54117 107.957 7.54298M99.8653 -1.03619C103.543 -0.678729 110.384 4.11131 111.267 6.11311M122.3 -3.53845C118.622 -3.18099 111.781 1.60905 110.899 3.61086M119.726 -5.32578C116.048 -4.96831 109.207 -0.178277 108.324 1.82353M117.151 -7.11311C113.473 -6.75564 106.632 -1.9656 105.75 0.036202M113.841 -8.54297C110.163 -8.1855 103.322 -3.39547 102.44 -1.39366" stroke="#C2C1C1" stroke-linecap="round" stroke-linejoin="round"/>
<path d="M115.238 4.32554C118.916 4.68301 125.757 9.47305 126.64 11.4749M117.813 2.18075C121.491 2.53822 128.331 7.32825 129.214 9.33006M120.387 0.393423C124.065 0.750889 130.906 5.54093 131.789 7.54273M123.697 -1.03644C127.375 -0.678973 134.216 4.11106 135.099 6.11287M146.132 -3.5387C142.454 -3.18123 135.613 1.60881 134.731 3.61061M143.558 -5.32602C139.88 -4.96856 133.039 -0.178522 132.156 1.82329M140.983 -7.11335C137.305 -6.75589 130.465 -1.96585 129.582 0.0359578M137.673 -8.54321C133.995 -8.18575 127.154 -3.39571 126.272 -1.3939" stroke="#C2C1C1" stroke-linecap="round" stroke-linejoin="round"/>
<path d="M139.07 5.1959C142.643 5.55337 149.288 10.3434 150.146 12.3452M141.571 3.05111C145.144 3.40858 151.789 8.19861 152.647 10.2004M144.072 1.26378C147.645 1.62125 154.29 6.41129 155.148 8.41309M147.288 -0.166077C150.86 0.191388 157.506 4.98143 158.363 6.98323M169.081 -2.66834C165.509 -2.31087 158.863 2.47917 158.006 4.48097M166.581 -4.45566C163.008 -4.0982 156.362 0.69184 155.505 2.69365M164.08 -6.24299C160.507 -5.88552 153.862 -1.09549 153.004 0.906319M160.864 -7.67285C157.291 -7.31539 150.646 -2.52535 149.789 -0.523543" stroke="#C2C1C1" stroke-linecap="round" stroke-linejoin="round"/>
<path d="M365.245 72.6578H360.142V80.2082H357.59V72.6578H347.383L355.038 63.8489H349.935L356.314 55.0401H352.486L357.59 47.4897H355.038L358.866 41.1976L362.694 47.4897H360.142L365.245 55.0401H361.418L367.478 62.5606M365.564 67.2047L362.694 63.8489H367.478M408.031 28.8134C408.031 25.7947 408.986 20.7636 410.898 20.7636C412.809 20.7636 414.721 24.7885 414.721 28.8134C417.588 28.8134 417.588 35.8569 417.588 38.8756M408.031 28.8134C404.208 28.8134 404.208 36.8631 404.208 38.8756M408.031 28.8134C408.031 31.4966 408.795 36.8631 411.853 36.8631M406.119 54.9752C406.119 59.0001 407.075 61.0125 411.854 61.0125M406.119 54.9752C400.384 54.9752 401.34 37.8708 404.208 38.8756M406.119 54.9752C405.801 52.9627 405.737 48.9378 408.031 48.9378M411.854 61.0125C416.633 61.0125 417.588 57.9939 417.588 54.9752M411.854 61.0125V69.0623M417.588 54.9752C419.5 54.9752 419.5 49.9446 419.5 47.9319C421.411 47.9319 422.367 38.8756 417.588 38.8756M417.588 54.9752C417.588 54.3044 416.824 52.9627 413.765 52.9627M417.588 38.8756C417.907 40.888 417.588 44.9129 413.765 44.9129M404.208 38.8756C403.889 40.2172 403.634 42.9005 405.163 42.9005M422.731 74.6352C422.731 71.8488 423.591 67.2047 425.312 67.2047C427.032 67.2047 428.752 70.92 428.752 74.6352C431.333 74.6352 431.333 81.137 431.333 83.9235M422.731 74.6352C419.29 74.6352 419.29 82.0658 419.29 83.9235M422.731 74.6352C422.731 77.1121 423.419 82.0658 426.172 82.0658M421.011 98.7846C421.011 102.5 421.871 104.358 426.172 104.358M421.011 98.7846C415.849 98.7846 416.71 82.9959 419.29 83.9235M421.011 98.7846C420.724 96.927 420.667 93.2117 422.731 93.2117M426.172 104.358C430.473 104.358 431.333 101.571 431.333 98.7846M426.172 104.358V111.788M431.333 98.7846C433.053 98.7846 433.053 94.141 433.053 92.2832C434.774 92.2832 435.634 83.9235 431.333 83.9235M431.333 98.7846C431.333 98.1654 430.645 96.927 427.892 96.927M431.333 83.9235C431.62 85.7811 431.333 89.4964 427.892 89.4964M419.29 83.9235C419.003 85.1619 418.774 87.6388 420.15 87.6388M384.454 80.2082C384.454 77.4217 385.314 72.7776 387.035 72.7776C388.755 72.7776 390.475 76.4929 390.475 80.2082C393.056 80.2082 393.056 86.7099 393.056 89.4964M384.454 80.2082C381.013 80.2082 381.013 87.6388 381.013 89.4964M384.454 80.2082C384.454 82.685 385.142 87.6388 387.895 87.6388M382.734 104.358C382.734 108.073 383.594 109.93 387.895 109.93M382.734 104.358C377.572 104.358 378.433 88.5689 381.013 89.4964M382.734 104.358C382.447 102.5 382.39 98.7846 384.454 98.7846M387.895 109.93C392.196 109.93 393.056 107.144 393.056 104.358M387.895 109.93V117.361M393.056 104.358C394.776 104.358 394.776 99.7139 394.776 97.8561C396.497 97.8561 397.357 89.4964 393.056 89.4964M393.056 104.358C393.056 103.738 392.368 102.5 389.615 102.5M393.056 89.4964C393.343 91.354 393.056 95.0693 389.615 95.0693M381.013 89.4964C380.726 90.7348 380.497 93.2117 381.873 93.2117M366.356 92.5925C366.356 90.7348 366.929 87.6388 368.076 87.6388C369.223 87.6388 370.37 90.1156 370.37 92.5925C372.09 92.5925 372.09 96.927 372.09 98.7846M366.356 92.5925C364.062 92.5925 364.062 97.5462 364.062 98.7846M366.356 92.5925C366.355 94.2437 366.814 97.5462 368.649 97.5462M365.209 108.692C365.209 111.169 365.782 112.407 368.649 112.407M365.209 108.692C361.768 108.692 362.341 98.1663 364.062 98.7846M365.209 108.692C365.017 107.454 364.979 104.977 366.356 104.977M368.649 112.407C371.517 112.407 372.09 110.55 372.09 108.692M368.649 112.407V117.361M372.09 108.692C373.237 108.692 373.237 105.596 373.237 104.358C374.384 104.358 374.957 98.7846 372.09 98.7846M372.09 108.692C372.09 108.279 371.631 107.454 369.796 107.454M372.09 98.7846C372.281 100.023 372.09 102.5 369.796 102.5M364.062 98.7846C363.87 99.6102 363.717 101.261 364.635 101.261M379.323 19.5251C379.323 16.5065 380.279 11.4753 382.19 11.4753C384.102 11.4753 386.013 15.5002 386.013 19.5251C388.881 19.5251 388.881 26.5687 388.881 29.5874M379.323 19.5251C375.5 19.5251 375.5 27.5749 375.5 29.5874M379.323 19.5251C379.323 22.2084 380.087 27.5749 383.146 27.5749M377.411 45.687C377.411 49.7119 378.367 51.7243 383.146 51.7243M377.411 45.687C371.677 45.687 372.633 28.5826 375.5 29.5874M377.411 45.687C377.093 43.6745 377.029 39.6496 379.323 39.6496M383.146 51.7243C387.925 51.7243 388.881 48.7056 388.881 45.687M383.146 51.7243V59.7741M388.881 45.687C390.792 45.687 390.792 40.6564 390.792 38.6437C392.704 38.6437 393.659 29.5874 388.881 29.5874M388.881 45.687C388.881 45.0161 388.116 43.6745 385.057 43.6745M388.881 29.5874C389.199 31.5998 388.88 35.6247 385.057 35.6247M375.5 29.5874C375.181 30.929 374.926 33.6123 376.455 33.6123M396.186 47.6994L392.358 53.2723H395.229L390.444 59.7741H394.272L388.531 66.2758H396.186V71.8488H398.1V66.2758H405.755L400.014 59.7741H403.841L399.057 53.2723H401.928L398.1 47.6994H400.014L397.143 43.0553L394.272 47.6994H396.186ZM433.187 30.7709L428.084 38.3213H431.911L425.532 47.1301H430.635L422.98 55.939H433.187V63.4894H435.739V55.939H445.946L438.291 47.1301H443.394L437.015 38.3213H440.843L435.739 30.7709H438.291L434.463 24.4789L430.635 30.7709H433.187ZM406.393 73.4967L401.29 81.0471H405.117L398.738 89.8559H403.841L396.186 98.6648H406.393V106.215H408.945V98.6648H419.152L411.497 89.8559H416.6L410.221 81.0471H414.049L408.945 73.4967H411.497L407.669 67.2047L403.841 73.4967H406.393ZM369.392 62.7104L365.564 68.4631H368.435L363.651 75.1746H367.478L361.737 81.886H369.392V87.6388H371.306V81.886H378.961L373.22 75.1746H377.047L372.263 68.4631H375.134L371.306 62.7104H373.22L370.349 57.9164L367.478 62.7104H369.392ZM440.205 62.7104L436.377 68.4631H439.248L434.463 75.1746H438.291L432.549 81.886H440.205V87.6388H442.118V81.886H449.774L444.032 75.1746H447.86L443.075 68.4631H445.946L442.118 62.7104H444.032L441.161 57.9164L438.291 62.7104H440.205Z" stroke="#C2C1C1" stroke-linecap="round" stroke-linejoin="round"/>
<path d="M68.6673 327.671H63.5637V335.221H61.0119V327.671H50.8047L58.4601 318.862H53.3565L59.736 310.053H55.9083L61.0119 302.503H58.4601L62.2878 296.211L66.1155 302.503H63.5637L68.6673 310.053H64.8396L70.9001 317.573M68.9863 322.217L66.1155 318.862H70.9001M111.453 283.826C111.453 280.808 112.408 275.776 114.32 275.776C116.231 275.776 118.143 279.801 118.143 283.826C121.01 283.826 121.01 290.87 121.01 293.888M111.453 283.826C107.629 283.826 107.629 291.876 107.629 293.888M111.453 283.826C111.452 286.51 112.217 291.876 115.275 291.876M109.541 309.988C109.541 314.013 110.496 316.025 115.275 316.025M109.541 309.988C103.806 309.988 104.762 292.884 107.629 293.888M109.541 309.988C109.222 307.976 109.159 303.951 111.453 303.951M115.275 316.025C120.054 316.025 121.01 313.007 121.01 309.988M115.275 316.025V324.075M121.01 309.988C122.922 309.988 122.922 304.957 122.922 302.945C124.833 302.945 125.789 293.888 121.01 293.888M121.01 309.988C121.01 309.317 120.245 307.976 117.187 307.976M121.01 293.888C121.329 295.901 121.01 299.926 117.187 299.926M107.629 293.888C107.311 295.23 107.056 297.913 108.585 297.913M126.153 329.648C126.153 326.862 127.013 322.217 128.734 322.217C130.454 322.217 132.174 325.933 132.174 329.648C134.755 329.648 134.755 336.15 134.755 338.936M126.153 329.648C122.712 329.648 122.712 337.079 122.712 338.936M126.153 329.648C126.153 332.125 126.841 337.079 129.594 337.079M124.433 353.797C124.433 357.513 125.293 359.37 129.594 359.37M124.433 353.797C119.271 353.797 120.132 338.009 122.712 338.936M124.433 353.797C124.146 351.94 124.089 348.224 126.153 348.224M129.594 359.37C133.895 359.37 134.755 356.584 134.755 353.797M129.594 359.37V366.801M134.755 353.797C136.475 353.797 136.475 349.154 136.475 347.296C138.196 347.296 139.056 338.936 134.755 338.936M134.755 353.797C134.755 353.178 134.067 351.94 131.314 351.94M134.755 338.936C135.042 340.794 134.755 344.509 131.314 344.509M122.712 338.936C122.425 340.175 122.196 342.652 123.572 342.652M87.876 335.221C87.876 332.435 88.7361 327.79 90.4565 327.79C92.1769 327.79 93.8974 331.506 93.8974 335.221C96.478 335.221 96.478 341.723 96.478 344.509M87.876 335.221C84.4352 335.221 84.4352 342.652 84.4352 344.509M87.876 335.221C87.8759 337.698 88.5639 342.652 91.3166 342.652M86.1556 359.37C86.1556 363.086 87.0156 364.943 91.3166 364.943M86.1556 359.37C80.9943 359.37 81.8548 343.582 84.4352 344.509M86.1556 359.37C85.8689 357.513 85.8117 353.797 87.876 353.797M91.3166 364.943C95.6177 364.943 96.478 362.157 96.478 359.37M91.3166 364.943V372.374M96.478 359.37C98.1983 359.37 98.1983 354.727 98.1983 352.869C99.9187 352.869 100.779 344.509 96.478 344.509M96.478 359.37C96.4779 358.751 95.7897 357.513 93.037 357.513M96.478 344.509C96.7647 346.367 96.4778 350.082 93.037 350.082M84.4352 344.509C84.1484 345.748 83.9188 348.224 85.2951 348.224M69.7774 347.605C69.7774 345.748 70.3507 342.652 71.4977 342.652C72.6446 342.652 73.7916 345.128 73.7916 347.605C75.512 347.605 75.512 351.94 75.512 353.797M69.7774 347.605C67.4835 347.605 67.4835 352.559 67.4835 353.797M69.7774 347.605C69.7773 349.256 70.2359 352.559 72.0711 352.559M68.6304 363.705C68.6304 366.182 69.2037 367.42 72.0711 367.42M68.6304 363.705C65.1895 363.705 65.7632 353.179 67.4835 353.797M68.6304 363.705C68.4393 362.466 68.4011 359.99 69.7774 359.99M72.0711 367.42C74.9385 367.42 75.512 365.562 75.512 363.705M72.0711 367.42V372.374M75.512 363.705C76.6589 363.705 76.6589 360.609 76.6589 359.371C77.8058 359.371 78.3793 353.797 75.512 353.797M75.512 363.705C75.512 363.292 75.0531 362.466 73.218 362.466M75.512 353.797C75.7031 355.036 75.5119 357.513 73.218 357.513M67.4835 353.797C67.2923 354.623 67.1392 356.274 68.0567 356.274M82.7448 274.538C82.7448 271.519 83.7004 266.488 85.612 266.488C87.5236 266.488 89.4352 270.513 89.4352 274.538C92.3025 274.538 92.3025 281.582 92.3025 284.6M82.7448 274.538C78.9217 274.538 78.9217 282.588 78.9217 284.6M82.7448 274.538C82.7447 277.221 83.5091 282.588 86.5676 282.588M80.8332 300.7C80.8332 304.725 81.7887 306.737 86.5677 306.737M80.8332 300.7C75.0984 300.7 76.0545 283.595 78.9217 284.6M80.8332 300.7C80.5147 298.687 80.4511 294.662 82.7448 294.662M86.5677 306.737C91.3466 306.737 92.3025 303.718 92.3025 300.7M86.5677 306.737V314.787M92.3025 300.7C94.214 300.7 94.214 295.669 94.214 293.657C96.1256 293.657 97.0813 284.6 92.3025 284.6M92.3025 300.7C92.3025 300.029 91.5377 298.687 88.4792 298.687M92.3025 284.6C92.6211 286.613 92.3023 290.638 88.4792 290.638M78.9217 284.6C78.6029 285.942 78.3478 288.625 79.8771 288.625M99.6079 302.712L95.7802 308.285H98.6509L93.8663 314.787H97.694L91.9525 321.289H99.6079V326.862H101.522V321.289H109.177L103.436 314.787H107.263L102.479 308.285H105.349L101.522 302.712H103.436L100.565 298.068L97.694 302.712H99.6079ZM136.609 285.784L131.505 293.334H135.333L128.954 302.143H134.057L126.402 310.952H136.609V318.502H139.161V310.952H149.368L141.713 302.143H146.816L140.437 293.334H144.264L139.161 285.784H141.713L137.885 279.492L134.057 285.784H136.609ZM109.815 328.51L104.711 336.06H108.539L102.16 344.869H107.263L99.6079 353.678H109.815V361.228H112.367V353.678H122.574L114.919 344.869H120.022L113.643 336.06H117.47L112.367 328.51H114.919L111.091 322.217L107.263 328.51H109.815ZM72.814 317.723L68.9863 323.476H71.857L67.0724 330.187H70.9001L65.1586 336.899H72.814V342.652H74.7278V336.899H82.3832L76.6417 330.187H80.4694L75.6847 323.476H78.5555L74.7278 317.723H76.6417L73.7709 312.929L70.9001 317.723H72.814ZM143.626 317.723L139.799 323.476H142.67L137.885 330.187H141.713L135.971 336.899H143.626V342.652H145.54V336.899H153.196L147.454 330.187H151.282L146.497 323.476H149.368L145.54 317.723H147.454L144.583 312.929L141.713 317.723H143.626Z" stroke="#C2C1C1" stroke-linecap="round" stroke-linejoin="round"/>
<path d="M65.2345 206.573H61.3628V212.282H59.427V206.573H51.6836L57.4911 199.911H53.6194L58.4591 193.25H55.5553L59.427 187.54H57.4911L60.3949 182.782L63.2987 187.54H61.3628L65.2345 193.25H62.3308L66.9284 198.937M65.4765 202.449L63.2987 199.911H66.9284M97.6923 173.417C97.6923 171.134 98.4173 167.329 99.8674 167.329C101.318 167.329 102.768 170.373 102.768 173.417C104.943 173.417 104.943 178.743 104.943 181.026M97.6923 173.417C94.792 173.417 94.792 179.504 94.792 181.026M97.6923 173.417C97.6922 175.446 98.2721 179.504 100.592 179.504M96.2422 193.201C96.2422 196.244 96.967 197.766 100.592 197.766M96.2422 193.201C91.8916 193.201 92.6169 180.266 94.792 181.026M96.2422 193.201C96.0005 191.679 95.9522 188.635 97.6923 188.635M100.592 197.766C104.218 197.766 104.943 195.483 104.943 193.201M100.592 197.766V203.854M104.943 193.201C106.393 193.201 106.393 189.396 106.393 187.874C107.843 187.874 108.568 181.026 104.943 181.026M104.943 193.201C104.943 192.693 104.363 191.679 102.043 191.679M104.943 181.026C105.185 182.548 104.943 185.591 102.043 185.591M94.792 181.026C94.5502 182.04 94.3567 184.07 95.5168 184.07M108.844 208.068C108.844 205.961 109.497 202.449 110.802 202.449C112.107 202.449 113.412 205.258 113.412 208.068C115.37 208.068 115.37 212.985 115.37 215.092M108.844 208.068C106.234 208.068 106.234 213.687 106.234 215.092M108.844 208.068C108.844 209.941 109.366 213.687 111.454 213.687M107.539 226.33C107.539 229.14 108.192 230.544 111.455 230.544M107.539 226.33C103.624 226.33 104.277 214.39 106.234 215.092M107.539 226.33C107.322 224.925 107.278 222.116 108.844 222.116M111.455 230.544C114.717 230.544 115.37 228.437 115.37 226.33M111.455 230.544V236.164M115.37 226.33C116.675 226.33 116.675 222.819 116.675 221.414C117.98 221.414 118.633 215.092 115.37 215.092M115.37 226.33C115.37 225.862 114.848 224.925 112.76 224.925M115.37 215.092C115.588 216.497 115.37 219.306 112.76 219.306M106.234 215.092C106.017 216.028 105.842 217.901 106.886 217.901M79.8067 212.282C79.8067 210.175 80.4591 206.663 81.7643 206.663C83.0694 206.663 84.3746 209.473 84.3746 212.282C86.3323 212.282 86.3323 217.199 86.3323 219.306M79.8067 212.282C77.1964 212.282 77.1964 217.901 77.1964 219.306M79.8067 212.282C79.8066 214.155 80.3285 217.901 82.4167 217.901M78.5015 230.544C78.5015 233.354 79.1539 234.759 82.4168 234.759M78.5015 230.544C74.5861 230.544 75.2389 218.605 77.1964 219.306M78.5015 230.544C78.2841 229.14 78.2406 226.33 79.8067 226.33M82.4168 234.759C85.6797 234.759 86.3323 232.652 86.3323 230.544M82.4168 234.759V240.378M86.3323 230.544C87.6374 230.544 87.6374 227.033 87.6374 225.628C88.9425 225.628 89.595 219.306 86.3323 219.306M86.3323 230.544C86.3323 230.076 85.8101 229.14 83.7219 229.14M86.3323 219.306C86.5498 220.711 86.3322 223.521 83.7219 223.521M77.1964 219.306C76.9788 220.243 76.8046 222.116 77.8487 222.116M66.0767 221.647C66.0767 220.243 66.5116 217.901 67.3817 217.901C68.2518 217.901 69.1219 219.774 69.1219 221.647C70.4271 221.647 70.4271 224.925 70.4271 226.33M66.0767 221.647C64.3365 221.647 64.3365 225.394 64.3365 226.33M66.0767 221.647C66.0766 222.896 66.4245 225.394 67.8167 225.394M65.2066 233.822C65.2066 235.695 65.6415 236.632 67.8167 236.632M65.2066 233.822C62.5962 233.822 63.0314 225.862 64.3365 226.33M65.2066 233.822C65.0616 232.886 65.0326 231.013 66.0767 231.013M67.8167 236.632C69.992 236.632 70.4271 235.227 70.4271 233.822M67.8167 236.632V240.378M70.4271 233.822C71.2971 233.822 71.2971 231.481 71.2971 230.545C72.1672 230.545 72.6022 226.33 70.4271 226.33M70.4271 233.822C70.427 233.51 70.079 232.886 68.6868 232.886M70.4271 226.33C70.5721 227.267 70.427 229.14 68.6868 229.14M64.3365 226.33C64.1914 226.954 64.0753 228.203 64.7714 228.203M75.914 166.393C75.914 164.11 76.639 160.305 78.0891 160.305C79.5393 160.305 80.9895 163.349 80.9895 166.393C83.1647 166.393 83.1647 171.719 83.1647 174.002M75.914 166.393C73.0137 166.393 73.0137 172.48 73.0137 174.002M75.914 166.393C75.9139 168.422 76.4938 172.48 78.8141 172.48M74.4639 186.177C74.4639 189.22 75.1887 190.742 78.8141 190.742M74.4639 186.177C70.1133 186.177 70.8386 173.242 73.0137 174.002M74.4639 186.177C74.2222 184.655 74.1739 181.611 75.914 181.611M78.8141 190.742C82.4395 190.742 83.1647 188.46 83.1647 186.177M78.8141 190.742V196.83M83.1647 186.177C84.6148 186.177 84.6148 182.373 84.6148 180.851C86.065 180.851 86.79 174.002 83.1647 174.002M83.1647 186.177C83.1647 185.67 82.5845 184.655 80.2642 184.655M83.1647 174.002C83.4064 175.524 83.1646 178.568 80.2642 178.568M73.0137 174.002C72.7719 175.017 72.5784 177.046 73.7385 177.046M88.7067 187.699L85.8029 191.913H87.9808L84.351 196.83H87.2548L82.8991 201.746H88.7067V205.961H90.1586V201.746H95.9661L91.6105 196.83H94.5142L90.8845 191.913H93.0624L90.1586 187.699H91.6105L89.4326 184.187L87.2548 187.699H88.7067ZM116.776 174.897L112.905 180.607H115.809L110.969 187.268H114.841L109.033 193.93H116.776V199.639H118.712V193.93H126.456L120.648 187.268H124.52L119.68 180.607H122.584L118.712 174.897H120.648L117.744 170.139L114.841 174.897H116.776ZM96.4501 207.207L92.5784 212.917H95.4822L90.6425 219.578H94.5142L88.7067 226.239H96.4501V231.949H98.3859V226.239H106.129L100.322 219.578H104.193L99.3539 212.917H102.258L98.3859 207.207H100.322L97.418 202.449L94.5142 207.207H96.4501ZM68.3803 199.05L65.4765 203.4H67.6543L64.0246 208.476H66.9284L62.5727 213.551H68.3803V217.901H69.8322V213.551H75.6397L71.2841 208.476H74.1878L70.5581 203.4H72.7359L69.8322 199.05H71.2841L69.1062 195.425L66.9284 199.05H68.3803ZM122.1 199.05L119.196 203.4H121.374L117.744 208.476H120.648L116.293 213.551H122.1V217.901H123.552V213.551H129.36L125.004 208.476H127.908L124.278 203.4H126.456L123.552 199.05H125.004L122.826 195.425L120.648 199.05H122.1Z" stroke="#C2C1C1" stroke-linecap="round" stroke-linejoin="round"/>
<path d="M17.4681 412.965H12.3645V420.515H9.81267V412.965H-0.394531L7.26087 404.156H2.15727L8.53677 395.347H4.70907L9.81267 387.797H7.26087L11.0886 381.505L14.9163 387.797H12.3645L17.4681 395.347H13.6404L19.7009 402.868M17.787 407.512L14.9163 404.156H19.7009M60.2533 369.12C60.2533 366.102 61.2089 361.071 63.1205 361.071C65.0321 361.071 66.9437 365.096 66.9437 369.12C69.8111 369.12 69.8111 376.164 69.8111 379.183M60.2533 369.12C56.4302 369.12 56.4302 377.17 56.4302 379.183M60.2533 369.12C60.2532 371.804 61.0176 377.17 64.0761 377.17M58.3418 395.282C58.3418 399.307 59.2973 401.32 64.0762 401.32M58.3418 395.282C52.607 395.282 53.5631 378.178 56.4302 379.183M58.3418 395.282C58.0232 393.27 57.9596 389.245 60.2533 389.245M64.0762 401.32C68.8552 401.32 69.8111 398.301 69.8111 395.282M64.0762 401.32V409.369M69.8111 395.282C71.7225 395.282 71.7225 390.252 71.7225 388.239C73.6341 388.239 74.5898 379.183 69.8111 379.183M69.8111 395.282C69.811 394.611 69.0462 393.27 65.9877 393.27M69.8111 379.183C70.1296 381.195 69.8109 385.22 65.9877 385.22M56.4302 379.183C56.1115 380.524 55.8564 383.208 57.3856 383.208M74.9538 414.942C74.9538 412.156 75.8139 407.512 77.5343 407.512C79.2547 407.512 80.9751 411.227 80.9751 414.942C83.5558 414.942 83.5558 421.444 83.5558 424.23M74.9538 414.942C71.513 414.942 71.513 422.373 71.513 424.23M74.9538 414.942C74.9537 417.419 75.6417 422.373 78.3944 422.373M73.2334 439.092C73.2334 442.807 74.0934 444.664 78.3944 444.664M73.2334 439.092C68.0721 439.092 68.9326 423.303 71.513 424.23M73.2334 439.092C72.9467 437.234 72.8895 433.519 74.9538 433.519M78.3944 444.664C82.6955 444.664 83.5558 441.878 83.5558 439.092M78.3944 444.664V452.095M83.5558 439.092C85.2761 439.092 85.2761 434.448 85.2761 432.59C86.9965 432.59 87.8567 424.23 83.5558 424.23M83.5558 439.092C83.5557 438.472 82.8674 437.234 80.1148 437.234M83.5558 424.23C83.8425 426.088 83.5556 429.803 80.1148 429.803M71.513 424.23C71.2261 425.469 70.9965 427.946 72.3729 427.946M36.6768 420.515C36.6768 417.729 37.5369 413.085 39.2573 413.085C40.9777 413.085 42.6981 416.8 42.6981 420.515C45.2788 420.515 45.2788 427.017 45.2788 429.803M36.6768 420.515C33.236 420.515 33.236 427.946 33.236 429.803M36.6768 420.515C36.6767 422.992 37.3647 427.946 40.1173 427.946M34.9564 444.664C34.9564 448.38 35.8164 450.237 40.1174 450.237M34.9564 444.664C29.7951 444.664 30.6556 428.876 33.236 429.803M34.9564 444.664C34.6697 442.807 34.6125 439.092 36.6768 439.092M40.1174 450.237C44.4185 450.237 45.2788 447.451 45.2788 444.664M40.1174 450.237V457.668M45.2788 444.664C46.9991 444.664 46.9991 440.021 46.9991 438.163C48.7195 438.163 49.5797 429.803 45.2788 429.803M45.2788 444.664C45.2787 444.045 44.5904 442.807 41.8378 442.807M45.2788 429.803C45.5655 431.661 45.2786 435.376 41.8378 435.376M33.236 429.803C32.9491 431.042 32.7195 433.519 34.0959 433.519M18.5782 432.899C18.5782 431.042 19.1515 427.946 20.2985 427.946C21.4454 427.946 22.5924 430.423 22.5924 432.899C24.3128 432.899 24.3128 437.234 24.3128 439.092M18.5782 432.899C16.2843 432.899 16.2843 437.853 16.2843 439.092M18.5782 432.899C18.5781 434.551 19.0367 437.853 20.8718 437.853M17.4312 448.999C17.4312 451.476 18.0045 452.714 20.8719 452.714M17.4312 448.999C13.9903 448.999 14.564 438.473 16.2843 439.092M17.4312 448.999C17.2401 447.761 17.2019 445.284 18.5782 445.284M20.8719 452.714C23.7392 452.714 24.3128 450.857 24.3128 448.999M20.8719 452.714V457.668M24.3128 448.999C25.4597 448.999 25.4597 445.903 25.4597 444.665C26.6066 444.665 27.18 439.092 24.3128 439.092M24.3128 448.999C24.3127 448.586 23.8539 447.761 22.0188 447.761M24.3128 439.092C24.5039 440.33 24.3127 442.807 22.0188 442.807M16.2843 439.092C16.093 439.917 15.94 441.568 16.8575 441.568M31.5456 359.832C31.5456 356.814 32.5012 351.782 34.4128 351.782C36.3244 351.782 38.2359 355.807 38.2359 359.832C41.1033 359.832 41.1033 366.876 41.1033 369.894M31.5456 359.832C27.7224 359.832 27.7224 367.882 27.7224 369.894M31.5456 359.832C31.5455 362.516 32.3099 367.882 35.3684 367.882M29.634 385.994C29.634 390.019 30.5895 392.031 35.3685 392.031M29.634 385.994C23.8992 385.994 24.8553 368.89 27.7224 369.894M29.634 385.994C29.3155 383.982 29.2518 379.957 31.5456 379.957M35.3685 392.031C40.1474 392.031 41.1033 389.013 41.1033 385.994M35.3685 392.031V400.081M41.1033 385.994C43.0148 385.994 43.0148 380.963 43.0148 378.951C44.9264 378.951 45.8821 369.894 41.1033 369.894M41.1033 385.994C41.1032 385.323 40.3385 383.982 37.28 383.982M41.1033 369.894C41.4218 371.907 41.1031 375.932 37.28 375.932M27.7224 369.894C27.4037 371.236 27.1486 373.919 28.6779 373.919M48.4087 388.006L44.581 393.579H47.4517L42.6671 400.081H46.4948L40.7533 406.583H48.4087V412.156H50.3225V406.583H57.9779L52.2364 400.081H56.0641L51.2794 393.579H54.1502L50.3225 388.006H52.2364L49.3656 383.362L46.4948 388.006H48.4087ZM85.4098 371.078L80.3062 378.628H84.1339L77.7544 387.437H82.858L75.2026 396.246H85.4098V403.796H87.9616V396.246H98.1688L90.5134 387.437H95.617L89.2375 378.628H93.0652L87.9616 371.078H90.5134L86.6857 364.786L82.858 371.078H85.4098ZM58.6159 413.804L53.5123 421.354H57.34L50.9605 430.163H56.0641L48.4087 438.972H58.6159V446.522H61.1677V438.972H71.3749L63.7195 430.163H68.8231L62.4436 421.354H66.2713L61.1677 413.804H63.7195L59.8918 407.512L56.0641 413.804H58.6159ZM21.6147 403.017L17.787 408.77H20.6578L15.8732 415.482H19.7009L13.9593 422.193H21.6147V427.946H23.5286V422.193H31.184L25.4424 415.482H29.2701L24.4855 408.77H27.3563L23.5286 403.017H25.4424L22.5717 398.223L19.7009 403.017H21.6147ZM92.4272 403.017L88.5995 408.77H91.4703L86.6857 415.482H90.5134L84.7718 422.193H92.4272V427.946H94.3411V422.193H101.996L96.2549 415.482H100.083L95.298 408.77H98.1688L94.3411 403.017H96.2549L93.3841 398.223L90.5134 403.017H92.4272Z" stroke="#C2C1C1" stroke-linecap="round" stroke-linejoin="round"/>
<path d="M-33.7233 322.448H-38.8269V329.999H-41.3787V322.448H-51.5859L-43.9305 313.639H-49.0341L-42.6546 304.831H-46.4823L-41.3787 297.28H-43.9305L-40.1028 290.988L-36.2751 297.28H-38.8269L-33.7233 304.831H-37.551L-31.4905 312.351M-33.4044 316.995L-36.2751 313.639H-31.4905M9.06194 278.604C9.06194 275.585 10.0175 270.554 11.9291 270.554C13.8407 270.554 15.7523 274.579 15.7523 278.604C18.6197 278.604 18.6197 285.647 18.6197 288.666M9.06194 278.604C5.23878 278.604 5.23878 286.654 5.23878 288.666M9.06194 278.604C9.06182 281.287 9.82621 286.654 12.8847 286.654M7.15036 304.766C7.15036 308.791 8.10587 310.803 12.8848 310.803M7.15036 304.766C1.41555 304.766 2.37167 287.661 5.23878 288.666M7.15036 304.766C6.83182 302.753 6.76819 298.728 9.06194 298.728M12.8848 310.803C17.6638 310.803 18.6197 307.784 18.6197 304.766M12.8848 310.803V318.853M18.6197 304.766C20.5311 304.766 20.5311 299.735 20.5311 297.722C22.4427 297.722 23.3984 288.666 18.6197 288.666M18.6197 304.766C18.6196 304.095 17.8548 302.753 14.7963 302.753M18.6197 288.666C18.9382 290.679 18.6195 294.703 14.7963 294.703M5.23878 288.666C4.92007 290.008 4.66495 292.691 6.19421 292.691M23.7624 324.426C23.7624 321.639 24.6225 316.995 26.3429 316.995C28.0633 316.995 29.7837 320.71 29.7837 324.426C32.3644 324.426 32.3644 330.928 32.3644 333.714M23.7624 324.426C20.3216 324.426 20.3216 331.856 20.3216 333.714M23.7624 324.426C23.7623 326.903 24.4503 331.856 27.2029 331.856M22.042 348.575C22.042 352.29 22.902 354.148 27.203 354.148M22.042 348.575C16.8807 348.575 17.7412 332.786 20.3216 333.714M22.042 348.575C21.7553 346.718 21.6981 343.002 23.7624 343.002M27.203 354.148C31.5041 354.148 32.3644 351.362 32.3644 348.575M27.203 354.148V361.579M32.3644 348.575C34.0847 348.575 34.0847 343.932 34.0847 342.074C35.8051 342.074 36.6653 333.714 32.3644 333.714M32.3644 348.575C32.3643 347.956 31.676 346.718 28.9234 346.718M32.3644 333.714C32.6511 335.572 32.3642 339.287 28.9234 339.287M20.3216 333.714C20.0347 334.952 19.8051 337.429 21.1815 337.429M-14.5146 329.999C-14.5146 327.212 -13.6545 322.568 -11.9341 322.568C-10.2137 322.568 -8.49327 326.283 -8.49327 329.999C-5.91264 329.999 -5.91264 336.5 -5.91264 339.287M-14.5146 329.999C-17.9554 329.999 -17.9554 337.429 -17.9554 339.287M-14.5146 329.999C-14.5147 332.476 -13.8267 337.429 -11.0741 337.429M-16.235 354.148C-16.235 357.863 -15.375 359.721 -11.074 359.721M-16.235 354.148C-21.3963 354.148 -20.5358 338.359 -17.9554 339.287M-16.235 354.148C-16.5217 352.29 -16.579 348.575 -14.5146 348.575M-11.074 359.721C-6.77294 359.721 -5.91264 356.935 -5.91264 354.148M-11.074 359.721V367.152M-5.91264 354.148C-4.19231 354.148 -4.19231 349.504 -4.19231 347.647C-2.47189 347.647 -1.61175 339.287 -5.91264 339.287M-5.91264 354.148C-5.91269 353.529 -6.60097 352.29 -9.35364 352.29M-5.91264 339.287C-5.62595 341.145 -5.9128 344.86 -9.35364 344.86M-17.9554 339.287C-18.2423 340.525 -18.4719 343.002 -17.0955 343.002M-32.6132 342.383C-32.6132 340.525 -32.0399 337.429 -30.8929 337.429C-29.746 337.429 -28.599 339.906 -28.599 342.383C-26.8786 342.383 -26.8786 346.718 -26.8786 348.575M-32.6132 342.383C-34.9071 342.383 -34.9071 347.337 -34.9071 348.575M-32.6132 342.383C-32.6133 344.034 -32.1547 347.337 -30.3196 347.337M-33.7602 358.483C-33.7602 360.959 -33.1869 362.198 -30.3195 362.198M-33.7602 358.483C-37.2011 358.483 -36.6274 347.957 -34.9071 348.575M-33.7602 358.483C-33.9513 357.244 -33.9895 354.767 -32.6132 354.767M-30.3195 362.198C-27.4522 362.198 -26.8786 360.34 -26.8786 358.483M-30.3195 362.198V367.152M-26.8786 358.483C-25.7317 358.483 -25.7317 355.387 -25.7317 354.148C-24.5848 354.148 -24.0114 348.575 -26.8786 348.575M-26.8786 358.483C-26.8787 358.07 -27.3375 357.244 -29.1726 357.244M-26.8786 348.575C-26.6875 349.814 -26.8787 352.29 -29.1726 352.29M-34.9071 348.575C-35.0984 349.401 -35.2514 351.052 -34.3339 351.052M-19.6458 269.316C-19.6458 266.297 -18.6902 261.266 -16.7786 261.266C-14.867 261.266 -12.9555 265.291 -12.9555 269.316C-10.0881 269.316 -10.0881 276.359 -10.0881 279.378M-19.6458 269.316C-23.469 269.316 -23.469 277.365 -23.469 279.378M-19.6458 269.316C-19.6459 271.999 -18.8815 277.365 -15.823 277.365M-21.5574 295.477C-21.5574 299.502 -20.6019 301.515 -15.8229 301.515M-21.5574 295.477C-27.2922 295.477 -26.3361 278.373 -23.469 279.378M-21.5574 295.477C-21.8759 293.465 -21.9396 289.44 -19.6458 289.44M-15.8229 301.515C-11.044 301.515 -10.0881 298.496 -10.0881 295.477M-15.8229 301.515V309.565M-10.0881 295.477C-8.17663 295.477 -8.17663 290.447 -8.17663 288.434C-6.26505 288.434 -5.30933 279.378 -10.0881 279.378M-10.0881 295.477C-10.0882 294.807 -10.8529 293.465 -13.9114 293.465M-10.0881 279.378C-9.76957 281.39 -10.0883 285.415 -13.9114 285.415M-23.469 279.378C-23.7877 280.72 -24.0428 283.403 -22.5135 283.403M-2.78275 297.49L-6.61046 303.063H-3.73968L-8.52431 309.565H-4.6966L-10.4382 316.066H-2.78275V321.639H-0.868904V316.066H6.7865L1.04495 309.565H4.87265L0.0880208 303.063H2.9588L-0.868904 297.49H1.04495L-1.82583 292.846L-4.6966 297.49H-2.78275ZM34.2183 280.561L29.1148 288.112H32.9425L26.5629 296.921H31.6666L24.0111 305.729H34.2183V313.28H36.7702V305.729H46.9774L39.322 296.921H44.4256L38.046 288.112H41.8738L36.7702 280.561H39.322L35.4943 274.269L31.6666 280.561H34.2183ZM7.42445 323.287L2.32084 330.838H6.14855L-0.230953 339.646H4.87265L-2.78275 348.455H7.42445V356.006H9.97625V348.455H20.1834L12.528 339.646H17.6317L11.2521 330.838H15.0798L9.97625 323.287H12.528L8.70035 316.995L4.87265 323.287H7.42445ZM-29.5767 312.501L-33.4044 318.254H-30.5336L-35.3182 324.965H-31.4905L-37.2321 331.677H-29.5767V337.429H-27.6628V331.677H-20.0074L-25.749 324.965H-21.9213L-26.7059 318.254H-23.8351L-27.6628 312.501H-25.749L-28.6197 307.707L-31.4905 312.501H-29.5767ZM41.2358 312.501L37.4081 318.254H40.2789L35.4943 324.965H39.322L33.5804 331.677H41.2358V337.429H43.1497V331.677H50.8051L45.0635 324.965H48.8912L44.1066 318.254H46.9774L43.1497 312.501H45.0635L42.1927 307.707L39.322 312.501H41.2358Z" stroke="#C2C1C1" stroke-linecap="round" stroke-linejoin="round"/>
<path d="M18.5527 149.587H20.2391M18.5527 149.587V148.595H16.5359H13.7344V158.565C21.6234 158.565 24.6782 158.565 31.5622 158.565V148.595L28.6758 148.595L26.7438 148.595V149.587H25.9006M18.5527 149.587V155.802M25.0574 149.587V142.898L22.6483 142.898L20.2391 142.898V149.587M25.0574 149.587H25.9006M25.0574 149.587H22.6483V158.565M20.2391 149.587V153.961M25.9006 149.587V155.572" stroke="#C2C1C1" stroke-width="2" stroke-linecap="round" stroke-linejoin="round"/>
<path d="M52.8151 59.5595H55.0636M52.8151 59.5595V58.2372H50.126H46.3906V71.5298C56.9093 71.5298 60.9824 71.5298 70.1611 71.5298V58.2372L66.3125 58.2372L63.7366 58.2372V59.5595H62.6123M52.8151 59.5595V67.8466M61.4881 59.5595V50.6414L58.2758 50.6414L55.0636 50.6414V59.5595M61.4881 59.5595H62.6123M61.4881 59.5595H58.2758V71.5298M55.0636 59.5595V65.3912M62.6123 59.5595V67.5397" stroke="#C2C1C1" stroke-width="2" stroke-linecap="round" stroke-linejoin="round"/>
<path d="M140.202 135.28H142.45M140.202 135.28V133.957H137.513H133.777V147.25C144.296 147.25 148.369 147.25 157.548 147.25V133.957L153.699 133.957L151.123 133.957V135.28H149.999M140.202 135.28V143.567M148.875 135.28V126.362L145.663 126.362L142.45 126.362V135.28M148.875 135.28H149.999M148.875 135.28H145.663V147.25M142.45 135.28V141.111M149.999 135.28V143.26" stroke="#C2C1C1" stroke-width="2" stroke-linecap="round" stroke-linejoin="round"/>
<path d="M130.65 244.455H132.337M130.65 244.455V243.463H128.634H125.832V253.433C133.721 253.433 136.776 253.433 143.66 253.433V243.463L140.773 243.463L138.841 243.463V244.455H137.998M130.65 244.455V250.67M137.155 244.455V237.766L134.746 237.766L132.337 237.766V244.455M137.155 244.455H137.998M137.155 244.455H134.746V253.433M132.337 244.455V248.829M137.998 244.455V250.44" stroke="#C2C1C1" stroke-width="2" stroke-linecap="round" stroke-linejoin="round"/>
<path d="M196.694 217.093H198.943M196.694 217.093V215.771H194.005H190.27V229.063C200.788 229.063 204.861 229.063 214.04 229.063V215.771L210.191 215.771L207.616 215.771V217.093H206.491M196.694 217.093V225.38M205.367 217.093V208.175L202.155 208.175L198.943 208.175V217.093M205.367 217.093H206.491M205.367 217.093H202.155V229.063M198.943 217.093V222.924M206.491 217.093V225.073" stroke="#C2C1C1" stroke-width="2" stroke-linecap="round" stroke-linejoin="round"/>
<path d="M218.037 161.772H219.723M218.037 161.772V160.78H216.02H213.219V170.749C221.108 170.749 224.163 170.749 231.046 170.749V160.78L228.16 160.78L226.228 160.78V161.772H225.385M218.037 161.772V167.987M224.542 161.772V155.083L222.133 155.083L219.723 155.083V161.772M224.542 161.772H225.385M224.542 161.772H222.133V170.749M219.723 161.772V166.145M225.385 161.772V167.757" stroke="#C2C1C1" stroke-width="2" stroke-linecap="round" stroke-linejoin="round"/>
<path d="M306.147 70.0034H308.396M306.147 70.0034V68.681H303.458H299.723V81.9737C310.241 81.9737 314.314 81.9737 323.493 81.9737V68.681L319.645 68.681L317.069 68.681V70.0034H315.944M306.147 70.0034V78.2905M314.82 70.0034V61.0852L311.608 61.0852L308.396 61.0852V70.0034M314.82 70.0034H315.944M314.82 70.0034H311.608V81.9737M308.396 70.0034V75.835M315.944 70.0034V77.9836" stroke="#C2C1C1" stroke-width="2" stroke-linecap="round" stroke-linejoin="round"/>
<path d="M483.569 136.15H485.818M483.569 136.15V134.828H480.88H477.145V148.121C487.663 148.121 491.736 148.121 500.915 148.121V134.828L497.066 134.828L494.491 134.828V136.15H493.366M483.569 136.15V144.437M492.242 136.15V127.232L489.03 127.232L485.818 127.232V136.15M492.242 136.15H493.366M492.242 136.15H489.03V148.121M485.818 136.15V141.982M493.366 136.15V144.13" stroke="#C2C1C1" stroke-width="2" stroke-linecap="round" stroke-linejoin="round"/>
<path d="M185.217 19.523H187.466M185.217 19.523V18.2006H182.528H178.793V31.4934C189.312 31.4934 193.385 31.4934 202.563 31.4934V18.2006L198.715 18.2006L196.139 18.2006V19.523H195.015M185.217 19.523V27.8102M193.89 19.523V10.6047L190.678 10.6047L187.466 10.6047V19.523M193.89 19.523H195.015M193.89 19.523H190.678V31.4934M187.466 19.523V25.3547M195.015 19.523V27.5033" stroke="#C2C1C1" stroke-width="2" stroke-linecap="round" stroke-linejoin="round"/>
<path d="M332.573 24.9996H334.493M332.573 24.9996V23.8976H330.276H327.086V34.9747C336.07 34.9747 339.548 34.9747 347.388 34.9747V23.8976L344.101 23.8976L341.901 23.8976V24.9996H340.94M332.573 24.9996V31.9055M339.98 24.9996V17.5679L337.237 17.5679L334.493 17.5679V24.9996M339.98 24.9996H340.94M339.98 24.9996H337.237V34.9747M334.493 24.9996V29.8593M340.94 24.9996V31.6497" stroke="#C2C1C1" stroke-width="2" stroke-linecap="round" stroke-linejoin="round"/>
<g filter="url(#filter0_d)">
<path d="M-27.7204 -8.65536C-20.5441 -15.7551 -8.90903 -15.7551 -1.73274 -8.65536V-8.65536C4.73365 -2.25799 5.46118 7.86994 -0.0257314 15.1077L-14.7266 34.4996L-29.4274 15.1077C-34.9143 7.86994 -34.1868 -2.25799 -27.7204 -8.65536V-8.65536Z" fill="white"/>
<path d="M-15.5308 35.0964L-14.7266 36.1573L-13.9223 35.0964L0.778548 15.7045C6.56565 8.07073 5.79831 -2.6113 -1.02185 -9.35866C-8.59075 -16.8468 -20.8624 -16.8468 -28.4313 -9.35866C-35.2514 -2.6113 -36.0188 8.07073 -30.2317 15.7045L-15.5308 35.0964Z" stroke="#BCBCBC" stroke-width="2"/>
</g>
<g filter="url(#filter1_f)">
<ellipse cx="93.0293" cy="196.878" rx="8.61523" ry="2.46149" fill="black" fill-opacity="0.4"/>
</g>
<g filter="url(#filter2_d)">
<path d="M80.0335 153.301C87.2098 146.101 98.8449 146.101 106.021 153.301V153.301C112.488 159.789 113.215 170.061 107.728 177.401L93.0273 197.068L78.3265 177.401C72.8396 170.061 73.5671 159.789 80.0335 153.301V153.301Z" fill="white"/>
<path d="M92.2287 197.669L93.0273 198.737L93.826 197.669L108.527 178.002C114.312 170.263 113.545 159.433 106.727 152.593C99.1609 145.001 86.8938 145.001 79.3276 152.593C72.5099 159.433 71.7428 170.263 77.5279 178.002L92.2287 197.669Z" stroke="#BCBCBC" stroke-width="2"/>
</g>
<ellipse cx="93.0293" cy="166.11" rx="8.61523" ry="8.61523" fill="#BCBCBC"/>
<path d="M686.535 108.995L701.099 118.133L703.305 88.1063L736.847 90.2822L746.557 93.3284L751.853 91.5877L761.121 94.1987L760.68 104.643H769.948L772.155 94.6339L779.216 96.3746H791.132L792.898 91.5877L800.842 88.1063L807.903 91.5877L810.993 75.9214L809.227 72.44H824.674V82.8842L819.819 88.1063L850.272 93.7636L853.361 100.291L861.747 91.5877L869.25 89.4118L868.367 86.3656L876.311 82.8842L880.724 86.3656L876.311 96.3746L880.724 100.291L886.02 91.5877H902.791L906.763 97.6801L919.562 99.4209L926.624 93.7636L939.864 102.902L952.663 119.439L942.953 121.615L944.277 142.503L938.099 150.336L953.104 164.262L965.02 150.336L978.702 161.216H985.322L986.205 155.994L995.473 145.114L1006.07 137.281L1010.48 139.457L1019.31 128.142L1027.25 122.92L1030.78 125.096L1033.43 121.615L1045.79 130.318L1055.05 120.309L1057.7 112.041L1063.44 108.56L1062.56 97.6801H1081.98L1086.39 82.0138L1099.63 65.4772L1108.01 68.5234L1114.63 62.4309L1110.22 56.3385L1132.73 56.7737L1125.23 44.5887L1132.73 38.4963L1150.38 55.033L1151.71 64.1716L1164.95 66.7827L1171.13 77.6621H1175.1V66.7827L1184.37 65.4772L1185.69 82.0138L1197.17 72.44L1198.05 58.0792L1205.11 56.7737H1209.08V61.9958H1216.14L1217.91 56.7737L1226.74 58.0792L1228.5 65.4772L1243.06 61.9958L1242.18 54.1626L1248.36 48.9405L1261.6 51.9867L1263.37 37.1908L1253.22 33.7094L1247.48 27.1817L1239.09 25.0059L1238.21 20.6541H1258.51L1270.43 6.7285L1262.48 -9.80817L1269.1 -12.4192L1278.81 -8.93782L1284.11 -20.2524L1291.61 -24.169L1293.82 -28.5207L1307.94 -32.0021L1310.59 -24.169L1306.62 -15.9006L1310.59 -10.6785L1314.12 -12.4192H1324.27L1322.06 -5.45642L1326.48 -2.41019L1359.58 -26.3448L1363.11 -37.6594H1367.96L1379.88 -25.0393L1393.56 -24.169L1401.06 -34.178L1424.46 -33.7428L1426.66 -37.6594L1435.93 -32.8725L1439.02 -35.0483L1444.76 -30.6966L1439.46 -18.9469L1444.76 -16.771L1458.44 -4.15089L1450.49 6.29332L1457.11 11.0802L1465.94 11.9506L1470.8 8.90437L1481.39 11.9506L1494.63 -13.2896L1490.66 -19.8172L1494.63 -24.169V-31.5669L1490.66 -35.4835L1500.81 -38.9649L1505.66 -43.3167V-52.0202L1510.52 -55.5016L1508.75 -58.983L1497.72 -56.3719L1494.63 -95.1025L1501.69 -105.547H1518.9L1533.91 -121.213L1535.23 -115.556L1549.8 -126L1548.03 -111.639L1559.95 -102.501L1559.51 -92.0563H1551.56V-79.4362L1549.8 -75.9548V-52.0202L1544.5 -44.187L1537.44 -43.3167L1536.11 -37.6594L1544.5 -18.0765L1546.71 -25.0393L1557.74 -28.0855L1555.09 -18.0765L1546.71 -13.2896V-8.06747L1557.74 -7.19712L1559.95 -0.669487L1551.56 1.07121L1561.27 22.3948H1566.13L1571.42 38.0611L1575.84 40.237L1579.37 38.0611L1588.19 40.237L1594.81 46.3295H1605.41L1609.82 50.6812H1620.41L1621.73 42.4129L1612.47 36.3204L1617.32 33.7094L1623.06 35.4501L1626.15 32.4038H1631.44L1633.21 28.4873L1649.1 29.7928L1660.57 25.441L1667.19 26.3114L1671.61 15.8672L1681.32 20.6541V29.3576H1686.61L1690.14 20.6541L1698.97 25.441L1695.44 35.8852L1702.06 48.0702L1700.73 61.5606L1709.56 63.7365L1718.39 82.0138L1711.33 90.2822L1704.27 95.5043V100.726L1708.24 101.597L1710.44 102.902H1716.18V111.171L1708.24 115.958L1719.71 122.05L1730.75 118.569H1751.49L1765.17 123.791L1770.47 124.661L1776.65 134.67L1796.51 129.013V136.846L1803.13 138.151L1807.98 149.466L1804.01 152.077L1803.13 167.308L1819.9 169.049L1817.25 199.511L1810.63 206.039L1809.3 223.881L1805.33 238.677H1797.83V242.158L1803.13 243.899L1802.68 250.862L1812.84 256.084V263.917L1805.33 262.612L1804.01 269.574L1817.69 273.926H1840.2L1849.03 279.583L1843.73 286.111L1846.82 292.639L1821.66 314.397L1811.51 315.703L1810.63 321.795L1804.01 323.536L1799.6 332.24L1797.39 349.212L1774 362.267L1768.7 345.295L1782.82 341.814L1788.56 327.453L1770.91 326.147L1762.96 335.721L1766.05 341.814L1760.76 351.387H1757.23L1749.28 363.572L1718.39 347.036V343.989L1733.84 327.453V321.795L1719.27 305.694L1712.21 307L1702.94 315.703L1698.09 316.573L1689.26 309.175L1679.99 315.703L1677.79 322.666H1663.22L1662.78 328.758L1667.19 333.98L1668.08 346.165L1662.78 347.036L1657.92 361.832H1650.86L1645.57 366.619L1636.3 363.137L1632.77 365.313L1625.27 355.304L1629.68 338.332L1624.82 340.073L1623.5 350.952H1616.44L1614.23 370.97L1617.32 375.757L1612.91 395.775L1608.05 403.173L1601.87 394.905H1594.37V402.303L1596.14 404.479L1592.17 414.923L1582.46 405.784L1573.19 403.173L1557.74 380.979L1545.38 382.285V393.164L1552 394.035L1548.47 400.127L1545.38 397.081L1541.85 399.257L1535.23 400.127L1533.47 393.164H1529.49L1526.85 404.479L1520.23 410.136L1518.9 404.479L1510.52 407.96L1506.99 416.229L1510.52 420.145L1503.01 425.367L1503.9 435.811L1482.71 441.034L1471.68 451.043L1476.09 466.709L1496.84 469.755L1503.46 463.227L1514.93 478.023L1510.52 486.292L1505.66 487.162L1498.6 478.894L1490.22 483.246L1488.89 500.217L1482.71 501.088L1478.74 514.578H1465.5L1458.44 523.717L1450.94 525.022L1449.61 534.161L1446.52 536.337L1447.41 548.957L1442.99 557.661L1427.99 555.485L1419.16 566.799V556.79L1413.42 555.485L1415.19 548.957L1413.42 548.087L1405.04 554.179L1411.22 559.836L1410.33 565.494H1403.27L1396.65 572.021H1405.04L1411.22 581.595L1409.89 605.095L1401.51 611.622L1400.18 616.844L1388.71 615.104L1368.85 614.233L1355.61 621.196L1334.86 622.502L1322.95 632.946L1314.12 653.834L1321.18 663.408L1319.42 670.371L1335.31 675.593L1301.32 672.982L1286.76 661.232L1278.37 659.927L1270.87 653.834L1267.34 645.566L1270.87 638.603V632.511L1252.33 621.196L1220.12 614.669L1217.47 610.317L1213.05 613.363L1196.28 598.132L1202.9 588.123L1190.55 577.679H1180.39V563.753L1176.86 544.17L1180.39 539.818L1175.98 527.633L1160.53 517.189L1113.31 515.449L1099.63 507.18V516.319L1081.09 511.532L1084.62 506.31L1079.33 505.44L1070.5 511.532H1059.03L1055.5 501.523H1029.9L1032.55 467.579H1018.86L1021.51 417.969L979.143 413.617L977.819 421.451L951.78 419.71L950.456 438.422H933.244L921.328 440.163L901.909 451.913L900.143 457.57L886.903 465.839H879.4L875.428 469.32L868.367 459.746L867.925 467.144L863.512 466.709V457.57L860.864 454.959L866.601 437.117L860.864 431.024L868.367 424.932L863.512 421.451L856.009 420.58L846.3 417.534L843.652 407.96L845.417 404.479L844.534 397.516L836.59 384.026L828.646 380.109L821.585 370.97L807.462 368.359L799.076 372.711L792.898 365.313L790.25 364.007V371.841L796.87 377.063L780.981 389.683L776.127 393.599L777.451 405.349L786.277 407.96L791.132 423.191L790.25 426.673L807.903 459.746H816.289L818.495 464.968L828.646 469.32L835.708 475.412L836.59 481.94L845.417 478.459L848.507 485.421L841.886 490.644L833.06 506.745L804.372 532.42L790.691 516.319H784.071L764.21 526.328L762.445 520.671L743.909 526.328L735.523 518.495L726.697 526.328L728.021 529.809L695.803 551.133L692.272 548.087L682.121 548.957L680.356 554.179L674.177 554.614L665.35 569.41L656.082 566.799L652.11 576.373L651.227 566.799L656.082 559.401L652.993 557.661L647.255 563.318L635.78 565.494L636.222 557.661L645.049 548.087L642.4 546.781L633.574 551.133L625.63 543.735L627.395 535.902L624.747 518.495L642.4 509.356L637.546 495.866L632.691 494.56L622.099 501.523L609.741 493.69L600.032 496.736L589.881 468.885L582.378 465.839V460.181L574.434 459.311L569.579 448.432L588.116 450.172L589.881 421.015H599.149L597.384 400.562L602.239 362.702L585.026 361.832L580.613 357.48L539.127 368.359L543.54 353.128L539.127 347.906L515.294 347.036L502.496 321.795L502.054 313.527L508.233 312.222L508.674 306.129L500.73 296.12L502.496 291.768L498.965 288.287L512.646 265.223L527.652 262.612L534.713 266.963L536.92 257.39H578.847L579.289 245.205L599.59 243.464L588.116 229.103L584.585 229.973L579.289 223.446L585.468 218.659L581.496 216.918L574.875 221.27L569.579 215.613L576.641 208.215V202.557L571.345 201.687L573.11 197.335L578.847 198.206L582.378 204.298H588.557L592.97 134.235H601.797L604.445 127.707L637.104 132.059L654.317 121.615H672.412L686.535 108.995Z" stroke="#C2C1C1" stroke-width="2" stroke-linecap="round" stroke-linejoin="round"/>
<path d="M1186.14 80.7087L1195.84 124.661L1175.54 155.994L1164.51 201.687L1175.54 211.261M1175.54 211.261L1194.52 229.974L1200.27 238.677M1175.54 211.261L1169.81 228.668M1157.01 307.87L1160.76 294.597M1157.01 516.319V503.699L1175.54 509.791C1188.64 505.585 1215.44 497.084 1217.91 496.736C1220.38 496.388 1237.18 509.646 1245.28 516.319L1282.79 518.93L1300 611.187L1321.63 636.427M1160.76 294.597L1164.51 281.325V270.01M1160.76 294.597L1175.54 291.334L1209.53 274.362L1213.5 258.695L1200.27 238.677M1160.76 294.597L1142 287.417L1109.78 250.427M1109.78 250.427L1052.41 263.047L1012.69 264.788M1109.78 250.427L1137.15 254.561M993.27 273.056L921.331 322.231M873.225 369.665L827.326 365.749L794.225 327.453L780.102 336.592L758.477 357.48L775.248 392.729M1200.27 238.677L1247.92 220.4M1667.64 166.873L1637.19 158.17H1559.95L1552.01 128.578L1511.4 119.875C1493.31 135.541 1457.12 168.005 1457.12 172.531C1457.12 177.057 1423.87 170.645 1407.25 166.873L1379.88 184.716L1326.48 201.687L1291.17 196.901L1262.49 214.743M1740.02 233.02L1764.29 239.548L1789.01 265.658C1791.36 273.056 1797.83 287.852 1804.89 287.852C1811.96 287.852 1833.73 287.852 1843.73 287.852M1155.24 380.98L1157.01 405.349L1153.49 419.71" stroke="#C2C1C1" stroke-width="2" stroke-linecap="round" stroke-linejoin="round" stroke-dasharray="4 4"/>
<path d="M777.892 405.349L757.149 423.191L727.138 437.552L698.451 452.783L681.238 454.524L661.819 466.274L652.993 486.727L638.87 499.347M637.546 496.301L648.138 484.551L653.434 458.005L686.535 437.552L708.602 439.728L724.048 427.978L717.87 419.275L707.278 410.136L703.305 396.646L692.272 388.812V381.85L697.127 379.674C695.802 369.665 687.039 383.59 683.445 367.054C680.797 354.869 694.92 352.258 693.155 349.211C691.39 346.165 677.708 357.48 675.06 348.776C672.412 340.073 680.118 330.934 678.591 328.758C674.619 323.101 670.205 337.897 663.144 323.536C657.6 312.262 670.205 306.999 668.881 303.518C667.303 299.369 655.641 309.175 650.345 302.648C645.049 296.12 657.354 280.245 654.758 279.148C648.579 276.537 620.775 298.731 617.244 290.028C615.302 285.241 611.948 289.157 604.887 285.676C598.165 282.361 611.065 276.972 610.183 274.796C609.653 273.491 602.68 277.407 598.708 272.185C593.09 264.8 603.121 262.829 601.797 260.871C601.356 260.218 593.347 262.594 592.97 258.695C592.088 249.556 602.68 249.121 600.473 246.51C598.708 244.421 595.177 246.51 594.736 244.334M776.568 396.646L755.825 398.386L757.149 403.608L742.585 410.136L730.669 400.997L733.317 392.294L717.87 387.072L716.546 378.803H699.333C699.333 377.498 699.157 374.19 698.451 371.405C697.568 367.924 692.272 378.803 689.624 366.618C686.976 354.434 698.451 353.998 695.361 347.036C692.272 340.073 681.238 353.563 678.59 344.86C675.942 336.156 686.535 332.675 681.238 323.971C675.942 315.268 671.088 333.545 666.674 321.795C662.261 310.046 678.59 306.564 674.618 299.166C670.646 291.768 658.73 305.694 653.434 299.166C648.138 292.639 661.819 280.454 656.523 276.102C651.227 271.75 622.54 296.12 619.009 287.417C615.479 278.713 644.166 270.445 640.635 266.528C637.104 262.612 611.948 290.028 607.093 284.37C602.239 278.713 623.423 272.621 622.54 270.445C621.657 268.269 607.093 276.972 600.473 270.445C593.853 263.917 615.479 255.214 611.948 252.602C608.417 249.991 600.473 264.352 596.06 259.13C591.646 253.908 609.3 246.51 607.093 243.899C605.328 241.81 601.944 243.029 600.473 243.899" stroke="#C2C1C1" stroke-linecap="round" stroke-linejoin="round"/>
<path d="M736.843 425.367C739.05 425.367 739.491 424.061 739.932 423.191C740.374 424.061 740.815 425.367 743.022 425.367M741.698 423.626C743.904 423.626 744.346 422.321 744.787 421.45C745.228 422.321 745.67 423.626 747.877 423.626M731.988 422.756C734.195 422.756 734.636 421.45 735.078 420.58C735.519 421.45 735.96 422.756 738.167 422.756" stroke="#C2C1C1" stroke-linecap="round" stroke-linejoin="round"/>
<path d="M750.968 416.664C753.175 416.664 753.616 415.358 754.057 414.488C754.499 415.358 754.94 416.664 757.147 416.664M755.823 414.923C758.029 414.923 758.471 413.617 758.912 412.747C759.353 413.617 759.795 414.923 762.002 414.923M746.113 414.053C748.32 414.053 748.761 412.747 749.203 411.877C749.644 412.747 750.085 414.053 752.292 414.053" stroke="#C2C1C1" stroke-linecap="round" stroke-linejoin="round"/>
<path d="M726.253 415.793C728.46 415.793 728.901 414.488 729.343 413.617C729.784 414.488 730.225 415.793 732.432 415.793M731.108 414.052C733.315 414.052 733.756 412.747 734.197 411.876C734.639 412.747 735.08 414.052 737.287 414.052M721.398 413.182C723.605 413.182 724.046 411.876 724.488 411.006C724.929 411.876 725.371 413.182 727.577 413.182" stroke="#C2C1C1" stroke-linecap="round" stroke-linejoin="round"/>
<path d="M688.296 444.515C690.503 444.515 690.944 443.209 691.386 442.339C691.827 443.209 692.268 444.515 694.475 444.515M693.151 442.774C695.358 442.774 695.799 441.469 696.24 440.598C696.682 441.469 697.123 442.774 699.33 442.774M683.441 441.904C685.648 441.904 686.089 440.598 686.531 439.728C686.972 440.598 687.413 441.904 689.62 441.904" stroke="#C2C1C1" stroke-linecap="round" stroke-linejoin="round"/>
<path d="M683.882 451.477C686.089 451.477 686.53 450.172 686.971 449.301C687.413 450.172 687.854 451.477 690.061 451.477M688.737 449.737C690.944 449.737 691.385 448.431 691.826 447.561C692.268 448.431 692.709 449.737 694.916 449.737M679.027 448.866C681.234 448.866 681.675 447.561 682.117 446.69C682.558 447.561 682.999 448.866 685.206 448.866" stroke="#C2C1C1" stroke-linecap="round" stroke-linejoin="round"/>
<path d="M662.698 459.311C664.905 459.311 665.347 458.005 665.788 457.135C666.229 458.005 666.671 459.311 668.877 459.311M667.553 457.57C669.76 457.57 670.201 456.265 670.643 455.394C671.084 456.265 671.525 457.57 673.732 457.57M657.844 456.7C660.05 456.7 660.492 455.394 660.933 454.524C661.374 455.394 661.816 456.7 664.023 456.7" stroke="#C2C1C1" stroke-linecap="round" stroke-linejoin="round"/>
<path d="M652.546 472.366C654.753 472.366 655.194 471.061 655.635 470.19C656.077 471.061 656.518 472.366 658.725 472.366M649.457 477.588C651.663 477.588 652.105 476.283 652.546 475.412C652.987 476.283 653.429 477.588 655.635 477.588M646.367 487.162C648.574 487.162 649.015 485.857 649.457 484.986C649.898 485.857 650.339 487.162 652.546 487.162M707.272 443.209C709.479 443.209 709.92 441.904 710.362 441.033C710.803 441.904 711.244 443.209 713.451 443.209" stroke="#C2C1C1" stroke-linecap="round" stroke-linejoin="round"/>
<path d="M724.484 434.941C726.69 434.941 727.132 433.635 727.573 432.765C728.014 433.635 728.456 434.941 730.662 434.941M729.338 433.2C731.545 433.2 731.986 431.895 732.428 431.024C732.869 431.895 733.31 433.2 735.517 433.2M719.629 432.33C721.836 432.33 722.277 431.024 722.718 430.154C723.16 431.024 723.601 432.33 725.808 432.33" stroke="#C2C1C1" stroke-linecap="round" stroke-linejoin="round"/>
<path d="M763.323 406.219C765.53 406.219 765.972 404.914 766.413 404.044C766.854 404.914 767.296 406.219 769.502 406.219M768.178 404.479C770.385 404.479 770.826 403.173 771.268 402.303C771.709 403.173 772.15 404.479 774.357 404.479M758.469 403.608C760.675 403.608 761.117 402.303 761.558 401.432C761.999 402.303 762.441 403.608 764.648 403.608" stroke="#C2C1C1" stroke-linecap="round" stroke-linejoin="round"/>
<path d="M713.007 406.219C715.214 406.219 715.655 404.914 716.096 404.044C716.538 404.914 716.979 406.219 719.186 406.219M717.862 404.479C720.069 404.479 720.51 403.173 720.951 402.303C721.393 403.173 721.834 404.479 724.041 404.479M708.152 403.608C710.359 403.608 710.8 402.303 711.242 401.432C711.683 402.303 712.124 403.608 714.331 403.608" stroke="#C2C1C1" stroke-linecap="round" stroke-linejoin="round"/>
<path d="M719.191 397.516C721.397 397.516 721.839 396.211 722.28 395.34C722.721 396.211 723.163 397.516 725.369 397.516M724.045 395.775C726.252 395.775 726.693 394.47 727.135 393.599C727.576 394.47 728.017 395.775 730.224 395.775M714.336 394.905C716.543 394.905 716.984 393.599 717.425 392.729C717.867 393.599 718.308 394.905 720.515 394.905" stroke="#C2C1C1" stroke-linecap="round" stroke-linejoin="round"/>
<path d="M701.534 390.553C703.741 390.553 704.182 389.247 704.624 388.377C705.065 389.247 705.506 390.553 707.713 390.553M706.389 388.812C708.596 388.812 709.037 387.507 709.479 386.636C709.92 387.507 710.361 388.812 712.568 388.812M696.68 387.942C698.886 387.942 699.328 386.636 699.769 385.766C700.21 386.636 700.652 387.942 702.858 387.942" stroke="#C2C1C1" stroke-linecap="round" stroke-linejoin="round"/>
<path d="M705.945 384.46C708.151 384.46 708.593 383.155 709.034 382.285C709.475 383.155 709.917 384.46 712.123 384.46M710.799 382.72C713.006 382.72 713.447 381.414 713.889 380.544C714.33 381.414 714.771 382.72 716.978 382.72M701.09 381.849C703.297 381.849 703.738 380.544 704.179 379.674C704.621 380.544 705.062 381.849 707.269 381.849" stroke="#C2C1C1" stroke-linecap="round" stroke-linejoin="round"/>
<path d="M689.13 373.581C690.111 373.581 690.307 372.869 690.503 372.394C690.7 372.869 690.896 373.581 691.876 373.581M686.973 372.157C687.953 372.157 688.15 371.445 688.346 370.97C688.542 371.445 688.738 372.157 689.719 372.157" stroke="#C2C1C1" stroke-linecap="round" stroke-linejoin="round"/>
<path d="M686.478 368.359C687.459 368.359 687.655 367.647 687.851 367.172C688.047 367.647 688.243 368.359 689.224 368.359M684.32 366.935C685.301 366.935 685.497 366.223 685.693 365.748C685.89 366.223 686.086 366.935 687.066 366.935" stroke="#C2C1C1" stroke-linecap="round" stroke-linejoin="round"/>
<path d="M686.478 363.137C687.459 363.137 687.655 362.425 687.851 361.95C688.047 362.425 688.243 363.137 689.224 363.137M684.32 361.713C685.301 361.713 685.497 361.001 685.693 360.526C685.89 361.001 686.086 361.713 687.066 361.713" stroke="#C2C1C1" stroke-linecap="round" stroke-linejoin="round"/>
<path d="M692.658 348.341C693.638 348.341 693.835 347.629 694.031 347.154C694.227 347.629 694.423 348.341 695.404 348.341M690.5 346.917C691.481 346.917 691.677 346.205 691.873 345.73C692.069 346.205 692.265 346.917 693.246 346.917" stroke="#C2C1C1" stroke-linecap="round" stroke-linejoin="round"/>
<path d="M680.302 350.952C681.283 350.952 681.479 350.24 681.675 349.765C681.871 350.24 682.068 350.952 683.048 350.952M678.145 349.528C679.125 349.528 679.321 348.816 679.518 348.341C679.714 348.816 679.91 349.528 680.891 349.528" stroke="#C2C1C1" stroke-linecap="round" stroke-linejoin="round"/>
<path d="M676.771 346.6C677.752 346.6 677.948 345.888 678.144 345.414C678.34 345.888 678.536 346.6 679.517 346.6M674.613 345.176C675.594 345.176 675.79 344.464 675.986 343.989C676.182 344.464 676.379 345.176 677.359 345.176" stroke="#C2C1C1" stroke-linecap="round" stroke-linejoin="round"/>
<path d="M679.415 327.453C680.396 327.453 680.592 326.741 680.789 326.266C680.985 326.741 681.181 327.453 682.162 327.453M677.258 326.029C678.239 326.029 678.435 325.317 678.631 324.842C678.827 325.317 679.023 326.029 680.004 326.029" stroke="#C2C1C1" stroke-linecap="round" stroke-linejoin="round"/>
<path d="M669.708 329.193C670.689 329.193 670.885 328.481 671.082 328.006C671.278 328.481 671.474 329.193 672.455 329.193M667.551 327.769C668.532 327.769 668.728 327.057 668.924 326.582C669.12 327.057 669.316 327.769 670.297 327.769" stroke="#C2C1C1" stroke-linecap="round" stroke-linejoin="round"/>
<path d="M664.415 322.231C665.396 322.231 665.592 321.519 665.789 321.044C665.985 321.519 666.181 322.231 667.162 322.231M662.258 320.806C663.239 320.806 663.435 320.094 663.631 319.62C663.827 320.094 664.023 320.806 665.004 320.806" stroke="#C2C1C1" stroke-linecap="round" stroke-linejoin="round"/>
<path d="M671.478 303.083C672.459 303.083 672.655 302.371 672.851 301.896C673.047 302.371 673.243 303.083 674.224 303.083M669.32 301.659C670.301 301.659 670.497 300.947 670.693 300.472C670.89 300.947 671.086 301.659 672.066 301.659" stroke="#C2C1C1" stroke-linecap="round" stroke-linejoin="round"/>
<path d="M664.415 302.212C665.396 302.212 665.592 301.5 665.789 301.025C665.985 301.5 666.181 302.212 667.162 302.212M662.258 300.788C663.239 300.788 663.435 300.076 663.631 299.601C663.827 300.076 664.023 300.788 665.004 300.788" stroke="#C2C1C1" stroke-linecap="round" stroke-linejoin="round"/>
<path d="M655.587 303.953C656.568 303.953 656.764 303.241 656.96 302.766C657.157 303.241 657.353 303.953 658.333 303.953M653.43 302.529C654.41 302.529 654.607 301.817 654.803 301.342C654.999 301.817 655.195 302.529 656.176 302.529" stroke="#C2C1C1" stroke-linecap="round" stroke-linejoin="round"/>
<path d="M651.169 300.471C652.15 300.471 652.346 299.759 652.542 299.285C652.739 299.759 652.935 300.471 653.916 300.471M649.012 299.047C649.992 299.047 650.189 298.335 650.385 297.86C650.581 298.335 650.777 299.047 651.758 299.047" stroke="#C2C1C1" stroke-linecap="round" stroke-linejoin="round"/>
<path d="M653.822 278.713C654.802 278.713 654.999 278.001 655.195 277.526C655.391 278.001 655.587 278.713 656.568 278.713M651.664 277.288C652.645 277.288 652.841 276.576 653.037 276.102C653.233 276.576 653.429 277.288 654.41 277.288" stroke="#C2C1C1" stroke-linecap="round" stroke-linejoin="round"/>
<path d="M615.869 287.416C616.849 287.416 617.046 286.704 617.242 286.229C617.438 286.704 617.634 287.416 618.615 287.416M613.711 285.992C614.692 285.992 614.888 285.28 615.084 284.805C615.28 285.28 615.476 285.992 616.457 285.992" stroke="#C2C1C1" stroke-linecap="round" stroke-linejoin="round"/>
<path d="M612.337 275.231C613.318 275.231 613.514 274.519 613.71 274.045C613.907 274.519 614.103 275.231 615.083 275.231M610.18 273.807C611.16 273.807 611.357 273.095 611.553 272.62C611.749 273.095 611.945 273.807 612.926 273.807" stroke="#C2C1C1" stroke-linecap="round" stroke-linejoin="round"/>
<path d="M602.234 259.882C603.215 259.882 603.411 259.17 603.607 258.695C603.804 259.17 604 259.882 604.98 259.882M604.784 257.824C605.765 257.824 605.961 257.112 606.157 256.638C606.354 257.112 606.55 257.824 607.53 257.824M607.089 255.649C608.07 255.649 608.266 254.936 608.462 254.462C608.658 254.936 608.854 255.649 609.835 255.649" stroke="#C2C1C1" stroke-linecap="round" stroke-linejoin="round"/>
<path d="M598.703 249.319C599.684 249.319 599.88 248.607 600.076 248.132C600.272 248.607 600.468 249.319 601.449 249.319M601.253 247.262C602.234 247.262 602.43 246.549 602.626 246.075C602.822 246.549 603.018 247.262 603.999 247.262M603.558 245.086C604.539 245.086 604.735 244.374 604.931 243.899C605.127 244.374 605.323 245.086 606.304 245.086" stroke="#C2C1C1" stroke-linecap="round" stroke-linejoin="round"/>
<path d="M751.406 484.8C755.084 485.157 761.925 489.947 762.808 491.949M753.981 482.655C757.659 483.012 764.499 487.802 765.382 489.804M756.555 480.868C760.233 481.225 767.074 486.015 767.957 488.017M759.865 479.438C763.543 479.795 770.384 484.585 771.267 486.587M782.3 476.936C778.622 477.293 771.781 482.083 770.899 484.085M779.726 475.148C776.048 475.506 769.207 480.296 768.324 482.298M777.151 473.361C773.473 473.718 766.632 478.508 765.75 480.51M773.841 471.931C770.163 472.289 763.322 477.079 762.44 479.08" stroke="#C2C1C1" stroke-linecap="round" stroke-linejoin="round"/>
<path d="M748.758 469.134C752.436 469.491 759.276 474.281 760.159 476.283M751.332 466.989C755.01 467.346 761.851 472.136 762.734 474.138M753.907 465.201C757.585 465.559 764.425 470.349 765.308 472.351M757.217 463.772C760.895 464.129 767.735 468.919 768.618 470.921M779.652 461.269C775.974 461.627 769.133 466.417 768.25 468.419M777.077 459.482C773.399 459.84 766.559 464.629 765.676 466.631M774.503 457.695C770.825 458.052 763.984 462.842 763.101 464.844M771.193 456.265C767.515 456.622 760.674 461.412 759.791 463.414" stroke="#C2C1C1" stroke-linecap="round" stroke-linejoin="round"/>
<path d="M726.691 485.67C730.264 486.028 736.909 490.818 737.767 492.819M729.192 483.525C732.765 483.883 739.41 488.673 740.268 490.675M731.693 481.738C735.266 482.096 741.911 486.886 742.769 488.887M734.909 480.308C738.482 480.666 745.127 485.456 745.984 487.457M756.703 477.806C753.13 478.163 746.484 482.953 745.627 484.955M754.202 476.019C750.629 476.376 743.984 481.166 743.126 483.168M751.701 474.231C748.128 474.589 741.483 479.379 740.625 481.381M748.485 472.802C744.912 473.159 738.267 477.949 737.41 479.951" stroke="#C2C1C1" stroke-linecap="round" stroke-linejoin="round"/>
<path d="M726.691 468.263C730.369 468.621 737.21 473.411 738.093 475.413M729.266 466.118C732.944 466.476 739.785 471.266 740.667 473.268M731.84 464.331C735.518 464.689 742.359 469.479 743.242 471.48M735.15 462.901C738.828 463.259 745.669 468.049 746.552 470.051M757.585 460.399C753.907 460.757 747.067 465.547 746.184 467.548M755.011 458.612C751.333 458.969 744.492 463.759 743.609 465.761M752.436 456.824C748.758 457.182 741.918 461.972 741.035 463.974M749.126 455.395C745.448 455.752 738.608 460.542 737.725 462.544" stroke="#C2C1C1" stroke-linecap="round" stroke-linejoin="round"/>
<path d="M703.742 483.93C707.42 484.287 714.261 489.077 715.143 491.079M706.317 481.785C709.995 482.142 716.835 486.932 717.718 488.934M708.891 479.997C712.569 480.355 719.41 485.145 720.292 487.147M712.201 478.568C715.879 478.925 722.72 483.715 723.603 485.717M734.636 476.065C730.958 476.423 724.117 481.213 723.235 483.215M732.062 474.278C728.384 474.635 721.543 479.425 720.66 481.427M729.487 472.491C725.809 472.848 718.968 477.638 718.086 479.64M726.177 471.061C722.499 471.418 715.658 476.208 714.776 478.21" stroke="#C2C1C1" stroke-linecap="round" stroke-linejoin="round"/>
<path d="M703.742 467.393C707.42 467.75 714.261 472.54 715.143 474.542M706.317 465.248C709.995 465.606 716.835 470.396 717.718 472.397M708.891 463.461C712.569 463.818 719.41 468.608 720.292 470.61M712.201 462.031C715.879 462.388 722.72 467.178 723.603 469.18M734.636 459.529C730.958 459.886 724.117 464.676 723.235 466.678M732.062 457.741C728.384 458.099 721.543 462.889 720.66 464.891M729.487 455.954C725.809 456.311 718.968 461.102 718.086 463.103M726.177 454.524C722.499 454.882 715.658 459.672 714.776 461.673" stroke="#C2C1C1" stroke-linecap="round" stroke-linejoin="round"/>
<path d="M704.625 501.336C708.303 501.694 715.144 506.484 716.026 508.486M707.199 499.192C710.877 499.549 717.718 504.339 718.601 506.341M709.774 497.404C713.452 497.762 720.293 502.552 721.175 504.554M713.084 495.974C716.762 496.332 723.603 501.122 724.485 503.124M735.519 493.472C731.841 493.83 725 498.62 724.118 500.621M732.944 491.685C729.267 492.042 722.426 496.832 721.543 498.834M730.37 489.898C726.692 490.255 719.851 495.045 718.969 497.047M727.06 488.468C723.382 488.825 716.541 493.615 715.659 495.617" stroke="#C2C1C1" stroke-linecap="round" stroke-linejoin="round"/>
<path d="M728.457 501.336C732.135 501.694 738.976 506.484 739.858 508.486M731.032 499.192C734.709 499.549 741.55 504.339 742.433 506.341M733.606 497.404C737.284 497.762 744.125 502.552 745.007 504.554M736.916 495.974C740.594 496.332 747.435 501.122 748.317 503.124M759.351 493.472C755.673 493.83 748.832 498.62 747.95 500.621M756.776 491.685C753.099 492.042 746.258 496.832 745.375 498.834M754.202 489.898C750.524 490.255 743.683 495.045 742.801 497.047M750.892 488.468C747.214 488.825 740.373 493.615 739.491 495.617" stroke="#C2C1C1" stroke-linecap="round" stroke-linejoin="round"/>
<path d="M752.289 502.207C755.862 502.564 762.507 507.354 763.365 509.356M754.79 500.062C758.363 500.419 765.008 505.209 765.866 507.211M757.291 498.275C760.864 498.632 767.509 503.422 768.366 505.424M760.506 496.845C764.079 497.202 770.724 501.992 771.582 503.994M782.3 494.342C778.727 494.7 772.082 499.49 771.225 501.492M779.799 492.555C776.227 492.913 769.581 497.703 768.724 499.704M777.298 490.768C773.726 491.125 767.08 495.915 766.223 497.917M774.083 489.338C770.51 489.695 763.865 494.485 763.007 496.487" stroke="#C2C1C1" stroke-linecap="round" stroke-linejoin="round"/>
<path d="M747.875 451.727C751.553 452.084 758.394 456.874 759.276 458.876M750.449 449.582C754.127 449.939 760.968 454.729 761.851 456.731M753.024 447.795C756.702 448.152 763.543 452.942 764.425 454.944M756.334 446.365C760.012 446.722 766.853 451.512 767.735 453.514M778.769 443.862C775.091 444.22 768.25 449.01 767.368 451.012M776.194 442.075C772.517 442.433 765.676 447.223 764.793 449.224M773.62 440.288C769.942 440.645 763.101 445.435 762.219 447.437M770.31 438.858C766.632 439.215 759.791 444.005 758.909 446.007" stroke="#C2C1C1" stroke-linecap="round" stroke-linejoin="round"/>
<path d="M746.113 435.749C749.709 436.122 756.398 441.121 757.261 443.209M748.631 433.511C752.227 433.884 758.915 438.883 759.778 440.971M751.148 431.646C754.744 432.019 761.433 437.018 762.296 439.106M754.384 430.154C757.98 430.527 764.669 435.526 765.532 437.614" stroke="#C2C1C1" stroke-linecap="round" stroke-linejoin="round"/>
<path d="M701.304 220.658H696.2V228.208H693.649V220.658H683.441L691.097 211.849H685.993L692.373 203.04H688.545L693.649 195.49H691.097L694.925 189.198L698.752 195.49H696.2L701.304 203.04H697.476L703.537 210.561M701.623 215.205L698.752 211.849H703.537M744.089 176.813C744.089 173.795 745.045 168.764 746.956 168.764C748.868 168.764 750.78 172.788 750.78 176.813C753.647 176.813 753.647 183.857 753.647 186.876M744.089 176.813C740.266 176.813 740.266 184.863 740.266 186.876M744.089 176.813C744.089 179.497 744.854 184.863 747.912 184.863M742.178 202.975C742.178 207 743.133 209.013 747.912 209.013M742.178 202.975C736.443 202.975 737.399 185.871 740.266 186.876M742.178 202.975C741.859 200.963 741.796 196.938 744.089 196.938M747.912 209.013C752.691 209.013 753.647 205.994 753.647 202.975M747.912 209.013V217.062M753.647 202.975C755.558 202.975 755.558 197.945 755.558 195.932C757.47 195.932 758.426 186.876 753.647 186.876M753.647 202.975C753.647 202.304 752.882 200.963 749.824 200.963M753.647 186.876C753.966 188.888 753.647 192.913 749.824 192.913M740.266 186.876C739.947 188.217 739.692 190.9 741.222 190.9M758.79 222.635C758.79 219.849 759.65 215.205 761.37 215.205C763.091 215.205 764.811 218.92 764.811 222.635C767.392 222.635 767.392 229.137 767.392 231.923M758.79 222.635C755.349 222.635 755.349 230.066 755.349 231.923M758.79 222.635C758.79 225.112 759.478 230.066 762.23 230.066M757.069 246.785C757.069 250.5 757.929 252.358 762.23 252.358M757.069 246.785C751.908 246.785 752.769 230.996 755.349 231.923M757.069 246.785C756.783 244.927 756.725 241.212 758.79 241.212M762.23 252.358C766.531 252.358 767.392 249.571 767.392 246.785M762.23 252.358V259.788M767.392 246.785C769.112 246.785 769.112 242.141 769.112 240.283C770.832 240.283 771.693 231.923 767.392 231.923M767.392 246.785C767.392 246.165 766.703 244.927 763.951 244.927M767.392 231.923C767.678 233.781 767.392 237.496 763.951 237.496M755.349 231.923C755.062 233.162 754.832 235.639 756.209 235.639M720.513 228.208C720.513 225.422 721.373 220.778 723.093 220.778C724.814 220.778 726.534 224.493 726.534 228.208C729.115 228.208 729.115 234.71 729.115 237.496M720.513 228.208C717.072 228.208 717.072 235.639 717.072 237.496M720.513 228.208C720.513 230.685 721.201 235.639 723.953 235.639M718.792 252.358C718.792 256.073 719.652 257.93 723.953 257.93M718.792 252.358C713.631 252.358 714.492 236.569 717.072 237.496M718.792 252.358C718.506 250.5 718.448 246.785 720.513 246.785M723.953 257.93C728.254 257.93 729.115 255.144 729.115 252.358M723.953 257.93V265.361M729.115 252.358C730.835 252.358 730.835 247.714 730.835 245.856C732.555 245.856 733.416 237.496 729.115 237.496M729.115 252.358C729.115 251.738 728.426 250.5 725.674 250.5M729.115 237.496C729.401 239.354 729.115 243.069 725.674 243.069M717.072 237.496C716.785 238.735 716.555 241.212 717.932 241.212M702.414 240.592C702.414 238.735 702.987 235.639 704.134 235.639C705.281 235.639 706.428 238.116 706.428 240.592C708.149 240.592 708.149 244.927 708.149 246.785M702.414 240.592C700.12 240.592 700.12 245.546 700.12 246.785M702.414 240.592C702.414 242.244 702.873 245.546 704.708 245.546M701.267 256.692C701.267 259.169 701.84 260.407 704.708 260.407M701.267 256.692C697.826 256.692 698.4 246.166 700.12 246.785M701.267 256.692C701.076 255.454 701.038 252.977 702.414 252.977M704.708 260.407C707.575 260.407 708.149 258.55 708.149 256.692M704.708 260.407V265.361M708.149 256.692C709.296 256.692 709.296 253.596 709.296 252.358C710.443 252.358 711.016 246.785 708.149 246.785M708.149 256.692C708.149 256.279 707.69 255.454 705.855 255.454M708.149 246.785C708.34 248.023 708.149 250.5 705.855 250.5M700.12 246.785C699.929 247.61 699.776 249.261 700.693 249.261M715.382 167.525C715.382 164.506 716.337 159.475 718.249 159.475C720.16 159.475 722.072 163.5 722.072 167.525C724.939 167.525 724.939 174.569 724.939 177.587M715.382 167.525C711.558 167.525 711.558 175.575 711.558 177.587M715.382 167.525C715.381 170.208 716.146 175.575 719.204 175.575M713.47 193.687C713.47 197.712 714.425 199.724 719.204 199.724M713.47 193.687C707.735 193.687 708.691 176.583 711.558 177.587M713.47 193.687C713.151 191.675 713.088 187.65 715.382 187.65M719.204 199.724C723.983 199.724 724.939 196.706 724.939 193.687M719.204 199.724V207.774M724.939 193.687C726.851 193.687 726.851 188.656 726.851 186.644C728.762 186.644 729.718 177.587 724.939 177.587M724.939 193.687C724.939 193.016 724.174 191.675 721.116 191.675M724.939 177.587C725.258 179.6 724.939 183.625 721.116 183.625M711.558 177.587C711.24 178.929 710.985 181.612 712.514 181.612M732.245 195.699L728.417 201.272H731.288L726.503 207.774H730.331L724.589 214.276H732.245V219.849H734.158V214.276H741.814L736.072 207.774H739.9L735.115 201.272H737.986L734.158 195.699H736.072L733.202 191.055L730.331 195.699H732.245ZM769.246 178.771L764.142 186.321H767.97L761.59 195.13H766.694L759.038 203.939H769.246V211.489H771.797V203.939H782.005L774.349 195.13H779.453L773.073 186.321H776.901L771.797 178.771H774.349L770.522 172.479L766.694 178.771H769.246ZM742.452 221.497L737.348 229.047H741.176L734.796 237.856H739.9L732.245 246.665H742.452V254.215H745.004V246.665H755.211L747.555 237.856H752.659L746.279 229.047H750.107L745.004 221.497H747.555L743.728 215.205L739.9 221.497H742.452ZM705.451 210.71L701.623 216.463H704.494L699.709 223.175H703.537L697.795 229.886H705.451V235.639H707.365V229.886H715.02L709.278 223.175H713.106L708.321 216.463H711.192L707.365 210.71H709.278L706.408 205.916L703.537 210.71H705.451ZM776.263 210.71L772.435 216.463H775.306L770.522 223.175H774.349L768.608 229.886H776.263V235.639H778.177V229.886H785.832L780.091 223.175H783.919L779.134 216.463H782.005L778.177 210.71H780.091L777.22 205.916L774.349 210.71H776.263Z" stroke="#C2C1C1" stroke-linecap="round" stroke-linejoin="round"/>
<path d="M620.353 405.188H616.438V411.022H614.48V405.188H606.648L612.522 398.382H608.606L613.501 391.576H610.564L614.48 385.742H612.522L615.459 380.881L618.396 385.742H616.438L620.353 391.576H617.417L622.066 397.387M620.598 400.975L618.396 398.382H622.066M653.18 371.312C653.18 368.979 653.913 365.092 655.38 365.092C656.846 365.092 658.313 368.202 658.313 371.312C660.513 371.312 660.513 376.754 660.513 379.086M653.18 371.312C650.247 371.312 650.247 377.532 650.247 379.086M653.18 371.312C653.18 373.385 653.766 377.532 656.113 377.532M651.713 391.526C651.713 394.636 652.446 396.191 656.113 396.191M651.713 391.526C647.313 391.526 648.047 378.31 650.247 379.086M651.713 391.526C651.469 389.971 651.42 386.861 653.18 386.861M656.113 396.191C659.78 396.191 660.513 393.858 660.513 391.526M656.113 396.191V402.41M660.513 391.526C661.98 391.526 661.98 387.639 661.98 386.084C663.446 386.084 664.18 379.086 660.513 379.086M660.513 391.526C660.513 391.008 659.926 389.971 657.58 389.971M660.513 379.086C660.757 380.641 660.513 383.751 657.58 383.751M650.247 379.086C650.002 380.123 649.806 382.196 650.98 382.196M664.459 406.716C664.459 404.563 665.119 400.975 666.439 400.975C667.759 400.975 669.079 403.846 669.079 406.716C671.059 406.716 671.059 411.74 671.059 413.893M664.459 406.716C661.819 406.716 661.819 412.458 661.819 413.893M664.459 406.716C664.459 408.63 664.987 412.458 667.099 412.458M663.139 425.375C663.139 428.246 663.799 429.681 667.099 429.681M663.139 425.375C659.179 425.375 659.839 413.176 661.819 413.893M663.139 425.375C662.919 423.94 662.875 421.069 664.459 421.069M667.099 429.681C670.399 429.681 671.059 427.528 671.059 425.375M667.099 429.681V435.423M671.059 425.375C672.378 425.375 672.378 421.788 672.378 420.352C673.698 420.352 674.358 413.893 671.059 413.893M671.059 425.375C671.059 424.897 670.53 423.94 668.419 423.94M671.059 413.893C671.279 415.328 671.058 418.199 668.419 418.199M661.819 413.893C661.599 414.85 661.423 416.764 662.479 416.764M635.091 411.022C635.091 408.869 635.751 405.281 637.071 405.281C638.391 405.281 639.711 408.152 639.711 411.022C641.691 411.022 641.691 416.046 641.691 418.199M635.091 411.022C632.451 411.022 632.451 416.764 632.451 418.199M635.091 411.022C635.091 412.936 635.619 416.764 637.731 416.764M633.771 429.681C633.771 432.552 634.431 433.987 637.731 433.987M633.771 429.681C629.811 429.681 630.471 417.482 632.451 418.199M633.771 429.681C633.551 428.246 633.507 425.375 635.091 425.375M637.731 433.987C641.031 433.987 641.691 431.834 641.691 429.681M637.731 433.987V439.729M641.691 429.681C643.011 429.681 643.011 426.093 643.011 424.658C644.331 424.658 644.991 418.199 641.691 418.199M641.691 429.681C641.691 429.203 641.163 428.246 639.051 428.246M641.691 418.199C641.911 419.634 641.691 422.505 639.051 422.505M632.451 418.199C632.231 419.156 632.055 421.069 633.111 421.069M621.205 420.591C621.205 419.156 621.645 416.764 622.525 416.764C623.405 416.764 624.285 418.677 624.285 420.591C625.605 420.591 625.605 423.94 625.605 425.375M621.205 420.591C619.445 420.591 619.445 424.419 619.445 425.375M621.205 420.591C621.205 421.867 621.557 424.419 622.965 424.419M620.325 433.03C620.325 434.944 620.765 435.901 622.965 435.901M620.325 433.03C617.685 433.03 618.125 424.898 619.445 425.375M620.325 433.03C620.178 432.074 620.149 430.16 621.205 430.16M622.965 435.901C625.165 435.901 625.605 434.466 625.605 433.03M622.965 435.901V439.729M625.605 433.03C626.485 433.03 626.485 430.639 626.485 429.682C627.365 429.682 627.805 425.375 625.605 425.375M625.605 433.03C625.605 432.711 625.253 432.074 623.845 432.074M625.605 425.375C625.752 426.332 625.605 428.246 623.845 428.246M619.445 425.375C619.298 426.013 619.181 427.289 619.885 427.289M631.154 364.135C631.154 361.803 631.887 357.916 633.354 357.916C634.821 357.916 636.287 361.025 636.287 364.135C638.487 364.135 638.487 369.577 638.487 371.91M631.154 364.135C628.221 364.135 628.221 370.355 628.221 371.91M631.154 364.135C631.154 366.208 631.741 370.355 634.087 370.355M629.688 384.349C629.688 387.459 630.421 389.014 634.087 389.014M629.688 384.349C625.288 384.349 626.021 371.133 628.221 371.91M629.688 384.349C629.443 382.794 629.394 379.685 631.154 379.685M634.087 389.014C637.754 389.014 638.487 386.682 638.487 384.349M634.087 389.014V395.234M638.487 384.349C639.954 384.349 639.954 380.462 639.954 378.907C641.42 378.907 642.154 371.91 638.487 371.91M638.487 384.349C638.487 383.831 637.9 382.794 635.554 382.794M638.487 371.91C638.732 373.465 638.487 376.575 635.554 376.575M628.221 371.91C627.976 372.946 627.781 375.02 628.954 375.02M644.092 385.904L641.155 390.21H643.358L639.687 395.234H642.624L638.219 400.257H644.092V404.563H645.561V400.257H651.434L647.029 395.234H649.966L646.295 390.21H648.497L645.561 385.904H647.029L644.826 382.316L642.624 385.904H644.092ZM672.481 372.824L668.565 378.658H671.502L666.607 385.464H670.523L664.65 392.271H672.481V398.104H674.439V392.271H682.27L676.397 385.464H680.312L675.418 378.658H678.355L674.439 372.824H676.397L673.46 367.963L670.523 372.824H672.481ZM651.924 405.837L648.008 411.67H650.945L646.05 418.477H649.966L644.092 425.283H651.924V431.117H653.881V425.283H661.713L655.839 418.477H659.755L654.86 411.67H657.797L653.881 405.837H655.839L652.903 400.975L649.966 405.837H651.924ZM623.535 397.502L620.598 401.947H622.801L619.13 407.133H622.066L617.661 412.319H623.535V416.764H625.003V412.319H630.877L626.472 407.133H629.408L625.737 401.947H627.94L625.003 397.502H626.472L624.269 393.798L622.066 397.502H623.535ZM677.865 397.502L674.928 401.947H677.131L673.46 407.133H676.397L671.992 412.319H677.865V416.764H679.333V412.319H685.207L680.802 407.133H683.739L680.068 401.947H682.27L679.333 397.502H680.802L678.599 393.798L676.397 397.502H677.865Z" stroke="#C2C1C1" stroke-linecap="round" stroke-linejoin="round"/>
<path d="M691.635 302.428H693.884M691.635 302.428V301.105H688.946H685.211V314.398C695.73 314.398 699.803 314.398 708.981 314.398V301.105L705.133 301.105L702.557 301.105V302.428H701.433M691.635 302.428V310.715M700.308 302.428V293.51L697.096 293.51L693.884 293.51V302.428M700.308 302.428H701.433M700.308 302.428H697.096V314.398M693.884 302.428V308.259M701.433 302.428V310.408" stroke="#C2C1C1" stroke-width="2" stroke-linecap="round" stroke-linejoin="round"/>
<path d="M651.381 251.459H653.134M651.381 251.459V250.467H649.284H646.371V260.436C654.574 260.436 657.75 260.436 664.907 260.436V250.467L661.906 250.467L659.898 250.467V251.459H659.021M651.381 251.459V257.674M658.144 251.459V244.77L655.639 244.77L653.134 244.77V251.459M658.144 251.459H659.021M658.144 251.459H655.639V260.436M653.134 251.459V255.832M659.021 251.459V257.444" stroke="#C2C1C1" stroke-width="2" stroke-linecap="round" stroke-linejoin="round"/>
<g filter="url(#filter3_f)">
<ellipse cx="644.537" cy="197.691" rx="8.61523" ry="2.46149" fill="black" fill-opacity="0.4"/>
</g>
<g filter="url(#filter4_d)">
<path d="M631.541 154.114C638.718 146.914 650.353 146.914 657.529 154.114V154.114C663.995 160.602 664.723 170.874 659.236 178.214L644.535 197.881L629.834 178.214C624.347 170.874 625.075 160.602 631.541 154.114V154.114Z" fill="white"/>
<path d="M643.736 198.482L644.535 199.55L645.334 198.482L660.035 178.815C665.82 171.076 665.053 160.246 658.235 153.406C650.669 145.814 638.402 145.814 630.835 153.406C624.018 160.246 623.251 171.076 629.036 178.815L643.736 198.482Z" stroke="#BCBCBC" stroke-width="2"/>
</g>
<ellipse cx="644.537" cy="166.923" rx="8.61523" ry="8.61523" fill="#BCBCBC"/>
<g>
<path d="M786.979 416.266C794.155 409.066 805.79 409.066 812.966 416.266V416.266C819.433 422.754 820.16 433.026 814.673 440.366L799.973 460.033L785.272 440.366C779.785 433.026 780.512 422.754 786.979 416.266V416.266Z" fill="white"/>
</g>
<path d="M799.174 460.634L799.973 461.702L800.771 460.634L815.472 440.967C821.257 433.228 820.49 422.398 813.672 415.558C806.106 407.967 793.839 407.967 786.273 415.558C779.455 422.398 778.688 433.228 784.473 440.967L799.174 460.634Z" stroke="#BCBCBC" stroke-width="2"/>
</g>
<defs>
<filter id="filter0_d" x="-39.1133" y="-20.9695" width="48.7739" height="61.7844" filterUnits="userSpaceOnUse" color-interpolation-filters="sRGB">
<feFlood flood-opacity="0" result="BackgroundImageFix"/>
<feColorMatrix in="SourceAlpha" type="matrix" values="0 0 0 0 0 0 0 0 0 0 0 0 0 0 0 0 0 0 127 0"/>
<feOffset dy="-1"/>
<feGaussianBlur stdDeviation="2"/>
<feColorMatrix type="matrix" values="0 0 0 0 0 0 0 0 0 0 0 0 0 0 0 0 0 0 0.3 0"/>
<feBlend mode="normal" in2="BackgroundImageFix" result="effect1_dropShadow"/>
<feBlend mode="normal" in="SourceGraphic" in2="effect1_dropShadow" result="shape"/>
</filter>
<filter id="filter1_f" x="80.4141" y="190.417" width="25.2305" height="12.923" filterUnits="userSpaceOnUse" color-interpolation-filters="sRGB">
<feFlood flood-opacity="0" result="BackgroundImageFix"/>
<feBlend mode="normal" in="SourceGraphic" in2="BackgroundImageFix" result="shape"/>
<feGaussianBlur stdDeviation="2" result="effect1_foregroundBlur"/>
</filter>
<filter id="filter2_d" x="68.6562" y="140.898" width="48.7458" height="62.5089" filterUnits="userSpaceOnUse" color-interpolation-filters="sRGB">
<feFlood flood-opacity="0" result="BackgroundImageFix"/>
<feColorMatrix in="SourceAlpha" type="matrix" values="0 0 0 0 0 0 0 0 0 0 0 0 0 0 0 0 0 0 127 0"/>
<feOffset dy="-1"/>
<feGaussianBlur stdDeviation="2"/>
<feColorMatrix type="matrix" values="0 0 0 0 0 0 0 0 0 0 0 0 0 0 0 0 0 0 0.3 0"/>
<feBlend mode="normal" in2="BackgroundImageFix" result="effect1_dropShadow"/>
<feBlend mode="normal" in="SourceGraphic" in2="effect1_dropShadow" result="shape"/>
</filter>
<filter id="filter3_f" x="631.922" y="191.23" width="25.2305" height="12.923" filterUnits="userSpaceOnUse" color-interpolation-filters="sRGB">
<feFlood flood-opacity="0" result="BackgroundImageFix"/>
<feBlend mode="normal" in="SourceGraphic" in2="BackgroundImageFix" result="shape"/>
<feGaussianBlur stdDeviation="2" result="effect1_foregroundBlur"/>
</filter>
<filter id="filter4_d" x="620.164" y="141.711" width="48.7458" height="62.5089" filterUnits="userSpaceOnUse" color-interpolation-filters="sRGB">
<feFlood flood-opacity="0" result="BackgroundImageFix"/>
<feColorMatrix in="SourceAlpha" type="matrix" values="0 0 0 0 0 0 0 0 0 0 0 0 0 0 0 0 0 0 127 0"/>
<feOffset dy="-1"/>
<feGaussianBlur stdDeviation="2"/>
<feColorMatrix type="matrix" values="0 0 0 0 0 0 0 0 0 0 0 0 0 0 0 0 0 0 0.3 0"/>
<feBlend mode="normal" in2="BackgroundImageFix" result="effect1_dropShadow"/>
<feBlend mode="normal" in="SourceGraphic" in2="effect1_dropShadow" result="shape"/>
</filter>
<clipPath id="clip0">
<rect x="-794" width="1920" height="688" fill="white"/>
</clipPath>
</defs>
</svg>
