<svg width="1920" height="1547" viewBox="0 0 1920 1547" fill="none" xmlns="http://www.w3.org/2000/svg">
<path d="M197 1137.41C148.2 1432.21 -6.83333 1526.41 -59 1546.41V-105.591C377.333 -113.257 1255.2 -130.291 1276 -137.091C1296.8 -143.891 1759 -174.591 1987.5 -189.091C1980.67 114.242 2016.62 984.972 1918 512.909C1822 53.4092 1284.5 -62.091 1173.5 97.909C1062.5 257.909 901.5 554.409 628.5 545.909C355.5 537.409 292.5 312.409 158.5 429.409C-11.6871 578.005 258 768.909 197 1137.41Z" fill="#EEF1FF"/>
<path d="M1335 496.409C1150.5 430.409 1218.5 374.409 1356 278.909C1491.5 183.409 1558 212.409 1615.5 299.909C1673 387.409 1519.5 562.409 1335 496.409Z" fill="#EEF1FF"/>
<path d="M1276 158.909C1243 228.409 1405 214.409 1380.5 127.409C1356 40.4092 1311 91.4092 1276 158.909Z" fill="#EEF1FF"/>
</svg>
