<svg width="360" height="442" viewBox="0 0 360 442" fill="none" xmlns="http://www.w3.org/2000/svg">
<path d="M128.809 123.67C124.518 117.025 118.003 107.561 110.223 97.1911M57.4491 40.3952C67.4743 47.7473 78.2386 58.5433 88.4445 70.1992M88.2585 42.543C88.9769 46.8672 90.0198 58.4524 88.4445 70.1992M88.4445 70.1992C96.219 79.0783 103.67 88.4563 110.223 97.1911M88.4445 70.1992C84.2356 71.56 74.0789 74.3777 67.1228 74.7622M118.039 73.3432C117.421 79.3643 114.993 92.5634 110.223 97.1911M110.223 97.1911C105.879 99.8996 95.5045 105.402 88.757 105.742M127 101.514C130.519 95.1172 132.758 81.5788 127.262 67.3704C120.392 49.6098 112.982 66.9299 105.34 62.7686C97.697 58.6074 103.27 36.5276 91.7663 26.7518C80.2623 16.9759 79.4888 38.8566 70.7565 35.0206C62.0241 31.1846 47.9075 6.96967 37.2195 21.4028C26.5316 35.8359 60.1893 57.9851 56.5354 62.2636C52.8815 66.542 43.5107 69.2836 50.1552 81.8476C56.7998 94.4117 77.0403 83.8231 78.6913 93.1312C80.3423 102.439 62.9538 121.569 94.1577 120.78C110.404 120.369 120.556 112.83 127 101.514Z" stroke="#B0BEFF" stroke-width="2" stroke-linecap="round" stroke-linejoin="round"/>
<path d="M148.885 101.927C150.59 100.237 152.762 97.0414 154.562 92.3964M156.511 57.1123C159.544 72.7668 157.577 84.6153 154.562 92.3964M154.562 92.3964C159.19 93.2972 166.522 92.9608 170.11 78.2749C173.699 63.589 158.666 45.3672 149.291 38.8588C150.188 44.5434 150.356 57.8681 143.857 65.6896C135.732 75.4664 145.181 90.5853 154.562 92.3964Z" stroke="#68C0E4" stroke-width="2" stroke-linecap="round" stroke-linejoin="round"/>
<path d="M115.156 423.131C-355.293 500.007 -142.023 325.086 5.38477 183.589C148.327 39.8641 409.965 10.8963 356.648 115.626C303.33 220.356 331.557 183.589 585.6 209.215C839.643 234.84 585.606 346.255 115.156 423.131Z" fill="#EEF1FF"/>
</svg>
