<svg width="859" height="442" viewBox="0 0 859 442" fill="none" xmlns="http://www.w3.org/2000/svg">
<path d="M301.809 123.761C297.518 117.115 291.003 107.652 283.223 97.2819M230.449 40.486C240.474 47.8381 251.239 58.6342 261.444 70.29M261.259 42.6338C261.977 46.958 263.02 58.5432 261.444 70.29M261.444 70.29C269.219 79.1691 276.67 88.5471 283.223 97.2819M261.444 70.29C257.236 71.6508 247.079 74.4686 240.123 74.8531M291.039 73.434C290.421 79.4551 287.993 92.6542 283.223 97.2819M283.223 97.2819C278.879 99.9905 268.504 105.493 261.757 105.832M300 101.605C303.519 95.208 305.758 81.6696 300.262 67.4612C293.392 49.7006 285.982 67.0207 278.34 62.8595C270.697 58.6982 276.27 36.6184 264.766 26.8426C253.262 17.0667 252.489 38.9475 243.756 35.1114C235.024 31.2754 220.907 7.06049 210.22 21.4936C199.532 35.9267 233.189 58.0759 229.535 62.3544C225.881 66.6329 216.511 69.3744 223.155 81.9385C229.8 94.5025 250.04 83.914 251.691 93.222C253.342 102.53 235.954 121.66 267.158 120.871C283.404 120.46 293.556 112.921 300 101.605Z" stroke="#B0BEFF" stroke-width="2" stroke-linecap="round" stroke-linejoin="round"/>
<path d="M321.885 102.018C323.59 100.328 325.762 97.1322 327.562 92.4872M329.511 57.2031C332.544 72.8576 330.577 84.7062 327.562 92.4872M327.562 92.4872C332.19 93.3881 339.522 93.0516 343.11 78.3657C346.699 63.6798 331.666 45.458 322.291 38.9496C323.188 44.6343 323.356 57.959 316.857 65.7804C308.732 75.5572 318.181 90.6761 327.562 92.4872Z" stroke="#68C0E4" stroke-width="2" stroke-linecap="round" stroke-linejoin="round"/>
<path d="M288.156 423.222C-182.293 500.098 30.9772 325.177 178.385 183.68C321.327 39.9549 582.965 10.9871 529.648 115.717C476.33 220.447 504.557 183.68 758.6 209.305C1012.64 234.931 758.606 346.346 288.156 423.222Z" fill="#EEF1FF"/>
</svg>
