<svg width="50" height="70" viewBox="0 0 50 70" fill="none" xmlns="http://www.w3.org/2000/svg">
<circle cx="25" cy="25" r="25" fill="#9C9C9C"/>
<path d="M25.0033 62.7196L37.1042 69.971V49.4734C33.4764 51.3402 29.3618 52.3939 25.001 52.3939C20.6421 52.3939 16.529 51.341 12.9023 49.4757V69.971L25.0033 62.7196Z" fill="#9C9C9C"/>
<path d="M23.1075 13.5526C23.7191 11.7372 26.2867 11.7372 26.8983 13.5526L28.8344 19.3003C29.1084 20.1139 29.8712 20.6619 30.7297 20.6619L36.8374 20.6619C38.7922 20.6619 39.5861 23.1778 37.9852 24.2997L33.1695 27.6746C32.4431 28.1837 32.1388 29.1103 32.422 29.9509L34.2904 35.4978C34.9069 37.3278 32.8286 38.8823 31.2472 37.7741L26.1507 34.2024C25.4617 33.7195 24.5441 33.7195 23.8551 34.2024L18.7586 37.7741C17.1772 38.8823 15.0989 37.3278 15.7154 35.4978L17.5838 29.9509C17.867 29.1103 17.5627 28.1837 16.8363 27.6746L12.0206 24.2997C10.4197 23.1778 11.2136 20.6619 13.1684 20.6619L19.2761 20.6619C20.1346 20.6619 20.8974 20.1139 21.1714 19.3003L23.1075 13.5526Z" fill="white"/>
</svg>
