<svg width="1920" height="452" viewBox="0 0 1920 452" fill="none" xmlns="http://www.w3.org/2000/svg">
<path d="M154.21 210.684L176.844 234.695H184.389V222.689M154.21 210.684V199.444M154.21 210.684H138.618M184.389 210.684V170.835H154.21V199.444M184.389 210.684H229.656M184.389 210.684V222.689M229.656 210.684V196.89H248.769V210.684H261.344V221.923H271.906V234.695H282.972V246.445H299.57M229.656 210.684H239.213L276.181 251.554M299.57 246.445L322.204 205.064M299.57 246.445L294.54 257.684H299.57M299.57 246.445H312.144M322.204 205.064L342.825 246.445M322.204 205.064L312.144 246.445M322.204 205.064L331.257 246.445M342.825 246.445H351.376M342.825 246.445L351.376 257.684H342.825M342.825 246.445H331.257M351.376 246.445V221.923L349.888 219.369M351.376 246.445V260.75M351.376 182.075H336.79V196.89L349.888 219.369M351.376 182.075V139.161M351.376 182.075H409.218M351.376 90.1167H345.34L354.897 79.3883M351.376 90.1167H409.218M351.376 90.1167V114.128M354.897 79.3883L380.548 1.73499M354.897 79.3883H370.489M380.548 1.73499L405.697 79.3883M380.548 1.73499L392.62 79.3883M380.548 1.73499L370.489 79.3883M405.697 79.3883L415.757 90.1167H409.218M405.697 79.3883H392.62M409.218 90.1167V114.128M409.218 182.075V139.161M409.218 182.075H414.751M422.798 196.89V182.075H414.751M422.798 196.89L433.864 216.814M422.798 196.89L414.751 182.075M433.864 216.814H428.331V228.053H422.798V216.814H417.768V228.053H412.739V216.814H407.206V228.053H401.17V216.814H395.135C395.302 220.561 395.537 228.053 395.135 228.053C394.732 228.053 391.614 228.053 390.105 228.053V219.369M433.864 216.814V228.053H439.648V216.814M433.864 216.814H439.648M433.864 268.924H448.45M433.864 268.924V452.328M433.864 268.924V259.217M448.45 268.924L460.018 231.119L475.107 268.924M448.45 268.924H475.107M475.107 268.924H485.67V434.448M123.026 210.684H109.446V196.89H94.3566V210.684H79.2674V219.879M123.026 210.684V223.966H133.588V236.227H143.648M123.026 210.684V179.52H138.618V210.684M123.026 210.684H138.618M170.306 236.227H143.648M143.648 236.227V246.445H157.228V259.728H166.282M166.282 259.728V251.554H204.005M166.282 259.728V266.369M291.019 266.369V251.554H276.181M291.019 266.369L299.57 277.098M291.019 266.369H166.282M299.57 277.098H266.373L258.326 271.478H243.237M299.57 277.098V387.958M299.57 277.098V267.391M299.57 452.328H166.282M299.57 452.328H342.825M299.57 452.328V394.088M166.282 452.328H157.228M166.282 452.328V266.369M79.2674 219.879H92.3447L146.174 277.098M79.2674 219.879L65.3042 219.369L1 288.848H13.1259M157.228 288.848V452.328M157.228 288.848L146.174 277.098M157.228 288.848H79.2674H13.1259M157.228 452.328H79.2674H13.1259V434.448M146.174 277.098H211.046L204.005 271.478H223.621M184.389 222.689H176.844L154.21 199.444M194.951 236.227H213.058M204.005 251.554V246.445H219.597L234.686 231.119L250.781 246.445H261.344V251.554M204.005 251.554H223.621M261.344 251.554H243.237M261.344 251.554H276.181M243.237 251.554L234.686 240.825L223.621 251.554M243.237 251.554H223.621M485.67 434.448V452.328H433.864M485.67 434.448H243.237M223.621 271.478V434.448M223.621 271.478H243.237M223.621 434.448H79.2674H52.8108M223.621 434.448H243.237M243.237 434.448V271.478M299.57 257.684H342.825M299.57 257.684V267.391M342.825 257.684V267.391M342.825 452.328H392.62M342.825 452.328V349.131M312.144 246.445H331.257M392.62 79.3883H370.489M351.376 139.161H409.218M351.376 139.161V122.813M409.218 139.161V122.813M409.218 122.813H351.376M409.218 122.813V114.128M351.376 122.813V114.128M351.376 114.128H409.218M414.751 182.075L405.959 196.89M390.105 219.369H392.62L397.65 210.893M390.105 219.369V216.814M390.105 216.814H382.56M390.105 216.814V196.89H382.56V216.814M382.56 216.814V219.369M392.62 452.328H433.864M392.62 452.328L391.898 394.088M433.864 259.217V249.51L445.432 240.314V216.814H439.648M433.864 259.217L351.376 260.75M351.376 260.75V298.554M351.376 298.554H342.825M351.376 298.554V306.728H357.412V298.554H362.441V306.728H369.986V298.554H376.525V306.728H382.56V298.554H390.713M342.825 298.554V349.131M342.825 298.554V267.391M349.888 219.369H357.412V196.89H362.441V219.369H369.986V196.89H376.525V219.369H382.56M382.56 219.369V240.314L390.105 249.51L390.713 298.554M397.65 210.893V196.89H405.959M397.65 210.893L405.959 196.89M299.57 387.958H391.822M299.57 387.958V394.088M391.822 387.958L391.898 394.088M391.822 387.958L391.34 349.131M391.898 394.088H299.57M342.825 349.131H349.888M391.34 349.131H382.56M391.34 349.131L390.713 298.554M349.888 349.131V320.011L367.471 306.728L382.56 320.011V349.131M349.888 349.131H382.56M299.57 267.391H303.594V274.032H308.12V267.391H313.15V274.032H318.18V267.391H322.706V274.032H327.736V267.391H332.766V274.032H338.299V267.391H342.825M13.1259 288.848V434.448M13.1259 434.448H44.3594M52.8108 434.448V293.446H44.3594V434.448M52.8108 434.448H44.3594M123.026 293.446C121.417 295.08 122.355 388.128 123.026 434.448H128.559V293.446H123.026ZM308.12 302.641H333.772V362.414H308.12V302.641ZM31.866 277.098L69.7136 234.695H84.4117L123.414 277.098H31.866Z" stroke="#E1DFDF" stroke-width="2" stroke-linecap="round" stroke-linejoin="round"/>
<rect x="178.355" y="306.217" width="18.107" height="29.6309" stroke="#E1DFDF" stroke-width="2" stroke-linecap="round" stroke-linejoin="round"/>
<rect x="246.754" y="306.217" width="18.107" height="29.6309" stroke="#E1DFDF" stroke-width="2" stroke-linecap="round" stroke-linejoin="round"/>
<rect x="438.895" y="306.217" width="18.107" height="29.6309" stroke="#E1DFDF" stroke-width="2" stroke-linecap="round" stroke-linejoin="round"/>
<rect x="103.91" y="306.217" width="18.107" height="29.6309" stroke="#E1DFDF" stroke-width="2" stroke-linecap="round" stroke-linejoin="round"/>
<rect x="26.3555" y="305.986" width="18.107" height="29.6309" stroke="#E1DFDF" stroke-width="2" stroke-linecap="round" stroke-linejoin="round"/>
<rect x="178.355" y="348.109" width="18.107" height="29.6309" stroke="#E1DFDF" stroke-width="2" stroke-linecap="round" stroke-linejoin="round"/>
<rect x="246.754" y="348.109" width="18.107" height="29.6309" stroke="#E1DFDF" stroke-width="2" stroke-linecap="round" stroke-linejoin="round"/>
<rect x="438.895" y="348.109" width="18.107" height="29.6309" stroke="#E1DFDF" stroke-width="2" stroke-linecap="round" stroke-linejoin="round"/>
<rect x="103.91" y="348.109" width="18.107" height="29.6309" stroke="#E1DFDF" stroke-width="2" stroke-linecap="round" stroke-linejoin="round"/>
<rect x="26.3555" y="347.878" width="18.107" height="29.6309" stroke="#E1DFDF" stroke-width="2" stroke-linecap="round" stroke-linejoin="round"/>
<rect x="178.355" y="390.002" width="18.107" height="29.6309" stroke="#E1DFDF" stroke-width="2" stroke-linecap="round" stroke-linejoin="round"/>
<rect x="246.754" y="390.002" width="18.107" height="29.6309" stroke="#E1DFDF" stroke-width="2" stroke-linecap="round" stroke-linejoin="round"/>
<rect x="438.895" y="390.002" width="18.107" height="29.6309" stroke="#E1DFDF" stroke-width="2" stroke-linecap="round" stroke-linejoin="round"/>
<rect x="103.91" y="390.002" width="18.107" height="29.6309" stroke="#E1DFDF" stroke-width="2" stroke-linecap="round" stroke-linejoin="round"/>
<rect x="26.3555" y="389.771" width="18.107" height="29.6309" stroke="#E1DFDF" stroke-width="2" stroke-linecap="round" stroke-linejoin="round"/>
<rect x="201.488" y="306.217" width="18.107" height="29.6309" stroke="#E1DFDF" stroke-width="2" stroke-linecap="round" stroke-linejoin="round"/>
<rect x="269.895" y="306.217" width="18.107" height="29.6309" stroke="#E1DFDF" stroke-width="2" stroke-linecap="round" stroke-linejoin="round"/>
<rect x="462.027" y="306.217" width="18.107" height="29.6309" stroke="#E1DFDF" stroke-width="2" stroke-linecap="round" stroke-linejoin="round"/>
<rect x="129.059" y="306.217" width="18.107" height="29.6309" stroke="#E1DFDF" stroke-width="2" stroke-linecap="round" stroke-linejoin="round"/>
<rect x="52.9766" y="305.986" width="18.107" height="29.6309" stroke="#E1DFDF" stroke-width="2" stroke-linecap="round" stroke-linejoin="round"/>
<rect x="398.652" y="273.522" width="9.05352" height="26.5656" stroke="#E1DFDF" stroke-width="2" stroke-linecap="round" stroke-linejoin="round"/>
<rect x="398.652" y="312.349" width="9.05352" height="26.5656" stroke="#E1DFDF" stroke-width="2" stroke-linecap="round" stroke-linejoin="round"/>
<rect x="398.652" y="353.217" width="9.05352" height="26.5656" stroke="#E1DFDF" stroke-width="2" stroke-linecap="round" stroke-linejoin="round"/>
<rect x="366.465" y="147.846" width="9.05352" height="26.5656" stroke="#E1DFDF" stroke-width="2" stroke-linecap="round" stroke-linejoin="round"/>
<rect x="418.773" y="273.522" width="9.05352" height="26.5656" stroke="#E1DFDF" stroke-width="2" stroke-linecap="round" stroke-linejoin="round"/>
<rect x="418.773" y="312.349" width="9.05352" height="26.5656" stroke="#E1DFDF" stroke-width="2" stroke-linecap="round" stroke-linejoin="round"/>
<rect x="418.773" y="353.217" width="9.05352" height="26.5656" stroke="#E1DFDF" stroke-width="2" stroke-linecap="round" stroke-linejoin="round"/>
<rect x="386.582" y="147.846" width="9.05352" height="26.5656" stroke="#E1DFDF" stroke-width="2" stroke-linecap="round" stroke-linejoin="round"/>
<rect x="201.488" y="348.109" width="18.107" height="29.6309" stroke="#E1DFDF" stroke-width="2" stroke-linecap="round" stroke-linejoin="round"/>
<rect x="269.895" y="348.109" width="18.107" height="29.6309" stroke="#E1DFDF" stroke-width="2" stroke-linecap="round" stroke-linejoin="round"/>
<rect x="462.027" y="348.109" width="18.107" height="29.6309" stroke="#E1DFDF" stroke-width="2" stroke-linecap="round" stroke-linejoin="round"/>
<rect x="129.059" y="348.109" width="18.107" height="29.6309" stroke="#E1DFDF" stroke-width="2" stroke-linecap="round" stroke-linejoin="round"/>
<rect x="52.9766" y="347.878" width="18.107" height="29.6309" stroke="#E1DFDF" stroke-width="2" stroke-linecap="round" stroke-linejoin="round"/>
<rect x="201.488" y="390.002" width="18.107" height="29.6309" stroke="#E1DFDF" stroke-width="2" stroke-linecap="round" stroke-linejoin="round"/>
<rect x="269.895" y="390.002" width="18.107" height="29.6309" stroke="#E1DFDF" stroke-width="2" stroke-linecap="round" stroke-linejoin="round"/>
<rect x="462.027" y="390.002" width="18.107" height="29.6309" stroke="#E1DFDF" stroke-width="2" stroke-linecap="round" stroke-linejoin="round"/>
<rect x="129.059" y="390.002" width="18.107" height="29.6309" stroke="#E1DFDF" stroke-width="2" stroke-linecap="round" stroke-linejoin="round"/>
<rect x="52.9766" y="389.771" width="18.107" height="29.6309" stroke="#E1DFDF" stroke-width="2" stroke-linecap="round" stroke-linejoin="round"/>
<path d="M1124.01 209.949L1146.64 233.96H1154.19V221.954M1124.01 209.949V198.709M1124.01 209.949H1108.42M1154.19 209.949V170.1H1124.01V198.709M1154.19 209.949H1199.46M1154.19 209.949V221.954M1199.46 209.949V196.155H1218.57V209.949H1231.14V221.188H1241.71V233.96H1252.77V245.71H1269.37M1199.46 209.949H1209.01L1245.98 250.819M1269.37 245.71L1292 204.329M1269.37 245.71L1264.34 256.949H1269.37M1269.37 245.71H1281.94M1292 204.329L1312.63 245.71M1292 204.329L1281.94 245.71M1292 204.329L1301.06 245.71M1312.63 245.71H1321.18M1312.63 245.71L1321.18 256.949H1312.63M1312.63 245.71H1301.06M1321.18 245.71V221.188L1319.69 218.634M1321.18 245.71V260.015M1321.18 181.34H1306.59V196.155L1319.69 218.634M1321.18 181.34V138.426M1321.18 181.34H1379.02M1321.18 89.3817H1315.14L1324.7 78.6533M1321.18 89.3817H1379.02M1321.18 89.3817V113.393M1324.7 78.6533L1350.35 1M1324.7 78.6533H1340.29M1350.35 1L1375.5 78.6533M1350.35 1L1362.42 78.6533M1350.35 1L1340.29 78.6533M1375.5 78.6533L1385.56 89.3817H1379.02M1375.5 78.6533H1362.42M1379.02 89.3817V113.393M1379.02 181.34V138.426M1379.02 181.34H1384.55M1392.6 196.155V181.34H1384.55M1392.6 196.155L1403.66 216.079M1392.6 196.155L1384.55 181.34M1403.66 216.079H1398.13V227.318H1392.6V216.079H1387.57V227.318H1382.54V216.079H1377.01V227.318H1370.97V216.079H1364.94C1365.1 219.826 1365.34 227.318 1364.94 227.318C1364.53 227.318 1361.41 227.318 1359.91 227.318V218.634M1403.66 216.079V227.318H1409.45V216.079M1403.66 216.079H1409.45M1403.66 268.189H1418.25M1403.66 268.189V451.593M1403.66 268.189V258.482M1418.25 268.189L1429.82 230.384L1444.91 268.189M1418.25 268.189H1444.91M1444.91 268.189H1455.47V433.713M1092.83 209.949H1079.25V196.155H1064.16V209.949H1049.07V219.144M1092.83 209.949V223.231H1103.39V235.492H1113.45M1092.83 209.949V178.785H1108.42V209.949M1092.83 209.949H1108.42M1140.11 235.492H1113.45M1113.45 235.492V245.71H1127.03V258.993H1136.08M1136.08 258.993V250.819H1173.81M1136.08 258.993V265.634M1260.82 265.634V250.819H1245.98M1260.82 265.634L1269.37 276.363M1260.82 265.634H1136.08M1269.37 276.363H1236.17L1228.13 270.743H1213.04M1269.37 276.363V387.223M1269.37 276.363V266.656M1269.37 451.593H1136.08M1269.37 451.593H1312.63M1269.37 451.593V393.353M1136.08 451.593H1127.03M1136.08 451.593V265.634M1049.07 219.144H1062.15L1115.97 276.363M1049.07 219.144L1035.1 218.634L970.801 288.113H982.927M1127.03 288.113V451.593M1127.03 288.113L1115.97 276.363M1127.03 288.113H1049.07H982.927M1127.03 451.593H1049.07H982.927V433.713M1115.97 276.363H1180.85L1173.81 270.743H1193.42M1154.19 221.954H1146.64L1124.01 198.709M1164.75 235.492H1182.86M1173.81 250.819V245.71H1189.4L1204.49 230.384L1220.58 245.71H1231.14V250.819M1173.81 250.819H1193.42M1231.14 250.819H1213.04M1231.14 250.819H1245.98M1213.04 250.819L1204.49 240.09L1193.42 250.819M1213.04 250.819H1193.42M1455.47 433.713V451.593H1403.66M1455.47 433.713H1213.04M1193.42 270.743V433.713M1193.42 270.743H1213.04M1193.42 433.713H1049.07H1022.61M1193.42 433.713H1213.04M1213.04 433.713V270.743M1269.37 256.949H1312.63M1269.37 256.949V266.656M1312.63 256.949V266.656M1312.63 451.593H1362.42M1312.63 451.593V348.396M1281.94 245.71H1301.06M1362.42 78.6533H1340.29M1321.18 138.426H1379.02M1321.18 138.426V122.078M1379.02 138.426V122.078M1379.02 122.078H1321.18M1379.02 122.078V113.393M1321.18 122.078V113.393M1321.18 113.393H1379.02M1384.55 181.34L1375.76 196.155M1359.91 218.634H1362.42L1367.45 210.158M1359.91 218.634V216.079M1359.91 216.079H1352.36M1359.91 216.079V196.155H1352.36V216.079M1352.36 216.079V218.634M1362.42 451.593H1403.66M1362.42 451.593L1361.7 393.353M1403.66 258.482V248.775L1415.23 239.579V216.079H1409.45M1403.66 258.482L1321.18 260.015M1321.18 260.015V297.819M1321.18 297.819H1312.63M1321.18 297.819V305.993H1327.21V297.819H1332.24V305.993H1339.79V297.819H1346.33V305.993H1352.36V297.819H1360.51M1312.63 297.819V348.396M1312.63 297.819V266.656M1319.69 218.634H1327.21V196.155H1332.24V218.634H1339.79V196.155H1346.33V218.634H1352.36M1352.36 218.634V239.579L1359.91 248.775L1360.51 297.819M1367.45 210.158V196.155H1375.76M1367.45 210.158L1375.76 196.155M1269.37 387.223H1361.62M1269.37 387.223V393.353M1361.62 387.223L1361.7 393.353M1361.62 387.223L1361.14 348.396M1361.7 393.353H1269.37M1312.63 348.396H1319.69M1361.14 348.396H1352.36M1361.14 348.396L1360.51 297.819M1319.69 348.396V319.276L1337.27 305.993L1352.36 319.276V348.396M1319.69 348.396H1352.36M1269.37 266.656H1273.39V273.297H1277.92V266.656H1282.95V273.297H1287.98V266.656H1292.51V273.297H1297.54V266.656H1302.57V273.297H1308.1V266.656H1312.63M982.927 288.113V433.713M982.927 433.713H1014.16M1022.61 433.713V292.711H1014.16V433.713M1022.61 433.713H1014.16M1092.83 292.711C1091.22 294.345 1092.16 387.393 1092.83 433.713H1098.36V292.711H1092.83ZM1277.92 301.906H1303.57V361.679H1277.92V301.906ZM1001.67 276.363L1039.51 233.96H1054.21L1093.22 276.363H1001.67Z" stroke="#E1DFDF" stroke-width="2" stroke-linecap="round" stroke-linejoin="round"/>
<rect x="1148.16" y="305.481" width="18.107" height="29.6309" stroke="#E1DFDF" stroke-width="2" stroke-linecap="round" stroke-linejoin="round"/>
<rect x="1216.55" y="305.481" width="18.107" height="29.6309" stroke="#E1DFDF" stroke-width="2" stroke-linecap="round" stroke-linejoin="round"/>
<rect x="1408.7" y="305.481" width="18.107" height="29.6309" stroke="#E1DFDF" stroke-width="2" stroke-linecap="round" stroke-linejoin="round"/>
<rect x="1073.71" y="305.481" width="18.107" height="29.6309" stroke="#E1DFDF" stroke-width="2" stroke-linecap="round" stroke-linejoin="round"/>
<rect x="996.156" y="305.25" width="18.107" height="29.6309" stroke="#E1DFDF" stroke-width="2" stroke-linecap="round" stroke-linejoin="round"/>
<rect x="1148.16" y="347.374" width="18.107" height="29.6309" stroke="#E1DFDF" stroke-width="2" stroke-linecap="round" stroke-linejoin="round"/>
<rect x="1216.55" y="347.374" width="18.107" height="29.6309" stroke="#E1DFDF" stroke-width="2" stroke-linecap="round" stroke-linejoin="round"/>
<rect x="1408.7" y="347.374" width="18.107" height="29.6309" stroke="#E1DFDF" stroke-width="2" stroke-linecap="round" stroke-linejoin="round"/>
<rect x="1073.71" y="347.374" width="18.107" height="29.6309" stroke="#E1DFDF" stroke-width="2" stroke-linecap="round" stroke-linejoin="round"/>
<rect x="996.156" y="347.143" width="18.107" height="29.6309" stroke="#E1DFDF" stroke-width="2" stroke-linecap="round" stroke-linejoin="round"/>
<rect x="1148.16" y="389.267" width="18.107" height="29.6309" stroke="#E1DFDF" stroke-width="2" stroke-linecap="round" stroke-linejoin="round"/>
<rect x="1216.55" y="389.267" width="18.107" height="29.6309" stroke="#E1DFDF" stroke-width="2" stroke-linecap="round" stroke-linejoin="round"/>
<rect x="1408.7" y="389.267" width="18.107" height="29.6309" stroke="#E1DFDF" stroke-width="2" stroke-linecap="round" stroke-linejoin="round"/>
<rect x="1073.71" y="389.267" width="18.107" height="29.6309" stroke="#E1DFDF" stroke-width="2" stroke-linecap="round" stroke-linejoin="round"/>
<rect x="996.156" y="389.036" width="18.107" height="29.6309" stroke="#E1DFDF" stroke-width="2" stroke-linecap="round" stroke-linejoin="round"/>
<rect x="1171.29" y="305.481" width="18.107" height="29.6309" stroke="#E1DFDF" stroke-width="2" stroke-linecap="round" stroke-linejoin="round"/>
<rect x="1239.69" y="305.481" width="18.107" height="29.6309" stroke="#E1DFDF" stroke-width="2" stroke-linecap="round" stroke-linejoin="round"/>
<rect x="1431.83" y="305.481" width="18.107" height="29.6309" stroke="#E1DFDF" stroke-width="2" stroke-linecap="round" stroke-linejoin="round"/>
<rect x="1098.86" y="305.481" width="18.107" height="29.6309" stroke="#E1DFDF" stroke-width="2" stroke-linecap="round" stroke-linejoin="round"/>
<rect x="1022.78" y="305.25" width="18.107" height="29.6309" stroke="#E1DFDF" stroke-width="2" stroke-linecap="round" stroke-linejoin="round"/>
<rect x="1368.45" y="272.787" width="9.05352" height="26.5656" stroke="#E1DFDF" stroke-width="2" stroke-linecap="round" stroke-linejoin="round"/>
<rect x="1368.45" y="311.614" width="9.05352" height="26.5656" stroke="#E1DFDF" stroke-width="2" stroke-linecap="round" stroke-linejoin="round"/>
<rect x="1368.45" y="352.482" width="9.05352" height="26.5656" stroke="#E1DFDF" stroke-width="2" stroke-linecap="round" stroke-linejoin="round"/>
<rect x="1336.27" y="147.111" width="9.05352" height="26.5656" stroke="#E1DFDF" stroke-width="2" stroke-linecap="round" stroke-linejoin="round"/>
<rect x="1388.57" y="272.787" width="9.05352" height="26.5656" stroke="#E1DFDF" stroke-width="2" stroke-linecap="round" stroke-linejoin="round"/>
<rect x="1388.57" y="311.614" width="9.05352" height="26.5656" stroke="#E1DFDF" stroke-width="2" stroke-linecap="round" stroke-linejoin="round"/>
<rect x="1388.57" y="352.482" width="9.05352" height="26.5656" stroke="#E1DFDF" stroke-width="2" stroke-linecap="round" stroke-linejoin="round"/>
<rect x="1356.38" y="147.111" width="9.05352" height="26.5656" stroke="#E1DFDF" stroke-width="2" stroke-linecap="round" stroke-linejoin="round"/>
<rect x="1171.29" y="347.374" width="18.107" height="29.6309" stroke="#E1DFDF" stroke-width="2" stroke-linecap="round" stroke-linejoin="round"/>
<rect x="1239.69" y="347.374" width="18.107" height="29.6309" stroke="#E1DFDF" stroke-width="2" stroke-linecap="round" stroke-linejoin="round"/>
<rect x="1431.83" y="347.374" width="18.107" height="29.6309" stroke="#E1DFDF" stroke-width="2" stroke-linecap="round" stroke-linejoin="round"/>
<rect x="1098.86" y="347.374" width="18.107" height="29.6309" stroke="#E1DFDF" stroke-width="2" stroke-linecap="round" stroke-linejoin="round"/>
<rect x="1022.78" y="347.143" width="18.107" height="29.6309" stroke="#E1DFDF" stroke-width="2" stroke-linecap="round" stroke-linejoin="round"/>
<rect x="1171.29" y="389.267" width="18.107" height="29.6309" stroke="#E1DFDF" stroke-width="2" stroke-linecap="round" stroke-linejoin="round"/>
<rect x="1239.69" y="389.267" width="18.107" height="29.6309" stroke="#E1DFDF" stroke-width="2" stroke-linecap="round" stroke-linejoin="round"/>
<rect x="1431.83" y="389.267" width="18.107" height="29.6309" stroke="#E1DFDF" stroke-width="2" stroke-linecap="round" stroke-linejoin="round"/>
<rect x="1098.86" y="389.267" width="18.107" height="29.6309" stroke="#E1DFDF" stroke-width="2" stroke-linecap="round" stroke-linejoin="round"/>
<rect x="1022.78" y="389.036" width="18.107" height="29.6309" stroke="#E1DFDF" stroke-width="2" stroke-linecap="round" stroke-linejoin="round"/>
<path d="M639.339 210.684L661.973 234.695H669.518V222.689M639.339 210.684V199.444M639.339 210.684H623.747M669.518 210.684V170.835H639.339V199.444M669.518 210.684H714.785M669.518 210.684V222.689M714.785 210.684V196.89H733.898V210.684H746.473V221.923H757.035V234.695H768.1V246.445H784.699M714.785 210.684H724.342L761.31 251.554M784.699 246.445L807.332 205.064M784.699 246.445L779.669 257.684H784.699M784.699 246.445H797.273M807.332 205.064L827.954 246.445M807.332 205.064L797.273 246.445M807.332 205.064L816.386 246.445M827.954 246.445H836.505M827.954 246.445L836.505 257.684H827.954M827.954 246.445H816.386M836.505 246.445V221.923L835.016 219.369M836.505 246.445V260.75M836.505 182.075H821.919V196.89L835.016 219.369M836.505 182.075V139.161M836.505 182.075H894.347M836.505 90.1167H830.469L840.026 79.3883M836.505 90.1167H894.347M836.505 90.1167V114.128M840.026 79.3883L865.677 1.73499M840.026 79.3883H855.618M865.677 1.73499L890.826 79.3883M865.677 1.73499L877.749 79.3883M865.677 1.73499L855.618 79.3883M890.826 79.3883L900.885 90.1167H894.347M890.826 79.3883H877.749M894.347 90.1167V114.128M894.347 182.075V139.161M894.347 182.075H899.88M907.927 196.89V182.075H899.88M907.927 196.89L918.992 216.814M907.927 196.89L899.88 182.075M918.992 216.814H913.46V228.053H907.927V216.814H902.897V228.053H897.868V216.814H892.335V228.053H886.299V216.814H880.264C880.431 220.561 880.666 228.053 880.264 228.053C879.861 228.053 876.743 228.053 875.234 228.053V219.369M918.992 216.814V228.053H924.777V216.814M918.992 216.814H924.777M918.992 268.924H933.579M918.992 268.924V452.328M918.992 268.924V259.217M933.579 268.924L945.147 231.119L960.236 268.924M933.579 268.924H960.236M960.236 268.924H970.799V434.448M608.155 210.684H594.575V196.89H579.485V210.684H564.396V219.879M608.155 210.684V223.966H618.717V236.227H628.777M608.155 210.684V179.52H623.747V210.684M608.155 210.684H623.747M655.434 236.227H628.777M628.777 236.227V246.445H642.357V259.728H651.411M651.411 259.728V251.554H689.134M651.411 259.728V266.369M776.148 266.369V251.554H761.31M776.148 266.369L784.699 277.098M776.148 266.369H651.411M784.699 277.098H751.502L743.455 271.478H728.366M784.699 277.098V387.958M784.699 277.098V267.391M784.699 452.328H651.411M784.699 452.328H827.954M784.699 452.328V394.088M651.411 452.328H642.357M651.411 452.328V266.369M564.396 219.879H577.474L631.303 277.098M564.396 219.879L550.433 219.369L486.129 288.848H498.255M642.357 288.848V452.328M642.357 288.848L631.303 277.098M642.357 288.848H564.396H498.255M642.357 452.328H564.396H498.255V434.448M631.303 277.098H696.175L689.134 271.478H708.75M669.518 222.689H661.973L639.339 199.444M680.08 236.227H698.187M689.134 251.554V246.445H704.726L719.815 231.119L735.91 246.445H746.473V251.554M689.134 251.554H708.75M746.473 251.554H728.366M746.473 251.554H761.31M728.366 251.554L719.815 240.825L708.75 251.554M728.366 251.554H708.75M970.799 434.448V452.328H918.992M970.799 434.448H728.366M708.75 271.478V434.448M708.75 271.478H728.366M708.75 434.448H564.396H537.94M708.75 434.448H728.366M728.366 434.448V271.478M784.699 257.684H827.954M784.699 257.684V267.391M827.954 257.684V267.391M827.954 452.328H877.749M827.954 452.328V349.131M797.273 246.445H816.386M877.749 79.3883H855.618M836.505 139.161H894.347M836.505 139.161V122.813M894.347 139.161V122.813M894.347 122.813H836.505M894.347 122.813V114.128M836.505 122.813V114.128M836.505 114.128H894.347M899.88 182.075L891.088 196.89M875.234 219.369H877.749L882.778 210.893M875.234 219.369V216.814M875.234 216.814H867.689M875.234 216.814V196.89H867.689V216.814M867.689 216.814V219.369M877.749 452.328H918.992M877.749 452.328L877.027 394.088M918.992 259.217V249.51L930.561 240.314V216.814H924.777M918.992 259.217L836.505 260.75M836.505 260.75V298.554M836.505 298.554H827.954M836.505 298.554V306.728H842.541V298.554H847.57V306.728H855.115V298.554H861.654V306.728H867.689V298.554H875.842M827.954 298.554V349.131M827.954 298.554V267.391M835.016 219.369H842.541V196.89H847.57V219.369H855.115V196.89H861.654V219.369H867.689M867.689 219.369V240.314L875.234 249.51L875.842 298.554M882.778 210.893V196.89H891.088M882.778 210.893L891.088 196.89M784.699 387.958H876.951M784.699 387.958V394.088M876.951 387.958L877.027 394.088M876.951 387.958L876.469 349.131M877.027 394.088H784.699M827.954 349.131H835.016M876.469 349.131H867.689M876.469 349.131L875.842 298.554M835.016 349.131V320.011L852.6 306.728L867.689 320.011V349.131M835.016 349.131H867.689M784.699 267.391H788.722V274.032H793.249V267.391H798.279V274.032H803.309V267.391H807.835V274.032H812.865V267.391H817.895V274.032H823.428V267.391H827.954M498.255 288.848V434.448M498.255 434.448H529.488M537.94 434.448V293.446H529.488V434.448M537.94 434.448H529.488M608.155 293.446C606.545 295.08 607.484 388.128 608.155 434.448H613.688V293.446H608.155ZM793.249 302.641H818.901V362.414H793.249V302.641ZM516.995 277.098L554.843 234.695H569.541L608.543 277.098H516.995Z" stroke="#E1DFDF" stroke-width="2" stroke-linecap="round" stroke-linejoin="round"/>
<rect x="663.484" y="306.217" width="18.107" height="29.6309" stroke="#E1DFDF" stroke-width="2" stroke-linecap="round" stroke-linejoin="round"/>
<rect x="731.887" y="306.217" width="18.107" height="29.6309" stroke="#E1DFDF" stroke-width="2" stroke-linecap="round" stroke-linejoin="round"/>
<rect x="924.023" y="306.217" width="18.107" height="29.6309" stroke="#E1DFDF" stroke-width="2" stroke-linecap="round" stroke-linejoin="round"/>
<rect x="589.043" y="306.217" width="18.107" height="29.6309" stroke="#E1DFDF" stroke-width="2" stroke-linecap="round" stroke-linejoin="round"/>
<rect x="511.484" y="305.986" width="18.107" height="29.6309" stroke="#E1DFDF" stroke-width="2" stroke-linecap="round" stroke-linejoin="round"/>
<rect x="663.484" y="348.109" width="18.107" height="29.6309" stroke="#E1DFDF" stroke-width="2" stroke-linecap="round" stroke-linejoin="round"/>
<rect x="731.887" y="348.109" width="18.107" height="29.6309" stroke="#E1DFDF" stroke-width="2" stroke-linecap="round" stroke-linejoin="round"/>
<rect x="924.023" y="348.109" width="18.107" height="29.6309" stroke="#E1DFDF" stroke-width="2" stroke-linecap="round" stroke-linejoin="round"/>
<rect x="589.043" y="348.109" width="18.107" height="29.6309" stroke="#E1DFDF" stroke-width="2" stroke-linecap="round" stroke-linejoin="round"/>
<rect x="511.484" y="347.878" width="18.107" height="29.6309" stroke="#E1DFDF" stroke-width="2" stroke-linecap="round" stroke-linejoin="round"/>
<rect x="663.484" y="390.002" width="18.107" height="29.6309" stroke="#E1DFDF" stroke-width="2" stroke-linecap="round" stroke-linejoin="round"/>
<rect x="731.887" y="390.002" width="18.107" height="29.6309" stroke="#E1DFDF" stroke-width="2" stroke-linecap="round" stroke-linejoin="round"/>
<rect x="924.023" y="390.002" width="18.107" height="29.6309" stroke="#E1DFDF" stroke-width="2" stroke-linecap="round" stroke-linejoin="round"/>
<rect x="589.043" y="390.002" width="18.107" height="29.6309" stroke="#E1DFDF" stroke-width="2" stroke-linecap="round" stroke-linejoin="round"/>
<rect x="511.484" y="389.771" width="18.107" height="29.6309" stroke="#E1DFDF" stroke-width="2" stroke-linecap="round" stroke-linejoin="round"/>
<rect x="686.617" y="306.217" width="18.107" height="29.6309" stroke="#E1DFDF" stroke-width="2" stroke-linecap="round" stroke-linejoin="round"/>
<rect x="755.023" y="306.217" width="18.107" height="29.6309" stroke="#E1DFDF" stroke-width="2" stroke-linecap="round" stroke-linejoin="round"/>
<rect x="947.156" y="306.217" width="18.107" height="29.6309" stroke="#E1DFDF" stroke-width="2" stroke-linecap="round" stroke-linejoin="round"/>
<rect x="614.191" y="306.217" width="18.107" height="29.6309" stroke="#E1DFDF" stroke-width="2" stroke-linecap="round" stroke-linejoin="round"/>
<rect x="538.105" y="305.986" width="18.107" height="29.6309" stroke="#E1DFDF" stroke-width="2" stroke-linecap="round" stroke-linejoin="round"/>
<rect x="883.781" y="273.522" width="9.05352" height="26.5656" stroke="#E1DFDF" stroke-width="2" stroke-linecap="round" stroke-linejoin="round"/>
<rect x="883.781" y="312.349" width="9.05352" height="26.5656" stroke="#E1DFDF" stroke-width="2" stroke-linecap="round" stroke-linejoin="round"/>
<rect x="883.781" y="353.217" width="9.05352" height="26.5656" stroke="#E1DFDF" stroke-width="2" stroke-linecap="round" stroke-linejoin="round"/>
<rect x="851.594" y="147.846" width="9.05352" height="26.5656" stroke="#E1DFDF" stroke-width="2" stroke-linecap="round" stroke-linejoin="round"/>
<rect x="903.902" y="273.522" width="9.05352" height="26.5656" stroke="#E1DFDF" stroke-width="2" stroke-linecap="round" stroke-linejoin="round"/>
<rect x="903.902" y="312.349" width="9.05352" height="26.5656" stroke="#E1DFDF" stroke-width="2" stroke-linecap="round" stroke-linejoin="round"/>
<rect x="903.902" y="353.217" width="9.05352" height="26.5656" stroke="#E1DFDF" stroke-width="2" stroke-linecap="round" stroke-linejoin="round"/>
<rect x="871.711" y="147.846" width="9.05352" height="26.5656" stroke="#E1DFDF" stroke-width="2" stroke-linecap="round" stroke-linejoin="round"/>
<rect x="686.617" y="348.109" width="18.107" height="29.6309" stroke="#E1DFDF" stroke-width="2" stroke-linecap="round" stroke-linejoin="round"/>
<rect x="755.023" y="348.109" width="18.107" height="29.6309" stroke="#E1DFDF" stroke-width="2" stroke-linecap="round" stroke-linejoin="round"/>
<rect x="947.156" y="348.109" width="18.107" height="29.6309" stroke="#E1DFDF" stroke-width="2" stroke-linecap="round" stroke-linejoin="round"/>
<rect x="614.191" y="348.109" width="18.107" height="29.6309" stroke="#E1DFDF" stroke-width="2" stroke-linecap="round" stroke-linejoin="round"/>
<rect x="538.105" y="347.878" width="18.107" height="29.6309" stroke="#E1DFDF" stroke-width="2" stroke-linecap="round" stroke-linejoin="round"/>
<rect x="686.617" y="390.002" width="18.107" height="29.6309" stroke="#E1DFDF" stroke-width="2" stroke-linecap="round" stroke-linejoin="round"/>
<rect x="755.023" y="390.002" width="18.107" height="29.6309" stroke="#E1DFDF" stroke-width="2" stroke-linecap="round" stroke-linejoin="round"/>
<rect x="947.156" y="390.002" width="18.107" height="29.6309" stroke="#E1DFDF" stroke-width="2" stroke-linecap="round" stroke-linejoin="round"/>
<rect x="614.191" y="390.002" width="18.107" height="29.6309" stroke="#E1DFDF" stroke-width="2" stroke-linecap="round" stroke-linejoin="round"/>
<rect x="538.105" y="389.771" width="18.107" height="29.6309" stroke="#E1DFDF" stroke-width="2" stroke-linecap="round" stroke-linejoin="round"/>
<path d="M1608.54 209.949L1631.18 233.96H1638.72V221.954M1608.54 209.949V198.709M1608.54 209.949H1592.95M1638.72 209.949V170.1H1608.54V198.709M1638.72 209.949H1683.99M1638.72 209.949V221.954M1683.99 209.949V196.155H1703.1V209.949H1715.68V221.188H1726.24V233.96H1737.3V245.71H1753.9M1683.99 209.949H1693.54L1730.51 250.819M1753.9 245.71L1776.54 204.329M1753.9 245.71L1748.87 256.949H1753.9M1753.9 245.71H1766.48M1776.54 204.329L1797.16 245.71M1776.54 204.329L1766.48 245.71M1776.54 204.329L1785.59 245.71M1797.16 245.71H1805.71M1797.16 245.71L1805.71 256.949H1797.16M1797.16 245.71H1785.59M1805.71 245.71V221.188L1804.22 218.634M1805.71 245.71V260.015M1805.71 181.34H1791.12V196.155L1804.22 218.634M1805.71 181.34V138.426M1805.71 181.34H1863.55M1805.71 89.3817H1799.67L1809.23 78.6533M1805.71 89.3817H1863.55M1805.71 89.3817V113.393M1809.23 78.6533L1834.88 1M1809.23 78.6533H1824.82M1834.88 1L1860.03 78.6533M1834.88 1L1846.95 78.6533M1834.88 1L1824.82 78.6533M1860.03 78.6533L1870.09 89.3817H1863.55M1860.03 78.6533H1846.95M1863.55 89.3817V113.393M1863.55 181.34V138.426M1863.55 181.34H1869.08M1877.13 196.155V181.34H1869.08M1877.13 196.155L1888.2 216.079M1877.13 196.155L1869.08 181.34M1888.2 216.079H1882.66V227.318H1877.13V216.079H1872.1V227.318H1867.07V216.079H1861.54V227.318H1855.5V216.079H1849.47C1849.63 219.826 1849.87 227.318 1849.47 227.318C1849.06 227.318 1845.95 227.318 1844.44 227.318V218.634M1888.2 216.079V227.318H1893.98V216.079M1888.2 216.079H1893.98M1888.2 268.189H1902.78M1888.2 268.189V451.593M1888.2 268.189V258.482M1902.78 268.189L1914.35 230.384L1929.44 268.189M1902.78 268.189H1929.44M1929.44 268.189H1940V433.713M1577.36 209.949H1563.78V196.155H1548.69V209.949H1533.6V219.144M1577.36 209.949V223.231H1587.92V235.492H1597.98M1577.36 209.949V178.785H1592.95V209.949M1577.36 209.949H1592.95M1624.64 235.492H1597.98M1597.98 235.492V245.71H1611.56V258.993H1620.61M1620.61 258.993V250.819H1658.34M1620.61 258.993V265.634M1745.35 265.634V250.819H1730.51M1745.35 265.634L1753.9 276.363M1745.35 265.634H1620.61M1753.9 276.363H1720.71L1712.66 270.743H1697.57M1753.9 276.363V387.223M1753.9 276.363V266.656M1753.9 451.593H1620.61M1753.9 451.593H1797.16M1753.9 451.593V393.353M1620.61 451.593H1611.56M1620.61 451.593V265.634M1533.6 219.144H1546.68L1600.51 276.363M1533.6 219.144L1519.64 218.634L1455.33 288.113H1467.46M1611.56 288.113V451.593M1611.56 288.113L1600.51 276.363M1611.56 288.113H1533.6H1467.46M1611.56 451.593H1533.6H1467.46V433.713M1600.51 276.363H1665.38L1658.34 270.743H1677.95M1638.72 221.954H1631.18L1608.54 198.709M1649.28 235.492H1667.39M1658.34 250.819V245.71H1673.93L1689.02 230.384L1705.11 245.71H1715.68V250.819M1658.34 250.819H1677.95M1715.68 250.819H1697.57M1715.68 250.819H1730.51M1697.57 250.819L1689.02 240.09L1677.95 250.819M1697.57 250.819H1677.95M1940 433.713V451.593H1888.2M1940 433.713H1697.57M1677.95 270.743V433.713M1677.95 270.743H1697.57M1677.95 433.713H1533.6H1507.14M1677.95 433.713H1697.57M1697.57 433.713V270.743M1753.9 256.949H1797.16M1753.9 256.949V266.656M1797.16 256.949V266.656M1797.16 451.593H1846.95M1797.16 451.593V348.396M1766.48 245.71H1785.59M1846.95 78.6533H1824.82M1805.71 138.426H1863.55M1805.71 138.426V122.078M1863.55 138.426V122.078M1863.55 122.078H1805.71M1863.55 122.078V113.393M1805.71 122.078V113.393M1805.71 113.393H1863.55M1869.08 181.34L1860.29 196.155M1844.44 218.634H1846.95L1851.98 210.158M1844.44 218.634V216.079M1844.44 216.079H1836.89M1844.44 216.079V196.155H1836.89V216.079M1836.89 216.079V218.634M1846.95 451.593H1888.2M1846.95 451.593L1846.23 393.353M1888.2 258.482V248.775L1899.76 239.579V216.079H1893.98M1888.2 258.482L1805.71 260.015M1805.71 260.015V297.819M1805.71 297.819H1797.16M1805.71 297.819V305.993H1811.74V297.819H1816.77V305.993H1824.32V297.819H1830.86V305.993H1836.89V297.819H1845.05M1797.16 297.819V348.396M1797.16 297.819V266.656M1804.22 218.634H1811.74V196.155H1816.77V218.634H1824.32V196.155H1830.86V218.634H1836.89M1836.89 218.634V239.579L1844.44 248.775L1845.05 297.819M1851.98 210.158V196.155H1860.29M1851.98 210.158L1860.29 196.155M1753.9 387.223H1846.15M1753.9 387.223V393.353M1846.15 387.223L1846.23 393.353M1846.15 387.223L1845.67 348.396M1846.23 393.353H1753.9M1797.16 348.396H1804.22M1845.67 348.396H1836.89M1845.67 348.396L1845.05 297.819M1804.22 348.396V319.276L1821.8 305.993L1836.89 319.276V348.396M1804.22 348.396H1836.89M1753.9 266.656H1757.93V273.297H1762.45V266.656H1767.48V273.297H1772.51V266.656H1777.04V273.297H1782.07V266.656H1787.1V273.297H1792.63V266.656H1797.16M1467.46 288.113V433.713M1467.46 433.713H1498.69M1507.14 433.713V292.711H1498.69V433.713M1507.14 433.713H1498.69M1577.36 292.711C1575.75 294.345 1576.69 387.393 1577.36 433.713H1582.89V292.711H1577.36ZM1762.45 301.906H1788.1V361.679H1762.45V301.906ZM1486.2 276.363L1524.05 233.96H1538.74L1577.75 276.363H1486.2Z" stroke="#E1DFDF" stroke-width="2" stroke-linecap="round" stroke-linejoin="round"/>
<rect x="1632.69" y="305.481" width="18.107" height="29.6309" stroke="#E1DFDF" stroke-width="2" stroke-linecap="round" stroke-linejoin="round"/>
<rect x="1701.09" y="305.481" width="18.107" height="29.6309" stroke="#E1DFDF" stroke-width="2" stroke-linecap="round" stroke-linejoin="round"/>
<rect x="1893.23" y="305.481" width="18.107" height="29.6309" stroke="#E1DFDF" stroke-width="2" stroke-linecap="round" stroke-linejoin="round"/>
<rect x="1558.24" y="305.481" width="18.107" height="29.6309" stroke="#E1DFDF" stroke-width="2" stroke-linecap="round" stroke-linejoin="round"/>
<rect x="1480.69" y="305.25" width="18.107" height="29.6309" stroke="#E1DFDF" stroke-width="2" stroke-linecap="round" stroke-linejoin="round"/>
<rect x="1632.69" y="347.374" width="18.107" height="29.6309" stroke="#E1DFDF" stroke-width="2" stroke-linecap="round" stroke-linejoin="round"/>
<rect x="1701.09" y="347.374" width="18.107" height="29.6309" stroke="#E1DFDF" stroke-width="2" stroke-linecap="round" stroke-linejoin="round"/>
<rect x="1893.23" y="347.374" width="18.107" height="29.6309" stroke="#E1DFDF" stroke-width="2" stroke-linecap="round" stroke-linejoin="round"/>
<rect x="1558.24" y="347.374" width="18.107" height="29.6309" stroke="#E1DFDF" stroke-width="2" stroke-linecap="round" stroke-linejoin="round"/>
<rect x="1480.69" y="347.143" width="18.107" height="29.6309" stroke="#E1DFDF" stroke-width="2" stroke-linecap="round" stroke-linejoin="round"/>
<rect x="1632.69" y="389.267" width="18.107" height="29.6309" stroke="#E1DFDF" stroke-width="2" stroke-linecap="round" stroke-linejoin="round"/>
<rect x="1701.09" y="389.267" width="18.107" height="29.6309" stroke="#E1DFDF" stroke-width="2" stroke-linecap="round" stroke-linejoin="round"/>
<rect x="1893.23" y="389.267" width="18.107" height="29.6309" stroke="#E1DFDF" stroke-width="2" stroke-linecap="round" stroke-linejoin="round"/>
<rect x="1558.24" y="389.267" width="18.107" height="29.6309" stroke="#E1DFDF" stroke-width="2" stroke-linecap="round" stroke-linejoin="round"/>
<rect x="1480.69" y="389.036" width="18.107" height="29.6309" stroke="#E1DFDF" stroke-width="2" stroke-linecap="round" stroke-linejoin="round"/>
<rect x="1655.82" y="305.481" width="18.107" height="29.6309" stroke="#E1DFDF" stroke-width="2" stroke-linecap="round" stroke-linejoin="round"/>
<rect x="1724.23" y="305.481" width="18.107" height="29.6309" stroke="#E1DFDF" stroke-width="2" stroke-linecap="round" stroke-linejoin="round"/>
<rect x="1916.36" y="305.481" width="18.107" height="29.6309" stroke="#E1DFDF" stroke-width="2" stroke-linecap="round" stroke-linejoin="round"/>
<rect x="1583.39" y="305.481" width="18.107" height="29.6309" stroke="#E1DFDF" stroke-width="2" stroke-linecap="round" stroke-linejoin="round"/>
<rect x="1507.31" y="305.25" width="18.107" height="29.6309" stroke="#E1DFDF" stroke-width="2" stroke-linecap="round" stroke-linejoin="round"/>
<rect x="1852.98" y="272.787" width="9.05352" height="26.5656" stroke="#E1DFDF" stroke-width="2" stroke-linecap="round" stroke-linejoin="round"/>
<rect x="1852.98" y="311.614" width="9.05352" height="26.5656" stroke="#E1DFDF" stroke-width="2" stroke-linecap="round" stroke-linejoin="round"/>
<rect x="1852.98" y="352.482" width="9.05352" height="26.5656" stroke="#E1DFDF" stroke-width="2" stroke-linecap="round" stroke-linejoin="round"/>
<rect x="1820.8" y="147.111" width="9.05352" height="26.5656" stroke="#E1DFDF" stroke-width="2" stroke-linecap="round" stroke-linejoin="round"/>
<rect x="1873.11" y="272.787" width="9.05352" height="26.5656" stroke="#E1DFDF" stroke-width="2" stroke-linecap="round" stroke-linejoin="round"/>
<rect x="1873.11" y="311.614" width="9.05352" height="26.5656" stroke="#E1DFDF" stroke-width="2" stroke-linecap="round" stroke-linejoin="round"/>
<rect x="1873.11" y="352.482" width="9.05352" height="26.5656" stroke="#E1DFDF" stroke-width="2" stroke-linecap="round" stroke-linejoin="round"/>
<rect x="1840.91" y="147.111" width="9.05352" height="26.5656" stroke="#E1DFDF" stroke-width="2" stroke-linecap="round" stroke-linejoin="round"/>
<rect x="1655.82" y="347.374" width="18.107" height="29.6309" stroke="#E1DFDF" stroke-width="2" stroke-linecap="round" stroke-linejoin="round"/>
<rect x="1724.23" y="347.374" width="18.107" height="29.6309" stroke="#E1DFDF" stroke-width="2" stroke-linecap="round" stroke-linejoin="round"/>
<rect x="1916.36" y="347.374" width="18.107" height="29.6309" stroke="#E1DFDF" stroke-width="2" stroke-linecap="round" stroke-linejoin="round"/>
<rect x="1583.39" y="347.374" width="18.107" height="29.6309" stroke="#E1DFDF" stroke-width="2" stroke-linecap="round" stroke-linejoin="round"/>
<rect x="1507.31" y="347.143" width="18.107" height="29.6309" stroke="#E1DFDF" stroke-width="2" stroke-linecap="round" stroke-linejoin="round"/>
<rect x="1655.82" y="389.267" width="18.107" height="29.6309" stroke="#E1DFDF" stroke-width="2" stroke-linecap="round" stroke-linejoin="round"/>
<rect x="1724.23" y="389.267" width="18.107" height="29.6309" stroke="#E1DFDF" stroke-width="2" stroke-linecap="round" stroke-linejoin="round"/>
<rect x="1916.36" y="389.267" width="18.107" height="29.6309" stroke="#E1DFDF" stroke-width="2" stroke-linecap="round" stroke-linejoin="round"/>
<rect x="1583.39" y="389.267" width="18.107" height="29.6309" stroke="#E1DFDF" stroke-width="2" stroke-linecap="round" stroke-linejoin="round"/>
<rect x="1507.31" y="389.036" width="18.107" height="29.6309" stroke="#E1DFDF" stroke-width="2" stroke-linecap="round" stroke-linejoin="round"/>
</svg>
