<svg width="511" height="438" viewBox="0 0 511 438" fill="none" xmlns="http://www.w3.org/2000/svg">
<circle cx="301.771" cy="259.081" r="177.919" stroke="#ACACAC" stroke-width="2"/>
<rect x="292.977" y="44.5779" width="216.852" height="307.121" fill="white"/>
<path d="M312.977 1H489.829C500.875 1 509.829 9.9543 509.829 21V44.578V351.699V385.653C509.829 396.699 500.875 405.653 489.829 405.653H312.977C301.931 405.653 292.977 396.699 292.977 385.653V351.699H509.829V44.578H292.977V21C292.977 9.95431 301.931 1 312.977 1Z" fill="white"/>
<path d="M292.977 44.578V21C292.977 9.95431 301.931 1 312.977 1H489.829C500.875 1 509.829 9.9543 509.829 21V44.578M292.977 44.578H509.829M292.977 44.578V95.419M509.829 44.578V351.699M509.829 351.699V385.653C509.829 396.699 500.875 405.653 489.829 405.653H312.977C301.931 405.653 292.977 396.699 292.977 385.653V351.699M509.829 351.699H292.977M292.977 351.699V131.215" stroke="#ACACAC" stroke-width="2" stroke-linecap="round" stroke-linejoin="round"/>
<path d="M391.549 22.7889C391.549 21.6428 392.478 20.7137 393.624 20.7137H427.864C429.01 20.7137 429.939 21.6428 429.939 22.7889C429.939 23.935 429.01 24.864 427.864 24.864H393.624C392.478 24.864 391.549 23.935 391.549 22.7889Z" stroke="#ACACAC" stroke-width="2" stroke-linecap="round" stroke-linejoin="round"/>
<path d="M373.91 22.7889C373.91 21.6428 374.839 20.7137 375.985 20.7137C377.131 20.7137 378.06 21.6428 378.06 22.7889C378.06 23.935 377.131 24.864 375.985 24.864C374.839 24.864 373.91 23.935 373.91 22.7889Z" stroke="#ACACAC" stroke-width="2" stroke-linecap="round" stroke-linejoin="round"/>
<circle cx="401.401" cy="379.195" r="17.1199" stroke="#ACACAC" stroke-width="2"/>
<rect x="313.027" y="65.0426" width="176.919" height="40.0583" rx="9.5" fill="white" stroke="#ACACAC"/>
<path d="M372.502 81.4071V89.2779H370.703V87.1865H369.039L367.645 89.2779H365.722L367.364 86.9054C366.832 86.688 366.423 86.362 366.138 85.9272C365.853 85.4849 365.711 84.9565 365.711 84.3418C365.711 83.7346 365.85 83.2137 366.127 82.7789C366.404 82.3366 366.798 81.9993 367.308 81.767C367.817 81.5271 368.417 81.4071 369.107 81.4071H372.502ZM369.152 82.8913C368.634 82.8913 368.237 83.0113 367.96 83.2512C367.69 83.491 367.555 83.8471 367.555 84.3193C367.555 84.7766 367.686 85.1289 367.948 85.3763C368.211 85.6236 368.597 85.7473 369.107 85.7473H370.703V82.8913H369.152Z" fill="#ACACAC"/>
<path d="M381.448 86.1296C381.807 86.242 382.085 86.4144 382.28 86.6468C382.482 86.8792 382.583 87.1565 382.583 87.4789C382.583 87.8612 382.452 88.1985 382.19 88.4908C381.927 88.7757 381.568 88.9968 381.11 89.1542C380.653 89.3116 380.136 89.3903 379.559 89.3903C379.086 89.3903 378.622 89.3416 378.164 89.2442C377.707 89.1467 377.284 89.0005 376.894 88.8056L377.366 87.5801C378.003 87.8874 378.708 88.0411 379.48 88.0411C379.892 88.0411 380.215 87.9811 380.447 87.8612C380.687 87.7337 380.807 87.5576 380.807 87.3327C380.807 87.1378 380.724 86.9916 380.559 86.8942C380.394 86.7892 380.155 86.7368 379.84 86.7368H378.603V85.6461H379.682C379.99 85.6461 380.226 85.5974 380.391 85.4999C380.556 85.4025 380.638 85.2601 380.638 85.0727C380.638 84.8778 380.533 84.7279 380.323 84.6229C380.121 84.518 379.829 84.4655 379.446 84.4655C378.862 84.4655 378.224 84.6042 377.535 84.8815L377.108 83.6672C377.947 83.2999 378.764 83.1162 379.559 83.1162C380.106 83.1162 380.593 83.1837 381.02 83.3186C381.455 83.4535 381.796 83.6522 382.044 83.9145C382.291 84.1694 382.415 84.4692 382.415 84.8141C382.415 85.0989 382.328 85.3575 382.156 85.5899C381.984 85.8148 381.748 85.9947 381.448 86.1296Z" fill="#ACACAC"/>
<path d="M390.639 87.8387V90.5822H389.009V89.2779H384.759V90.5822H383.128V87.8387H383.376C383.751 87.8312 384.009 87.61 384.152 87.1753C384.294 86.7405 384.384 86.1221 384.421 85.32L384.5 83.2287H389.774V87.8387H390.639ZM386.007 85.4437C385.984 86.0584 385.936 86.5606 385.861 86.9504C385.793 87.3402 385.662 87.6363 385.467 87.8387H388.019V84.6679H386.041L386.007 85.4437Z" fill="#ACACAC"/>
<path d="M397.624 86.2758C397.624 86.2983 397.612 86.4557 397.59 86.748H393.014C393.096 87.1228 393.291 87.4189 393.598 87.6363C393.906 87.8537 394.288 87.9624 394.745 87.9624C395.06 87.9624 395.337 87.9174 395.577 87.8274C395.825 87.73 396.053 87.5801 396.263 87.3777L397.196 88.3896C396.627 89.0418 395.795 89.3678 394.7 89.3678C394.018 89.3678 393.415 89.2367 392.89 88.9743C392.365 88.7044 391.961 88.3334 391.676 87.8612C391.391 87.3889 391.248 86.853 391.248 86.2533C391.248 85.6611 391.387 85.1289 391.664 84.6566C391.949 84.1769 392.335 83.8059 392.823 83.5435C393.317 83.2736 393.868 83.1387 394.475 83.1387C395.068 83.1387 395.604 83.2661 396.083 83.521C396.563 83.7759 396.938 84.1432 397.208 84.6229C397.485 85.0952 397.624 85.6461 397.624 86.2758ZM394.487 84.4655C394.089 84.4655 393.756 84.5779 393.486 84.8028C393.216 85.0277 393.051 85.335 392.991 85.7248H395.971C395.911 85.3425 395.746 85.0389 395.476 84.8141C395.206 84.5817 394.876 84.4655 394.487 84.4655Z" fill="#ACACAC"/>
<path d="M401.847 89.3678C401.202 89.3678 400.621 89.2367 400.104 88.9743C399.594 88.7044 399.193 88.3334 398.901 87.8612C398.616 87.3889 398.474 86.853 398.474 86.2533C398.474 85.6536 398.616 85.1176 398.901 84.6454C399.193 84.1732 399.594 83.8059 400.104 83.5435C400.621 83.2736 401.202 83.1387 401.847 83.1387C402.484 83.1387 403.039 83.2736 403.511 83.5435C403.991 83.8059 404.339 84.1844 404.556 84.6791L403.196 85.41C402.881 84.8553 402.428 84.5779 401.835 84.5779C401.378 84.5779 401 84.7279 400.7 85.0277C400.4 85.3275 400.25 85.7361 400.25 86.2533C400.25 86.7705 400.4 87.179 400.7 87.4789C401 87.7787 401.378 87.9286 401.835 87.9286C402.435 87.9286 402.889 87.6513 403.196 87.0966L404.556 87.8387C404.339 88.3184 403.991 88.6932 403.511 88.9631C403.039 89.2329 402.484 89.3678 401.847 89.3678Z" fill="#ACACAC"/>
<path d="M408.894 85.1626C409.681 85.1701 410.285 85.35 410.705 85.7023C411.124 86.0471 411.334 86.5381 411.334 87.1753C411.334 87.8424 411.098 88.3634 410.626 88.7382C410.161 89.1055 409.505 89.2891 408.658 89.2891L405.622 89.2779V83.2287H407.365V85.1626H408.894ZM408.501 88.0411C408.838 88.0486 409.097 87.9773 409.277 87.8274C409.457 87.6775 409.546 87.4526 409.546 87.1528C409.546 86.8604 409.457 86.6468 409.277 86.5119C409.104 86.377 408.846 86.3057 408.501 86.2983L407.365 86.287V88.0411H408.501Z" fill="#ACACAC"/>
<path d="M413.06 85.3313C412.753 85.3313 412.494 85.2263 412.284 85.0164C412.074 84.8066 411.969 84.5442 411.969 84.2294C411.969 83.907 412.074 83.6484 412.284 83.4535C412.494 83.2512 412.753 83.15 413.06 83.15C413.367 83.15 413.626 83.2512 413.836 83.4535C414.046 83.6484 414.151 83.907 414.151 84.2294C414.151 84.5442 414.046 84.8066 413.836 85.0164C413.626 85.2263 413.367 85.3313 413.06 85.3313ZM413.06 89.3678C412.753 89.3678 412.494 89.2629 412.284 89.053C412.074 88.8431 411.969 88.5808 411.969 88.2659C411.969 87.9436 412.074 87.685 412.284 87.4901C412.494 87.2877 412.753 87.1865 413.06 87.1865C413.367 87.1865 413.626 87.2877 413.836 87.4901C414.046 87.685 414.151 87.9436 414.151 88.2659C414.151 88.5808 414.046 88.8431 413.836 89.053C413.626 89.2629 413.367 89.3678 413.06 89.3678Z" fill="#ACACAC"/>
<path d="M425.855 89.2779L425.843 84.5667L423.527 88.4458H422.717L420.401 84.6566V89.2779H418.692V81.4071H420.199L423.145 86.2983L426.046 81.4071H427.552L427.564 89.2779H425.855Z" fill="#ACACAC"/>
<path d="M431.734 83.1387C432.671 83.1387 433.39 83.3636 433.893 83.8133C434.395 84.2556 434.646 84.9265 434.646 85.826V89.2779H433.004V88.5245C432.675 89.0867 432.06 89.3678 431.16 89.3678C430.696 89.3678 430.291 89.2891 429.946 89.1317C429.609 88.9743 429.35 88.7569 429.17 88.4796C428.99 88.2022 428.9 87.8874 428.9 87.5351C428.9 86.9729 429.11 86.5306 429.53 86.2083C429.957 85.886 430.613 85.7248 431.498 85.7248H432.892C432.892 85.3425 432.776 85.0502 432.543 84.8478C432.311 84.6379 431.963 84.533 431.498 84.533C431.175 84.533 430.857 84.5854 430.542 84.6904C430.235 84.7878 429.972 84.9227 429.755 85.0952L429.125 83.8696C429.455 83.6372 429.849 83.4573 430.306 83.3299C430.771 83.2024 431.247 83.1387 431.734 83.1387ZM431.599 88.1872C431.899 88.1872 432.165 88.1198 432.397 87.9848C432.63 87.8424 432.795 87.6363 432.892 87.3664V86.748H431.689C430.969 86.748 430.609 86.9841 430.609 87.4564C430.609 87.6813 430.696 87.8612 430.868 87.9961C431.048 88.1235 431.292 88.1872 431.599 88.1872Z" fill="#ACACAC"/>
<path d="M439.734 83.1387C440.296 83.1387 440.806 83.2699 441.263 83.5322C441.728 83.7871 442.092 84.1507 442.354 84.6229C442.616 85.0877 442.747 85.6311 442.747 86.2533C442.747 86.8754 442.616 87.4226 442.354 87.8949C442.092 88.3596 441.728 88.7232 441.263 88.9855C440.806 89.2404 440.296 89.3678 439.734 89.3678C438.962 89.3678 438.355 89.1242 437.913 88.637V91.4592H436.159V83.2287H437.834V83.9258C438.269 83.4011 438.902 83.1387 439.734 83.1387ZM439.431 87.9286C439.88 87.9286 440.248 87.7787 440.532 87.4789C440.825 87.1715 440.971 86.763 440.971 86.2533C440.971 85.7436 440.825 85.3388 440.532 85.0389C440.248 84.7316 439.88 84.5779 439.431 84.5779C438.981 84.5779 438.61 84.7316 438.317 85.0389C438.033 85.3388 437.89 85.7436 437.89 86.2533C437.89 86.763 438.033 87.1715 438.317 87.4789C438.61 87.7787 438.981 87.9286 439.431 87.9286Z" fill="#ACACAC"/>
<path d="M443.977 83.2287H445.72V86.8267L448.666 83.2287H450.273V89.2779H448.531V85.6798L445.596 89.2779H443.977V83.2287Z" fill="#ACACAC"/>
<path d="M451.96 83.2287H453.702V86.8267L456.648 83.2287H458.256V89.2779H456.513V85.6798L453.579 89.2779H451.96V83.2287ZM454.995 82.5765C453.676 82.5765 453.013 81.9956 453.005 80.8337H454.152C454.16 81.0961 454.231 81.3022 454.366 81.4521C454.508 81.5945 454.714 81.6658 454.984 81.6658C455.254 81.6658 455.46 81.5945 455.603 81.4521C455.753 81.3022 455.827 81.0961 455.827 80.8337H456.997C456.989 81.9956 456.322 82.5765 454.995 82.5765Z" fill="#ACACAC"/>
<path d="M465.78 81.2722C466.56 81.2722 467.257 81.4484 467.872 81.8007C468.494 82.1455 468.981 82.629 469.333 83.2512C469.686 83.8658 469.862 84.5629 469.862 85.3425C469.862 86.1221 469.686 86.823 469.333 87.4451C468.981 88.0598 468.494 88.5433 467.872 88.8956C467.257 89.2404 466.56 89.4128 465.78 89.4128C465.083 89.4128 464.453 89.2929 463.891 89.053C463.337 88.8131 462.872 88.4646 462.497 88.0073L463.655 86.9279C464.21 87.5501 464.888 87.8612 465.69 87.8612C466.267 87.8612 466.755 87.6925 467.152 87.3552C467.557 87.0179 467.819 86.5644 467.939 85.9947H464.746V84.6004H467.917C467.789 84.0607 467.527 83.6297 467.129 83.3074C466.732 82.985 466.252 82.8239 465.69 82.8239C464.888 82.8239 464.21 83.135 463.655 83.7571L462.497 82.6777C462.872 82.2205 463.337 81.8719 463.891 81.632C464.453 81.3922 465.083 81.2722 465.78 81.2722Z" fill="#ACACAC"/>
<path d="M476.758 83.2287V89.2779H475.003V84.6679H473.092L473.036 85.7361C473.006 86.5306 472.931 87.1903 472.811 87.715C472.691 88.2397 472.496 88.652 472.226 88.9518C471.956 89.2517 471.582 89.4016 471.102 89.4016C470.847 89.4016 470.543 89.3566 470.191 89.2666L470.281 87.8274C470.401 87.8424 470.487 87.8499 470.54 87.8499C470.802 87.8499 470.997 87.7562 471.124 87.5688C471.259 87.3739 471.349 87.1303 471.394 86.838C471.439 86.5381 471.473 86.1446 471.495 85.6573L471.585 83.2287H476.758Z" fill="#ACACAC"/>
<path d="M338.239 77.6922C338.076 77.5324 337.811 77.5324 337.647 77.6922L335.872 79.4286C335.708 79.5884 335.708 79.8475 335.872 80.0073L337.647 81.7437C337.811 81.9035 338.076 81.9035 338.239 81.7437L340.014 80.0073C340.178 79.8475 340.178 79.5884 340.014 79.4286L338.239 77.6922Z" fill="#ACACAC"/>
<path d="M343.713 83.046C343.55 82.8862 343.285 82.8862 343.121 83.046L341.346 84.7823C341.182 84.9422 341.182 85.2013 341.346 85.3611L343.121 87.0975C343.285 87.2573 343.55 87.2573 343.713 87.0975L345.488 85.3611C345.652 85.2013 345.652 84.9422 345.488 84.7823L343.713 83.046Z" fill="#ACACAC"/>
<path d="M338.239 88.3998C338.076 88.2399 337.811 88.2399 337.647 88.3998L335.872 90.1361C335.708 90.296 335.708 90.5551 335.872 90.7149L337.647 92.4513C337.811 92.6111 338.076 92.6111 338.239 92.4513L340.014 90.7149C340.178 90.5551 340.178 90.296 340.014 90.1361L338.239 88.3998Z" fill="#ACACAC"/>
<path d="M332.173 83.046C332.336 82.8862 332.601 82.8862 332.765 83.046L334.54 84.7823C334.704 84.9422 334.704 85.2013 334.54 85.3611L332.765 87.0975C332.601 87.2573 332.336 87.2573 332.173 87.0975L330.398 85.3611C330.234 85.2013 330.234 84.9422 330.398 84.7823L332.173 83.046Z" fill="#ACACAC"/>
<path fill-rule="evenodd" clip-rule="evenodd" d="M338.239 75.377L347.856 84.7823C348.019 84.9422 348.019 85.2013 347.856 85.3611L342.382 90.7143L342.382 90.7149L338.239 94.7664C338.076 94.9263 337.811 94.9263 337.647 94.7664L328.031 85.3611C327.867 85.2013 327.867 84.9422 328.031 84.7823L337.647 75.377C337.811 75.2172 338.076 75.2172 338.239 75.377ZM337.943 83.1907L341.494 79.7179L337.943 76.2452L334.392 79.7179L337.943 83.1907ZM338.239 84.0589L342.086 80.2967L342.825 81.0202L338.979 84.7823C338.815 84.9422 338.815 85.2013 338.979 85.3611L342.825 89.1233L342.086 89.8467L338.239 86.0846C338.076 85.9248 337.811 85.9248 337.647 86.0846L333.8 89.8467L333.061 89.1233L336.907 85.3611C337.071 85.2013 337.071 84.9422 336.907 84.7823L333.061 81.0202L333.8 80.2967L337.647 84.0589C337.811 84.2187 338.076 84.2187 338.239 84.0589ZM339.866 85.0717L343.417 81.599L346.968 85.0717L343.417 88.5445L339.866 85.0717ZM337.943 86.9528L341.494 90.4255L337.943 93.8983L334.392 90.4255L337.943 86.9528ZM336.02 85.0717L332.469 88.5445L328.918 85.0717L332.469 81.599L336.02 85.0717Z" fill="#ACACAC"/>
<path fill-rule="evenodd" clip-rule="evenodd" d="M337.647 72.4831C337.811 72.3233 338.076 72.3233 338.239 72.4831L348.078 82.1054L351.924 78.3433C352.088 78.1835 352.353 78.1835 352.516 78.3433C352.679 78.5032 352.679 78.7623 352.516 78.9221L348.669 82.6842L349.039 83.046L352.886 79.2839C353.049 79.124 353.314 79.124 353.478 79.2839C353.641 79.4437 353.641 79.7028 353.478 79.8626L349.631 83.6248L350.001 83.9865L353.848 80.2244C354.011 80.0646 354.276 80.0646 354.439 80.2244C354.603 80.3842 354.603 80.6433 354.439 80.8032L350.593 84.5653L350.815 84.7823C350.978 84.9422 350.978 85.2013 350.815 85.3611L350.593 85.5782L354.439 89.3403C354.603 89.5001 354.603 89.7593 354.439 89.9191C354.276 90.0789 354.011 90.0789 353.848 89.9191L350.001 86.157L349.631 86.5187L353.478 90.2808C353.641 90.4407 353.641 90.6998 353.478 90.8596C353.314 91.0195 353.049 91.0195 352.886 90.8596L349.039 87.0975L348.669 87.4592L352.516 91.2214C352.679 91.3812 352.679 91.6403 352.516 91.8002C352.353 91.96 352.088 91.96 351.924 91.8002L348.078 88.038L338.239 97.6604C338.076 97.8202 337.811 97.8202 337.647 97.6604L327.809 88.038L323.962 91.8002C323.798 91.96 323.534 91.96 323.37 91.8002C323.207 91.6403 323.207 91.3812 323.37 91.2214L327.217 87.4592L326.847 87.0975L323 90.8596C322.837 91.0195 322.572 91.0195 322.408 90.8596C322.245 90.6998 322.245 90.4407 322.408 90.2808L326.255 86.5187L325.885 86.157L322.039 89.9191C321.875 90.0789 321.61 90.0789 321.447 89.9191C321.283 89.7593 321.283 89.5001 321.447 89.3403L325.293 85.5782L325.072 85.3611C324.908 85.2013 324.908 84.9422 325.072 84.7823L325.293 84.5653L321.447 80.8032C321.283 80.6433 321.283 80.3842 321.447 80.2244C321.61 80.0646 321.875 80.0646 322.039 80.2244L325.885 83.9865L326.255 83.6248L322.408 79.8626C322.245 79.7028 322.245 79.4437 322.408 79.2839C322.572 79.124 322.837 79.124 323 79.2839L326.847 83.046L327.217 82.6842L323.37 78.9221C323.207 78.7623 323.207 78.5032 323.37 78.3433C323.534 78.1835 323.798 78.1835 323.962 78.3433L327.809 82.1055L337.647 72.4831ZM337.943 73.3513L349.927 85.0717L349.706 85.2876L349.705 85.2888L349.704 85.29L348.744 86.2282L348.743 86.2293L348.742 86.2304L347.783 87.1686L347.782 87.1698L347.78 87.1711L337.943 96.7922L325.959 85.0717L337.943 73.3513Z" fill="#ACACAC"/>
<rect x="313.027" y="112.944" width="176.919" height="40.0583" rx="9.5" fill="white" stroke="#ACACAC"/>
<circle cx="337.943" cy="132.973" r="12.7085" fill="#ACACAC"/>
<rect x="365.316" y="130.04" width="111.444" height="5.86547" rx="2.93274" fill="#ACACAC"/>
<rect x="365.316" y="120.265" width="111.444" height="5.86547" rx="2.93274" fill="#ACACAC"/>
<rect x="365.316" y="139.816" width="111.444" height="5.86547" rx="2.93274" fill="#ACACAC"/>
<rect x="313.027" y="208.747" width="176.919" height="40.0583" rx="9.5" fill="white" stroke="#ACACAC"/>
<circle cx="337.943" cy="228.776" r="12.7085" fill="#ACACAC"/>
<rect x="365.316" y="225.843" width="111.444" height="5.86547" rx="2.93274" fill="#ACACAC"/>
<rect x="365.316" y="216.067" width="111.444" height="5.86547" rx="2.93274" fill="#ACACAC"/>
<rect x="365.316" y="235.619" width="111.444" height="5.86547" rx="2.93274" fill="#ACACAC"/>
<rect x="313.027" y="160.845" width="176.919" height="40.0583" rx="9.5" fill="white" stroke="#ACACAC"/>
<circle cx="337.943" cy="180.874" r="12.7085" fill="#ACACAC"/>
<rect x="365.316" y="177.942" width="111.444" height="5.86547" rx="2.93274" fill="#ACACAC"/>
<rect x="365.316" y="168.166" width="111.444" height="5.86547" rx="2.93274" fill="#ACACAC"/>
<rect x="365.316" y="187.717" width="111.444" height="5.86547" rx="2.93274" fill="#ACACAC"/>
<rect x="313.027" y="256.648" width="176.919" height="40.0583" rx="9.5" fill="white" stroke="#ACACAC"/>
<circle cx="337.943" cy="276.677" r="12.7085" fill="#ACACAC"/>
<rect x="365.316" y="273.744" width="111.444" height="5.86547" rx="2.93274" fill="#ACACAC"/>
<rect x="365.316" y="263.969" width="111.444" height="5.86547" rx="2.93274" fill="#ACACAC"/>
<rect x="365.316" y="283.52" width="111.444" height="5.86547" rx="2.93274" fill="#ACACAC"/>
<rect x="313.027" y="304.549" width="176.919" height="40.0583" rx="9.5" fill="white" stroke="#ACACAC"/>
<circle cx="337.943" cy="324.578" r="12.7085" fill="#ACACAC"/>
<rect x="365.316" y="321.646" width="111.444" height="5.86547" rx="2.93274" fill="#ACACAC"/>
<rect x="365.316" y="311.87" width="111.444" height="5.86547" rx="2.93274" fill="#ACACAC"/>
<rect x="365.316" y="331.422" width="111.444" height="5.86547" rx="2.93274" fill="#ACACAC"/>
<path d="M94.5672 127.54C94.8705 126.248 96.3246 125.605 97.4847 126.248L207.756 187.445C208.539 187.879 208.937 188.78 208.733 189.651L192.91 257.037C192.706 257.907 191.948 258.537 191.054 258.577L65.0694 264.299C63.7439 264.359 62.7283 263.135 63.0316 261.844L94.5672 127.54Z" fill="white" stroke="#ACACAC" stroke-width="2" stroke-linejoin="round"/>
<rect x="210.695" y="181.302" width="12.6394" height="86.3693" rx="2" transform="rotate(13.2141 210.695 181.302)" fill="white" stroke="#ACACAC" stroke-width="2" stroke-linejoin="round"/>
<rect x="221.312" y="191.369" width="26.3321" height="71.6233" rx="2" transform="rotate(13.2141 221.312 191.369)" fill="white" stroke="#ACACAC" stroke-width="2" stroke-linejoin="round"/>
<path d="M205.768 264.133C205.536 262.726 206.81 261.536 208.199 261.862L229.034 266.754C229.937 266.966 230.576 267.77 230.577 268.697L230.705 339.272C230.707 340.563 229.504 341.518 228.247 341.223L219.362 339.136C218.575 338.951 217.977 338.311 217.846 337.514L205.768 264.133Z" fill="white" stroke="#ACACAC" stroke-width="2" stroke-linejoin="round"/>
<path d="M269.675 220.416C269.87 219.586 269.518 218.724 268.797 218.269L247.882 205.042C246.72 204.307 245.18 204.937 244.866 206.275L232.449 259.154C232.129 260.52 233.278 261.783 234.669 261.592L259.491 258.182C260.311 258.069 260.977 257.463 261.166 256.657L269.675 220.416Z" fill="white" stroke="#ACACAC" stroke-width="2" stroke-linejoin="round"/>
<path d="M46.8575 123.359C38.7143 138.054 30.9815 158.717 25.4742 182.172C19.9669 205.626 17.6946 227.572 18.4464 244.355" stroke="#ACACAC" stroke-width="2" stroke-linecap="round" stroke-linejoin="round"/>
<path d="M66.5957 145.303C60.7255 156.028 55.1294 171.097 51.1156 188.191C47.1018 205.285 45.4061 221.27 45.8894 233.487" stroke="#ACACAC" stroke-width="2" stroke-linecap="round" stroke-linejoin="round"/>
</svg>
