<svg width="187" height="160" viewBox="0 0 187 160" fill="none" xmlns="http://www.w3.org/2000/svg">
<path d="M5.75 31.6287H86.2222V145.242H5.75V31.6287Z" fill="#5BCB68"/>
<path d="M78.3711 53.2378H138.596V160H78.3711V53.2378Z" fill="#1A9F29"/>
<path d="M48.76 113.109H29.8906V145.4H62.2381V113.109H48.76Z" fill="#D1FFD6"/>
<path d="M121.305 91.2644H132.087V102.028H121.305V91.2644Z" fill="#D1FFD6"/>
<path d="M92.3359 91.2644H103.118V102.028H92.3359V91.2644Z" fill="#D1FFD6"/>
<path d="M92.0625 134.078H102.845V144.841H92.0625V134.078Z" fill="#D1FFD6"/>
<path d="M113.961 134.45H124.743V145.214H113.961V134.45Z" fill="#D1FFD6"/>
<path d="M121.305 69.7368H132.087V80.5006H121.305V69.7368Z" fill="#D1FFD6"/>
<path d="M92.3359 69.7368H103.118V80.5006H92.3359V69.7368Z" fill="#D1FFD6"/>
<path d="M92.0625 112.55H102.845V123.314H92.0625V112.55Z" fill="#D1FFD6"/>
<path d="M113.844 112.928H124.626V123.692H113.844V112.928Z" fill="#D1FFD6"/>
<path d="M62.082 91.3037H72.8645V102.067H62.082V91.3037Z" fill="#D1FFD6"/>
<path d="M40.4414 91.2644H51.2239V102.028H40.4414V91.2644Z" fill="#D1FFD6"/>
<path d="M18.875 91.2644H29.6575V102.028H18.875V91.2644Z" fill="#D1FFD6"/>
<path d="M62.0078 69.7368H72.7903V80.5006H62.0078V69.7368Z" fill="#D1FFD6"/>
<path d="M40.4414 69.7368H51.2239V80.5006H40.4414V69.7368Z" fill="#D1FFD6"/>
<path d="M18.875 69.7368H29.6575V80.5006H18.875V69.7368Z" fill="#D1FFD6"/>
<path d="M62.0078 48.2095H72.7903V58.9732H62.0078V48.2095Z" fill="#D1FFD6"/>
<path d="M40.4414 48.2095H51.2239V58.9732H40.4414V48.2095Z" fill="#D1FFD6"/>
<path d="M18.875 48.2095H29.6575V58.9732H18.875V48.2095Z" fill="#D1FFD6"/>
<path d="M91.6511 21.3003V32.064H0V21.3003H91.6511Z" fill="#1A9F29"/>
<path d="M5.39453 32.064H86.2632V37.4458H5.39453V32.064Z" fill="#48B254"/>
<rect x="108.484" width="78.4748" height="105.85" fill="#A4EDAC"/>
<rect x="147.719" width="39.2374" height="105.85" fill="#D1FFD6"/>
<path d="M122.168 17.3376H172.355" stroke="#1A9F29" stroke-width="4"/>
<path d="M122.168 29.2002H172.355" stroke="#1A9F29" stroke-width="4"/>
<path d="M122.168 41.0625H172.355" stroke="#1A9F29" stroke-width="4"/>
<path d="M122.168 52.925H172.355" stroke="#1A9F29" stroke-width="4"/>
<path d="M122.168 76.6499H172.355" stroke="#1A9F29" stroke-width="4"/>
<path d="M122.168 64.7876H172.355" stroke="#1A9F29" stroke-width="4"/>
<path d="M122.168 88.5125H172.355" stroke="#1A9F29" stroke-width="4"/>
</svg>
