<svg width="260" height="66" viewBox="0 0 260 66" fill="none" xmlns="http://www.w3.org/2000/svg">
<g clip-path="url(#clip0)">
<path d="M68.0082 30.2787C69.0826 31.4597 70.3719 32.3187 71.9834 32.9629C73.595 33.6071 75.4215 33.9293 77.6777 33.9293C78.752 33.9293 79.8264 33.8219 80.6859 33.7145C81.6529 33.6071 82.4049 33.3924 83.157 33.0703C83.9091 32.8555 84.5537 32.5334 85.1983 32.3187C85.7355 31.9966 86.2727 31.7818 86.7025 31.5671L85.9504 29.9565C85.5206 30.1713 85.0909 30.386 84.6611 30.6008C84.2314 30.8155 83.8016 30.9229 83.2644 31.1376C82.7273 31.245 82.1901 31.4597 81.5454 31.4597C80.9008 31.5671 80.1487 31.5671 79.2892 31.5671C77.6777 31.5671 76.281 31.245 75.314 30.6008C74.2396 29.9565 73.4876 29.0976 72.843 28.1312C72.3058 27.0575 71.876 25.7691 71.6611 24.3733C71.4462 22.8701 71.3388 21.3669 71.3388 19.6489C71.3388 18.3605 71.4463 16.9647 71.5537 15.5689C71.6611 14.173 71.9834 12.992 72.5206 11.9182C73.0578 10.8445 73.7025 9.98557 74.6694 9.23397C75.6363 8.58975 76.9256 8.16026 78.5372 8.16026C80.0413 8.16026 81.3306 8.58975 82.4049 9.34134C83.4793 10.0929 84.1239 11.3814 84.4463 12.992H86.1653V7.73078C85.6281 7.51604 85.0909 7.3013 84.4463 7.08656C83.8016 6.87181 83.157 6.76444 82.4049 6.65707C81.6529 6.5497 81.0082 6.5497 80.2562 6.44233C79.6115 6.44233 78.9669 6.33496 78.4297 6.33496C76.0661 6.33496 74.1322 6.65707 72.4132 7.3013C70.8016 7.94552 69.4049 8.91186 68.3305 10.0929C67.2562 11.274 66.5041 12.7772 65.9669 14.4951C65.4297 16.2131 65.2148 18.2531 65.2148 20.4005C65.2148 22.4406 65.4297 24.3733 65.9669 25.9838C66.2892 27.8091 67.0413 29.2049 68.0082 30.2787Z" fill="#1A9F29"/>
<path d="M173.08 33.07C174.37 32.9626 175.659 32.5332 176.626 31.9963C177.7 31.3521 178.56 30.4931 179.097 29.312C179.741 28.131 180.064 26.5204 180.064 24.4803C180.064 22.9772 179.849 21.7961 179.419 20.7224C178.989 19.6487 178.345 18.8971 177.378 18.1455C176.411 17.5012 175.229 17.0718 173.725 16.7496C172.221 16.4275 170.394 16.3202 168.246 16.3202H165.989V9.98528C165.989 9.34106 166.097 8.91158 166.419 8.69683C166.741 8.48209 167.279 8.48209 168.138 8.48209H171.361C172.328 8.48209 173.188 8.48209 173.832 8.58946C174.477 8.69683 175.014 8.80421 175.336 9.12632C175.766 9.44843 176.089 9.87791 176.303 10.4148C176.518 10.9516 176.841 11.7032 177.055 12.6696H178.452V6.76416H160.188H158.684V7.62313C158.791 7.62313 158.898 7.7305 159.221 7.7305C159.543 7.83787 159.758 7.94524 159.865 8.05261C159.973 8.15998 160.08 8.37472 160.188 8.69683C160.188 9.01895 160.295 9.34106 160.295 9.77054V15.1391V24.9098V30.2784C160.295 30.7079 160.295 31.1373 160.188 31.3521C160.188 31.6742 160.08 31.8889 159.865 31.9963C159.758 32.1037 159.543 32.3184 159.221 32.3184C158.898 32.4258 158.791 32.4258 158.684 32.4258V33.2847H168.675C170.287 33.2847 171.684 33.2847 173.08 33.07ZM166.527 31.1373C166.312 30.9226 166.204 30.7078 166.204 30.3857C166.204 30.0636 166.097 29.6341 166.097 29.0973V17.9307H168.353C170.394 17.9307 171.898 18.4676 172.758 19.5413C173.617 20.615 174.047 22.3329 174.047 24.6951C174.047 26.3056 173.94 27.4867 173.617 28.4531C173.295 29.4194 172.973 30.0636 172.436 30.6005C171.898 31.03 171.361 31.3521 170.824 31.5668C170.179 31.6742 169.535 31.7816 168.89 31.7816C168.246 31.6742 167.708 31.6742 167.386 31.5668C167.064 31.4594 166.741 31.3521 166.527 31.1373Z" fill="#1A9F29"/>
<path d="M144.824 32.4258C144.716 32.4258 144.609 32.3184 144.286 32.3184C143.964 32.211 143.749 32.1037 143.642 31.9963C143.534 31.8889 143.427 31.6742 143.319 31.3521C143.319 31.03 143.212 30.7079 143.212 30.2784V22.8698H145.898C147.295 22.8698 148.584 22.7624 149.873 22.5477C151.162 22.3329 152.237 21.9034 153.204 21.3666C154.171 20.7224 154.923 19.9708 155.46 18.7897C155.997 17.716 156.319 16.2128 156.319 14.3875C156.319 12.6696 155.997 11.2737 155.567 10.3074C155.03 9.34106 154.278 8.48209 153.419 7.94524C152.559 7.40839 151.485 7.08627 150.303 6.9789C149.121 6.87153 147.939 6.76416 146.65 6.76416H137.625H136.121V7.62313C136.229 7.62313 136.336 7.7305 136.658 7.7305C136.981 7.83787 137.195 7.94524 137.303 8.05261C137.41 8.15998 137.518 8.37472 137.625 8.69684C137.625 9.01895 137.733 9.34106 137.733 9.77054V30.171C137.733 30.6005 137.733 31.03 137.625 31.2447C137.625 31.5668 137.518 31.7816 137.303 31.8889C137.195 31.9963 136.981 32.211 136.658 32.211C136.336 32.3184 136.229 32.3184 136.121 32.3184V33.1774H144.824V32.4258ZM143.319 9.77054C143.319 9.5558 143.319 9.34106 143.427 9.12632C143.427 8.91158 143.534 8.80421 143.642 8.69684C143.749 8.58946 143.964 8.48209 144.286 8.48209C144.609 8.48209 144.931 8.37472 145.468 8.37472C146.113 8.37472 146.757 8.48209 147.402 8.58946C148.047 8.80421 148.476 9.12632 149.014 9.5558C149.443 9.98528 149.766 10.6295 150.088 11.3811C150.303 12.1327 150.41 13.099 150.41 14.1727C150.41 16.4275 150.088 18.1455 149.443 19.3265C148.799 20.5076 147.617 21.1519 146.005 21.1519H143.319V9.77054Z" fill="#1A9F29"/>
<path d="M132.581 27.1646H130.862C130.647 28.2383 130.432 28.9899 130.217 29.6341C130.002 30.2784 129.788 30.7079 129.358 31.03C129.036 31.3521 128.498 31.5668 127.854 31.5668C127.209 31.6742 126.35 31.6742 125.168 31.6742C124.093 31.6742 123.234 31.6742 122.697 31.5668C122.052 31.4594 121.622 31.3521 121.3 31.1373C120.978 30.9226 120.763 30.6005 120.763 30.2784C120.655 29.8489 120.655 29.4194 120.655 28.7752V20.4003H124.201C124.523 20.4003 124.845 20.4003 125.275 20.4003C125.705 20.4003 126.135 20.5076 126.564 20.5076C126.994 20.5076 127.424 20.615 127.854 20.7224C128.283 20.8297 128.606 20.9371 128.928 21.1519V17.716C128.606 17.9307 128.283 18.0381 127.854 18.1455C127.424 18.2528 126.994 18.3602 126.564 18.3602C126.135 18.4676 125.705 18.4676 125.275 18.4676C124.845 18.4676 124.523 18.4676 124.201 18.4676H120.655V9.66317C120.655 9.12632 120.763 8.69684 120.87 8.48209C121.085 8.26735 121.407 8.26735 121.945 8.26735H124.845C125.812 8.26735 126.672 8.26735 127.317 8.37472C127.961 8.48209 128.498 8.58946 128.821 8.91158C129.25 9.23369 129.573 9.66317 129.788 10.2C130.002 10.7369 130.325 11.4885 130.54 12.4548H131.936V6.76416H114.961H113.457V7.62313C113.564 7.62313 113.672 7.7305 113.994 7.7305C114.317 7.83787 114.531 7.94524 114.639 8.05261C114.746 8.15998 114.854 8.37472 114.961 8.69684C114.961 9.01895 115.069 9.34106 115.069 9.77054V30.171C115.069 30.6005 115.069 31.03 114.961 31.2447C114.961 31.5668 114.854 31.7816 114.639 31.8889C114.531 31.9963 114.317 32.211 113.994 32.211C113.672 32.3184 113.564 32.3184 113.457 32.3184V33.1774H132.581V27.1646Z" fill="#1A9F29"/>
<path d="M103.352 33.07C104.641 32.9626 105.93 32.5332 106.897 31.9963C107.972 31.3521 108.831 30.4931 109.476 29.312C110.12 28.131 110.443 26.5204 110.443 24.4803C110.443 22.9772 110.228 21.7961 109.798 20.7224C109.368 19.6487 108.724 18.8971 107.757 18.1455C106.79 17.5012 105.608 17.0718 104.104 16.7496C102.6 16.4275 100.773 16.3202 98.6245 16.3202H96.3683V9.98528C96.3683 9.34106 96.4757 8.91158 96.798 8.69684C97.1203 8.48209 97.6575 8.48209 98.517 8.48209H101.74C102.707 8.48209 103.567 8.48209 104.211 8.58946C104.856 8.69683 105.393 8.80421 105.715 9.12632C106.145 9.44843 106.467 9.87791 106.682 10.4148C106.897 10.9516 107.22 11.7032 107.434 12.6696H108.831V6.76416H90.5666H89.0625V7.62313C89.1699 7.62313 89.2774 7.7305 89.5997 7.7305C89.922 7.83787 90.1369 7.94524 90.2443 8.05261C90.3518 8.15998 90.4592 8.37472 90.5666 8.69684C90.5666 9.01895 90.6741 9.34106 90.6741 9.77054V10.3074V15.0317V24.6951V28.6678C90.6741 28.6678 90.6741 28.6678 90.6741 28.7752V30.171C90.6741 30.6005 90.6741 30.9226 90.5666 31.2447C90.5666 31.5668 90.4592 31.7816 90.2443 31.8889C90.1369 31.9963 89.922 32.211 89.5997 32.211C89.2774 32.3184 89.1699 32.3184 89.0625 32.3184V33.2848H99.0542C100.666 33.2848 101.955 33.2848 103.352 33.07ZM96.798 31.1373C96.5832 30.9226 96.4757 30.7079 96.4757 30.3857C96.4757 30.0636 96.3683 29.6341 96.3683 29.0973V17.9307H98.6245C100.666 17.9307 102.17 18.4676 103.029 19.5413C103.889 20.615 104.319 22.3329 104.319 24.6951C104.319 26.3057 104.211 27.4867 103.889 28.4531C103.567 29.4194 103.244 30.0636 102.707 30.6005C102.17 31.03 101.633 31.3521 101.096 31.5668C100.451 31.6742 99.8063 31.7816 99.1617 31.7816C98.517 31.6742 98.0873 31.6742 97.6575 31.5668C97.3352 31.4594 97.0129 31.3521 96.798 31.1373Z" fill="#1A9F29"/>
<path d="M259.785 40.8008H65V43.3777H259.785V40.8008Z" fill="#1A9F29"/>
<path d="M244.209 23.2994C244.746 24.051 245.176 24.6952 245.713 25.3394C246.143 25.9836 246.68 26.6279 247.11 27.2721C247.54 27.9163 247.97 28.5605 248.507 29.2048C249.044 29.9564 249.474 30.6006 249.903 31.3522C250.333 31.9964 250.656 32.748 250.978 33.3922L260.003 33.4996C259.036 32.5333 258.176 31.5669 257.209 30.6006C256.35 29.6343 255.598 28.7753 255.06 28.2384C254.201 27.2721 253.449 26.4131 252.804 25.6615C252.052 24.8026 251.408 24.051 250.763 23.2994C250.118 22.5478 249.474 21.6888 248.936 20.9372C248.399 20.1856 247.755 19.2193 247.217 18.3603L247.647 17.8235C248.292 16.9645 249.044 16.1055 249.903 15.0318C250.763 13.9581 251.622 12.8844 252.589 11.9181C253.556 10.8444 254.416 9.87802 255.383 9.01905C256.35 8.16008 257.102 7.51586 257.854 6.979H251.622C251.408 7.51586 251.085 8.16008 250.656 8.91168C250.226 9.66328 249.796 10.5222 249.151 11.3812C248.614 12.2402 247.97 13.2065 247.432 14.1729C246.788 15.1392 246.251 15.9982 245.606 16.8571C244.961 17.7161 244.424 18.5751 243.887 19.2193C243.35 19.9709 242.92 20.5077 242.598 21.0446C243.135 21.7962 243.672 22.5478 244.209 23.2994Z" fill="#1A9F29"/>
<path d="M243.452 32.4258C243.345 32.4258 243.238 32.3184 242.915 32.3184C242.593 32.211 242.378 32.1037 242.271 31.9963C242.163 31.8889 242.056 31.6742 241.948 31.3521C241.948 31.03 241.841 30.7079 241.841 30.2784V9.87791C241.841 9.44843 241.841 9.01895 241.948 8.80421C241.948 8.48209 242.056 8.26735 242.271 8.15998C242.378 8.05261 242.593 7.94524 242.915 7.83787C243.238 7.7305 243.345 7.7305 243.452 7.7305V6.76416H236.254H234.75V7.62313C234.857 7.62313 234.965 7.7305 235.287 7.7305C235.61 7.83787 235.824 7.94524 235.932 8.05261C236.039 8.15998 236.147 8.37472 236.254 8.69684C236.254 9.01895 236.362 9.34106 236.362 9.77054V30.171C236.362 30.6005 236.362 31.03 236.254 31.2447C236.254 31.5668 236.147 31.7816 235.932 31.8889C235.824 31.9963 235.61 32.211 235.287 32.211C234.965 32.3184 234.857 32.3184 234.75 32.3184V33.1774H243.452V32.4258Z" fill="#1A9F29"/>
<path d="M185.651 30.0637C185.974 28.5605 186.618 26.4131 187.478 23.7288H195.965L197.147 27.1647C197.684 28.6678 198.114 29.9563 198.329 31.03C198.651 32.1037 198.866 32.8553 198.866 33.3922H205.635C205.312 32.8553 204.99 32.1037 204.56 31.2447C204.131 30.3858 203.593 29.0973 203.056 27.4868L196.932 10.0927C196.61 9.34111 196.502 8.69688 196.395 8.16003C196.288 7.62318 196.288 7.19369 196.18 6.87158H188.552V7.73055C188.659 7.73055 188.767 7.83792 189.089 7.83792C189.412 7.94529 189.626 8.05266 189.734 8.16003C189.841 8.2674 189.949 8.48214 190.056 8.80426C190.056 9.019 190.056 9.12637 190.056 9.34111C190.056 9.98533 189.949 10.6296 189.734 11.059L185.436 21.5814C184.684 23.5141 183.932 25.232 183.395 26.5204C182.858 27.8089 182.321 28.99 181.998 29.8489C181.569 30.7079 181.246 31.4595 180.924 31.9963C180.602 32.5332 180.387 32.9627 180.172 33.3922H185.007C185.114 32.6406 185.329 31.5669 185.651 30.0637ZM191.775 11.1664L195.321 21.9035H188.015L191.775 11.1664Z" fill="#1A9F29"/>
<path d="M215.843 32.4258H215.628C215.521 32.4258 215.413 32.3184 215.091 32.3184C214.769 32.211 214.554 32.1037 214.446 31.9963C214.339 31.8889 214.232 31.6742 214.124 31.3521C214.124 31.03 214.017 30.7079 214.017 30.2784V20.0781H224.331V30.171C224.331 30.6005 224.331 31.03 224.223 31.2447C224.223 31.5668 224.116 31.7816 223.901 31.8889C223.794 31.9963 223.579 32.211 223.256 32.211C222.934 32.3184 222.827 32.3184 222.719 32.3184V33.1774H231.422V32.3184C231.314 32.3184 231.207 32.211 230.884 32.211C230.562 32.1037 230.347 31.9963 230.24 31.8889C230.132 31.7816 230.025 31.5668 229.917 31.2447C229.917 30.9226 229.81 30.6005 229.81 30.171V24.9098V24.6951V15.0317V14.9243V9.66317C229.81 9.23369 229.81 8.80421 229.917 8.58946C229.917 8.26735 230.025 8.05261 230.24 7.94524C230.347 7.83787 230.562 7.7305 230.884 7.62313C231.207 7.51576 231.314 7.51576 231.422 7.51576V6.76416H224.223H222.934V7.62313C223.041 7.62313 223.149 7.7305 223.471 7.7305C223.794 7.83787 224.008 7.94524 224.116 8.05261C224.223 8.15998 224.331 8.37472 224.438 8.69684C224.438 9.01895 224.546 9.34106 224.546 9.77054V18.2528H214.232V9.77054C214.232 9.34106 214.232 8.91158 214.339 8.69684C214.339 8.37472 214.446 8.15998 214.661 8.05261C214.769 7.94524 214.984 7.83787 215.306 7.7305C215.628 7.62313 215.736 7.62313 215.843 7.62313V6.76416H208.645H207.141V7.62313C207.248 7.62313 207.356 7.7305 207.678 7.7305C208 7.83787 208.215 7.94524 208.322 8.05261C208.43 8.15998 208.537 8.37472 208.645 8.69684C208.645 9.01895 208.752 9.34106 208.752 9.77054V10.4148V28.7752V28.8825V30.2784C208.752 30.7079 208.752 31.03 208.645 31.3521C208.645 31.6742 208.537 31.8889 208.322 31.9963C208.215 32.1037 208 32.3184 207.678 32.3184C207.356 32.4258 207.248 32.4258 207.141 32.4258V33.2848H215.843V32.4258Z" fill="#1A9F29"/>
<path d="M47.2726 9.55606C46.7354 8.80446 46.1982 8.05287 45.661 7.30127L15.9007 24.3732L1.504 16.1057C1.18169 17.072 0.966813 17.931 0.859375 18.8973L16.0081 27.5944L47.2726 9.55606Z" fill="#1A9F29"/>
<path d="M15.9027 30.8153L0.431657 21.9035C0.324219 22.4404 0.324219 23.0846 0.324219 23.6214C0.324219 37.687 11.7126 49.1757 25.8945 49.1757C39.9688 49.1757 51.4647 37.7944 51.4647 23.6214C51.4647 19.434 50.4978 15.4613 48.6713 12.0254L15.9027 30.8153Z" fill="#1A9F29"/>
<path d="M43.6195 5.15387C42.8674 4.40227 42.1154 3.86542 41.3633 3.22119L15.9005 17.931L3.65254 10.9519C3.22279 11.7035 2.79303 12.5625 2.36328 13.4214L15.793 21.1521L43.6195 5.15387Z" fill="#1A9F29"/>
<path d="M38.7883 1.50319C37.8213 0.966337 36.8544 0.429483 35.78 0L15.904 11.4887L6.9866 6.44225C6.34197 7.08647 5.80478 7.83807 5.16016 8.58966L15.7965 14.7098L38.7883 1.50319Z" fill="#1A9F29"/>
<path d="M174.051 62.8119L176.092 52.2896H179.423C181.357 52.2896 182.216 53.2559 182.216 54.7591C182.216 56.1549 181.357 56.9065 179.745 57.4434C180.819 57.8728 181.464 58.6244 181.464 59.6981C181.464 61.6308 180.175 62.7045 177.596 62.7045H174.051V62.8119ZM175.34 61.8456H177.811C179.423 61.8456 180.39 60.9866 180.39 59.6981C180.39 58.7318 179.53 57.7655 177.919 57.7655H175.985L175.34 61.8456ZM176.307 56.9065H178.456C180.282 56.9065 181.249 56.0475 181.249 54.7591C181.249 53.6854 180.604 53.1485 179.315 53.1485H177.166L176.307 56.9065Z" fill="#1A9F29"/>
<path d="M188.77 60.8791C188.126 62.0602 187.374 62.9192 185.87 62.9192C184.151 62.9192 182.969 61.5234 182.969 59.5907C182.969 57.2285 184.473 55.1885 186.514 55.1885C188.018 55.1885 188.77 56.0474 189.2 57.3359L188.233 57.5506C187.911 56.5843 187.374 56.0474 186.514 56.0474C185.118 56.0474 183.936 57.5506 183.936 59.6981C183.936 61.2013 184.688 61.9529 185.977 61.9529C187.159 61.9529 187.589 61.3086 188.018 60.557L188.77 60.8791Z" fill="#1A9F29"/>
<path d="M191.026 59.1612C191.026 59.3759 191.026 59.5907 191.026 59.6981C191.026 61.2012 191.778 62.0602 192.959 62.0602C194.034 62.0602 194.678 61.3086 195.323 60.3423L196.183 60.7718C195.323 62.0602 194.464 62.9192 192.852 62.9192C191.133 62.9192 190.059 61.6307 190.059 59.6981C190.059 57.1212 191.563 55.1885 193.711 55.1885C195.43 55.1885 196.397 56.2622 196.397 58.1949C196.397 58.517 196.29 58.8391 196.29 59.1612H191.026ZM195.43 58.3022C195.538 58.0875 195.43 57.9801 195.43 57.8728C195.43 57.0138 194.893 56.1548 193.711 56.1548C192.315 56.1548 191.67 57.0138 191.24 58.4096H195.43V58.3022Z" fill="#1A9F29"/>
<path d="M198.869 55.4033H203.059L202.952 56.2623H199.729L198.44 62.8119H197.473L198.869 55.4033Z" fill="#1A9F29"/>
<path d="M202.199 61.9529L205.315 55.4033H206.819L207.679 61.9529H208.431L208.001 64.2077H207.249L207.356 62.8119H202.307L201.877 64.2077H201.125L201.555 61.9529H202.199ZM206.604 61.9529L206.067 56.3697H205.852L203.274 61.9529H206.604Z" fill="#1A9F29"/>
<path d="M214.553 58.4097C214.553 58.0875 214.661 57.7654 214.661 57.5507C214.661 56.6917 214.016 56.1549 213.049 56.1549C212.405 56.1549 211.868 56.477 211.438 57.0138L210.793 56.3696C211.438 55.8328 212.19 55.2959 213.264 55.2959C214.768 55.2959 215.735 56.2622 215.735 57.4433C215.735 57.6581 215.628 58.0875 215.628 58.6244L215.091 61.0939C214.876 61.9529 214.876 62.4897 214.876 62.9192H213.909C213.801 62.7045 213.801 62.3824 213.801 62.0603C213.157 62.5971 212.512 63.0266 211.653 63.0266C210.471 63.0266 209.504 62.0603 209.504 60.8792C209.504 59.376 210.901 58.4097 213.479 58.4097H214.553ZM214.339 59.1612H213.587C211.545 59.1612 210.471 59.6981 210.471 60.7718C210.471 61.5234 211.008 62.0603 211.76 62.0603C212.512 62.0603 213.157 61.6308 213.909 61.0939L214.339 59.1612Z" fill="#1A9F29"/>
<path d="M223.469 56.2622C224.114 55.618 224.758 55.1885 225.618 55.1885C227.23 55.1885 228.089 56.2622 228.089 58.3022C228.089 60.9865 226.477 62.9192 224.544 62.9192C223.577 62.9192 222.932 62.4897 222.395 61.9528L221.643 65.7108H220.676L222.717 55.2958H223.577L223.469 56.2622ZM222.61 60.9865C223.039 61.6307 223.577 62.0602 224.544 62.0602C225.94 62.0602 227.23 60.4496 227.23 58.1949C227.23 56.799 226.585 56.0474 225.51 56.0474C224.758 56.0474 224.006 56.3696 223.469 57.3359L222.61 60.9865Z" fill="#1A9F29"/>
<path d="M232.282 59.376L229.918 62.8119H228.844L231.315 59.376C230.348 59.0539 229.811 58.3023 229.811 57.4434C229.811 56.477 230.67 55.4033 232.389 55.4033H235.935L234.431 62.8119H233.464L234.108 59.376H232.282ZM234.645 56.1549H232.282C231.207 56.1549 230.67 56.7991 230.67 57.336C230.67 58.0876 231.1 58.4097 231.959 58.4097H234.108L234.645 56.1549Z" fill="#1A9F29"/>
<path d="M236.903 61.9529L240.018 55.4033H241.522L242.382 61.9529H243.134L242.704 64.2077H241.952L242.06 62.8119H237.01L236.58 64.2077H235.828L236.258 61.9529H236.903ZM241.2 61.9529L240.663 56.3697H240.448L237.869 61.9529H241.2Z" fill="#1A9F29"/>
<path d="M243.996 59.6981C243.996 57.1212 245.608 55.1885 247.542 55.1885C249.153 55.1885 250.12 56.4769 250.12 58.4096C250.12 60.8791 248.509 62.9192 246.575 62.9192C245.07 62.9192 243.996 61.7381 243.996 59.6981ZM244.963 59.9128C244.963 61.3086 245.715 62.0602 246.682 62.0602C247.971 62.0602 249.261 60.4497 249.261 58.3022C249.261 56.9064 248.508 56.0474 247.542 56.0474C246.252 56.0474 244.963 57.658 244.963 59.9128Z" fill="#1A9F29"/>
<path d="M258.71 56.2623L255.487 62.8119H254.52L253.553 56.2623L252.264 62.8119H251.297L252.801 55.4033H254.413L255.272 61.8456L258.388 55.4033H259.999L258.495 62.8119H257.528L258.71 56.2623Z" fill="#1A9F29"/>
</g>
<defs>
<clipPath id="clip0">
<rect width="260" height="65.4962" fill="white"/>
</clipPath>
</defs>
</svg>
