<svg width="184" height="160" viewBox="0 0 184 160" fill="none" xmlns="http://www.w3.org/2000/svg">
<path d="M120.987 6.20342L63.3055 0L0 6.77826V159.006L63.3535 152.235L120.953 158.43L184 151.649V0.104037L120.987 6.20342Z" fill="#5BCB68"/>
<path d="M120.986 6.20342L63.3047 0L63.3526 152.235L120.952 158.43L120.986 6.20342Z" fill="#48B254"/>
<path d="M92.8594 3.17749V155.407L120.964 158.43L120.998 6.20358L92.8594 3.17749Z" fill="#1A9F29"/>
<path opacity="0.5" d="M14.5 93.4161L63 85.4658L77.5 89.9378V37.7639L112.5 46.708L125 45.2173V134.161L154 131.18V71.5527L164.5 70.062M24.5 21.8633V136.646M14.5 37.7639L56.5 31.3043M49 77.5155C49 79.503 49 107.495 49 121.242L32 123.727V112.795L63 109.317" stroke="white" stroke-width="3" stroke-linecap="round" stroke-linejoin="round" stroke-dasharray="3 6"/>
<path fill-rule="evenodd" clip-rule="evenodd" d="M132 94.6191C132 114.634 103.5 146.087 103.5 146.087C103.5 146.087 75 114.634 75 94.6191V93.1894C75 77.3978 87.7599 64.5962 103.5 64.5962C119.24 64.5962 132 77.3978 132 93.1894V94.6191ZM103.5 108.916C94.8429 108.916 87.825 101.875 87.825 93.1894C87.825 84.504 94.8429 77.4631 103.5 77.4631C112.157 77.4631 119.175 84.504 119.175 93.1894C119.175 101.875 112.157 108.916 103.5 108.916Z" fill="#D1FFD6"/>
<path d="M75 94.6191C75 114.634 103.5 146.087 103.5 146.087V108.916C94.8429 108.916 87.825 101.875 87.825 93.1894C87.825 84.504 94.8429 77.4631 103.5 77.4631V64.5962C87.7599 64.5962 75 77.3978 75 93.1894V94.6191Z" fill="#A4EDAC"/>
<path fill-rule="evenodd" clip-rule="evenodd" d="M61.0117 42.4715C61.0117 56.8727 40.5056 79.5032 40.5056 79.5032C40.5056 79.5032 19.9995 56.8727 19.9995 42.4715V41.4428C19.9995 30.0806 29.1804 20.8696 40.5056 20.8696C51.8308 20.8696 61.0117 30.0806 61.0117 41.4428V42.4715ZM40.5056 52.758C34.2768 52.758 29.2273 47.692 29.2273 41.4428C29.2273 35.1936 34.2768 30.1276 40.5056 30.1276C46.7345 30.1276 51.784 35.1936 51.784 41.4428C51.784 47.692 46.7345 52.758 40.5056 52.758Z" fill="#D1FFD6"/>
<path d="M20.0017 42.4715C20.0017 56.8727 40.5078 79.5032 40.5078 79.5032V52.758C34.2789 52.758 29.2295 47.692 29.2295 41.4428C29.2295 35.1936 34.2789 30.1276 40.5078 30.1276V20.8696C29.1826 20.8696 20.0017 30.0806 20.0017 41.4428V42.4715Z" fill="#A4EDAC"/>
<path fill-rule="evenodd" clip-rule="evenodd" d="M159.195 24.3217C159.195 34.5734 144.598 50.6832 144.598 50.6832C144.598 50.6832 130 34.5734 130 24.3217V23.5894C130 15.501 136.536 8.94409 144.598 8.94409C152.66 8.94409 159.195 15.501 159.195 23.5894V24.3217ZM144.598 31.6443C140.164 31.6443 136.569 28.038 136.569 23.5894C136.569 19.1408 140.164 15.5345 144.598 15.5345C149.032 15.5345 152.626 19.1408 152.626 23.5894C152.626 28.038 149.032 31.6443 144.598 31.6443Z" fill="#D1FFD6"/>
<path d="M130 24.3217C130 34.5734 144.598 50.6832 144.598 50.6832V31.6443C140.164 31.6443 136.569 28.038 136.569 23.5894C136.569 19.1408 140.164 15.5345 144.598 15.5345V8.94409C136.536 8.94409 130 15.501 130 23.5894V24.3217Z" fill="#A4EDAC"/>
</svg>
