<svg width="179" height="160" viewBox="0 0 179 160" fill="none" xmlns="http://www.w3.org/2000/svg">
<path d="M113.863 148.022V82.551C113.863 57.7732 98.0347 36.6925 75.9375 28.8689L83.9743 0H29.8892L37.9259 28.8689C15.8287 36.6925 0 57.7733 0 82.551V148.022H113.863Z" fill="#5BCB68"/>
<path d="M113.865 148.022V82.551C113.865 57.7732 98.0366 36.6925 75.9394 28.8689L83.9762 0H56.9336V148.022H113.865Z" fill="#1A9F29"/>
<path d="M76.8522 76.7561V71.3679C76.8173 64.5424 71.5012 58.4699 63.5681 56.1948V49.8152H50.2841V56.1948C42.351 58.4699 37.0349 64.5424 37 71.3679V76.7561C37 85.6836 45.9211 92.9206 56.9261 92.9206C60.5942 92.9206 63.5681 95.3332 63.5681 98.3088V103.697C63.5681 106.673 60.5942 109.085 56.9261 109.085C53.258 109.085 50.2841 106.673 50.2841 103.697H37C37.0349 110.522 42.351 116.595 50.2841 118.87V125.25H63.5681V118.87C71.5012 116.595 76.8173 110.522 76.8522 103.697V98.3088C76.8522 89.3813 67.9311 82.1443 56.9261 82.1443C53.258 82.1443 50.2841 79.7317 50.2841 76.7561V71.3679C50.2841 68.3923 53.258 65.9797 56.9261 65.9797C60.5942 65.9797 63.5681 68.3923 63.5681 71.3679V76.7561H76.8522Z" fill="#D1FFD6"/>
<path d="M178.665 160V106.625C178.665 86.4257 165.761 69.2399 147.747 62.8618L154.299 39.3269H110.207L116.758 62.8618C98.744 69.2399 85.8398 86.4257 85.8398 106.625V160H178.665Z" fill="#5BCB68"/>
<path d="M178.667 160V106.625C178.667 86.4257 165.763 69.2399 147.748 62.8618L154.3 39.3269H132.254V160H178.667Z" fill="#1A9F29"/>
<path d="M148.489 101.963V97.5705C148.46 92.0062 144.127 87.0557 137.659 85.2009V80H126.83V85.2009C120.362 87.0557 116.028 92.0062 116 97.5705V101.963C116 109.241 123.273 115.141 132.244 115.141C135.235 115.141 137.659 117.108 137.659 119.534V123.926C137.659 126.352 135.235 128.319 132.244 128.319C129.254 128.319 126.83 126.352 126.83 123.926H116C116.028 129.491 120.362 134.441 126.83 136.296V141.497H137.659V136.296C144.127 134.441 148.46 129.491 148.489 123.926V119.534C148.489 112.256 141.216 106.356 132.244 106.356C129.254 106.356 126.83 104.389 126.83 101.963V97.5705C126.83 95.1447 129.254 93.1779 132.244 93.1779C135.235 93.1779 137.659 95.1447 137.659 97.5705V101.963H148.489Z" fill="#D1FFD6"/>
</svg>
